<svg width="131" height="131" viewBox="0 0 131 131" fill="none" xmlns="http://www.w3.org/2000/svg">
<rect x="1.41109" y="1.41091" width="127.922" height="127.922" rx="17.4012" fill="#F8FCE1" stroke="#482C1C" stroke-width="2.82182"/>
<path d="M95.4082 74.3593C95.1844 75.5013 94.9662 76.6146 94.7379 77.7786C94.8053 77.8891 94.8978 78.0463 94.9949 78.2015C95.9382 79.7125 96.6004 81.337 96.9363 83.0866C97.1934 84.404 97.2653 85.7507 97.15 87.0879C96.884 90.101 95.818 92.8278 94.2014 95.3567C92.7537 97.621 90.9535 99.575 88.8903 101.289C88.2125 101.852 87.499 102.373 86.7965 102.906C86.2258 103.339 85.6575 103.778 85.0702 104.187C83.4948 105.287 81.7841 106.133 80.0031 106.841C77.8303 107.706 75.5911 108.347 73.3057 108.839C71.6144 109.203 69.9108 109.482 68.1947 109.677C67.1388 109.799 66.0702 109.858 65.0077 109.945C63.0245 110.107 61.0352 110.037 59.052 110.029C58.5758 110.029 58.0966 109.959 57.6244 109.906C54.8804 109.597 52.1681 109.121 49.5136 108.349C46.9279 107.596 44.4384 106.611 42.0961 105.274C39.8941 104.018 37.8928 102.504 36.1892 100.616C34.0647 98.2628 32.6059 95.5641 31.9537 92.4486C31.5746 90.6348 31.5147 88.8069 31.7204 86.9689C31.9799 84.6479 32.6512 82.4438 33.6312 80.3297C33.6431 80.295 33.6579 80.2614 33.6755 80.2292C33.867 79.947 33.8691 79.6517 33.7655 79.3359C33.4944 78.5103 33.4135 77.6496 33.3054 76.7939C33.2918 76.6849 33.2782 76.5759 33.2551 76.4685C33.2485 76.4378 33.2113 76.4137 33.1671 76.3625C33.0112 76.4258 32.8448 76.4906 32.6803 76.5604C31.7179 76.9686 30.7167 77.163 29.6693 77.1047C28.1175 77.0168 26.8428 76.362 25.8215 75.209C25.0245 74.3086 24.5488 73.2425 24.2692 72.0825C23.9243 70.6518 23.9137 69.2101 24.1325 67.7613C24.5126 65.2414 25.4786 62.966 27.0017 60.9262C27.8666 59.7677 28.8844 58.7669 30.1053 57.9825C30.1661 57.9433 30.2214 57.8951 30.3064 57.8318C30.2355 57.7203 30.1721 57.6144 30.1053 57.5124C28.9653 55.8111 28.1583 53.9771 27.8983 51.9313C27.4779 48.622 28.4514 45.7274 30.5538 43.1824C31.8496 41.6146 33.4547 40.433 35.2494 39.4955C35.4279 39.4016 35.6069 39.3077 35.7849 39.2132C35.801 39.2014 35.8159 39.188 35.8291 39.1731C35.9187 38.9807 35.8649 38.7774 35.8588 38.579C35.7929 36.3649 36.1816 34.2332 36.9837 32.1688C37.7533 30.197 38.8232 28.3558 40.1556 26.7101C43.3135 22.7852 47.1954 19.7997 51.8518 17.8438C53.9889 16.9423 56.2475 16.3608 58.5547 16.1183C60.2438 15.9405 61.9318 15.9581 63.6214 16.1078C66.3619 16.3503 69.03 16.9579 71.6568 17.7443C73.9971 18.4474 76.3212 19.2006 78.6529 19.9323C80.6522 20.559 82.6671 21.1285 84.7147 21.5784C85.6149 21.7686 86.5355 21.8441 87.4547 21.8029C88.5962 21.7617 89.7266 21.6342 90.8399 21.365C91.0739 21.3154 91.3143 21.3023 91.5524 21.3263C92.463 21.3976 92.9553 22.1645 92.6285 23.0157C92.4856 23.3936 92.3107 23.7587 92.1055 24.1069C90.778 26.33 89.4942 28.5807 88.041 30.7275C88.0137 30.7729 87.9892 30.8198 87.9676 30.8681C87.9978 31.0188 88.127 31.0067 88.2271 31.0344C89.8251 31.4706 91.3579 32.117 92.7854 32.9567C95.2317 34.409 97.2225 36.3252 98.7345 38.7412C99.885 40.5792 100.56 42.5808 100.839 44.7171C101.121 46.8638 100.866 48.9654 100.231 51.0284C99.9515 51.9417 99.5968 52.8304 99.1705 53.6854C99.0805 53.8641 98.9935 54.0449 98.8929 54.2498C99.0051 54.3503 99.1076 54.4507 99.2208 54.5366C101.577 56.3534 103.394 58.6087 104.705 61.2727C105.386 62.6392 105.861 64.0985 106.116 65.6034C106.373 67.1602 106.368 68.7124 105.932 70.244C105.603 71.3945 105.052 72.4194 104.204 73.2746C103.186 74.3041 101.942 74.8861 100.52 75.1066C99.0091 75.3411 97.5533 75.0945 96.1278 74.6079C95.8849 74.5266 95.646 74.4417 95.4082 74.3593ZM40.2346 64.2862C40.1828 64.3356 40.1341 64.3881 40.0887 64.4434C38.5219 66.7343 37.307 69.1935 36.5502 71.8686C36.1077 73.4323 35.8633 75.0232 35.9368 76.6548C35.977 77.5431 36.1263 78.4063 36.4859 79.2239C36.7006 79.7135 36.6639 80.171 36.4175 80.648C35.1895 83.0243 34.4091 85.5277 34.2623 88.2148C34.1998 89.3339 34.2681 90.4565 34.4659 91.5598C34.8964 93.9581 35.9141 96.0934 37.4217 98.0012C38.8271 99.7803 40.5393 101.215 42.4501 102.42C44.6727 103.819 47.0672 104.838 49.5689 105.619C51.4128 106.187 53.2948 106.623 55.2007 106.925C56.0712 107.066 56.9466 107.176 57.8231 107.276C58.7553 107.38 59.6932 107.397 60.631 107.412C62.3969 107.44 64.1614 107.399 65.9214 107.258C67.589 107.132 69.2492 106.922 70.8955 106.628C72.6122 106.314 74.3149 105.965 75.9743 105.4C78.575 104.514 81.0716 103.412 83.4199 101.985C85.8205 100.524 87.9998 98.7911 89.8794 96.696C91.0998 95.3356 92.1468 93.8552 92.9659 92.2181C93.8383 90.4751 94.4055 88.6426 94.5368 86.6942C94.7097 84.1246 94.1094 81.7403 92.729 79.5588C92.5918 79.3414 92.45 79.1265 92.3006 78.9176C92.0769 78.6057 91.9617 78.2647 92.014 77.8821C92.0557 77.5737 92.0929 77.2614 92.1774 76.9636C92.6114 75.4355 92.8085 73.8727 92.8769 72.2934C92.9216 71.1 92.8607 69.9051 92.6949 68.7224C92.5249 67.462 92.2373 66.2317 91.7616 65.0511C91.4518 64.2822 91.0707 63.5496 90.513 62.9233C90.4262 62.8349 90.3347 62.7511 90.239 62.6723C90.0494 62.7662 89.8809 62.8395 89.7215 62.9294C88.4539 63.647 87.1007 64.1702 85.7294 64.6438C84.2662 65.149 82.7516 65.4473 81.2149 65.6281C80.3601 65.7285 79.4967 65.8023 78.6378 65.8917C76.8255 66.0875 74.9945 66.0254 73.1996 65.7074C70.9604 65.3057 68.8329 64.5524 66.8069 63.526C64.8398 62.5286 63.1029 61.2104 61.5341 59.6657C61.3802 59.5151 61.2469 59.3353 61.0252 59.2138C60.9322 59.3087 60.8437 59.3976 60.7572 59.4875C60.4384 59.8179 60.1331 60.1624 59.8018 60.4778C58.3435 61.8577 56.657 62.8882 54.802 63.6465C52.8142 64.4595 50.7465 64.9305 48.6054 65.1103C46.3488 65.2993 44.0765 65.153 41.8628 64.6764C41.3262 64.5544 40.7922 64.4183 40.2346 64.2862ZM88.8094 24.4514C88.7294 24.4097 88.7128 24.3936 88.6967 24.3941C88.4398 24.4016 88.1823 24.4082 87.9254 24.4217C86.4179 24.4986 84.9072 24.3546 83.4415 23.9944C81.0279 23.4083 78.6514 22.7093 76.2921 21.943C74.1253 21.24 71.96 20.5314 69.7596 19.9378C67.0558 19.2087 64.3198 18.6714 61.5064 18.6211C60.3845 18.5951 59.2624 18.6596 58.1509 18.814C55.5045 19.1951 53.0114 20.0453 50.6585 21.3118C47.6148 22.9514 44.9658 25.0781 42.7413 27.729C41.0904 29.6961 39.8353 31.8725 39.1318 34.3532C38.7034 35.8754 38.5001 37.452 38.5284 39.033C38.5314 39.2529 38.5576 39.4724 38.5717 39.6923C38.6129 40.3155 38.3776 40.8051 37.8466 41.1386C37.6432 41.2636 37.4313 41.3744 37.2125 41.47C36.44 41.8129 35.6996 42.2236 35 42.6973C33.7383 43.551 32.6532 44.5865 31.8285 45.8746C30.6634 47.6944 30.2038 49.6705 30.5407 51.8173C30.7336 53.0171 31.1587 54.168 31.7923 55.2054C32.8533 56.9721 34.303 58.3626 36.0192 59.4814C38.9548 61.3947 42.2042 62.3368 45.6844 62.5261C47.0259 62.6005 48.3714 62.5344 49.6991 62.3288C51.4173 62.0621 53.0722 61.5911 54.6391 60.8333C56.6092 59.8792 58.2927 58.578 59.5403 56.7557C59.629 56.6166 59.73 56.4857 59.842 56.3645C59.9918 56.2037 60.1592 56.06 60.3408 55.9361C60.6883 55.7167 61.0735 55.681 61.4471 55.8588C61.6241 55.9426 61.7805 56.0848 61.9238 56.2239C62.3321 56.6206 62.7147 57.0434 63.1306 57.4291C66.9678 60.9895 71.5533 62.7697 76.7406 63.0886C79.5923 63.2541 82.4504 62.903 85.1768 62.0521C86.8034 61.5234 88.3612 60.8034 89.8176 59.9073C92.2222 58.4374 94.2481 56.5789 95.8115 54.2327C97.2013 52.1447 98.0517 49.8638 98.2352 47.353C98.3521 45.7184 98.1357 44.0772 97.5991 42.5286C96.8021 40.1814 95.3303 38.2953 93.4939 36.6923C91.5328 34.9789 89.2162 33.9304 86.6763 33.3725C86.5174 33.3373 86.3525 33.3298 86.181 33.3087C86.0764 33.4322 85.9799 33.5417 85.8899 33.6537C85.111 34.6078 84.3542 35.5785 83.5501 36.51C81.2873 39.1279 78.7107 41.3877 75.7711 43.2181C71.2812 46.0132 66.4383 47.9385 61.2429 48.9559C60.4147 49.1181 59.573 49.2527 58.7322 49.2969C57.1654 49.3802 55.6106 49.2135 54.0809 48.8575C53.1089 48.6315 52.1832 48.285 51.3384 47.7401C50.5464 47.2289 49.8138 46.6454 49.1847 45.9444C47.0858 43.6042 46.3899 40.9146 47.2327 37.8694C47.6148 36.4885 48.3128 35.2621 49.2119 34.1493C50.1994 32.935 51.376 31.8872 52.6966 31.0459C55.9505 28.9493 59.5393 27.9616 63.3876 27.8526C64.6784 27.8164 65.9591 27.946 67.2278 28.176C68.3677 28.3813 69.481 28.7138 70.5466 29.1673C70.768 29.2567 70.9794 29.3693 71.1771 29.5032C71.4119 29.6696 71.5833 29.9105 71.6632 30.1867C71.7431 30.4629 71.7269 30.758 71.6171 31.0238C71.3848 31.6028 70.8211 31.9277 70.2011 31.8228C70.0031 31.7844 69.8103 31.7227 69.6269 31.639C68.3521 31.0866 67.0176 30.7622 65.6423 30.5955C64.1544 30.4152 62.67 30.4644 61.1881 30.6718C59.055 30.9731 57.0351 31.6134 55.1429 32.6448C53.8099 33.372 52.6061 34.2699 51.5933 35.4068C50.8164 36.2806 50.1989 37.2508 49.8334 38.3696C49.5365 39.2428 49.453 40.1743 49.59 41.0864C49.7595 42.1881 50.2387 43.1453 50.9638 43.9834C51.6678 44.8009 52.5271 45.4221 53.4735 45.9353C54.3313 46.4003 55.2455 46.6328 56.214 46.6811C57.2055 46.7283 58.1993 46.6965 59.1858 46.5861C60.629 46.4228 62.0567 46.1436 63.4549 45.751C66.7365 44.8481 69.897 43.5528 72.8677 41.8933C74.7783 40.8246 76.5738 39.5625 78.226 38.127C79.9543 36.6291 81.4844 34.9458 82.9236 33.1736C85.0712 30.5282 86.9544 27.7039 88.656 24.7547C88.7103 24.6603 88.7546 24.5618 88.8104 24.4514H88.8094ZM92.6084 61.2692C92.6737 61.3656 92.73 61.4585 92.7964 61.5439C93.43 62.3649 93.8956 63.2774 94.2718 64.2385C94.9526 65.9791 95.2961 67.7934 95.4469 69.6489C95.4706 69.9412 95.4887 70.2345 95.5047 70.5278C95.5213 70.8376 95.5324 71.1479 95.5455 71.4593C95.9578 71.742 96.4063 71.9047 96.8529 72.0709C97.7379 72.4014 98.65 72.5977 99.6009 72.5565C101.387 72.4792 102.655 71.5411 103.258 69.9407C103.467 69.3717 103.59 68.7745 103.622 68.169C103.711 66.7735 103.479 65.4232 103.025 64.1115C102.041 61.2662 100.351 58.9055 98.0527 56.9711C97.8732 56.8204 97.6977 56.6557 97.4493 56.5508C96.9585 57.1242 96.4938 57.7113 95.9794 58.2582C95.465 58.805 94.9235 59.3298 94.3593 59.83C93.7951 60.3301 93.2027 60.7841 92.6094 61.2692H92.6084ZM37.6318 63.3537C37.1104 63.0951 36.6287 62.8711 36.1615 62.6195C35.6944 62.3679 35.2298 62.1013 34.7817 61.8161C34.3186 61.5183 33.8675 61.1989 33.4286 60.8669C33.0057 60.5471 32.6049 60.1986 32.2087 59.8742C31.9678 59.9023 31.8064 60.0318 31.6369 60.1358C30.765 60.6701 30.0319 61.3621 29.3907 62.151C28.1082 63.7253 27.2311 65.5892 26.8363 67.58C26.5818 68.8309 26.529 70.0909 26.8081 71.3528C26.9685 72.078 27.2325 72.7589 27.6971 73.348C28.1618 73.937 28.7471 74.3242 29.4898 74.4377C29.9821 74.5121 30.4844 74.4865 30.9666 74.3624C31.8783 74.1324 32.6562 73.6593 33.3858 73.0878C33.533 72.9755 33.6306 72.8103 33.6579 72.6273C33.7021 72.3763 33.7655 72.1252 33.8273 71.8741C34.5243 69.0494 35.707 66.4335 37.2467 63.9719L37.6318 63.3537Z" fill="#482C1C"/>
<path d="M59.3281 90.4334C58.4833 90.4515 57.633 90.3174 56.7988 90.0768C56.1596 89.9007 55.5572 89.6115 55.0202 89.2231C54.8109 89.0745 54.6221 88.8991 54.4585 88.7014C54.0693 88.2088 54.096 87.5504 54.4947 87.0774C54.6812 86.8593 54.9343 86.7086 55.215 86.6485C55.4958 86.5884 55.7885 86.6223 56.048 86.7449C56.1492 86.7889 56.2441 86.8462 56.3301 86.9152C56.927 87.4259 57.6491 87.6343 58.4013 87.7382C59.2622 87.8567 60.1246 87.8422 60.9729 87.6182C61.438 87.4957 61.878 87.3169 62.2657 87.0236C62.5674 86.7946 62.9154 86.6887 63.3021 86.7494C64.2575 86.9001 64.7306 87.9938 64.1614 88.7767C64.0144 88.9641 63.84 89.1283 63.644 89.2638C63.121 89.649 62.5307 89.9031 61.9107 90.0874C61.088 90.3299 60.3096 90.4344 59.3281 90.4334Z" fill="#482C1C"/>
<path d="M72.9984 78.1447C74.4019 78.1778 75.7399 78.4505 76.9915 79.0923C77.4544 79.3207 77.8748 79.6264 78.2345 79.9962C78.5709 80.3523 78.7163 80.7706 78.5865 81.2612C78.5402 81.4489 78.4521 81.6237 78.3289 81.7728C78.2056 81.9218 78.0504 82.0412 77.8746 82.1222C77.6988 82.2031 77.5071 82.2435 77.3135 82.2403C77.12 82.2372 76.9297 82.1905 76.7567 82.1038C76.6248 82.039 76.5027 81.9562 76.3936 81.8578C75.9888 81.4912 75.5086 81.2662 74.9972 81.1045C73.9575 80.7796 72.8531 80.7178 71.7835 80.9247C71.3663 80.9994 70.9671 81.1528 70.6074 81.3767C70.4382 81.4858 70.255 81.5716 70.0628 81.6318C69.8048 81.7059 69.5299 81.6962 69.2778 81.604C69.0257 81.5119 68.8095 81.342 68.6604 81.1191C68.332 80.639 68.3426 80.0274 68.7177 79.5839C68.8746 79.4047 69.0564 79.2489 69.2578 79.1214C69.9296 78.683 70.6763 78.4269 71.4642 78.3069C71.9731 78.2271 72.4875 78.1964 72.9984 78.1447Z" fill="#482C1C"/>
<path d="M47.7591 76.4614C48.8966 76.4905 49.9933 76.6834 51.0503 77.0942C51.6537 77.3287 52.2174 77.6355 52.7096 78.0583C52.8803 78.1981 53.0324 78.3591 53.1622 78.5374C53.3269 78.773 53.4067 79.0576 53.3884 79.3444C53.3702 79.6312 53.2549 79.9033 53.0616 80.1162C52.8654 80.339 52.5986 80.4879 52.3057 80.5379C52.0129 80.5879 51.7117 80.536 51.4525 80.3909C51.3398 80.3294 51.2345 80.2551 51.1388 80.1695C50.7631 79.8295 50.3191 79.6171 49.8459 79.4549C48.797 79.0983 47.7214 79.0531 46.6353 79.2199C46.1595 79.2844 45.7054 79.4588 45.3088 79.7291C45.0694 79.9041 44.7793 79.9963 44.4826 79.9917C43.9581 79.9827 43.5604 79.7517 43.3261 79.2821C43.0832 78.7935 43.1405 78.32 43.4739 77.8876C43.6685 77.6365 43.9335 77.4663 44.2065 77.3131C44.7815 76.982 45.4119 76.758 46.0671 76.6517C46.6262 76.5649 47.1944 76.5227 47.7591 76.4614Z" fill="#482C1C"/>
</svg>
