<svg width="129" height="131" viewBox="0 0 129 131" fill="none" xmlns="http://www.w3.org/2000/svg">
<path d="M111.825 58.6309C111.798 58.3487 111.866 58.0922 112.194 58.0604C112.31 58.0492 112.407 58.0921 112.49 58.1712C112.908 58.5841 113.101 58.6002 113.569 58.8687C113.71 58.948 113.818 59.0945 113.833 59.2558C113.875 59.6876 113.381 59.8635 113.041 59.8964C112.24 59.974 111.224 60.0435 110.422 60.1039C110.226 60.1171 110.02 60.0906 109.847 59.9911C109.675 59.8915 109.542 59.7242 109.523 59.5227C109.453 58.7971 110.36 58.744 110.849 58.6965C111.074 58.6747 111.516 58.6726 111.734 58.6514C111.763 58.6486 111.797 58.6395 111.825 58.6309ZM114.031 62.4027C114.072 63.6864 113.521 64.1616 112.277 64.202C111.208 64.2368 109.734 63.7752 109.692 62.4916C109.653 61.2715 110.696 60.5951 111.812 60.5588C112.951 60.5218 113.991 61.1884 114.031 62.4027ZM112.252 63.4156C112.645 63.4028 112.983 63.305 112.97 62.8771C112.946 62.1486 112.277 61.7072 111.589 61.7295C111.08 61.7461 110.682 61.9616 110.701 62.5283C110.723 63.2279 111.697 63.4336 112.252 63.4156ZM113.99 66.7602C113.928 68.0431 113.34 68.472 112.097 68.4117C111.028 68.3597 109.597 67.7804 109.659 66.4976C109.718 65.2783 110.813 64.6885 111.928 64.7427C113.066 64.798 114.049 65.5467 113.99 66.7602ZM112.135 67.6258C112.528 67.6449 112.873 67.5748 112.894 67.1471C112.93 66.419 112.299 65.925 111.611 65.8916C111.103 65.8669 110.689 66.0495 110.661 66.6158C110.627 67.315 111.581 67.5988 112.135 67.6258ZM113.195 72.3991C113.174 72.5539 113.053 72.6718 112.904 72.6516C112.852 72.6446 112.804 72.6147 112.762 72.5798C112.365 72.1932 111.959 71.8288 111.54 71.4685C111.221 71.1976 110.866 70.9743 110.515 70.7633C110.212 70.5822 109.837 70.4205 109.573 70.1745C109.495 70.0998 109.451 70.0003 109.466 69.8856C109.492 69.6964 109.662 69.6027 109.828 69.6253C110.459 69.7107 113.276 71.7971 113.195 72.3991ZM112.473 70.7892C112.02 70.7279 111.627 70.3535 111.699 69.8261C111.76 69.3732 112.236 69.0931 112.631 69.1467C113.594 69.2772 113.522 70.9313 112.473 70.7892ZM112.235 69.9629C112.18 70.3642 112.621 70.2604 112.659 70.0613C112.699 69.8564 112.272 69.6877 112.235 69.9629ZM110.206 71.0601C110.453 71.0935 110.685 71.271 110.826 71.4827C110.904 71.5983 110.903 71.8201 110.884 71.9634C110.838 72.3017 110.368 72.5824 110.07 72.5421C109.708 72.4931 109.321 72.1196 109.377 71.7068C109.438 71.2539 109.799 71.005 110.206 71.0601ZM110.099 71.5886C110.002 71.5754 109.886 71.6123 109.87 71.7327C109.857 71.8301 109.977 71.934 110.057 71.9449C110.223 71.9674 110.369 71.6251 110.099 71.5886ZM108.224 76.3725C108.332 75.9642 108.558 75.5869 108.869 75.2922C109.372 74.8149 109.965 74.8818 110.591 75.0474C111.844 75.3786 112.356 76.2499 112.025 77.5028C111.386 79.9191 107.608 78.7049 108.224 76.3725ZM110.879 77.2418C111.07 76.5203 110.835 76.141 110.119 75.9518C109.559 75.8039 109.364 76.1353 109.234 76.6275C108.956 77.679 110.586 78.3493 110.879 77.2418ZM110.136 80.84C110.126 81.0814 110.128 81.4675 110.053 81.6863C109.946 81.9982 109.584 82.3022 109.24 82.1837C108.676 81.99 108.934 81.4545 109.063 81.077C109.25 80.5353 108.827 80.5003 108.426 80.3867C108.236 80.3337 108.046 80.2807 107.86 80.2168C107.543 80.1077 107.248 79.7372 107.367 79.3925C107.585 78.7578 108.332 79.0576 108.759 79.2043C109.23 79.366 110.869 79.7766 110.619 80.5042C110.513 80.8106 110.322 80.7082 110.136 80.84ZM106.462 84.6595C106.56 84.2544 106.627 83.8175 106.79 83.4343C107.122 82.6574 107.973 82.4167 108.718 82.7346C109.638 83.1273 109.822 84.2308 109.463 85.0716C109.379 85.2685 109.265 85.4464 109.124 85.6001C109.28 85.767 109.423 85.9605 109.321 86.1999C109.196 86.4926 108.9 86.5235 108.634 86.41C108.272 86.2556 107.939 86.0191 107.567 85.8602C107.104 85.6627 106.62 85.5002 106.151 85.3004C105.539 85.0393 104.925 84.7835 104.905 84.0201C104.897 83.7147 104.927 83.407 105.05 83.1197C105.216 82.7312 105.862 81.9378 106.352 82.1467C106.565 82.2375 106.669 82.4956 106.575 82.7138C106.432 83.049 106.081 83.2828 105.927 83.6447C105.666 84.2566 105.909 84.4234 106.462 84.6595ZM108.073 85.2334C108.137 85.1285 108.197 85.0159 108.247 84.8989C108.374 84.6009 108.524 83.8531 108.135 83.6874C107.96 83.6125 107.774 83.634 107.692 83.8256C107.54 84.1821 107.483 84.6548 107.39 85.0363C107.619 85.1027 107.839 85.1776 108.073 85.2334ZM105.092 88.2737C105.359 88.5 105.93 88.868 105.71 89.2821C105.632 89.4304 105.48 89.507 105.315 89.4979C104.899 89.4674 104.492 89.2456 103.97 89.2177C103.844 89.2095 103.717 89.1884 103.6 89.1261C103.313 88.9744 103.156 88.642 103.316 88.3404C103.5 87.9928 103.795 87.992 104.129 87.9662C104.226 87.5001 104.112 87.1713 104.361 86.701C104.757 85.9546 105.596 85.7053 106.337 86.0981C107.329 86.6236 107.767 87.7727 107.226 88.7951C107.044 89.1377 106.575 89.8124 106.115 89.5686C105.354 89.165 106.99 87.832 105.645 87.1196C105.446 87.0139 105.298 87.0337 105.189 87.2382C105.089 87.4273 105.098 88.0409 105.092 88.2737ZM104.97 91.6928C104.943 91.9788 104.97 92.1405 104.803 92.3981C104.066 93.5404 102.965 92.6852 102.105 92.1298C101.843 91.9604 101.488 91.635 101.708 91.2948C101.896 91.0031 102.224 90.9742 102.593 91.171C103.146 91.4661 103.998 92.1741 104.158 91.9262C104.299 91.7075 104.003 91.2272 103.814 91.1048C103.566 90.9448 103.272 90.8448 103.024 90.6848C102.713 90.484 102.339 90.1669 102.603 89.7586C102.961 89.2045 103.687 89.7426 104.062 89.9843C104.349 90.1694 105.379 90.8346 105.514 91.0733C105.588 91.2038 105.591 91.3707 105.506 91.5019C105.371 91.7109 105.181 91.6848 104.97 91.6928ZM100.74 93.2844C100.528 93.1332 100.4 92.8931 100.572 92.6529C100.864 92.2432 101.64 92.5696 101.956 92.7947C102.262 93.0131 102.856 93.5151 102.561 93.9296C102.366 94.2028 102.102 94.1639 101.843 94.0289C101.62 93.9127 101.398 93.7258 100.74 93.2844ZM103.06 94.9038C102.857 94.7593 102.796 94.4668 102.944 94.2596C103.091 94.0523 103.393 94.0185 103.595 94.163C103.788 94.3008 103.84 94.5866 103.699 94.7844C103.548 94.9963 103.276 95.0584 103.06 94.9038ZM101.596 97.6763C101.324 98.0139 100.694 98.3156 100.302 97.9994C100.086 97.825 100.063 97.4201 100.234 97.2085C100.38 97.0285 100.654 97.0198 100.807 96.8307C101.108 96.4571 100.843 95.6996 100.501 95.4234C100.203 95.1835 99.8361 95.2885 99.6108 95.5676C99.4182 95.8062 99.3246 96.1247 99.1283 96.3678C98.9321 96.6109 98.5937 96.7169 98.3326 96.5061C97.8509 96.1173 98.446 95.1775 98.7331 94.8219C99.4055 93.9891 100.6 93.8454 101.432 94.5177C102.495 95.3754 102.392 96.6905 101.596 97.6763ZM97.4578 102.103C97.1473 102.406 96.4858 102.631 96.1343 102.271C95.9404 102.072 95.9658 101.667 96.1604 101.477C96.326 101.316 96.5998 101.34 96.7738 101.17C97.1175 100.834 96.943 100.051 96.6359 99.7362C96.3692 99.4629 95.9921 99.5238 95.7354 99.7743C95.5159 99.9884 95.3853 100.294 95.1617 100.512C94.9381 100.73 94.5895 100.795 94.3552 100.555C93.9229 100.112 94.6249 99.2492 94.952 98.93C95.7181 98.1826 96.9209 98.181 97.6684 98.947C98.6219 99.9243 98.3647 101.218 97.4578 102.103ZM92.1443 101.632C92.4708 101.364 92.8744 101.19 93.2993 101.133C93.9867 101.041 94.4281 101.442 94.839 101.943C95.661 102.945 95.5659 103.951 94.564 104.773C92.6317 106.358 90.2791 103.162 92.1443 101.632ZM93.7877 103.89C94.3647 103.417 94.3963 102.972 93.9266 102.4C93.5597 101.952 93.2073 102.107 92.8137 102.43C91.9729 103.119 92.9021 104.617 93.7877 103.89ZM90.776 104.931C91.0428 104.84 91.3388 104.657 91.5516 104.968C91.7545 105.263 91.4577 105.516 91.2808 105.729C91.492 106.159 91.9855 106.95 91.4607 107.31C90.9169 107.683 90.5241 106.865 90.2786 106.507C90.2211 106.526 90.1668 106.549 90.1191 106.582C89.7995 106.801 89.174 107.434 88.8009 106.89C88.4245 106.341 89.2894 105.853 89.6568 105.601C89.6419 105.569 89.6303 105.542 89.6107 105.513C89.2801 105.031 89.0041 105.396 88.6749 105.622C88.341 105.851 87.9705 105.986 87.6923 105.581C87.3257 105.046 87.9465 104.662 88.3186 104.407C89.3586 103.694 90.0564 104.036 90.776 104.931ZM87.3373 107.197C87.611 107.129 87.9218 106.973 88.1068 107.301C88.2832 107.613 87.9656 107.839 87.7708 108.035C87.9437 108.482 88.3665 109.313 87.8124 109.626C87.2381 109.951 86.918 109.102 86.7046 108.724C86.6457 108.737 86.5896 108.755 86.5393 108.784C86.2017 108.975 85.5236 109.55 85.1992 108.976C84.872 108.397 85.7761 107.986 86.164 107.767C86.152 107.734 86.1428 107.706 86.1257 107.675C85.8384 107.167 85.5317 107.506 85.1841 107.702C84.8315 107.901 84.4506 108.003 84.2088 107.575C83.8901 107.011 84.5419 106.683 84.9348 106.461C86.033 105.841 86.6984 106.242 87.3373 107.197ZM81.7791 108.101C82.1636 107.926 82.5984 107.862 83.0236 107.917C83.7116 108.005 84.0345 108.507 84.3023 109.097C84.8379 110.277 84.4865 111.224 83.3064 111.76C81.0306 112.793 79.5822 109.098 81.7791 108.101ZM82.7841 110.707C83.4637 110.399 83.609 109.977 83.3029 109.303C83.0638 108.776 82.6836 108.834 82.22 109.044C81.2296 109.494 81.741 111.181 82.7841 110.707ZM79.6647 112.322C79.4694 112.533 79.3918 112.677 79.1029 112.78C77.8218 113.235 77.4712 111.886 77.1282 110.921C77.0235 110.627 76.9409 110.153 77.3225 110.017C77.6496 109.901 77.9276 110.078 78.0998 110.459C78.3582 111.03 78.601 112.111 78.879 112.012C79.1243 111.925 79.1827 111.364 79.1072 111.151C79.0083 110.873 78.8367 110.615 78.7378 110.337C78.6138 109.988 78.511 109.509 78.9689 109.346C79.5903 109.125 79.8381 109.995 79.9874 110.414C80.1017 110.736 80.5126 111.892 80.474 112.163C80.4532 112.312 80.3534 112.446 80.2062 112.498C79.9718 112.581 79.8373 112.445 79.6647 112.322ZM72.8069 112.493C72.9252 112.466 73.0653 112.481 73.1893 112.452C73.5894 112.359 73.945 112.151 74.3395 112.06C74.5987 111.999 74.9208 111.954 75.0007 112.298C75.0361 112.45 74.9466 112.602 74.8245 112.689C74.6058 112.847 73.4248 113.235 73.1318 113.303C72.85 113.368 72.4173 113.398 72.3334 113.037C72.2626 112.733 72.5533 112.552 72.8069 112.493ZM69.5466 114.056C69.8277 114.019 70.0864 114.079 70.1291 114.406C70.1441 114.52 70.1045 114.619 70.0282 114.705C69.6295 115.136 69.6198 115.33 69.367 115.806C69.2925 115.95 69.1496 116.062 68.989 116.083C68.5587 116.139 68.3665 115.651 68.3223 115.313C68.218 114.515 68.1147 113.502 68.0277 112.702C68.0079 112.506 68.0275 112.3 68.1213 112.124C68.215 111.948 68.3778 111.81 68.5786 111.784C69.3014 111.69 69.3848 112.595 69.4485 113.082C69.4778 113.306 69.4946 113.747 69.5231 113.965C69.5269 113.994 69.5371 114.028 69.5466 114.056ZM65.8253 116.375C64.5433 116.452 64.053 115.914 63.9784 114.672C63.9142 113.604 64.3349 112.118 65.617 112.041C66.8355 111.968 67.5404 112.992 67.6074 114.106C67.6757 115.244 67.0381 116.302 65.8253 116.375ZM64.7638 114.625C64.7874 115.018 64.8945 115.353 65.3218 115.327C66.0495 115.284 66.4723 114.603 66.431 113.916C66.4004 113.408 66.174 113.016 65.6081 113.05C64.9093 113.092 64.7305 114.07 64.7638 114.625ZM61.4328 116.437C60.149 116.399 59.7087 115.819 59.7452 114.576C59.7766 113.506 60.3282 112.063 61.612 112.101C62.8322 112.137 63.4429 113.22 63.4102 114.336C63.3768 115.475 62.6472 116.472 61.4328 116.437ZM60.5317 114.599C60.5202 114.992 60.5969 115.336 61.0248 115.348C61.7535 115.37 62.2353 114.73 62.2555 114.041C62.2704 113.533 62.0799 113.122 61.5131 113.105C60.8134 113.085 60.548 114.043 60.5317 114.599ZM55.7372 115.706C55.5822 115.686 55.4634 115.566 55.4824 115.417C55.489 115.365 55.5185 115.316 55.5531 115.274C55.9365 114.874 56.2978 114.465 56.6547 114.044C56.9232 113.722 57.1437 113.366 57.3519 113.013C57.5306 112.709 57.6894 112.333 57.9333 112.066C58.0074 111.988 58.1066 111.943 58.2214 111.957C58.4107 111.982 58.5058 112.151 58.4845 112.318C58.4041 112.949 56.3398 115.783 55.7372 115.706ZM57.3414 114.971C57.3992 114.518 57.7704 114.122 58.2984 114.189C58.7518 114.247 59.0355 114.721 58.985 115.117C58.8621 116.081 57.2075 116.022 57.3414 114.971ZM58.1658 114.726C57.764 114.675 57.8713 115.115 58.0707 115.152C58.2759 115.19 58.4412 114.762 58.1658 114.726ZM57.0527 112.707C57.0212 112.953 56.8456 113.188 56.635 113.33C56.52 113.408 56.2982 113.409 56.1547 113.391C55.8161 113.348 55.5317 112.88 55.5697 112.582C55.6158 112.22 55.9863 111.83 56.3996 111.883C56.8529 111.94 57.1046 112.299 57.0527 112.707ZM56.5234 112.604C56.5358 112.507 56.4981 112.391 56.3775 112.376C56.28 112.363 56.1771 112.484 56.1668 112.564C56.1456 112.731 56.489 112.874 56.5234 112.604ZM51.7323 110.727C52.1405 110.836 52.5174 111.062 52.8117 111.373C53.2883 111.877 53.2206 112.47 53.0541 113.096C52.7211 114.349 51.8491 114.859 50.5967 114.526C48.1813 113.884 49.4008 110.107 51.7323 110.727ZM50.8593 113.381C51.5805 113.572 51.9601 113.338 52.1504 112.622C52.299 112.063 51.9679 111.868 51.4759 111.737C50.4248 111.457 49.7522 113.086 50.8593 113.381ZM47.237 112.609C46.9957 112.597 46.6096 112.594 46.3916 112.516C46.081 112.406 45.7812 112.041 45.9036 111.697C46.1038 111.136 46.6363 111.4 47.0123 111.534C47.5518 111.726 47.5916 111.304 47.7098 110.904C47.7649 110.715 47.8201 110.526 47.8862 110.341C47.9989 110.025 48.3727 109.734 48.716 109.856C49.3482 110.082 49.0399 110.826 48.8883 111.251C48.7212 111.719 48.292 113.354 47.5672 113.095C47.2621 112.986 47.3666 112.797 47.237 112.609ZM43.4611 108.856C43.8638 108.963 44.2991 109.04 44.6784 109.212C45.4476 109.561 45.6689 110.417 45.3342 111.155C44.9206 112.066 43.8132 112.225 42.9808 111.847C42.7859 111.758 42.6105 111.641 42.4601 111.496C42.2898 111.648 42.093 111.787 41.856 111.68C41.5662 111.548 41.5421 111.251 41.6616 110.988C41.8242 110.63 42.0682 110.302 42.2355 109.933C42.4435 109.475 42.617 108.994 42.8274 108.531C43.1024 107.925 43.372 107.317 44.1357 107.314C44.4412 107.313 44.7482 107.35 45.0326 107.479C45.4172 107.654 46.1957 108.318 45.9758 108.803C45.8801 109.014 45.6197 109.112 45.4037 109.014C45.0718 108.863 44.8461 108.507 44.4878 108.344C43.882 108.069 43.7097 108.309 43.4611 108.856ZM42.8507 110.454C42.9541 110.52 43.0652 110.583 43.1811 110.635C43.4762 110.769 44.2203 110.935 44.3949 110.551C44.4738 110.377 44.4564 110.191 44.2667 110.105C43.9138 109.945 43.4426 109.877 43.0633 109.775C42.9916 110.003 42.9118 110.221 42.8507 110.454ZM39.8791 107.38C39.6447 107.639 39.2594 108.199 38.8522 107.967C38.7064 107.884 38.6345 107.729 38.6486 107.564C38.6919 107.15 38.9261 106.75 38.9699 106.229C38.982 106.103 39.0069 105.977 39.0728 105.862C39.2332 105.58 39.5703 105.433 39.8669 105.602C40.2087 105.796 40.2004 106.091 40.2159 106.426C40.6789 106.537 41.011 106.433 41.4735 106.697C42.2074 107.115 42.4309 107.962 42.0155 108.69C41.4599 109.666 40.2979 110.069 39.2925 109.496C38.9557 109.304 38.2957 108.815 38.5535 108.362C38.9802 107.613 40.2625 109.29 41.0158 107.968C41.1275 107.772 41.1122 107.623 40.9111 107.508C40.7252 107.403 40.1116 107.392 39.8791 107.38ZM36.4669 107.153C36.1818 107.119 36.0194 107.14 35.7669 106.966C34.6477 106.194 35.536 105.12 36.1173 104.277C36.2946 104.02 36.6306 103.675 36.964 103.905C37.2498 104.102 37.2687 104.431 37.0608 104.794C36.749 105.338 36.0154 106.167 36.2583 106.335C36.4726 106.483 36.9617 106.202 37.0898 106.016C37.2573 105.773 37.3661 105.483 37.5336 105.24C37.7438 104.935 38.0721 104.571 38.4722 104.847C39.0152 105.221 38.4552 105.931 38.2023 106.298C38.0085 106.579 37.3122 107.589 37.0695 107.717C36.9368 107.787 36.7699 107.784 36.6413 107.695C36.4365 107.554 36.4684 107.365 36.4669 107.153ZM35.0132 102.849C35.1749 102.645 35.4211 102.53 35.6523 102.713C36.0467 103.026 35.6815 103.784 35.4407 104.088C35.2071 104.383 34.6756 104.951 34.2766 104.635C34.0137 104.426 34.0658 104.165 34.2138 103.913C34.3411 103.696 34.5389 103.484 35.0132 102.849ZM33.2784 105.084C33.4329 104.889 33.7282 104.842 33.9277 105C34.1272 105.158 34.1457 105.461 33.9911 105.656C33.8438 105.842 33.5557 105.879 33.3653 105.728C33.1613 105.567 33.1131 105.292 33.2784 105.084ZM30.5858 103.491C30.2618 103.202 29.9911 102.558 30.326 102.182C30.5107 101.975 30.9162 101.972 31.1193 102.153C31.292 102.307 31.2874 102.582 31.4688 102.743C31.8273 103.063 32.5968 102.834 32.8893 102.506C33.1433 102.221 33.0563 101.849 32.7885 101.61C32.5596 101.406 32.246 101.297 32.0128 101.089C31.7795 100.881 31.6901 100.538 31.9133 100.288C32.3252 99.8256 33.2348 100.466 33.5761 100.77C34.3752 101.482 34.4607 102.682 33.7486 103.481C32.8403 104.5 31.5317 104.334 30.5858 103.491ZM26.3569 99.1233C26.0711 98.7968 25.8821 98.1241 26.2608 97.7926C26.4697 97.6097 26.8725 97.6569 27.0516 97.8615C27.204 98.0357 27.1654 98.3078 27.3255 98.4906C27.6418 98.852 28.4336 98.7201 28.7645 98.4305C29.0518 98.179 29.0114 97.7991 28.7752 97.5292C28.5732 97.2985 28.2755 97.1516 28.0697 96.9165C27.8639 96.6814 27.8176 96.3299 28.0701 96.1089C28.5359 95.7011 29.3595 96.4487 29.6605 96.7926C30.3655 97.598 30.302 98.7992 29.4967 99.5041C28.4694 100.403 27.1914 100.077 26.3569 99.1233ZM27.1251 93.8337C27.3727 94.1759 27.5218 94.5892 27.5527 95.0168C27.6033 95.7086 27.1761 96.1248 26.6512 96.5046C25.6012 97.2643 24.6029 97.1084 23.8432 96.0584C22.3781 94.0336 25.7109 91.8792 27.1251 93.8337ZM24.7709 95.3372C25.2084 95.9418 25.6507 96.0003 26.2506 95.5662C26.7193 95.227 26.5867 94.866 26.2882 94.4535C25.6506 93.5724 24.0994 94.4091 24.7709 95.3372ZM23.9128 92.256C23.9867 92.5282 24.1487 92.8357 23.8252 93.0274C23.5166 93.2103 23.2842 92.8975 23.0838 92.7069C22.6403 92.889 21.8183 93.329 21.4939 92.7815C21.1576 92.2141 21.9999 91.8764 22.3732 91.6552C22.3586 91.5966 22.3391 91.5409 22.3096 91.4911C22.112 91.1577 21.5223 90.4916 22.0897 90.1554C22.662 89.8162 23.0917 90.7116 23.3188 91.0948C23.3516 91.0821 23.3795 91.0723 23.4093 91.0546C23.912 90.7567 23.5664 90.4572 23.3629 90.1138C23.1564 89.7653 23.0464 89.3867 23.4695 89.136C24.0269 88.8057 24.3687 89.4505 24.5987 89.8387C25.2417 90.9238 24.854 91.5973 23.9128 92.256ZM21.8804 88.6808C21.9312 88.9583 22.0668 89.2783 21.7283 89.4421C21.4054 89.5984 21.2001 89.2672 21.0165 89.0604C20.5592 89.2046 19.7031 89.5739 19.4259 89.0011C19.1385 88.4074 20.0062 88.1417 20.3968 87.9527C20.3872 87.893 20.3724 87.8359 20.3472 87.7838C20.1783 87.4349 19.6467 86.7217 20.2404 86.4344C20.8393 86.1445 21.1921 87.0728 21.3862 87.4738C21.42 87.4639 21.4485 87.4565 21.4798 87.4414C22.0058 87.1868 21.6865 86.8592 21.5126 86.4999C21.3362 86.1354 21.2584 85.7488 21.701 85.5346C22.2843 85.2523 22.5706 85.9236 22.7672 86.3298C23.3166 87.465 22.8737 88.1036 21.8804 88.6808ZM21.3306 83.0772C21.4805 83.4721 21.5167 83.9101 21.4351 84.3309C21.3037 85.0119 20.7828 85.3025 20.177 85.5324C18.9654 85.9922 18.0422 85.5815 17.5823 84.3699C16.6955 82.0332 20.4745 80.8217 21.3306 83.0772ZM18.666 83.9153C18.9308 84.613 19.3425 84.7847 20.0349 84.522C20.5758 84.3167 20.5417 83.9336 20.3611 83.4576C19.9751 82.4407 18.2595 82.8443 18.666 83.9153ZM17.2507 80.7156C17.0519 80.5082 16.9125 80.4222 16.8269 80.1278C16.4476 78.8222 17.8149 78.5515 18.7982 78.2658C19.0982 78.1786 19.5764 78.1241 19.6894 78.513C19.7862 78.8463 19.5927 79.1134 19.2024 79.2629C18.6169 79.4873 17.5242 79.6662 17.6065 79.9495C17.6791 80.1995 18.2358 80.2908 18.4525 80.2279C18.7359 80.1455 19.0038 79.9894 19.2871 79.9071C19.6427 79.8038 20.1271 79.7293 20.2627 80.196C20.4467 80.8293 19.5639 81.0256 19.1361 81.1498C18.8083 81.2451 17.6305 81.5873 17.3616 81.5328C17.2145 81.5033 17.0868 81.3958 17.0433 81.2458C16.9739 81.0069 17.1179 80.8807 17.2507 80.7156ZM17.4911 73.8628C17.5121 73.9824 17.4896 74.1215 17.5116 74.2469C17.5828 74.6514 17.7705 75.0178 17.8407 75.4167C17.8867 75.6788 17.9143 76.0029 17.5668 76.064C17.4129 76.0911 17.2665 75.9935 17.1855 75.8667C17.0399 75.6397 16.7172 74.4394 16.6651 74.1431C16.615 73.8582 16.6093 73.4245 16.974 73.3604C17.2817 73.3063 17.446 73.6064 17.4911 73.8628ZM16.1059 70.5284C16.1281 70.8111 16.0552 71.0663 15.7264 71.092C15.6111 71.1011 15.5147 71.0564 15.433 70.9757C15.0228 70.5552 14.8298 70.5355 14.367 70.2584C14.2272 70.1765 14.1227 70.028 14.11 69.8665C14.0762 69.4339 14.5738 69.2673 14.9141 69.2406C15.7158 69.1778 16.7332 69.1272 17.5363 69.0817C17.7328 69.0721 17.9383 69.1025 18.1089 69.2052C18.2794 69.3079 18.4087 69.4776 18.4245 69.6795C18.4815 70.4063 17.5732 70.4426 17.0829 70.4809C16.858 70.4986 16.4165 70.4925 16.1973 70.5097C16.1685 70.5119 16.1343 70.5204 16.1059 70.5284ZM13.9803 66.6961C13.9685 65.4118 14.5312 64.9495 15.775 64.9381C16.8453 64.9282 18.3079 65.4238 18.3197 66.7081C18.331 67.9288 17.2724 68.5808 16.1559 68.5911C15.0162 68.6016 13.9916 67.911 13.9803 66.6961ZM15.7823 65.7248C15.3889 65.7285 15.0484 65.8184 15.0523 66.2465C15.0591 66.9754 15.7171 67.4322 16.4055 67.4259C16.9146 67.4212 17.3177 67.2149 17.3124 66.648C17.306 65.948 16.3377 65.7197 15.7823 65.7248ZM14.1238 62.3371C14.2169 61.0561 14.8155 60.6413 16.0561 60.7315C17.1236 60.809 18.5408 61.4225 18.4477 62.7035C18.3592 63.921 17.2509 64.4843 16.1373 64.4034C15.0005 64.3208 14.0357 63.5488 14.1238 62.3371ZM15.999 61.5162C15.6067 61.4877 15.2599 61.5495 15.2289 61.9765C15.1761 62.7036 15.7946 63.2126 16.4812 63.2625C16.989 63.2994 17.4076 63.1268 17.4487 62.5613C17.4994 61.8631 16.553 61.5565 15.999 61.5162ZM15.0431 56.729C15.0674 56.5747 15.1909 56.4594 15.3395 56.4827C15.3909 56.4908 15.4388 56.5218 15.48 56.5575C15.8689 56.9524 16.2671 57.3254 16.6776 57.6944C16.9913 57.9721 17.3415 58.2028 17.6879 58.4212C17.9864 58.6087 18.358 58.7784 18.6171 59.0299C18.693 59.1062 18.7358 59.2067 18.7178 59.321C18.6882 59.5096 18.5159 59.5996 18.3501 59.5736C17.7215 59.4748 14.9488 57.3291 15.0431 56.729ZM15.7307 58.3538C16.1822 58.4248 16.5672 58.8074 16.4846 59.3332C16.4136 59.7847 15.932 60.0546 15.5376 59.9926C14.5775 59.8417 14.6848 58.1895 15.7307 58.3538ZM15.9515 59.185C16.0144 58.7849 15.572 58.8794 15.5291 59.0777C15.4854 59.2816 15.9084 59.4593 15.9515 59.185ZM18.0029 58.1311C17.7571 58.0924 17.5281 57.9101 17.392 57.6954C17.3167 57.5782 17.3222 57.3565 17.3447 57.2136C17.3977 56.8764 17.8736 56.6057 18.1708 56.6523C18.5309 56.7089 18.9101 57.0906 18.8455 57.5021C18.7745 57.9536 18.4087 58.1948 18.0029 58.1311ZM18.1207 57.6049C18.2178 57.6202 18.3345 57.5858 18.3534 57.4658C18.3686 57.3686 18.2506 57.2623 18.1706 57.2497C18.0049 57.2236 17.8521 57.5627 18.1207 57.6049ZM20.1031 52.8628C19.9862 53.2687 19.7526 53.6409 19.4349 53.9287C18.9214 54.395 18.3303 54.3151 17.7076 54.1358C16.4623 53.7772 15.9698 52.8949 16.3284 51.6496C17.0199 49.2478 20.7706 50.5445 20.1031 52.8628ZM17.4682 51.9356C17.2617 52.6528 17.4882 53.0371 18.1998 53.242C18.7558 53.402 18.9583 53.075 19.0991 52.5858C19.4001 51.5406 17.7851 50.8348 17.4682 51.9356ZM18.2849 48.359C18.2992 48.1178 18.305 47.7318 18.3846 47.5145C18.498 47.2048 18.8654 46.9081 19.2077 47.0334C19.7672 47.2383 19.4991 47.7686 19.3619 48.1434C19.165 48.6812 19.5865 48.7247 19.9856 48.8462C20.1743 48.903 20.363 48.9597 20.5477 49.0274C20.8628 49.1427 21.1501 49.519 21.0248 49.8613C20.794 50.4915 20.0528 50.177 19.6291 50.0218C19.1619 49.8507 17.5312 49.4077 17.7958 48.6851C17.9072 48.3809 18.0962 48.4871 18.2849 48.359ZM22.0562 44.614C21.948 45.0163 21.8693 45.4512 21.6955 45.8298C21.3432 46.5975 20.4858 46.8151 19.7497 46.4772C18.84 46.0597 18.6866 44.9516 19.0679 44.1209C19.1572 43.9263 19.2756 43.7515 19.4207 43.6017C19.2701 43.4307 19.1315 43.2334 19.2401 42.9968C19.3728 42.7076 19.6697 42.6847 19.9326 42.8054C20.2902 42.9695 20.6168 43.2149 20.9849 43.3838C21.4423 43.5938 21.9219 43.7693 22.3846 43.9817C22.9893 44.2592 23.5964 44.5315 23.596 45.2952C23.5958 45.6007 23.5569 45.9075 23.4266 46.1914C23.2504 46.5753 22.5825 47.3509 22.0987 47.1288C21.8884 47.0323 21.7917 46.7715 21.8906 46.5559C22.0427 46.2246 22.4002 46.0004 22.5643 45.6429C22.8418 45.0382 22.6031 44.865 22.0562 44.614ZM20.4617 43.9967C20.3952 44.0999 20.3316 44.2107 20.2785 44.3264C20.1434 44.6209 19.974 45.3643 20.3579 45.5405C20.5314 45.6201 20.7172 45.6036 20.8041 45.4143C20.9658 45.062 21.0355 44.5911 21.1394 44.2123C20.9117 44.1396 20.6941 44.0588 20.4617 43.9967ZM23.5162 41.0377C23.2554 40.8049 22.6937 40.4229 22.9233 40.0143C23.0054 39.8681 23.1592 39.7952 23.3244 39.8084C23.7394 39.8492 24.1401 40.0809 24.6614 40.1217C24.7877 40.133 24.9135 40.1572 25.0295 40.2224C25.312 40.3811 25.4615 40.7173 25.2943 41.0149C25.1015 41.3578 24.8065 41.3513 24.4715 41.3688C24.3636 41.8325 24.4694 42.164 24.2086 42.628C23.7948 43.3643 22.9497 43.5929 22.2183 43.1819C21.2399 42.6321 20.8297 41.4725 21.3965 40.4638C21.5864 40.1258 22.0718 39.4629 22.5257 39.7179C23.2772 40.1402 21.6087 41.4324 22.9352 42.1778C23.1319 42.2884 23.2803 42.2722 23.3937 42.0705C23.4986 41.8839 23.5049 41.2703 23.5162 41.0377ZM23.6971 37.6416C23.7278 37.356 23.7038 37.1939 23.8741 36.9389C24.629 35.8082 25.7163 36.6801 26.568 37.2487C26.8278 37.4222 27.1774 37.7529 26.9526 38.0898C26.7598 38.3785 26.4309 38.4023 26.0652 38.1999C25.5166 37.8963 24.6762 37.1753 24.5124 37.4207C24.3678 37.6372 24.6564 38.122 24.844 38.2473C25.0894 38.4111 25.3814 38.5156 25.6268 38.6794C25.9347 38.885 26.3036 39.2077 26.0338 39.6119C25.6676 40.1605 24.9491 39.6112 24.5786 39.3639C24.2947 39.1744 23.2746 38.4934 23.1432 38.2526C23.071 38.121 23.0711 37.9541 23.1579 37.8242C23.296 37.6173 23.4853 37.6463 23.6971 37.6416ZM27.9748 36.1217C28.1818 36.2797 28.3013 36.5236 28.1223 36.7582C27.8169 37.1584 27.0515 36.8072 26.7434 36.5721C26.4444 36.3439 25.8667 35.8231 26.1755 35.4183C26.3791 35.1516 26.6413 35.1989 26.8959 35.3421C27.1147 35.4655 27.3306 35.6593 27.9748 36.1217ZM25.7081 34.4286C25.9059 34.5795 25.9579 34.8738 25.8034 35.0762C25.649 35.2786 25.3468 35.3027 25.149 35.1518C24.9605 35.0079 24.9177 34.7206 25.0651 34.5274C25.223 34.3204 25.4966 34.2671 25.7081 34.4286ZM27.2255 31.7144C27.5063 31.3836 28.1437 31.0974 28.5275 31.4231C28.7392 31.6028 28.7518 32.0081 28.5759 32.2155C28.4261 32.3919 28.1513 32.3939 27.9941 32.5791C27.6834 32.9452 27.9306 33.709 28.2658 33.9935C28.5569 34.2406 28.9267 34.1446 29.1588 33.8712C29.3572 33.6374 29.4586 33.3212 29.6607 33.083C29.8629 32.8448 30.2038 32.7472 30.4596 32.9643C30.9316 33.3648 30.3136 34.2897 30.0179 34.6382C29.3253 35.4542 28.1279 35.5686 27.3119 34.8761C26.2709 33.9926 26.4057 32.6804 27.2255 31.7144ZM31.4515 27.3807C31.7689 27.0849 32.4354 26.8751 32.7785 27.2434C32.9678 27.4465 32.9331 27.8506 32.7342 28.0359C32.5649 28.1937 32.2917 28.1636 32.1139 28.3292C31.7626 28.6566 31.919 29.4439 32.2187 29.7656C32.479 30.045 32.8575 29.9929 33.1199 29.7483C33.3442 29.5393 33.4818 29.2372 33.7104 29.0242C33.9389 28.8112 34.2889 28.754 34.5176 28.9995C34.9397 29.4524 34.218 30.2988 33.8836 30.6104C33.1005 31.34 31.898 31.3139 31.1683 30.5309C30.2375 29.5319 30.5245 28.2444 31.4515 27.3807ZM36.7548 27.9754C36.422 28.2353 36.0143 28.3994 35.5881 28.4459C34.8987 28.5218 34.4671 28.11 34.0684 27.5993C33.2709 26.5778 33.3903 25.5744 34.4117 24.7769C36.3817 23.2388 38.6564 26.4907 36.7548 27.9754ZM35.1664 25.6777C34.5782 26.137 34.5359 26.5811 34.9916 27.1648C35.3476 27.6208 35.7036 27.475 36.1049 27.1617C36.9622 26.4923 36.0693 24.9728 35.1664 25.6777ZM38.2072 24.7088C37.9381 24.7936 37.6373 24.9678 37.4328 24.6522C37.2378 24.3511 37.5411 24.1064 37.7235 23.8985C37.5238 23.4626 37.0513 22.6589 37.5854 22.3129C38.1389 21.9542 38.51 22.7823 38.7459 23.1464C38.8039 23.1295 38.8588 23.1078 38.9073 23.0763C39.2326 22.8656 39.8745 22.2497 40.2332 22.8032C40.595 23.3616 39.7175 23.8267 39.3437 24.0689C39.3577 24.1012 39.3686 24.1286 39.3874 24.1578C39.7052 24.6482 39.9907 24.2908 40.3257 24.0738C40.6656 23.8535 41.0395 23.7284 41.3069 24.1411C41.6593 24.6849 41.0286 25.0522 40.6499 25.2976C39.5915 25.9834 38.9029 25.623 38.2072 24.7088ZM41.6955 22.5355C41.4204 22.5976 41.1062 22.7463 40.9285 22.4149C40.7591 22.0987 41.0816 21.8799 41.2806 21.6879C41.1177 21.237 40.7134 20.3969 41.2743 20.0962C41.8556 19.7847 42.1568 20.6406 42.3618 21.0231C42.421 21.011 42.4775 20.9939 42.5285 20.9666C42.8701 20.7834 43.5608 20.2229 43.8724 20.8042C44.1867 21.3906 43.2737 21.7814 42.8811 21.9919C42.8924 22.0252 42.901 22.0535 42.9174 22.084C43.1934 22.5991 43.5075 22.2666 43.8594 22.078C44.2163 21.8867 44.5993 21.793 44.8316 22.2264C45.1377 22.7975 44.4789 23.1113 44.0811 23.3245C42.9695 23.9203 42.3132 23.5041 41.6955 22.5355ZM47.2725 21.7568C46.884 21.9224 46.4478 21.9763 46.024 21.9117C45.3383 21.8079 45.027 21.2991 44.7728 20.7031C44.2645 19.511 44.6377 18.572 45.8298 18.0637C48.1288 17.0833 49.4917 20.8105 47.2725 21.7568ZM46.3277 19.1281C45.6412 19.4209 45.4862 19.8391 45.7767 20.5203C46.0036 21.0525 46.385 21.0031 46.8533 20.8034C47.8538 20.3768 47.3814 18.6788 46.3277 19.1281ZM49.48 17.5855C49.6799 17.3792 49.7607 17.2367 50.0519 17.1404C51.3426 16.7134 51.6634 18.0698 51.985 19.042C52.0831 19.3386 52.1552 19.8145 51.7707 19.9417C51.4411 20.0507 51.1671 19.8671 51.0034 19.4825C50.7577 18.9057 50.5388 17.8203 50.2587 17.9129C50.0115 17.9947 49.9407 18.5544 50.0116 18.7686C50.1042 19.0487 50.2701 19.3107 50.3628 19.5908C50.4791 19.9424 50.5713 20.4237 50.1099 20.5764C49.4837 20.7835 49.2552 19.9085 49.1153 19.4855C49.0081 19.1615 48.6229 17.997 48.6674 17.7263C48.6915 17.5782 48.7943 17.4467 48.9426 17.3977C49.1788 17.3195 49.3102 17.4589 49.48 17.5855ZM56.3399 17.5761C56.221 17.6013 56.0812 17.5836 55.9567 17.61C55.5549 17.6952 55.1952 17.8956 54.7991 17.9796C54.5387 18.0348 54.2158 18.0737 54.1426 17.7285C54.1102 17.5757 54.2026 17.426 54.3265 17.3406C54.5482 17.1871 55.7366 16.8228 56.0309 16.7604C56.3139 16.7004 56.7471 16.6795 56.8239 17.0417C56.8887 17.3473 56.5945 17.5221 56.3399 17.5761ZM59.6413 16.0891C59.3594 16.1192 59.1022 16.0536 59.0671 15.7257C59.0548 15.6106 59.0967 15.5131 59.175 15.4291C59.5838 15.0072 59.598 14.8136 59.8619 14.3432C59.9398 14.2011 60.0853 14.0924 60.2463 14.0752C60.6778 14.0291 60.8585 14.5218 60.8948 14.8612C60.9802 15.6608 61.0597 16.6763 61.128 17.4778C61.1431 17.674 61.1186 17.8803 61.0208 18.0536C60.923 18.227 60.7569 18.3611 60.5556 18.3827C59.8308 18.4602 59.7687 17.5533 59.7164 17.0643C59.6924 16.84 59.686 16.3985 59.6626 16.1799C59.6595 16.1511 59.6501 16.1172 59.6413 16.0891ZM63.4348 13.8657C64.7185 13.8241 65.1937 14.376 65.2339 15.6192C65.2686 16.689 64.8069 18.1626 63.5232 18.2042C62.3031 18.2437 61.6268 17.2005 61.5907 16.0845C61.5538 14.9453 62.2205 13.905 63.4348 13.8657ZM64.4475 15.6447C64.4348 15.2515 64.337 14.9131 63.9091 14.927C63.1805 14.9506 62.7391 15.619 62.7614 16.3071C62.7778 16.8159 62.9933 17.2141 63.56 17.1958C64.2597 17.1731 64.4655 16.1998 64.4475 15.6447ZM67.8295 13.9267C69.1117 14.0004 69.5355 14.5926 69.4641 15.8344C69.4027 16.903 68.8108 18.3293 67.5285 18.2556C66.3098 18.1856 65.7298 17.086 65.7938 15.9712C65.8592 14.8334 66.6165 13.857 67.8295 13.9267ZM68.6786 15.7893C68.7012 15.3965 68.6341 15.0508 68.2067 15.0262C67.4789 14.9844 66.9794 15.6105 66.9398 16.2978C66.9106 16.8061 67.0896 17.2221 67.6556 17.2546C68.3545 17.2948 68.6467 16.3438 68.6786 15.7893ZM73.4825 14.7961C73.6369 14.8194 73.753 14.9422 73.7306 15.0909C73.7228 15.1424 73.6922 15.1905 73.6567 15.2319C73.2642 15.6233 72.8937 16.0238 72.5273 16.4366C72.2516 16.752 72.023 17.1037 71.8068 17.4514C71.6212 17.7511 71.4539 18.1237 71.204 18.3844C71.1281 18.4608 71.028 18.5042 70.9135 18.4869C70.7247 18.4585 70.6336 18.2868 70.6586 18.1209C70.7535 17.4916 72.8818 14.7056 73.4825 14.7961ZM71.862 15.4938C71.7938 15.9458 71.4137 16.3332 70.8874 16.2538C70.4354 16.1857 70.1625 15.7058 70.222 15.311C70.3669 14.3499 72.0198 14.4469 71.862 15.4938ZM71.0322 15.7198C71.4327 15.7802 71.3354 15.3384 71.1369 15.2968C70.9327 15.2543 70.7576 15.6784 71.0322 15.7198ZM72.099 17.7646C72.136 17.5186 72.317 17.2884 72.5308 17.151C72.6476 17.0749 72.8693 17.0791 73.0123 17.1007C73.3498 17.1515 73.6235 17.6257 73.5787 17.9232C73.5244 18.2836 73.1451 18.6653 72.7332 18.6032C72.2812 18.5351 72.0377 18.1707 72.099 17.7646ZM72.6258 17.8791C72.6112 17.9763 72.6463 18.0928 72.7664 18.1109C72.8637 18.1256 72.9693 18.0069 72.9814 17.9268C73.0064 17.7609 72.6663 17.6102 72.6258 17.8791ZM77.3735 19.8565C76.9682 19.7378 76.5971 19.5025 76.3107 19.1835C75.8468 18.6678 75.9294 18.0771 76.1116 17.4552C76.4759 16.2116 77.3605 15.7231 78.6042 16.0874C81.0027 16.79 79.6888 20.5347 77.3735 19.8565ZM78.3129 17.2259C77.5967 17.0161 77.2113 17.2408 77.0031 17.9515C76.8405 18.5067 77.1666 18.7107 77.6552 18.8539C78.699 19.1596 79.4122 17.5479 78.3129 17.2259ZM81.9221 18.0949C82.163 18.1139 82.5488 18.1271 82.7646 18.2108C83.072 18.3301 83.3616 18.7032 83.2298 19.043C83.0142 19.5985 82.4892 19.3203 82.117 19.1759C81.583 18.9687 81.5315 19.3893 81.4024 19.786C81.342 19.9736 81.2816 20.1611 81.2105 20.3445C81.0891 20.6573 80.7073 20.9374 80.3675 20.8055C79.7419 20.5627 80.0706 19.8277 80.2338 19.407C80.4138 18.9431 80.8881 17.3213 81.6054 17.5997C81.9075 17.7169 81.7977 17.9039 81.9221 18.0949ZM85.5942 21.9407C85.1942 21.8244 84.7609 21.7369 84.3859 21.5556C83.6255 21.1878 83.4253 20.3262 83.778 19.597C84.2137 18.696 85.3247 18.5649 86.1476 18.9629C86.3403 19.0561 86.5127 19.1781 86.6595 19.3262C86.8335 19.179 87.0336 19.0444 87.268 19.1578C87.5544 19.2963 87.5713 19.5937 87.4453 19.8541C87.274 20.2083 87.0221 20.5298 86.8458 20.8944C86.6266 21.3475 86.4414 21.8235 86.2197 22.2818C85.93 22.8808 85.6456 23.4822 84.882 23.4664C84.5766 23.4601 84.2707 23.4149 83.9894 23.2789C83.6092 23.095 82.8473 22.4116 83.079 21.9324C83.1798 21.7241 83.4425 21.6327 83.656 21.7359C83.9842 21.8946 84.2011 22.2566 84.5553 22.4279C85.1542 22.7176 85.3322 22.4824 85.5942 21.9407ZM86.2436 20.359C86.1418 20.2904 86.0322 20.2246 85.9176 20.1692C85.626 20.0281 84.8861 19.8438 84.7022 20.224C84.6191 20.3959 84.6319 20.582 84.8194 20.6727C85.1683 20.8415 85.6377 20.9207 86.0144 21.0321C86.0916 20.806 86.1768 20.5901 86.2436 20.359ZM89.1389 23.5183C89.3806 23.2658 89.7819 22.7176 90.1822 22.9613C90.3255 23.0485 90.393 23.2047 90.3741 23.3693C90.3189 23.7827 90.0734 24.1751 90.0145 24.6946C89.9988 24.8205 89.9703 24.9454 89.9011 25.059C89.7327 25.3358 89.3915 25.4735 89.0999 25.2961C88.7638 25.0915 88.7805 24.797 88.7747 24.4616C88.3151 24.3376 87.9801 24.4317 87.5255 24.155C86.8039 23.7159 86.6049 22.8633 87.041 22.1467C87.6246 21.1879 88.7977 20.8183 89.7861 21.4198C90.1172 21.6214 90.7629 22.1295 90.4922 22.5743C90.0441 23.3107 88.8106 21.5982 88.0196 22.898C87.9023 23.0908 87.9132 23.2397 88.1109 23.36C88.2938 23.4713 88.9068 23.4989 89.1389 23.5183ZM92.5412 23.8398C92.8252 23.8827 92.9882 23.8657 93.2357 24.0467C94.3331 24.8492 93.4154 25.8983 92.811 26.7249C92.6265 26.977 92.2811 27.3122 91.9542 27.0731C91.674 26.8682 91.6643 26.5385 91.8821 26.1818C92.2089 25.6467 92.9652 24.838 92.7271 24.6638C92.5169 24.5101 92.0202 24.7776 91.887 24.9598C91.7129 25.1979 91.596 25.4852 91.4218 25.7233C91.2033 26.0222 90.865 26.3769 90.4727 26.09C89.9404 25.7007 90.5198 25.0064 90.7828 24.6468C90.9843 24.3712 91.7083 23.3812 91.9545 23.2602C92.0891 23.1938 92.2558 23.201 92.3819 23.2932C92.5827 23.4401 92.5456 23.628 92.5412 23.8398ZM93.8822 28.1571C93.7185 28.3596 93.4713 28.4721 93.2418 28.2867C92.8504 27.9702 93.2229 27.215 93.4665 26.9135C93.7029 26.6211 94.2398 26.0582 94.6357 26.3782C94.8967 26.5892 94.8421 26.85 94.6917 27.1004C94.5623 27.3157 94.3625 27.5261 93.8822 28.1571ZM95.6382 25.9388C95.4818 26.1322 95.1861 26.1759 94.9882 26.0159C94.7902 25.8559 94.7746 25.5531 94.931 25.3596C95.0801 25.1752 95.3685 25.1405 95.5574 25.2932C95.7599 25.4569 95.8055 25.7318 95.6382 25.9388ZM98.3369 27.6423C98.6526 27.94 98.905 28.5915 98.5597 28.9577C98.3691 29.1597 97.9637 29.1511 97.7659 28.9646C97.5975 28.8058 97.6099 28.5312 97.4332 28.3645C97.0838 28.0351 96.3082 28.242 96.0065 28.5619C95.7445 28.8397 95.821 29.214 96.082 29.4601C96.305 29.6704 96.6154 29.7882 96.8427 30.0025C97.07 30.2169 97.1497 30.5624 96.9195 30.8066C96.4948 31.2569 95.6036 30.5914 95.271 30.2778C94.4924 29.5435 94.4407 28.3418 95.1751 27.5631C96.1118 26.5698 97.4151 26.773 98.3369 27.6423ZM102.452 32.1106C102.729 32.4447 102.9 33.1222 102.512 33.4434C102.299 33.6206 101.897 33.5625 101.724 33.3532C101.576 33.175 101.622 32.904 101.467 32.7169C101.16 32.3472 100.365 32.4577 100.027 32.7383C99.7328 32.982 99.7629 33.3628 99.9919 33.639C100.188 33.8751 100.481 34.0299 100.681 34.2704C100.88 34.511 100.917 34.8637 100.658 35.0778C100.182 35.4728 99.3787 34.7033 99.087 34.3514C98.404 33.5274 98.4997 32.3284 99.3238 31.6453C100.375 30.774 101.644 31.1351 102.452 32.1106ZM101.542 37.3763C101.304 37.0278 101.166 36.6106 101.146 36.1824C101.114 35.4895 101.552 35.0847 102.087 34.7188C103.156 33.9871 104.15 34.1694 104.882 35.2389C106.293 37.3017 102.904 39.3675 101.542 37.3763ZM103.935 35.9355C103.514 35.3195 103.073 35.2494 102.462 35.6675C101.985 35.9942 102.108 36.3586 102.395 36.7788C103.009 37.6765 104.582 36.8809 103.935 35.9355ZM104.71 39.024C104.641 38.7503 104.486 38.4397 104.813 38.2544C105.125 38.0776 105.351 38.3949 105.548 38.5894C105.995 38.416 106.825 37.9922 107.139 38.5459C107.464 39.1198 106.615 39.4409 106.238 39.6548C106.251 39.7137 106.269 39.7697 106.298 39.8201C106.489 40.1573 107.066 40.8348 106.492 41.1598C105.913 41.4877 105.501 40.5842 105.281 40.1965C105.248 40.2086 105.22 40.2178 105.19 40.2349C104.681 40.5229 105.021 40.8292 105.218 41.1765C105.417 41.5289 105.52 41.9096 105.092 42.152C104.528 42.4714 104.199 41.82 103.977 41.4273C103.355 40.3299 103.756 39.664 104.71 39.024ZM106.672 42.6421C106.627 42.3635 106.498 42.0406 106.84 41.8842C107.167 41.7349 107.365 42.0706 107.544 42.2813C108.004 42.1471 108.868 41.7964 109.133 42.3751C109.407 42.9748 108.534 43.2216 108.139 43.4022C108.148 43.462 108.161 43.5194 108.185 43.572C108.346 43.9245 108.862 44.6491 108.263 44.9235C107.658 45.2003 107.325 44.2646 107.14 43.8595C107.106 43.8687 107.077 43.8754 107.045 43.8899C106.514 44.133 106.826 44.4674 106.992 44.8304C107.161 45.1986 107.23 45.5868 106.783 45.7914C106.194 46.061 105.922 45.3836 105.734 44.9733C105.21 43.8264 105.666 43.1975 106.672 42.6421ZM107.088 48.261C106.949 47.8622 106.925 47.4234 107.018 47.0049C107.169 46.3278 107.697 46.0517 108.309 45.8386C109.533 45.4124 110.445 45.8484 110.871 47.0723C111.693 49.4325 107.882 50.5393 107.088 48.261ZM109.775 47.4968C109.53 46.792 109.123 46.609 108.423 46.8526C107.877 47.0428 107.901 47.4268 108.068 47.9076C108.426 48.9347 110.152 48.5786 109.775 47.4968ZM111.102 50.7286C111.296 50.941 111.433 51.0306 111.511 51.3272C111.856 52.6422 110.482 52.8774 109.492 53.1376C109.19 53.2169 108.71 53.2591 108.607 52.8674C108.519 52.5317 108.72 52.2697 109.114 52.1303C109.705 51.9212 110.802 51.7706 110.727 51.4853C110.661 51.2335 110.106 51.1278 109.888 51.1851C109.603 51.2601 109.331 51.4092 109.046 51.4842C108.687 51.5783 108.201 51.6402 108.078 51.1701C107.91 50.5322 108.798 50.3589 109.229 50.2457C109.559 50.159 110.745 49.8474 111.012 49.9088C111.159 49.9421 111.284 50.0529 111.323 50.204C111.387 50.4446 111.239 50.567 111.102 50.7286ZM110.438 55.8481C110.416 55.7287 110.437 55.5894 110.413 55.4643C110.337 55.0605 110.145 54.6962 110.071 54.2982C110.022 54.0366 109.991 53.7129 110.337 53.6478C110.491 53.619 110.638 53.715 110.721 53.8408C110.869 54.0661 111.205 55.2627 111.261 55.5584C111.314 55.8427 111.325 56.2763 110.961 56.3446C110.654 56.4021 110.486 56.104 110.438 55.8481Z" fill="#482C1C" stroke="#482C1C" stroke-width="2.16954"/>
</svg>
