<svg width="165" height="251" viewBox="0 0 165 251" fill="none" xmlns="http://www.w3.org/2000/svg">
<path d="M216.071 108.845C215.995 108.295 216.108 107.788 216.747 107.7C216.971 107.669 217.164 107.745 217.333 107.894C218.183 108.668 218.562 108.684 219.498 109.172C219.78 109.316 220.001 109.594 220.044 109.908C220.16 110.749 219.208 111.131 218.546 111.222C216.988 111.437 215.007 111.653 213.444 111.834C213.061 111.876 212.656 111.84 212.311 111.659C211.966 111.478 211.694 111.161 211.64 110.769C211.445 109.356 213.215 109.181 214.168 109.05C214.605 108.989 215.468 108.95 215.894 108.892C215.95 108.884 216.016 108.863 216.071 108.845ZM220.676 116.049C220.858 118.555 219.816 119.526 217.389 119.702C215.3 119.853 212.384 119.065 212.203 116.559C212.03 114.177 214.017 112.774 216.196 112.616C218.42 112.456 220.505 113.678 220.676 116.049ZM217.278 118.167C218.045 118.111 218.699 117.894 218.639 117.058C218.536 115.636 217.195 114.825 215.852 114.922C214.858 114.994 214.097 115.446 214.177 116.552C214.275 117.918 216.194 118.245 217.278 118.167ZM220.925 124.592C220.896 127.105 219.777 127.986 217.343 127.958C215.25 127.934 212.409 126.906 212.438 124.393C212.465 122.005 214.562 120.773 216.746 120.798C218.976 120.824 220.952 122.216 220.925 124.592ZM217.361 126.419C218.131 126.428 218.8 126.266 218.81 125.428C218.826 124.002 217.558 123.082 216.211 123.067C215.215 123.055 214.418 123.442 214.406 124.552C214.39 125.921 216.275 126.407 217.361 126.419ZM219.787 135.666C219.758 135.97 219.53 136.21 219.237 136.181C219.136 136.172 219.039 136.117 218.954 136.052C218.149 135.326 217.328 134.644 216.483 133.971C215.838 133.465 215.127 133.055 214.426 132.669C213.821 132.337 213.076 132.049 212.54 131.588C212.383 131.448 212.288 131.257 212.31 131.031C212.346 130.66 212.672 130.464 212.999 130.495C214.238 130.615 219.902 134.483 219.787 135.666ZM218.256 132.573C217.366 132.487 216.569 131.784 216.67 130.748C216.756 129.858 217.665 129.275 218.442 129.35C220.335 129.533 220.317 132.772 218.256 132.573ZM217.728 130.975C217.652 131.764 218.504 131.528 218.565 131.136C218.627 130.733 217.78 130.435 217.728 130.975ZM213.844 133.272C214.329 133.319 214.797 133.648 215.088 134.052C215.249 134.272 215.263 134.705 215.236 134.987C215.172 135.652 214.274 136.236 213.688 136.179C212.978 136.111 212.193 135.409 212.272 134.598C212.358 133.708 213.044 133.195 213.844 133.272ZM213.675 134.313C213.484 134.295 213.26 134.375 213.237 134.612C213.219 134.803 213.461 134.997 213.619 135.013C213.946 135.044 214.205 134.364 213.675 134.313ZM210.365 143.806C210.544 142.999 210.955 142.244 211.54 141.644C212.486 140.671 213.65 140.756 214.888 141.03C217.363 141.58 218.431 143.243 217.882 145.718C216.823 150.491 209.342 148.414 210.365 143.806ZM215.622 145.297C215.938 143.872 215.449 143.149 214.035 142.835C212.93 142.59 212.574 143.253 212.358 144.225C211.897 146.303 215.136 147.485 215.622 145.297ZM214.421 152.426C214.418 152.899 214.447 153.653 214.314 154.086C214.124 154.703 213.437 155.321 212.756 155.111C211.641 154.769 212.11 153.705 212.339 152.959C212.668 151.888 211.84 151.847 211.048 151.651C210.673 151.559 210.299 151.468 209.931 151.355C209.303 151.162 208.703 150.457 208.912 149.776C209.298 148.521 210.778 149.058 211.622 149.317C212.553 149.603 215.784 150.299 215.343 151.738C215.156 152.344 214.776 152.156 214.421 152.426ZM207.515 160.132C207.676 159.333 207.774 158.474 208.065 157.713C208.655 156.17 210.302 155.636 211.782 156.202C213.61 156.901 214.051 159.045 213.412 160.715C213.262 161.106 213.053 161.463 212.789 161.774C213.105 162.088 213.401 162.456 213.219 162.931C212.996 163.513 212.419 163.595 211.891 163.393C211.172 163.118 210.503 162.681 209.763 162.398C208.844 162.046 207.885 161.764 206.955 161.408C205.739 160.943 204.519 160.489 204.423 158.998C204.385 158.402 204.422 157.798 204.64 157.227C204.935 156.455 206.14 154.856 207.113 155.228C207.536 155.39 207.758 155.887 207.592 156.32C207.337 156.986 206.668 157.469 206.393 158.188C205.928 159.404 206.416 159.712 207.515 160.132ZM210.707 161.135C210.823 160.925 210.933 160.7 211.022 160.468C211.249 159.876 211.485 158.403 210.713 158.108C210.364 157.974 210.004 158.03 209.858 158.411C209.587 159.119 209.511 160.047 209.356 160.8C209.81 160.913 210.245 161.043 210.707 161.135ZM205.106 167.299C205.643 167.722 206.787 168.399 206.389 169.225C206.246 169.52 205.955 169.682 205.631 169.676C204.815 169.647 204.005 169.244 202.982 169.228C202.734 169.221 202.485 169.19 202.251 169.076C201.68 168.801 201.347 168.163 201.637 167.562C201.971 166.868 202.548 166.845 203.2 166.77C203.354 165.851 203.107 165.217 203.559 164.279C204.277 162.791 205.899 162.241 207.377 162.954C209.355 163.908 210.298 166.121 209.314 168.16C208.985 168.843 208.119 170.197 207.201 169.755C205.682 169.022 208.782 166.295 206.1 165.002C205.703 164.81 205.415 164.86 205.218 165.268C205.036 165.645 205.099 166.844 205.106 167.299ZM205.119 173.993C205.089 174.554 205.153 174.868 204.847 175.384C203.49 177.671 201.275 176.081 199.552 175.059C199.026 174.748 198.309 174.138 198.713 173.456C199.059 172.872 199.699 172.791 200.435 173.149C201.538 173.685 203.255 175.006 203.549 174.509C203.809 174.071 203.195 173.154 202.815 172.929C202.319 172.634 201.738 172.461 201.241 172.166C200.618 171.797 199.864 171.205 200.349 170.387C201.007 169.277 202.468 170.275 203.218 170.72C203.792 171.061 205.856 172.285 206.137 172.741C206.292 172.991 206.309 173.317 206.153 173.58C205.905 173.998 205.532 173.961 205.119 173.993ZM196.968 177.418C196.542 177.138 196.276 176.678 196.593 176.196C197.134 175.373 198.676 175.954 199.31 176.37C199.924 176.774 201.123 177.712 200.576 178.544C200.215 179.092 199.697 179.036 199.18 178.791C198.736 178.581 198.288 178.232 196.968 177.418ZM201.623 180.411C201.217 180.144 201.075 179.577 201.349 179.161C201.622 178.744 202.209 178.656 202.615 178.923C203.003 179.178 203.126 179.733 202.865 180.13C202.585 180.556 202.058 180.697 201.623 180.411ZM198.969 185.94C198.461 186.62 197.251 187.257 196.462 186.668C196.027 186.343 195.953 185.553 196.271 185.127C196.542 184.764 197.078 184.726 197.362 184.346C197.924 183.593 197.348 182.132 196.659 181.617C196.061 181.17 195.35 181.403 194.93 181.965C194.572 182.446 194.412 183.075 194.047 183.565C193.681 184.055 193.027 184.287 192.501 183.895C191.531 183.17 192.625 181.289 193.159 180.572C194.412 178.894 196.736 178.525 198.414 179.777C200.554 181.375 200.451 183.954 198.969 185.94ZM191.207 194.9C190.622 195.516 189.346 196.005 188.632 195.327C188.238 194.953 188.258 194.16 188.624 193.774C188.936 193.446 189.473 193.472 189.8 193.127C190.447 192.446 190.048 190.927 189.424 190.335C188.883 189.82 188.15 189.967 187.667 190.476C187.254 190.911 187.021 191.517 186.6 191.961C186.179 192.404 185.503 192.557 185.027 192.105C184.149 191.271 185.457 189.532 186.073 188.884C187.515 187.366 189.866 187.273 191.384 188.715C193.321 190.555 192.914 193.103 191.207 194.9ZM180.784 194.374C181.403 193.826 182.179 193.456 183.005 193.313C184.342 193.082 185.235 193.833 186.075 194.782C187.757 196.68 187.645 198.653 185.748 200.334C182.088 203.577 177.252 197.504 180.784 194.374ZM184.165 198.667C185.258 197.699 185.286 196.827 184.326 195.743C183.575 194.895 182.898 195.223 182.152 195.884C180.56 197.295 182.487 200.153 184.165 198.667ZM178.354 200.926C178.869 200.726 179.434 200.349 179.873 200.939C180.292 201.502 179.731 202.018 179.4 202.447C179.845 203.273 180.869 204.782 179.869 205.525C178.834 206.295 178.005 204.725 177.499 204.044C177.388 204.084 177.284 204.133 177.193 204.201C176.584 204.653 175.408 205.936 174.639 204.901C173.862 203.856 175.517 202.838 176.216 202.318C176.185 202.257 176.16 202.204 176.119 202.15C175.437 201.232 174.925 201.966 174.298 202.432C173.662 202.904 172.948 203.196 172.374 202.424C171.618 201.406 172.803 200.61 173.511 200.083C175.492 198.611 176.881 199.228 178.354 200.926ZM171.8 205.61C172.33 205.456 172.926 205.129 173.312 205.756C173.68 206.353 173.076 206.818 172.71 207.217C173.081 208.078 173.969 209.671 172.909 210.324C171.81 211.001 171.122 209.364 170.676 208.642C170.562 208.672 170.454 208.712 170.358 208.772C169.712 209.169 168.429 210.345 167.752 209.246C167.07 208.138 168.807 207.268 169.549 206.811C169.523 206.747 169.503 206.693 169.467 206.635C168.868 205.662 168.293 206.348 167.628 206.757C166.954 207.173 166.217 207.401 165.712 206.582C165.047 205.502 166.297 204.812 167.049 204.349C169.15 203.055 170.48 203.791 171.8 205.61ZM161.001 207.79C161.74 207.42 162.585 207.263 163.421 207.338C164.772 207.459 165.441 208.416 166.008 209.549C167.143 211.816 166.526 213.694 164.259 214.829C159.886 217.017 156.781 209.902 161.001 207.79ZM163.16 212.81C164.465 212.156 164.718 211.321 164.07 210.026C163.563 209.013 162.824 209.156 161.933 209.601C160.031 210.554 161.155 213.813 163.16 212.81ZM157.181 216.198C156.815 216.624 156.674 216.912 156.117 217.134C153.647 218.12 152.861 215.509 152.119 213.648C151.892 213.08 151.696 212.16 152.432 211.866C153.062 211.615 153.619 211.941 153.984 212.673C154.531 213.77 155.086 215.864 155.623 215.65C156.096 215.461 156.168 214.36 156.005 213.95C155.791 213.414 155.436 212.922 155.222 212.386C154.954 211.713 154.717 210.784 155.6 210.432C156.799 209.954 157.348 211.635 157.671 212.445C157.918 213.065 158.807 215.294 158.752 215.828C158.722 216.12 158.537 216.389 158.253 216.502C157.801 216.682 157.528 216.425 157.181 216.198ZM143.788 217.042C144.017 216.98 144.292 216.998 144.532 216.933C145.307 216.721 145.987 216.289 146.751 216.081C147.254 215.944 147.88 215.831 148.062 216.497C148.142 216.792 147.979 217.095 147.746 217.276C147.33 217.6 145.051 218.446 144.483 218.601C143.937 218.75 143.093 218.839 142.902 218.14C142.741 217.551 143.296 217.176 143.788 217.042ZM137.53 220.338C138.077 220.246 138.587 220.343 138.695 220.979C138.733 221.202 138.662 221.398 138.52 221.571C137.772 222.444 137.768 222.824 137.309 223.774C137.174 224.061 136.903 224.29 136.59 224.343C135.754 224.485 135.342 223.545 135.23 222.886C134.967 221.335 134.69 219.362 134.46 217.805C134.407 217.424 134.43 217.018 134.6 216.668C134.771 216.318 135.079 216.036 135.469 215.97C136.875 215.731 137.105 217.495 137.266 218.443C137.34 218.878 137.406 219.74 137.477 220.164C137.487 220.219 137.509 220.284 137.53 220.338ZM130.427 225.149C127.927 225.395 126.929 224.378 126.69 221.956C126.486 219.873 127.198 216.937 129.698 216.691C132.075 216.457 133.529 218.407 133.743 220.581C133.961 222.8 132.793 224.916 130.427 225.149ZM128.222 221.806C128.298 222.572 128.532 223.22 129.365 223.138C130.785 222.998 131.561 221.637 131.429 220.297C131.331 219.305 130.86 218.556 129.756 218.664C128.393 218.798 128.116 220.725 128.222 221.806ZM121.845 225.595C119.332 225.617 118.429 224.515 118.408 222.082C118.39 219.988 119.361 217.127 121.874 217.106C124.262 217.085 125.536 219.157 125.555 221.341C125.574 223.571 124.222 225.574 121.845 225.595ZM119.947 222.069C119.954 222.838 120.129 223.504 120.967 223.497C122.393 223.485 123.287 222.198 123.276 220.851C123.267 219.856 122.864 219.067 121.755 219.076C120.385 219.088 119.938 220.982 119.947 222.069ZM110.657 224.589C110.352 224.562 110.111 224.336 110.137 224.042C110.146 223.941 110.2 223.844 110.265 223.758C110.985 222.948 111.66 222.121 112.327 221.272C112.828 220.623 113.232 219.909 113.613 219.205C113.94 218.598 114.223 217.85 114.68 217.311C114.819 217.153 115.009 217.057 115.235 217.077C115.607 217.11 115.805 217.434 115.776 217.761C115.665 219.001 111.84 224.694 110.657 224.589ZM113.738 223.034C113.817 222.143 114.514 221.342 115.551 221.434C116.442 221.513 117.031 222.418 116.962 223.196C116.793 225.09 113.554 225.097 113.738 223.034ZM115.332 222.494C114.542 222.424 114.785 223.275 115.177 223.332C115.581 223.391 115.873 222.542 115.332 222.494ZM113.006 218.628C112.963 219.113 112.637 219.584 112.235 219.877C112.016 220.04 111.583 220.058 111.301 220.033C110.636 219.974 110.045 219.08 110.097 218.494C110.161 217.784 110.856 216.993 111.668 217.066C112.558 217.145 113.077 217.828 113.006 218.628ZM111.963 218.467C111.98 218.275 111.898 218.052 111.661 218.031C111.47 218.014 111.277 218.258 111.263 218.416C111.234 218.743 111.916 218.997 111.963 218.467ZM102.458 215.154C103.264 215.336 104.018 215.749 104.616 216.337C105.585 217.286 105.497 218.45 105.218 219.686C104.66 222.159 102.993 223.222 100.52 222.664C95.7503 221.588 97.8541 214.115 102.458 215.154ZM100.948 220.406C102.372 220.727 103.097 220.241 103.416 218.827C103.665 217.723 103.003 217.365 102.032 217.146C99.9561 216.678 98.7622 219.912 100.948 220.406ZM93.8097 219.166C93.3371 219.159 92.5822 219.183 92.1503 219.047C91.5349 218.854 90.9216 218.163 91.1355 217.483C91.4851 216.37 92.5457 216.846 93.2907 217.081C94.3596 217.417 94.4063 216.589 94.6075 215.798C94.7013 215.424 94.7951 215.05 94.9105 214.683C95.1074 214.057 95.8167 213.461 96.4969 213.675C97.7494 214.069 97.202 215.546 96.9372 216.388C96.6453 217.317 95.9274 220.543 94.4914 220.092C93.8867 219.902 94.0771 219.523 93.8097 219.166ZM86.1498 212.11C86.945 212.288 87.8016 212.406 88.556 212.715C90.0855 213.34 90.5817 214.998 89.9821 216.464C89.2412 218.277 87.0881 218.668 85.4328 217.992C85.0452 217.833 84.6937 217.616 84.3889 217.345C84.0671 217.654 83.6929 217.941 83.2215 217.748C82.6453 217.513 82.5761 216.934 82.7902 216.41C83.0814 215.698 83.5341 215.039 83.8339 214.306C84.2065 213.394 84.51 212.442 84.8869 211.52C85.3794 210.316 85.8614 209.107 87.3541 209.044C87.9512 209.019 88.554 209.07 89.1198 209.301C89.8846 209.614 91.4557 210.855 91.0617 211.819C90.8904 212.238 90.3886 212.449 89.9591 212.273C89.299 212.004 88.8313 211.323 88.1189 211.032C86.9141 210.54 86.5952 211.021 86.1498 212.11ZM85.075 215.278C85.2821 215.399 85.5041 215.514 85.7346 215.609C86.3212 215.848 87.7883 216.118 88.101 215.353C88.2423 215.007 88.1946 214.646 87.8174 214.491C87.1155 214.204 86.1894 214.107 85.4403 213.935C85.3171 214.386 85.1772 214.818 85.075 215.278ZM79.0378 209.489C78.5989 210.014 77.8871 211.136 77.0739 210.713C76.7828 210.561 76.6307 210.265 76.6461 209.941C76.6999 209.127 77.128 208.329 77.1751 207.308C77.1892 207.06 77.2287 206.812 77.3489 206.581C77.6416 206.019 78.2896 205.706 78.8819 206.014C79.5646 206.37 79.5704 206.947 79.6255 207.601C80.5388 207.783 81.1804 207.555 82.104 208.036C83.5697 208.799 84.0694 210.437 83.3116 211.893C82.2977 213.841 80.0561 214.715 78.0482 213.67C77.3756 213.32 76.0489 212.412 76.5193 211.509C77.298 210.013 79.929 213.194 81.3035 210.554C81.5073 210.163 81.4665 209.873 81.0649 209.664C80.6935 209.471 79.4933 209.497 79.0378 209.489ZM72.3504 209.3C71.7905 209.253 71.4746 209.307 70.9682 208.985C68.7229 207.56 70.3797 205.394 71.4536 203.703C71.7812 203.187 72.4125 202.488 73.0813 202.913C73.6546 203.277 73.716 203.919 73.3364 204.644C72.7672 205.73 71.3946 207.406 71.8819 207.715C72.3118 207.988 73.2471 207.402 73.4837 207.03C73.7931 206.543 73.9844 205.967 74.2938 205.48C74.6821 204.868 75.2969 204.132 76.0995 204.642C77.1887 205.334 76.1466 206.763 75.6794 207.499C75.3215 208.063 74.0352 210.088 73.5702 210.356C73.316 210.503 72.9896 210.51 72.7316 210.346C72.3208 210.086 72.369 209.714 72.3504 209.3ZM69.1893 200.992C69.4903 200.582 69.9629 200.339 70.4286 200.68C71.2229 201.262 70.5652 202.772 70.117 203.384C69.6822 203.977 68.6854 205.127 67.882 204.539C67.3525 204.151 67.435 203.636 67.7055 203.132C67.9384 202.7 68.3094 202.27 69.1893 200.992ZM65.9639 205.49C66.2516 205.098 66.8253 204.985 67.227 205.279C67.6287 205.574 67.6874 206.164 67.3998 206.556C67.1255 206.931 66.5652 207.025 66.1817 206.744C65.7709 206.443 65.6562 205.91 65.9639 205.49ZM60.5816 202.576C59.9269 202.036 59.3499 200.797 59.9766 200.037C60.3224 199.618 61.1149 199.583 61.5252 199.921C61.8744 200.209 61.8857 200.747 62.2523 201.05C62.9769 201.647 64.4642 201.143 65.0117 200.48C65.4871 199.904 65.2894 199.183 64.7482 198.736C64.2855 198.354 63.6644 198.165 63.193 197.776C62.7216 197.387 62.5213 196.723 62.9391 196.216C63.7099 195.282 65.5357 196.466 66.2254 197.035C67.8404 198.368 68.0966 200.707 66.7639 202.322C65.0638 204.382 62.4934 204.154 60.5816 202.576ZM51.9903 194.352C51.4074 193.735 50.988 192.434 51.7038 191.758C52.0988 191.385 52.8896 191.447 53.2549 191.834C53.5658 192.163 53.5105 192.698 53.837 193.043C54.4821 193.726 56.0203 193.41 56.6456 192.819C57.1886 192.306 57.0815 191.566 56.5996 191.056C56.1877 190.62 55.5948 190.355 55.1751 189.911C54.7554 189.467 54.6387 188.783 55.1159 188.332C55.9962 187.5 57.6618 188.901 58.2758 189.551C59.7136 191.073 59.6787 193.426 58.1567 194.864C56.215 196.698 53.6925 196.154 51.9903 194.352ZM53.0998 183.954C53.6092 184.605 53.9315 185.402 54.0235 186.236C54.1739 187.584 53.3696 188.43 52.3715 189.211C50.3754 190.774 48.4122 190.543 46.8491 188.547C43.8347 184.698 50.1901 180.239 53.0998 183.954ZM48.6093 187.068C49.5094 188.218 50.3783 188.299 51.5189 187.406C52.41 186.708 52.1238 186.012 51.5098 185.228C50.1979 183.553 47.2276 185.304 48.6093 187.068ZM46.7029 181.109C46.8676 181.635 47.2072 182.224 46.589 182.623C45.9993 183.004 45.5217 182.409 45.1158 182.051C44.2623 182.44 42.6881 183.362 42.0132 182.315C41.3138 181.231 42.9353 180.508 43.6486 180.048C43.6158 179.935 43.5734 179.827 43.5121 179.732C43.101 179.095 41.8988 177.837 42.9831 177.137C44.0768 176.432 44.9833 178.15 45.4557 178.883C45.5189 178.855 45.5726 178.834 45.6296 178.797C46.5902 178.178 45.8923 177.618 45.469 176.962C45.0396 176.296 44.7963 175.564 45.6048 175.042C46.67 174.355 47.386 175.59 47.8645 176.332C49.2019 178.406 48.4941 179.751 46.7029 181.109ZM42.4646 174.27C42.5845 174.809 42.8733 175.425 42.2237 175.77C41.6042 176.099 41.1782 175.467 40.8038 175.077C39.9206 175.392 38.2745 176.178 37.69 175.079C37.0843 173.939 38.7607 173.356 39.5102 172.957C39.4871 172.841 39.4539 172.731 39.4008 172.631C39.0448 171.961 37.9526 170.606 39.0918 170.001C40.241 169.389 40.9998 171.178 41.4089 171.948C41.4742 171.926 41.5295 171.909 41.5895 171.877C42.5988 171.34 41.9504 170.724 41.5838 170.034C41.2118 169.335 41.031 168.585 41.8804 168.133C42.9996 167.538 43.6092 168.829 44.0237 169.609C45.1821 171.787 44.3636 173.068 42.4646 174.27ZM40.9739 163.357C41.2962 164.118 41.3996 164.971 41.2712 165.8C41.065 167.141 40.0682 167.748 38.901 168.242C36.5665 169.231 34.7312 168.496 33.7424 166.162C31.8353 161.66 39.133 159.011 40.9739 163.357ZM35.8271 165.193C36.3965 166.537 37.2141 166.842 38.5481 166.277C39.5903 165.836 39.4953 165.089 39.1068 164.172C38.2769 162.213 34.953 163.129 35.8271 165.193ZM32.8229 159.043C32.4189 158.652 32.1399 158.494 31.9508 157.925C31.1125 155.401 33.7653 154.77 35.6665 154.139C36.2465 153.946 37.1772 153.804 37.4269 154.556C37.641 155.2 37.2825 155.737 36.5305 156.058C35.4026 156.54 33.2797 156.971 33.4616 157.519C33.6222 158.002 34.7172 158.139 35.1361 158C35.6839 157.818 36.1961 157.493 36.7439 157.311C37.4313 157.083 38.3728 156.901 38.6725 157.804C39.0792 159.028 37.3679 159.477 36.5408 159.752C35.9071 159.962 33.63 160.719 33.1003 160.632C32.8105 160.585 32.553 160.385 32.4567 160.095C32.3033 159.633 32.5756 159.375 32.8229 159.043ZM32.7843 145.628C32.8343 145.861 32.8005 146.134 32.8529 146.378C33.022 147.163 33.4163 147.866 33.583 148.64C33.6925 149.149 33.7706 149.781 33.0956 149.926C32.7969 149.99 32.5034 149.81 32.3356 149.569C32.0341 149.136 31.3142 146.813 31.1904 146.238C31.0713 145.684 31.0279 144.837 31.7361 144.685C32.3335 144.556 32.6771 145.13 32.7843 145.628ZM29.8291 139.213C29.8933 139.764 29.7698 140.268 29.129 140.343C28.9042 140.369 28.7125 140.289 28.5467 140.137C27.7138 139.346 27.3349 139.321 26.4097 138.814C26.1302 138.664 25.9149 138.382 25.8782 138.067C25.7799 137.224 26.7404 136.861 27.4036 136.784C28.9663 136.601 30.9514 136.427 32.518 136.278C32.9015 136.245 33.3054 136.289 33.6464 136.477C33.9874 136.665 34.2529 136.988 34.2988 137.381C34.464 138.798 32.6911 138.936 31.7355 139.047C31.2971 139.099 30.4335 139.12 30.0064 139.169C29.9501 139.176 29.884 139.195 29.8291 139.213ZM25.3894 131.879C25.2709 129.369 26.3367 128.424 28.7673 128.309C30.8589 128.21 33.7548 129.07 33.8733 131.58C33.986 133.966 31.965 135.319 29.7831 135.422C27.5559 135.527 25.5015 134.253 25.3894 131.879ZM28.8399 129.846C28.0712 129.883 27.4122 130.084 27.4517 130.92C27.5189 132.345 28.8391 133.189 30.1845 133.125C31.1794 133.078 31.9521 132.645 31.8998 131.537C31.8352 130.169 29.9253 129.795 28.8399 129.846ZM25.3463 123.347C25.4332 120.836 26.5726 119.98 29.0046 120.065C31.0972 120.137 33.9132 121.231 33.8263 123.742C33.7437 126.129 31.6189 127.312 29.4358 127.237C27.2075 127.16 25.2641 125.722 25.3463 123.347ZM28.9513 121.603C28.1822 121.576 27.5089 121.723 27.48 122.56C27.4306 123.985 28.6775 124.934 30.0235 124.981C31.0189 125.015 31.8244 124.647 31.8628 123.538C31.9102 122.17 30.0372 121.64 28.9513 121.603ZM26.7273 112.315C26.7633 112.012 26.9962 111.777 27.2884 111.812C27.3896 111.824 27.4854 111.881 27.5687 111.948C28.3582 112.691 29.1644 113.39 29.9943 114.081C30.628 114.601 31.3299 115.026 32.0231 115.427C32.6206 115.771 33.3596 116.075 33.8849 116.548C34.0388 116.692 34.1299 116.885 34.1033 117.109C34.0594 117.48 33.7293 117.669 33.4033 117.631C32.167 117.484 26.5875 113.495 26.7273 112.315ZM28.1921 115.441C29.08 115.546 29.861 116.265 29.7385 117.299C29.6333 118.187 28.7118 118.75 27.9363 118.658C26.048 118.435 26.1353 115.197 28.1921 115.441ZM28.6854 117.049C28.7786 116.262 27.9208 116.48 27.8517 116.87C27.7813 117.272 28.6215 117.588 28.6854 117.049ZM32.6174 114.836C32.1341 114.779 31.6728 114.44 31.3908 114.03C31.2349 113.806 31.2293 113.373 31.2626 113.092C31.3412 112.429 32.2514 111.864 32.8359 111.933C33.544 112.017 34.3137 112.735 34.2179 113.544C34.1127 114.432 33.4154 114.931 32.6174 114.836ZM32.8086 113.799C32.9997 113.822 33.2252 113.746 33.2532 113.51C33.2758 113.319 33.0373 113.12 32.8799 113.101C32.554 113.062 32.2804 113.737 32.8086 113.799ZM36.3323 104.382C36.1339 105.184 35.7049 105.929 35.1052 106.515C34.1359 107.465 32.9745 107.352 31.7439 107.048C29.2828 106.439 28.2545 104.751 28.8631 102.29C30.0367 97.5436 37.4651 99.8 36.3323 104.382ZM31.1125 102.765C30.762 104.182 31.2333 104.916 32.6397 105.264C33.7384 105.536 34.1101 104.882 34.3491 103.915C34.8599 101.849 31.6504 100.589 31.1125 102.765ZM32.4435 95.7122C32.4537 95.2396 32.4364 94.4846 32.5758 94.0539C32.7745 93.4401 33.4708 92.8327 34.1491 93.0523C35.2582 93.4113 34.7735 94.4678 34.533 95.2108C34.188 96.2768 35.0152 96.3305 35.8045 96.5383C36.1776 96.6353 36.5507 96.7323 36.9168 96.8508C37.5413 97.0529 38.1309 97.7672 37.9114 98.4456C37.5071 99.6947 36.0347 99.1349 35.1948 98.863C34.2687 98.5632 31.0481 97.8182 31.5117 96.386C31.7068 95.783 32.0843 95.9766 32.4435 95.7122ZM39.5384 88.1111C39.3566 88.9056 39.2351 89.7617 38.9235 90.5147C38.2916 92.0415 36.6316 92.5305 35.1675 91.9246C33.3583 91.1759 32.9761 89.0211 33.6599 87.3688C33.82 86.9818 34.0386 86.6313 34.3112 86.3277C34.004 86.0045 33.7184 85.6291 33.9131 85.1585C34.1511 84.5833 34.7299 84.5166 35.2528 84.733C35.964 85.0273 36.6207 85.4828 37.3527 85.7857C38.2626 86.1623 39.2132 86.4699 40.1335 86.8507C41.3361 87.3484 42.5431 87.8357 42.599 89.3287C42.6213 89.9259 42.5679 90.5285 42.3342 91.0932C42.0183 91.8566 40.7701 93.4224 39.808 93.0243C39.3897 92.8512 39.1813 92.3484 39.3587 91.9197C39.6313 91.2608 40.3137 90.796 40.608 90.0848C41.1056 88.8822 40.626 88.5612 39.5384 88.1111ZM36.3754 87.0226C36.2531 87.2293 36.137 87.4507 36.0418 87.6808C35.7994 88.2664 35.5235 89.7324 36.287 90.0483C36.6321 90.1911 36.9941 90.145 37.1499 89.7685C37.4399 89.0678 37.5413 88.1421 37.7162 87.3938C37.2658 87.2686 36.8345 87.1269 36.3754 87.0226ZM42.1271 81.0115C41.6001 80.5758 40.4736 79.8706 40.892 79.0549C41.0419 78.7629 41.337 78.609 41.6609 78.6225C42.4753 78.6715 43.2758 79.0949 44.2978 79.1358C44.5457 79.1485 44.7934 79.1865 45.025 79.3053C45.5889 79.5947 45.9062 80.2408 45.6014 80.835C45.2501 81.5197 44.6729 81.5289 44.0193 81.5879C43.8428 82.5023 44.074 83.1425 43.5987 84.069C42.8445 85.5392 41.2093 86.0487 39.7491 85.2996C37.7955 84.2973 36.9075 82.0609 37.9408 80.0468C38.2869 79.3721 39.1866 78.0401 40.0929 78.505C41.5934 79.2748 38.4275 81.9248 41.076 83.2835C41.4687 83.485 41.7577 83.4424 41.9643 83.0396C42.1555 82.667 42.1224 81.467 42.1271 81.0115ZM42.2289 74.359C42.2677 73.7984 42.2088 73.4834 42.5227 72.9722C43.9145 70.7057 46.1049 72.3297 47.812 73.378C48.3328 73.6978 49.0408 74.3185 48.6262 74.9936C48.2708 75.5723 47.6295 75.6434 46.8996 75.2748C45.8046 74.722 44.1084 73.3748 43.8063 73.8667C43.5398 74.3007 44.1397 75.227 44.5159 75.458C45.0078 75.76 45.5863 75.9426 46.0782 76.2447C46.6954 76.6237 47.4404 77.2273 46.9429 78.0375C46.2677 79.137 44.8224 78.1166 44.0798 77.6605C43.5107 77.3111 41.466 76.0555 41.1913 75.5946C41.0405 75.3426 41.0283 75.0164 41.1882 74.7559C41.4429 74.3412 41.8152 74.3839 42.2289 74.359ZM50.4785 71.0705C50.8948 71.3639 51.1465 71.832 50.814 72.3038C50.2469 73.1087 48.7245 72.4791 48.1046 72.0423C47.5032 71.6185 46.3352 70.6432 46.9089 69.829C47.287 69.2924 47.8032 69.3654 48.3114 69.6266C48.7484 69.8514 49.1849 70.2144 50.4785 71.0705ZM45.9217 67.9288C46.3195 68.2092 46.4429 68.7807 46.1561 69.1878C45.8692 69.5949 45.2802 69.6645 44.8824 69.3841C44.5031 69.1168 44.3982 68.5583 44.672 68.1698C44.9654 67.7534 45.4961 67.629 45.9217 67.9288ZM48.6866 62.5102C49.2109 61.8427 50.4358 61.236 51.2102 61.8442C51.6374 62.1798 51.6922 62.9712 51.3636 63.3895C51.084 63.7456 50.5469 63.7698 50.2532 64.1437C49.673 64.8824 50.213 66.3571 50.8894 66.8884C51.4769 67.3498 52.1926 67.1348 52.6261 66.583C52.9966 66.1112 53.1713 65.4857 53.5488 65.005C53.9263 64.5244 54.5855 64.3081 55.1017 64.7136C56.0541 65.4616 54.9147 67.3155 54.3624 68.0187C53.0691 69.6654 50.7368 69.9779 49.0901 68.6846C46.9895 67.0347 47.1556 64.4595 48.6866 62.5102ZM56.6266 53.7246C57.2252 53.1228 58.5125 52.6632 59.2106 53.3577C59.5958 53.7408 59.5578 54.5332 59.1827 54.9103C58.8634 55.2313 58.3271 55.1927 57.9918 55.5297C57.3293 56.1957 57.6935 57.7233 58.3033 58.33C58.8329 58.8568 59.5688 58.7268 60.0637 58.2293C60.4868 57.8041 60.7333 57.2032 61.1643 56.7699C61.5954 56.3366 62.2753 56.1987 62.7407 56.6617C63.5992 57.5158 62.2512 59.224 61.6206 59.8579C60.1439 61.3423 57.7911 61.3805 56.3066 59.9038C54.413 58.02 54.8785 55.4818 56.6266 53.7246ZM67.038 54.4938C66.4066 55.0266 65.6218 55.3778 64.7922 55.5002C63.45 55.6997 62.5758 54.9268 61.7584 53.958C60.1235 52.0203 60.2825 50.0499 62.2202 48.415C65.9572 45.262 70.6453 51.4503 67.038 54.4938ZM63.7623 50.12C62.6464 51.0615 62.5967 51.9327 63.5309 53.04C64.2608 53.905 64.9458 53.5936 65.707 52.9514C67.3333 51.5792 65.4751 48.6749 63.7623 50.12ZM69.6349 48.0002C69.1151 48.1858 68.5401 48.5487 68.1169 47.9469C67.7133 47.3729 68.288 46.8719 68.6292 46.4521C68.2065 45.6148 67.2231 44.0787 68.2415 43.3625C69.2969 42.6203 70.0838 44.2116 70.5721 44.9059C70.6842 44.8686 70.7898 44.822 70.8824 44.7569C71.5027 44.3207 72.7119 43.0691 73.4541 44.1246C74.2028 45.1893 72.522 46.1637 71.8091 46.665C71.8389 46.727 71.8622 46.7798 71.9013 46.8354C72.5588 47.7705 73.0904 47.0507 73.7292 46.6015C74.3773 46.1458 75.099 45.8735 75.6524 46.6604C76.3816 47.6973 75.176 48.4621 74.4538 48.9699C72.4356 50.3892 71.0628 49.7357 69.6349 48.0002ZM76.2929 43.4926C75.7596 43.6346 75.1565 43.9486 74.7846 43.3138C74.4299 42.7084 75.0441 42.2567 75.4189 41.8665C75.067 40.9971 74.2142 39.3848 75.2884 38.7555C76.4016 38.1032 77.0541 39.7542 77.4832 40.4866C77.598 40.4587 77.7071 40.421 77.8048 40.3638C78.459 39.9805 79.7677 38.8333 80.42 39.9466C81.0779 41.0696 79.3222 41.9015 78.5703 42.342C78.5948 42.4064 78.6137 42.4609 78.648 42.5195C79.2259 43.5058 79.8152 42.8326 80.489 42.4378C81.1726 42.0373 81.9144 41.8257 82.4007 42.6558C83.0415 43.7495 81.7768 44.4118 81.015 44.8581C78.8862 46.1053 77.5722 45.3404 76.2929 43.4926ZM87.1375 41.5565C86.3904 41.9091 85.5417 42.0469 84.7085 41.9521C83.3601 41.8 82.7138 40.8285 82.1728 39.6821C81.0906 37.3895 81.7505 35.5261 84.0432 34.4439C88.4648 32.3569 91.4056 39.5419 87.1375 41.5565ZM85.0955 36.4878C83.7752 37.111 83.5033 37.9403 84.1216 39.2504C84.6047 40.2739 85.3468 40.1489 86.2475 39.7238C88.1717 38.8155 87.1221 35.5313 85.0955 36.4878ZM91.1437 33.2383C91.5191 32.8202 91.6665 32.5356 92.2285 32.3257C94.7202 31.3952 95.4478 34.0231 96.1486 35.8998C96.3624 36.4724 96.5387 37.3972 95.7965 37.6744C95.1603 37.912 94.611 37.5734 94.2623 36.8338C93.7393 35.7243 93.2308 33.6187 92.6901 33.8206C92.213 33.9988 92.1161 35.0981 92.2705 35.5116C92.4724 36.0524 92.8161 36.5523 93.0181 37.093C93.2715 37.7716 93.4875 38.7058 92.5968 39.0384C91.3881 39.4898 90.8764 37.7961 90.5715 36.9797C90.3379 36.3541 89.4985 34.1063 89.5655 33.5739C89.6017 33.2825 89.7928 33.0178 90.0791 32.9109C90.535 32.7407 90.8022 33.0033 91.1437 33.2383ZM104.553 32.7108C104.322 32.7689 104.048 32.7447 103.806 32.8056C103.027 33.0019 102.339 33.4205 101.571 33.6141C101.066 33.7414 100.438 33.8414 100.269 33.1719C100.194 32.8756 100.364 32.5761 100.599 32.3999C101.022 32.0834 103.318 31.283 103.888 31.1392C104.437 31.0009 105.282 30.9279 105.459 31.6303C105.609 32.2229 105.047 32.5863 104.553 32.7108ZM110.897 29.559C110.348 29.6388 109.84 29.5296 109.747 28.8912C109.715 28.6672 109.79 28.4734 109.936 28.3033C110.704 27.4482 110.717 27.0688 111.198 26.1297C111.34 25.846 111.617 25.6228 111.93 25.5772C112.77 25.455 113.16 26.4048 113.256 27.0656C113.483 28.6224 113.713 30.6018 113.906 32.1635C113.95 32.5459 113.918 32.951 113.739 33.2972C113.561 33.6434 113.246 33.9179 112.854 33.9749C111.443 34.1802 111.255 32.412 111.116 31.4599C111.053 31.0231 111.007 30.1605 110.945 29.7349C110.937 29.6789 110.916 29.6133 110.897 29.559ZM118.148 24.931C120.654 24.7545 121.624 25.7981 121.795 28.2255C121.942 30.3141 121.149 33.2292 118.642 33.4057C116.26 33.5735 114.861 31.5844 114.707 29.4054C114.551 27.1812 115.777 25.098 118.148 24.931ZM120.259 28.3336C120.205 27.5659 119.989 26.9117 119.154 26.9705C117.731 27.0707 116.918 28.4101 117.012 29.7536C117.082 30.7472 117.533 31.5096 118.639 31.4317C120.006 31.3355 120.336 29.4175 120.259 28.3336ZM126.743 24.724C129.255 24.7729 130.128 25.8993 130.08 28.3322C130.04 30.4257 128.988 33.2579 126.476 33.209C124.088 33.1625 122.873 31.056 122.915 28.872C122.959 26.6428 124.367 24.6778 126.743 24.724ZM128.541 28.3023C128.556 27.5328 128.4 26.8618 127.562 26.8455C126.136 26.8178 125.206 28.0789 125.18 29.4255C125.161 30.4213 125.541 31.2211 126.65 31.2427C128.019 31.2693 128.52 29.3886 128.541 28.3023ZM137.859 26.0041C138.162 26.0382 138.398 26.2697 138.366 26.5621C138.354 26.6633 138.298 26.7595 138.232 26.8432C137.493 27.6374 136.799 28.4479 136.113 29.2821C135.598 29.919 135.177 30.6235 134.78 31.3193C134.439 31.9189 134.14 32.6598 133.671 33.188C133.528 33.3429 133.336 33.4352 133.111 33.41C132.739 33.3683 132.549 33.0394 132.585 32.7133C132.724 31.476 136.678 25.8717 137.859 26.0041ZM134.743 27.4884C134.643 28.377 133.928 29.1624 132.894 29.0464C132.005 28.9468 131.436 28.0288 131.523 27.2528C131.735 25.3632 134.973 25.4301 134.743 27.4884ZM133.137 27.9918C133.925 28.08 133.702 27.2237 133.311 27.157C132.908 27.0891 132.597 27.9313 133.137 27.9918ZM135.374 31.9098C135.429 31.4262 135.765 30.9628 136.173 30.6783C136.396 30.521 136.829 30.5127 137.111 30.5442C137.774 30.6186 138.344 31.5253 138.279 32.1102C138.199 32.8188 137.486 33.593 136.676 33.5022C135.788 33.4026 135.285 32.7084 135.374 31.9098ZM136.413 32.0946C136.391 32.2858 136.469 32.5109 136.705 32.5373C136.896 32.5588 137.094 32.319 137.111 32.1615C137.148 31.8354 136.472 31.566 136.413 32.0946ZM145.841 35.608C145.04 35.4059 144.297 34.9734 143.713 34.3711C142.768 33.3974 142.886 32.2365 143.196 31.0073C143.816 28.549 145.509 27.5286 147.967 28.1486C152.708 29.3442 150.417 36.7621 145.841 35.608ZM147.482 30.3958C146.066 30.0387 145.33 30.5066 144.976 31.9114C144.699 33.0088 145.351 33.3835 146.317 33.627C148.38 34.1473 149.655 30.9438 147.482 30.3958ZM154.594 31.8196C155.067 31.8381 155.822 31.8341 156.25 31.9811C156.86 32.1906 157.455 32.8974 157.224 33.5718C156.845 34.6744 155.798 34.1711 155.059 33.9176C153.999 33.5538 153.931 34.38 153.709 35.1654C153.606 35.5367 153.502 35.908 153.377 36.272C153.164 36.8929 152.439 37.4698 151.765 37.2383C150.523 36.812 151.109 35.3498 151.396 34.5148C151.712 33.5942 152.513 30.3872 153.937 30.8759C154.537 31.0817 154.336 31.4558 154.594 31.8196ZM162.069 39.0586C161.278 38.8614 160.424 38.7232 159.677 38.397C158.163 37.7355 157.707 36.0663 158.341 34.6143C159.125 32.82 161.287 32.4798 162.925 33.1957C163.309 33.3633 163.655 33.5887 163.954 33.8672C164.283 33.5663 164.663 33.288 165.13 33.4919C165.701 33.7411 165.756 34.3211 165.53 34.8397C165.221 35.545 164.753 36.1926 164.436 36.9187C164.042 37.821 163.716 38.7654 163.317 39.6781C162.796 40.8709 162.285 42.0681 160.792 42.0949C160.194 42.1056 159.593 42.0405 159.033 41.7958C158.275 41.4651 156.734 40.1867 157.151 39.2325C157.332 38.8176 157.839 38.619 158.264 38.8048C158.918 39.0902 159.369 39.7814 160.074 40.0895C161.267 40.6106 161.597 40.1373 162.069 39.0586ZM163.218 35.9174C163.014 35.7912 162.795 35.6707 162.567 35.5711C161.986 35.3173 160.526 35.0129 160.195 35.7701C160.046 36.1123 160.085 36.4752 160.458 36.6383C161.153 36.9419 162.077 37.0613 162.821 37.2507C162.955 36.8028 163.105 36.3744 163.218 35.9174ZM169.117 41.85C169.568 41.3364 170.307 40.2315 171.11 40.6743C171.397 40.8328 171.542 41.1325 171.519 41.4558C171.446 42.2684 170.998 43.0558 170.927 44.0761C170.907 44.3235 170.861 44.5699 170.735 44.7979C170.429 45.3529 169.774 45.6505 169.189 45.328C168.515 44.9563 168.523 44.3791 168.484 43.7241C167.575 43.5201 166.929 43.7321 166.017 43.2291C164.57 42.431 164.11 40.7812 164.902 39.3442C165.963 37.4216 168.225 36.6013 170.207 37.6946C170.871 38.0609 172.176 39.0001 171.684 39.8921C170.869 41.3687 168.315 38.1247 166.878 40.7311C166.664 41.1176 166.698 41.4077 167.095 41.6264C167.461 41.8286 168.662 41.8316 169.117 41.85ZM175.818 42.2279C176.377 42.2914 176.694 42.2464 177.191 42.5825C179.394 44.0727 177.675 46.1895 176.553 47.8488C176.21 48.3551 175.559 49.035 174.903 48.5911C174.34 48.2106 174.297 47.5668 174.698 46.8538C175.298 45.7842 176.719 44.1489 176.241 43.8255C175.819 43.5401 174.867 44.0987 174.62 44.4644C174.296 44.9425 174.088 45.5124 173.765 45.9905C173.359 46.5905 172.723 47.3082 171.936 46.7755C170.867 46.0526 171.95 44.6536 172.438 43.9317C172.813 43.3786 174.157 41.3912 174.63 41.1369C174.888 40.9974 175.214 40.9996 175.467 41.1708C175.871 41.4435 175.812 41.8135 175.818 42.2279ZM178.745 50.5987C178.436 51.0035 177.958 51.237 177.5 50.8866C176.717 50.289 177.405 48.7919 177.865 48.1892C178.311 47.6046 179.331 46.4749 180.122 47.0794C180.644 47.4778 180.551 47.9909 180.271 48.4887C180.029 48.9167 179.65 49.339 178.745 50.5987ZM182.059 46.1659C181.764 46.5527 181.188 46.6541 180.792 46.3518C180.396 46.0495 180.349 45.4583 180.645 45.0715C180.926 44.7027 181.489 44.6194 181.866 44.9079C182.271 45.217 182.375 45.7522 182.059 46.1659ZM187.395 49.2292C188.036 49.7855 188.582 51.0385 187.937 51.7823C187.581 52.1926 186.788 52.2087 186.386 51.8601C186.044 51.5634 186.046 51.0257 185.687 50.7142C184.977 50.0986 183.478 50.5659 182.914 51.2156C182.425 51.7798 182.604 52.5052 183.134 52.9651C183.588 53.3582 184.204 53.5632 184.665 53.9638C185.127 54.3643 185.311 55.0332 184.881 55.5291C184.087 56.4438 182.291 55.2152 181.616 54.6292C180.034 53.257 179.836 50.9123 181.208 49.3307C182.958 47.3132 185.523 47.6048 187.395 49.2292ZM195.777 57.6817C196.344 58.3137 196.729 59.6251 195.996 60.2825C195.592 60.6451 194.803 60.5621 194.448 60.166C194.146 59.829 194.215 59.2957 193.897 58.9418C193.27 58.2424 191.724 58.5189 191.084 59.0931C190.528 59.5918 190.616 60.334 191.084 60.8564C191.484 61.303 192.07 61.5834 192.478 62.0384C192.886 62.4935 192.985 63.1801 192.496 63.6184C191.595 64.4268 189.966 62.9836 189.369 62.3179C187.971 60.759 188.068 58.4078 189.626 57.01C191.615 55.2268 194.123 55.8363 195.777 57.6817ZM194.408 68.0379C193.914 67.3759 193.61 66.5718 193.537 65.7363C193.417 64.3847 194.24 63.5578 195.256 62.7992C197.287 61.282 199.245 61.5575 200.762 63.5886C203.688 67.5058 197.233 71.8191 194.408 68.0379ZM198.968 65.0271C198.095 63.8573 197.228 63.7561 196.067 64.623C195.161 65.3004 195.431 66.0026 196.027 66.8006C197.3 68.5053 200.31 66.8225 198.968 65.0271ZM200.739 71.0298C200.586 70.4994 200.26 69.9026 200.888 69.5183C201.486 69.1516 201.95 69.7568 202.347 70.1239C203.209 69.7548 204.805 68.8703 205.455 69.9319C206.129 71.032 204.491 71.717 203.768 72.1605C203.798 72.2747 203.838 72.383 203.897 72.4795C204.293 73.1261 205.466 74.4119 204.366 75.086C203.256 75.766 202.389 74.0271 201.934 73.284C201.87 73.3098 201.816 73.3297 201.758 73.3652C200.783 73.9625 201.468 74.5384 201.876 75.2043C202.29 75.8798 202.516 76.6173 201.696 77.1199C200.615 77.7822 199.928 76.5308 199.467 75.778C198.178 73.6742 198.917 72.3454 200.739 71.0298ZM204.818 77.9628C204.71 77.4215 204.435 76.7996 205.092 76.469C205.719 76.1537 206.131 76.7955 206.496 77.1945C207.386 76.8988 209.05 76.1508 209.609 77.263C210.189 78.4157 208.5 78.9613 207.742 79.3427C207.762 79.4591 207.793 79.5704 207.844 79.6715C208.184 80.3489 209.245 81.7282 208.093 82.308C206.93 82.8929 206.212 81.0876 205.82 80.309C205.755 80.3294 205.699 80.3447 205.638 80.3753C204.617 80.8889 205.251 81.5201 205.602 82.2178C205.958 82.9255 206.122 83.6793 205.263 84.1116C204.13 84.6812 203.55 83.3767 203.153 82.5881C202.045 80.3839 202.892 79.1215 204.818 77.9628ZM206.06 88.9086C205.755 88.1407 205.671 87.285 205.819 86.4595C206.056 85.1234 207.066 84.5398 208.244 84.0723C210.601 83.1372 212.419 83.9135 213.354 86.27C215.157 90.8147 207.801 93.2955 206.06 88.9086ZM211.248 87.1911C210.709 85.834 209.899 85.5102 208.552 86.0445C207.5 86.462 207.578 87.2104 207.945 88.1362C208.73 90.114 212.074 89.2741 211.248 87.1911ZM214.109 93.4323C214.503 93.8334 214.777 93.9984 214.951 94.5725C215.723 97.1178 213.055 97.6785 211.137 98.2597C210.553 98.437 209.618 98.5547 209.389 97.7965C209.192 97.1466 209.564 96.6197 210.324 96.3183C211.464 95.8662 213.598 95.4914 213.43 94.939C213.283 94.4516 212.192 94.2856 211.769 94.4137C211.217 94.5812 210.696 94.8927 210.144 95.0602C209.451 95.2704 208.505 95.4271 208.229 94.5172C207.855 93.2825 209.577 92.8785 210.411 92.6257C211.05 92.4319 213.346 91.7358 213.873 91.8361C214.162 91.8906 214.414 92.098 214.503 92.3904C214.644 92.8562 214.365 93.1063 214.109 93.4323ZM213.185 103.492C213.133 103.26 213.164 102.987 213.109 102.744C212.931 101.96 212.53 101.262 212.355 100.489C212.24 99.9812 212.155 99.3506 212.829 99.1982C213.127 99.1307 213.422 99.3076 213.592 99.5475C213.898 99.9773 214.643 102.292 214.773 102.866C214.898 103.418 214.95 104.265 214.244 104.425C213.647 104.56 213.298 103.989 213.185 103.492Z" fill="#2B4610"/>
</svg>
