<svg width="435" height="449" viewBox="0 0 435 449" fill="none" xmlns="http://www.w3.org/2000/svg">
<path d="M403.93 128.579C403.408 127.461 403.315 126.309 404.615 125.702C405.072 125.489 405.532 125.524 405.989 125.728C408.303 126.815 409.12 126.6 411.429 127.023C412.124 127.143 412.777 127.588 413.075 128.227C413.874 129.938 412.1 131.378 410.754 132.006C407.583 133.487 403.514 135.247 400.311 136.66C399.524 136.999 398.641 137.189 397.789 137.031C396.937 136.873 396.15 136.379 395.778 135.58C394.435 132.706 398.081 131.17 400.021 130.265C400.91 129.849 402.719 129.199 403.586 128.795C403.7 128.741 403.826 128.655 403.93 128.579ZM418.453 140.864C420.485 146.071 418.909 148.821 413.866 150.789C409.526 152.482 402.81 152.724 400.778 147.517C398.847 142.567 402.147 138.279 406.674 136.513C411.295 134.71 416.531 135.938 418.453 140.864ZM412.621 147.599C414.216 146.976 415.463 146.085 414.786 144.349C413.633 141.393 410.25 140.551 407.458 141.64C405.394 142.445 404.072 143.907 404.969 146.206C406.077 149.044 410.369 148.477 412.621 147.599ZM424.596 158.86C426.185 164.219 424.385 166.828 419.195 168.367C414.729 169.692 408.016 169.372 406.426 164.013C404.915 158.92 408.562 154.923 413.221 153.541C417.977 152.13 423.092 153.791 424.596 158.86ZM418.221 165.084C419.863 164.597 421.18 163.813 420.65 162.027C419.748 158.985 416.447 157.863 413.574 158.715C411.45 159.345 410.011 160.691 410.713 163.057C411.579 165.978 415.904 165.772 418.221 165.084ZM429.454 183.144C429.592 183.81 429.265 184.469 428.623 184.601C428.402 184.647 428.159 184.594 427.937 184.511C425.748 183.497 423.555 182.587 421.317 181.712C419.615 181.06 417.834 180.656 416.089 180.296C414.586 179.989 412.812 179.867 411.372 179.239C410.946 179.044 410.618 178.7 410.516 178.207C410.348 177.393 410.912 176.762 411.627 176.615C414.34 176.055 428.92 180.555 429.454 183.144ZM424.166 177.576C422.218 177.978 420.064 177.008 419.596 174.74C419.194 172.791 420.744 170.955 422.445 170.604C426.588 169.749 428.679 176.645 424.166 177.576ZM421.995 174.528C422.351 176.254 424.009 175.192 423.88 174.319C423.746 173.421 421.751 173.344 421.995 174.528ZM415.25 181.961C416.31 181.742 417.522 182.135 418.405 182.801C418.892 183.163 419.208 184.075 419.335 184.692C419.635 186.147 418.111 187.978 416.828 188.242C415.275 188.563 413.145 187.588 412.779 185.813C412.377 183.864 413.499 182.322 415.25 181.961ZM415.575 184.285C415.156 184.371 414.733 184.69 414.84 185.208C414.926 185.627 415.57 185.88 415.915 185.809C416.63 185.661 416.734 184.046 415.575 184.285ZM414.776 206.637C414.627 204.805 415.004 202.93 415.854 201.269C417.226 198.58 419.755 197.995 422.566 197.765C428.187 197.306 431.551 200.139 432.01 205.76C432.895 216.602 415.631 217.102 414.776 206.637ZM426.93 206.352C426.665 203.115 425.151 201.899 421.939 202.161C419.43 202.366 419.109 204.009 419.289 206.218C419.675 210.936 427.335 211.321 426.93 206.352ZM429.087 222.236C429.395 223.241 429.958 224.824 429.964 225.831C429.973 227.266 428.926 229.035 427.34 229.045C424.747 229.06 425.033 226.49 425.023 224.753C425.008 222.26 423.223 222.724 421.41 222.836C420.555 222.891 419.699 222.947 418.843 222.952C417.382 222.961 415.638 221.864 415.629 220.277C415.611 217.356 419.112 217.512 421.076 217.5C423.241 217.487 430.565 216.813 430.585 220.162C430.593 221.572 429.661 221.426 429.087 222.236ZM419.48 243.219C419.299 241.415 418.947 239.524 419.07 237.715C419.317 234.047 422.47 231.837 425.987 232.075C430.333 232.368 432.669 236.64 432.401 240.609C432.338 241.538 432.127 242.433 431.767 243.266C432.645 243.73 433.513 244.318 433.437 245.449C433.344 246.83 432.171 247.382 430.915 247.297C429.206 247.182 427.498 246.688 425.74 246.569C423.554 246.422 421.332 246.448 419.121 246.299C416.232 246.104 413.341 245.934 412.163 242.826C411.692 241.583 411.376 240.274 411.468 238.918C411.592 237.084 413.111 232.896 415.422 233.052C416.427 233.12 417.224 234.032 417.154 235.062C417.047 236.645 415.939 238.109 415.824 239.818C415.628 242.707 416.868 243.043 419.48 243.219ZM426.922 243.267C427.033 242.745 427.12 242.196 427.158 241.643C427.253 240.236 426.793 236.949 424.959 236.826C424.13 236.77 423.4 237.124 423.339 238.028C423.225 239.712 423.669 241.735 423.832 243.437C424.87 243.381 425.88 243.374 426.922 243.267ZM419.045 260.033C420.465 260.58 423.34 261.271 423.034 263.287C422.924 264.009 422.411 264.542 421.718 264.743C419.965 265.216 417.978 264.888 415.793 265.525C415.261 265.673 414.712 265.768 414.139 265.681C412.745 265.47 411.619 264.331 411.842 262.862C412.099 261.169 413.31 260.742 414.647 260.155C414.372 258.102 413.432 256.915 413.78 254.625C414.331 250.99 417.42 248.759 421.03 249.307C425.859 250.04 429.314 254.13 428.558 259.108C428.305 260.776 427.349 264.222 425.108 263.882C421.399 263.319 426.204 255.491 419.656 254.498C418.685 254.35 418.106 254.644 417.955 255.64C417.815 256.561 418.733 259.069 419.045 260.033ZM423.498 274.194C423.808 275.405 424.152 276.029 423.846 277.328C422.488 283.088 416.727 281.186 412.389 280.163C411.066 279.851 409.137 279.034 409.542 277.319C409.889 275.848 411.194 275.25 412.993 275.519C415.692 275.923 420.215 277.585 420.51 276.335C420.77 275.232 418.856 273.694 417.9 273.469C416.65 273.174 415.301 273.192 414.051 272.897C412.482 272.527 410.487 271.772 410.973 269.714C411.632 266.92 415.397 268.067 417.284 268.512C418.73 268.853 423.926 270.078 424.828 270.86C425.322 271.287 425.575 271.967 425.419 272.629C425.171 273.683 424.355 273.852 423.498 274.194ZM408.418 286.895C407.331 286.574 406.466 285.768 406.829 284.536C407.449 282.435 411.106 282.674 412.725 283.151C414.294 283.614 417.452 284.834 416.826 286.959C416.413 288.36 415.273 288.575 414.015 288.388C412.934 288.227 411.755 287.774 408.418 286.895ZM420.264 290.256C419.225 289.95 418.557 288.834 418.87 287.772C419.183 286.709 420.374 286.141 421.413 286.448C422.403 286.74 423.023 287.841 422.724 288.856C422.404 289.943 421.375 290.584 420.264 290.256ZM418.253 303.693C417.619 305.472 415.465 307.618 413.401 306.883C412.263 306.477 411.587 304.847 411.985 303.732C412.323 302.783 413.439 302.352 413.794 301.356C414.495 299.387 412.313 296.659 410.511 296.016C408.945 295.458 407.587 296.418 407.063 297.889C406.615 299.146 406.689 300.589 406.233 301.87C405.777 303.15 404.539 304.073 403.163 303.583C400.626 302.678 401.718 297.962 402.386 296.088C403.949 291.7 408.648 289.392 413.036 290.955C418.633 292.95 420.104 298.499 418.253 303.693ZM407.676 327.834C406.838 329.526 404.447 331.405 402.484 330.433C401.4 329.897 400.921 328.198 401.446 327.137C401.893 326.235 403.051 325.937 403.521 324.99C404.448 323.117 402.601 320.151 400.886 319.302C399.396 318.565 397.936 319.359 397.243 320.758C396.651 321.954 396.555 323.396 395.952 324.614C395.349 325.833 394.012 326.604 392.703 325.956C390.288 324.76 391.926 320.205 392.808 318.422C394.875 314.247 399.812 312.505 403.986 314.572C409.312 317.208 410.122 322.892 407.676 327.834ZM385.172 333.566C386.127 331.996 387.534 330.7 389.197 329.855C391.887 328.485 394.278 329.497 396.687 330.962C401.506 333.893 402.565 338.162 399.634 342.981C393.981 352.274 379.716 342.537 385.172 333.566ZM395.175 340.475C396.863 337.7 396.352 335.827 393.598 334.152C391.447 332.844 390.222 333.985 389.071 335.878C386.611 339.923 392.584 344.735 395.175 340.475ZM384.296 349.095C385.26 348.335 386.215 347.162 387.534 348.13C388.793 349.054 387.936 350.518 387.515 351.646C389.001 353.111 392.164 355.652 390.525 357.885C388.827 360.199 386.038 357.402 384.516 356.285C384.306 356.443 384.116 356.616 383.967 356.819C382.969 358.179 381.308 361.676 378.994 359.977C376.66 358.264 379.512 355.017 380.659 353.454C380.552 353.344 380.466 353.249 380.344 353.16C378.294 351.655 377.684 353.55 376.656 354.95C375.613 356.371 374.284 357.457 372.559 356.191C370.286 354.522 372.285 352.054 373.447 350.471C376.695 346.046 380.053 346.45 384.296 349.095ZM373.44 363.334C374.465 362.658 375.516 361.57 376.748 362.647C377.924 363.674 376.946 365.061 376.431 366.148C377.787 367.734 380.723 370.534 378.901 372.62C377.012 374.782 374.471 371.759 373.049 370.516C372.826 370.656 372.623 370.812 372.457 371.002C371.347 372.272 369.395 375.616 367.233 373.727C365.053 371.822 368.171 368.828 369.446 367.368C369.349 367.25 369.271 367.148 369.157 367.048C367.242 365.375 366.473 367.211 365.33 368.52C364.17 369.847 362.755 370.817 361.143 369.408C359.019 367.553 361.221 365.263 362.513 363.784C366.125 359.651 369.437 360.338 373.44 363.334ZM351.926 375.076C353.253 373.804 354.946 372.913 356.771 372.524C359.723 371.892 361.772 373.485 363.724 375.521C367.627 379.592 367.552 383.989 363.481 387.892C355.628 395.42 344.347 382.342 351.926 375.076ZM359.816 384.324C362.161 382.077 362.149 380.135 359.918 377.809C358.176 375.991 356.699 376.779 355.099 378.312C351.682 381.588 356.217 387.775 359.816 384.324ZM349.349 395.456C348.852 396.604 348.742 397.308 347.705 398.148C343.106 401.87 339.715 396.84 336.911 393.376C336.056 392.319 335.031 390.492 336.401 389.383C337.575 388.433 338.973 388.759 340.231 390.073C342.118 392.045 344.677 396.128 345.676 395.32C346.556 394.607 345.984 392.219 345.367 391.456C344.559 390.458 343.481 389.646 342.673 388.648C341.659 387.395 340.544 385.577 342.188 384.246C344.419 382.44 346.694 385.652 347.914 387.159C348.849 388.314 352.207 392.463 352.442 393.634C352.571 394.274 352.355 394.967 351.826 395.395C350.985 396.076 350.236 395.711 349.349 395.456ZM321.44 406.062C321.886 405.777 322.482 405.635 322.949 405.336C324.455 404.373 325.613 403.006 327.098 402.056C328.074 401.433 329.33 400.779 330.157 402.073C330.523 402.646 330.376 403.398 330.003 403.935C329.334 404.9 325.052 408.206 323.949 408.911C322.888 409.589 321.155 410.338 320.287 408.98C319.555 407.834 320.485 406.672 321.44 406.062ZM310.303 417.194C311.404 416.637 312.552 416.508 313.2 417.788C313.428 418.238 313.407 418.699 313.218 419.162C312.205 421.509 312.445 422.319 312.096 424.64C311.998 425.339 311.573 426.005 310.944 426.324C309.259 427.176 307.765 425.449 307.094 424.124C305.513 421.001 303.625 416.99 302.112 413.833C301.748 413.058 301.529 412.181 301.66 411.324C301.791 410.468 302.26 409.666 303.047 409.268C305.878 407.835 307.528 411.431 308.494 413.341C308.938 414.217 309.644 416.004 310.077 416.857C310.133 416.97 310.224 417.093 310.303 417.194ZM298.336 432.093C293.18 434.252 290.392 432.744 288.301 427.75C286.502 423.454 286.095 416.745 291.251 414.586C296.152 412.534 300.519 415.728 302.396 420.21C304.312 424.786 303.213 430.05 298.336 432.093ZM291.46 426.428C292.121 428.007 293.043 429.231 294.762 428.512C297.688 427.286 298.447 423.884 297.29 421.12C296.434 419.076 294.941 417.791 292.665 418.744C289.854 419.921 290.526 424.198 291.46 426.428ZM280.374 438.658C275.045 440.348 272.403 438.597 270.767 433.436C269.359 428.996 269.554 422.278 274.882 420.588C279.947 418.983 284.011 422.554 285.48 427.187C286.979 431.915 285.414 437.06 280.374 438.658ZM274.031 432.401C274.549 434.033 275.358 435.335 277.134 434.772C280.158 433.813 281.219 430.492 280.313 427.636C279.643 425.524 278.271 424.11 275.918 424.856C273.014 425.777 273.301 430.097 274.031 432.401ZM255.98 443.865C255.316 444.008 254.654 443.687 254.516 443.047C254.468 442.826 254.519 442.583 254.6 442.359C255.594 440.162 256.485 437.961 257.341 435.716C257.977 434.007 258.366 432.224 258.71 430.475C259.004 428.97 259.111 427.195 259.727 425.749C259.918 425.321 260.259 424.99 260.751 424.884C261.563 424.709 262.199 425.268 262.353 425.981C262.936 428.689 258.565 443.308 255.98 443.865ZM261.502 438.528C261.083 436.584 262.033 434.421 264.298 433.933C266.242 433.514 268.092 435.048 268.458 436.746C269.349 440.881 262.472 443.033 261.502 438.528ZM264.531 436.33C262.808 436.701 263.884 438.35 264.756 438.213C265.653 438.072 265.712 436.076 264.531 436.33ZM257.039 429.651C257.267 430.709 256.885 431.925 256.226 432.814C255.868 433.303 254.959 433.627 254.344 433.76C252.892 434.073 251.047 432.564 250.771 431.284C250.437 429.734 251.393 427.596 253.165 427.214C255.11 426.795 256.662 427.903 257.039 429.651ZM254.718 429.996C254.628 429.578 254.305 429.158 253.788 429.269C253.37 429.359 253.123 430.005 253.197 430.35C253.351 431.063 254.967 431.153 254.718 429.996ZM232.34 429.245C234.172 429.102 236.046 429.485 237.704 430.34C240.388 431.721 240.966 434.252 241.186 437.064C241.627 442.686 238.783 446.041 233.16 446.482C222.316 447.332 221.872 430.066 232.34 429.245ZM232.585 441.4C235.823 441.146 237.044 439.636 236.792 436.423C236.595 433.913 234.953 433.587 232.744 433.76C228.025 434.13 227.615 441.79 232.585 441.4ZM216.559 443.445C215.549 443.74 213.959 444.283 212.952 444.276C211.517 444.266 209.762 443.196 209.773 441.609C209.791 439.016 212.357 439.336 214.094 439.348C216.587 439.366 216.147 437.575 216.059 435.761C216.014 434.905 215.97 434.048 215.976 433.192C215.986 431.732 217.106 430.002 218.692 430.014C221.613 430.034 221.412 433.533 221.399 435.497C221.383 437.662 221.961 444.994 218.613 444.97C217.203 444.96 217.36 444.03 216.559 443.445ZM195.682 433.497C197.489 433.349 199.386 433.032 201.192 433.187C204.855 433.502 207.007 436.694 206.705 440.206C206.332 444.546 202.018 446.804 198.055 446.463C197.127 446.383 196.236 446.155 195.409 445.781C194.93 446.65 194.326 447.507 193.197 447.41C191.817 447.292 191.287 446.109 191.395 444.855C191.541 443.149 192.066 441.45 192.217 439.694C192.405 437.511 192.419 435.289 192.609 433.081C192.857 430.196 193.08 427.309 196.209 426.188C197.46 425.739 198.774 425.448 200.129 425.564C201.96 425.722 206.119 427.317 205.921 429.625C205.835 430.629 204.908 431.409 203.88 431.32C202.299 431.184 200.855 430.049 199.149 429.903C196.264 429.655 195.906 430.888 195.682 433.497ZM195.497 440.936C196.017 441.057 196.565 441.154 197.117 441.202C198.522 441.322 201.816 440.923 201.974 439.092C202.045 438.264 201.704 437.527 200.801 437.449C199.12 437.305 197.088 437.712 195.384 437.843C195.421 438.883 195.41 439.893 195.497 440.936ZM178.824 432.602C178.235 434.004 177.458 436.857 175.452 436.49C174.733 436.359 174.216 435.829 174.036 435.131C173.617 433.365 174.003 431.388 173.433 429.185C173.301 428.649 173.223 428.097 173.327 427.527C173.58 426.14 174.752 425.049 176.214 425.316C177.898 425.624 178.289 426.847 178.835 428.201C180.896 427.989 182.11 427.085 184.389 427.501C188.005 428.162 190.142 431.317 189.486 434.908C188.608 439.713 184.416 443.043 179.462 442.138C177.803 441.834 174.387 440.775 174.794 438.546C175.469 434.855 183.149 439.893 184.339 433.379C184.515 432.413 184.239 431.825 183.248 431.644C182.332 431.476 179.797 432.319 178.824 432.602ZM164.454 436.566C163.232 436.83 162.596 437.151 161.309 436.797C155.604 435.226 157.718 429.54 158.901 425.243C159.262 423.932 160.149 422.035 161.849 422.503C163.305 422.904 163.854 424.23 163.519 426.018C163.015 428.7 161.187 433.159 162.425 433.5C163.518 433.801 165.126 431.945 165.386 430.998C165.727 429.76 165.759 428.411 166.1 427.173C166.528 425.619 167.356 423.653 169.395 424.215C172.163 424.977 170.877 428.697 170.363 430.566C169.968 431.998 168.552 437.145 167.737 438.018C167.292 438.496 166.602 438.724 165.947 438.543C164.903 438.256 164.764 437.434 164.454 436.566ZM152.32 421C152.685 419.928 153.526 419.096 154.742 419.51C156.816 420.215 156.428 423.859 155.885 425.457C155.358 427.006 154.01 430.112 151.912 429.398C150.529 428.928 150.361 427.781 150.599 426.532C150.805 425.458 151.305 424.299 152.32 421ZM148.476 432.698C148.825 431.673 149.967 431.051 151.016 431.408C152.065 431.764 152.583 432.978 152.235 434.003C151.903 434.98 150.777 435.555 149.775 435.214C148.702 434.85 148.104 433.795 148.476 432.698ZM135.061 430.037C133.314 429.32 131.272 427.067 132.104 425.04C132.563 423.922 134.223 423.324 135.318 423.773C136.25 424.156 136.628 425.291 137.606 425.692C139.54 426.485 142.368 424.434 143.094 422.664C143.725 421.127 142.831 419.725 141.386 419.133C140.152 418.626 138.707 418.632 137.449 418.116C136.191 417.6 135.328 416.32 135.882 414.969C136.905 412.476 141.565 413.79 143.405 414.545C147.714 416.313 149.799 421.115 148.031 425.424C145.775 430.922 140.163 432.13 135.061 430.037ZM111.386 418.162C109.742 417.233 107.998 414.742 109.076 412.835C109.671 411.783 111.393 411.397 112.423 411.98C113.3 412.476 113.533 413.649 114.454 414.169C116.273 415.198 119.335 413.517 120.277 411.851C121.095 410.404 120.383 408.902 119.024 408.134C117.862 407.477 116.428 407.302 115.244 406.633C114.061 405.963 113.364 404.586 114.083 403.315C115.41 400.97 119.868 402.855 121.6 403.834C125.655 406.127 127.123 411.152 124.83 415.207C121.905 420.379 116.186 420.876 111.386 418.162ZM106.922 395.34C108.432 396.387 109.642 397.869 110.386 399.58C111.593 402.347 110.44 404.673 108.834 406.99C105.62 411.626 101.296 412.427 96.6609 409.214C87.7212 403.017 98.2923 389.358 106.922 395.34ZM99.4281 404.913C102.098 406.763 103.998 406.365 105.834 403.716C107.268 401.647 106.202 400.356 104.381 399.094C100.491 396.397 95.3307 402.073 99.4281 404.913ZM91.4593 393.512C92.1572 394.522 93.2677 395.549 92.2178 396.805C91.2164 398.002 89.8091 397.055 88.7106 396.563C87.1544 397.953 84.4187 400.95 82.2939 399.174C80.0918 397.332 83.059 394.726 84.2704 393.277C84.1257 393.058 83.9648 392.858 83.7717 392.696C82.4775 391.614 79.0923 389.735 80.9336 387.533C82.7911 385.312 85.8519 388.363 87.3393 389.607C87.4555 389.507 87.5556 389.427 87.6525 389.311C89.2839 387.36 87.4313 386.632 86.0985 385.517C84.7464 384.386 83.7461 382.992 85.119 381.35C86.928 379.187 89.265 381.338 90.7717 382.598C94.9826 386.119 94.3677 389.445 91.4593 393.512ZM77.9352 381.778C78.5449 382.844 79.5643 383.962 78.4118 385.124C77.3124 386.232 75.9905 385.169 74.9376 384.586C73.2691 385.839 70.2892 388.593 68.3227 386.643C66.2847 384.621 69.4622 382.276 70.792 380.935C70.6664 380.704 70.5231 380.491 70.3444 380.314C69.1466 379.126 65.9329 376.967 67.9543 374.929C69.9935 372.873 72.7845 376.173 74.161 377.538C74.2853 377.449 74.3918 377.377 74.4982 377.27C76.2891 375.464 74.5051 374.581 73.2715 373.358C72.0201 372.117 71.1417 370.643 72.6489 369.123C74.6348 367.121 76.7809 369.462 78.1754 370.845C82.0726 374.711 81.1779 377.973 77.9352 381.778ZM67.5801 359.562C68.7647 360.967 69.545 362.714 69.8164 364.56C70.2587 367.546 68.5383 369.49 66.382 371.307C62.0693 374.942 57.6859 374.586 54.051 370.274C47.0407 361.956 60.8132 351.534 67.5801 359.562ZM57.8458 366.845C59.9391 369.328 61.8773 369.44 64.3417 367.363C66.267 365.74 65.575 364.216 64.147 362.521C61.0962 358.902 54.6327 363.032 57.8458 366.845ZM47.4119 355.713C46.2978 355.146 45.6014 354.993 44.8279 353.905C41.3981 349.083 46.6289 346.011 50.2607 343.428C51.3686 342.64 53.2555 341.731 54.2771 343.167C55.1528 344.398 54.7403 345.773 53.3506 346.947C51.266 348.708 47.0318 351.009 47.7762 352.055C48.4329 352.979 50.8515 352.556 51.6517 351.987C52.6982 351.242 53.5754 350.217 54.6218 349.472C55.935 348.538 57.819 347.538 59.045 349.262C60.7088 351.601 57.362 353.672 55.7821 354.796C54.5716 355.657 50.2217 358.751 49.0389 358.913C48.3918 359.002 47.7132 358.743 47.3192 358.189C46.6916 357.307 47.1028 356.582 47.4119 355.713ZM38.5308 327.245C38.7892 327.706 38.8966 328.309 39.1674 328.793C40.0414 330.352 41.3397 331.587 42.2013 333.125C42.7675 334.136 43.347 335.427 42.0071 336.178C41.414 336.51 40.6723 336.32 40.1572 335.916C39.2325 335.193 36.181 330.726 35.541 329.584C34.9255 328.485 34.2782 326.712 35.684 325.925C36.8702 325.26 37.9768 326.256 38.5308 327.245ZM28.0463 315.549C28.5447 316.678 28.6136 317.831 27.3007 318.411C26.84 318.614 26.3799 318.57 25.9279 318.357C23.6373 317.221 22.8162 317.419 20.5164 316.948C19.8238 316.813 19.1807 316.354 18.8959 315.709C18.133 313.982 19.9361 312.58 21.2951 311.98C24.4968 310.566 28.6015 308.891 31.8337 307.546C32.627 307.223 33.5145 307.051 34.3629 307.227C35.2113 307.403 35.9873 307.914 36.3433 308.72C37.6249 311.622 33.9477 313.081 31.9898 313.945C31.0915 314.342 29.2698 314.954 28.3945 315.34C28.2793 315.391 28.1513 315.475 28.0463 315.549ZM13.7874 302.921C11.8758 297.668 13.5143 294.955 18.6015 293.104C22.9789 291.511 29.6993 291.423 31.6109 296.676C33.4278 301.668 30.0299 305.879 25.4633 307.541C20.802 309.237 15.5957 307.89 13.7874 302.921ZM19.7726 296.322C18.1636 296.907 16.8968 297.77 17.534 299.521C18.619 302.502 21.9816 303.422 24.7973 302.397C26.8795 301.64 28.2344 300.209 27.3905 297.89C26.3486 295.027 22.0441 295.495 19.7726 296.322ZM8.05741 284.801C6.58779 279.408 8.44559 276.84 13.6687 275.416C18.1631 274.192 24.8676 274.661 26.3373 280.054C27.7341 285.18 23.9988 289.095 19.3102 290.373C14.5243 291.677 9.4476 289.902 8.05741 284.801ZM14.569 278.72C12.9171 279.17 11.583 279.925 12.0729 281.723C12.907 284.784 16.1818 285.98 19.0728 285.192C21.2106 284.609 22.6795 283.296 22.0307 280.915C21.2297 277.975 16.9012 278.085 14.569 278.72ZM3.74648 260.406C3.62429 259.737 3.96605 259.086 4.61006 258.968C4.83298 258.927 5.07401 258.986 5.29479 259.073C7.46 260.137 9.63187 261.097 11.8487 262.023C13.5362 262.713 15.3067 263.157 17.0435 263.556C18.5392 263.897 20.3095 264.06 21.7356 264.721C22.157 264.926 22.4771 265.277 22.5676 265.772C22.7169 266.59 22.1386 267.207 21.4203 267.338C18.6957 267.836 4.22165 263.007 3.74648 260.406ZM8.90646 266.092C10.8633 265.735 12.9946 266.753 13.411 269.032C13.7685 270.989 12.1778 272.79 10.4687 273.102C6.30742 273.862 4.37365 266.921 8.90646 266.092ZM11.0081 269.19C10.6913 267.456 9.00986 268.48 9.11871 269.356C9.23209 270.256 11.2253 270.378 11.0081 269.19ZM17.9204 261.912C16.8553 262.106 15.6523 261.686 14.7846 261C14.3069 260.626 14.0111 259.708 13.8979 259.089C13.6309 257.627 15.1968 255.831 16.4849 255.596C18.0453 255.31 20.152 256.333 20.4778 258.117C20.8353 260.074 19.679 261.59 17.9204 261.912ZM17.6481 259.581C18.0692 259.504 18.4991 259.195 18.4041 258.675C18.3271 258.254 17.6895 257.986 17.3428 258.05C16.6245 258.181 16.484 259.794 17.6481 259.581ZM18.9483 237.252C19.057 239.087 18.6377 240.953 17.7512 242.595C16.3195 245.252 13.778 245.781 10.9628 245.948C5.33243 246.281 2.0326 243.374 1.69929 237.744C1.05646 226.885 18.3278 226.771 18.9483 237.252ZM6.79137 237.266C6.98333 240.508 8.46978 241.757 11.6871 241.567C14.2007 241.418 14.5579 239.782 14.4269 237.57C14.1472 232.845 6.49675 232.289 6.79137 237.266ZM4.98619 221.345C4.69993 220.334 4.17101 218.739 4.18687 217.732C4.20945 216.297 5.2946 214.551 6.88072 214.576C9.47388 214.617 9.13134 217.18 9.104 218.917C9.06476 221.41 10.8594 220.985 12.6737 220.912C13.5305 220.875 14.3873 220.839 15.2433 220.852C16.7035 220.875 18.4232 222.01 18.3983 223.596C18.3523 226.517 14.8556 226.285 12.8918 226.254C10.7266 226.22 3.3904 226.734 3.44311 223.386C3.4653 221.976 4.39445 222.142 4.98619 221.345ZM15.0551 200.573C15.1957 202.381 15.5051 204.28 15.3425 206.085C15.0128 209.747 11.8117 211.885 8.30078 211.569C3.96228 211.179 1.72225 206.856 2.07905 202.894C2.1626 201.966 2.39436 201.077 2.77207 200.251C1.9054 199.768 1.05001 199.16 1.15163 198.032C1.27583 196.653 2.46079 196.127 3.71469 196.24C5.42 196.394 7.11651 196.926 8.87197 197.084C11.0538 197.28 13.2764 197.304 15.4833 197.502C18.3673 197.762 21.2535 197.997 22.3618 201.13C22.8051 202.384 23.0912 203.699 22.9693 205.053C22.8044 206.884 21.1917 211.036 18.8845 210.828C17.8814 210.738 17.1055 209.809 17.1981 208.78C17.3404 207.201 18.4813 205.761 18.6348 204.056C18.8945 201.172 17.6632 200.808 15.0551 200.573ZM7.61641 200.359C7.49376 200.878 7.39392 201.426 7.34424 201.977C7.21778 203.382 7.60358 206.678 9.43428 206.843C10.2619 206.917 11.0002 206.579 11.0815 205.676C11.2328 203.996 10.8344 201.963 10.7098 200.258C9.67031 200.291 8.66042 200.276 7.61641 200.359ZM15.868 183.772C14.461 183.194 11.6025 182.438 11.9538 180.429C12.0796 179.71 12.6054 179.188 13.3023 179.003C15.0651 178.57 17.045 178.942 19.2437 178.355C19.7788 178.219 20.33 178.136 20.9005 178.236C22.2895 178.479 23.3896 179.643 23.1337 181.106C22.8387 182.793 21.6184 183.193 20.2686 183.749C20.4964 185.808 21.4099 187.016 21.0108 189.298C20.3775 192.919 17.2389 195.08 13.6425 194.451C8.8307 193.609 5.46951 189.443 6.33709 184.482C6.62772 182.821 7.66101 179.397 9.89329 179.787C13.5889 180.434 8.60938 188.152 15.1326 189.292C16.0999 189.462 16.6858 189.181 16.8593 188.189C17.0198 187.271 16.1583 184.743 15.868 183.772ZM11.738 169.511C11.4563 168.293 11.1263 167.661 11.4622 166.37C12.9513 160.643 18.6668 162.675 22.9802 163.797C24.2961 164.139 26.2056 165 25.7621 166.706C25.3819 168.168 24.0635 168.736 22.2709 168.426C19.582 167.961 15.0976 166.196 14.7744 167.439C14.4893 168.536 16.3676 170.117 17.318 170.364C18.5608 170.687 19.9104 170.7 21.1532 171.023C22.7128 171.428 24.6901 172.229 24.1579 174.276C23.4355 177.054 19.6973 175.822 17.8208 175.334C16.3831 174.96 11.2168 173.617 10.3327 172.814C9.84828 172.376 9.61045 171.69 9.78155 171.032C10.054 169.984 10.8738 169.833 11.738 169.511ZM27.0997 157.158C28.1791 157.502 29.0259 158.327 28.6356 159.551C27.9697 161.638 24.3185 161.319 22.7113 160.806C21.1521 160.308 18.0219 159.019 18.6954 156.908C19.1393 155.517 20.2835 155.327 21.5365 155.541C22.6139 155.727 23.7827 156.205 27.0997 157.158ZM15.3312 153.535C16.3627 153.864 17.0064 154.995 16.6696 156.05C16.3329 157.106 15.1295 157.647 14.098 157.318C13.1145 157.004 12.5188 155.889 12.8402 154.881C13.1846 153.802 14.2277 153.183 15.3312 153.535ZM17.6509 140.137C18.3253 138.373 20.5285 136.277 22.5746 137.059C23.7035 137.491 24.3414 139.136 23.9187 140.242C23.559 141.183 22.4336 141.588 22.0559 142.576C21.3096 144.528 23.4284 147.306 25.2159 147.989C26.7682 148.583 28.1475 147.654 28.705 146.196C29.1815 144.95 29.1407 143.505 29.6263 142.235C30.1118 140.965 31.3701 140.072 32.7342 140.593C35.2507 141.555 34.0507 146.245 33.3403 148.103C31.6768 152.454 26.9267 154.655 22.5757 152.991C17.0251 150.869 15.6817 145.288 17.6509 140.137ZM28.7768 116.243C29.6533 114.57 32.087 112.747 34.0273 113.764C35.0978 114.325 35.5383 116.034 34.989 117.082C34.5215 117.974 33.3563 118.245 32.8655 119.181C31.8954 121.033 33.674 124.04 35.369 124.928C36.841 125.699 38.3196 124.939 39.0442 123.556C39.6636 122.374 39.7924 120.935 40.4235 119.731C41.0546 118.526 42.409 117.786 43.7025 118.464C46.0889 119.715 44.3473 124.232 43.424 125.994C41.2619 130.12 36.2866 131.748 32.1605 129.586C26.8971 126.828 26.2172 121.127 28.7768 116.243ZM51.4059 111.028C50.415 112.576 48.9788 113.84 47.2965 114.646C44.5759 115.954 42.2092 114.888 39.8339 113.368C35.0835 110.327 34.1233 106.035 37.1639 101.285C43.0278 92.1232 57.0662 102.185 51.4059 111.028ZM41.564 103.892C39.813 106.628 40.2812 108.512 42.9957 110.249C45.1165 111.607 46.3669 110.494 47.5614 108.627C50.1133 104.64 44.2516 99.6928 41.564 103.892ZM52.6382 95.5236C51.6568 96.2615 50.6752 97.4124 49.3784 96.4138C48.1415 95.4613 49.0312 94.0172 49.4785 92.8998C48.027 91.4006 44.9226 88.7876 46.6125 86.5931C48.3639 84.3188 51.0874 87.1788 52.5836 88.331C52.7971 88.1776 52.9906 88.0089 53.1442 87.8094C54.1735 86.4727 55.9148 83.0148 58.189 84.7661C60.4833 86.5328 57.557 89.7138 56.3741 91.2499C56.4784 91.3621 56.5628 91.4588 56.6825 91.551C58.6974 93.1026 59.3509 91.2223 60.4109 89.8458C61.4863 88.4493 62.8394 87.3938 64.5351 88.6996C66.7695 90.4202 64.7141 92.8417 63.5158 94.3978C60.1667 98.7469 56.8187 98.2661 52.6382 95.5236ZM63.822 81.537C62.7813 82.1887 61.7052 83.2518 60.4982 82.1464C59.347 81.092 60.3564 79.7289 60.8973 78.6536C59.5787 77.0363 56.7081 74.1684 58.5788 72.1258C60.5175 70.0089 62.9875 73.0905 64.3802 74.366C64.6059 74.2313 64.8131 74.0796 64.9832 73.8939C66.1226 72.6498 68.152 69.3527 70.2689 71.2914C72.4043 73.2471 69.2177 76.1673 67.9083 77.5971C68.0027 77.7177 68.0785 77.8213 68.1899 77.9233C70.0654 79.6409 70.8766 77.8231 72.05 76.5419C73.2404 75.2421 74.6785 74.3056 76.2569 75.7511C78.3366 77.6558 76.0824 79.8934 74.7559 81.3418C71.0486 85.3898 67.7537 84.6257 63.822 81.537ZM85.6041 70.3011C84.2477 71.5417 82.5345 72.392 80.7012 72.738C77.7354 73.3008 75.7234 71.6606 73.8201 69.5796C70.0135 65.4177 70.1916 61.0235 74.3535 57.2169C82.3801 49.8756 93.352 63.2147 85.6041 70.3011ZM77.9333 60.8697C75.5365 63.0619 75.5034 65.003 77.6786 67.3813C79.378 69.2393 80.873 68.4861 82.508 66.9907C86.0011 63.7959 81.6122 57.5049 77.9333 60.8697ZM88.6623 49.9852C89.1862 48.8501 89.3129 48.1484 90.3699 47.3337C95.0565 43.7213 98.3269 48.8304 101.048 52.3603C101.878 53.4372 102.859 55.2877 101.463 56.3638C100.266 57.2861 98.8768 56.9266 97.6503 55.583C95.8107 53.5675 93.3488 49.4248 92.3317 50.2088C91.4342 50.9005 91.9494 53.3011 92.5489 54.0789C93.3328 55.0959 94.3914 55.9331 95.1754 56.9502C96.1592 58.2266 97.231 60.0709 95.5558 61.3621C93.2823 63.1145 91.0838 59.8497 89.9001 58.3141C88.9932 57.1374 85.7344 52.9096 85.5275 51.7338C85.4133 51.0906 85.646 50.4026 86.1844 49.9876C87.042 49.3266 87.7823 49.7097 88.6623 49.9852ZM116.819 40.0476C116.367 40.3216 115.767 40.4494 115.293 40.7364C113.764 41.6627 112.574 43.0021 111.066 43.9153C110.075 44.5155 108.804 45.1384 108.008 43.8247C107.656 43.2432 107.821 42.4954 108.208 41.967C108.899 41.0183 113.26 37.8172 114.38 37.1388C115.456 36.4865 117.207 35.7795 118.042 37.1578C118.746 38.3207 117.788 39.4605 116.819 40.0476ZM128.225 29.1881C127.111 29.7182 125.96 29.8195 125.344 28.5235C125.127 28.0688 125.159 27.6076 125.359 27.1498C126.43 24.8281 126.209 24.0128 126.615 21.7006C126.73 21.0046 127.171 20.3487 127.807 20.0458C129.513 19.2345 130.965 20.9974 131.603 22.3389C133.107 25.4994 134.897 29.5553 136.332 32.7482C136.677 33.5321 136.874 34.4145 136.722 35.2675C136.57 36.1205 136.082 36.9106 135.286 37.2892C132.421 38.6522 130.859 35.0175 129.94 33.0848C129.518 32.1981 128.855 30.3943 128.444 29.5303C128.39 29.4166 128.302 29.291 128.225 29.1881ZM140.555 14.5864C145.763 12.5545 148.513 14.1302 150.481 19.1735C152.174 23.513 152.416 30.2296 147.209 32.2616C142.259 34.1928 137.972 30.8927 136.205 26.3655C134.402 21.7444 135.629 16.5085 140.555 14.5864ZM147.291 20.4183C146.668 18.8232 145.776 17.5765 144.04 18.2538C141.085 19.4071 140.243 22.7899 141.332 25.5813C142.137 27.6455 143.599 28.9672 145.898 28.0702C148.736 26.9627 148.169 22.6701 147.291 20.4183ZM158.681 8.46454C164.05 6.90834 166.647 8.72459 168.154 13.9242C169.451 18.3982 169.089 25.1095 163.721 26.6657C158.618 28.1448 154.643 24.473 153.291 19.8055C151.91 15.0412 153.602 9.93662 158.681 8.46454ZM164.865 14.8775C164.389 13.233 163.612 11.9113 161.823 12.43C158.775 13.3133 157.633 16.6069 158.467 19.4848C159.084 21.613 160.421 23.0605 162.791 22.3735C165.717 21.5253 165.538 17.1992 164.865 14.8775ZM183.192 3.86481C183.86 3.73808 184.514 4.07541 184.636 4.71861C184.678 4.94125 184.621 5.18267 184.535 5.40404C183.486 7.57641 182.541 9.75475 181.63 11.9779C180.952 13.67 180.52 15.4435 180.132 17.1829C179.801 18.6809 179.65 20.4522 178.999 21.8829C178.797 22.3056 178.448 22.628 177.954 22.7219C177.137 22.8768 176.516 22.3027 176.38 21.5853C175.863 18.8641 180.595 4.35763 183.192 3.86481ZM177.541 9.0633C177.911 11.0176 176.908 13.1559 174.632 13.5877C172.677 13.9585 170.866 12.38 170.542 10.6731C169.753 6.51708 176.682 4.53621 177.541 9.0633ZM174.458 11.1859C176.19 10.8574 175.154 9.1829 174.279 9.2977C173.379 9.41719 173.27 11.4112 174.458 11.1859ZM181.783 18.0486C181.581 16.9849 181.993 15.779 182.673 14.9068C183.043 14.4265 183.96 14.1244 184.578 14.0071C186.038 13.7301 187.845 15.2838 188.089 16.5702C188.385 18.1287 187.376 20.2422 185.595 20.5802C183.64 20.951 182.116 19.805 181.783 18.0486ZM184.112 17.7605C184.191 18.1811 184.503 18.6089 185.023 18.5103C185.443 18.4305 185.706 17.7911 185.641 17.4448C185.505 16.7274 183.891 16.5978 184.112 17.7605ZM206.464 19.0615C204.629 19.1595 202.765 18.7296 201.129 17.8337C198.479 16.3867 197.965 13.8422 197.815 11.0261C197.514 5.39392 200.44 2.11085 206.072 1.80987C216.934 1.22942 216.949 18.5012 206.464 19.0615ZM206.521 6.90462C203.277 7.07795 202.02 8.5572 202.192 11.7756C202.326 14.2899 203.959 14.6565 206.172 14.5383C210.899 14.2857 211.499 6.63858 206.521 6.90462ZM222.586 5.25533C223.602 4.98492 225.205 4.48101 226.212 4.5126C227.646 4.55763 229.375 5.66994 229.325 7.25546C229.244 9.84768 226.686 9.4651 224.95 9.4106C222.458 9.3324 222.855 11.1335 222.899 12.9487C222.922 13.8059 222.946 14.6632 222.919 15.5189C222.873 16.9786 221.711 18.6803 220.126 18.6306C217.206 18.539 217.492 15.0463 217.554 13.0832C217.622 10.9188 217.223 3.57548 220.57 3.68053C221.979 3.72477 221.799 4.65121 222.586 5.25533ZM243.22 15.7281C241.41 15.8294 239.505 16.0974 237.703 15.8956C234.05 15.4864 231.981 12.2396 232.374 8.7364C232.859 4.40741 237.229 2.26188 241.182 2.70473C242.108 2.80843 242.992 3.05947 243.809 3.45504C244.311 2.59906 244.937 1.75709 246.063 1.88322C247.439 2.03737 247.939 3.23348 247.799 4.48463C247.608 6.18619 247.039 7.87074 246.843 9.62235C246.599 11.7993 246.528 14.021 246.281 16.223C245.959 19.1007 245.662 21.9811 242.505 23.021C241.242 23.437 239.921 23.6944 238.57 23.5431C236.743 23.3385 232.626 21.6359 232.884 19.3338C232.996 18.3328 233.942 17.5773 234.968 17.6923C236.545 17.8688 237.959 19.0407 239.661 19.2313C242.538 19.5536 242.929 18.3305 243.22 15.7281ZM243.597 8.2959C243.079 8.16197 242.535 8.05026 241.984 7.9886C240.583 7.83164 237.279 8.1457 237.075 9.97238C236.982 10.7981 237.304 11.5436 238.205 11.6445C239.881 11.8323 241.923 11.4782 243.63 11.3907C243.62 10.3508 243.657 9.34146 243.597 8.2959ZM260.037 17.0241C260.659 15.6356 261.502 12.8016 263.499 13.2147C264.214 13.3626 264.719 13.9042 264.883 14.6065C265.261 16.3818 264.828 18.3493 265.347 20.565C265.467 21.1041 265.533 21.6576 265.415 22.2247C265.13 23.6055 263.933 24.6693 262.478 24.3684C260.801 24.0216 260.439 22.7896 259.924 21.4233C257.859 21.5875 256.624 22.4633 254.355 21.9942C250.755 21.2496 248.692 18.046 249.432 14.4706C250.421 9.68703 254.689 6.4558 259.621 7.47577C261.273 7.81747 264.663 8.95573 264.204 11.1749C263.444 14.8489 255.883 9.63396 254.542 16.1189C254.343 17.0806 254.606 17.6749 255.592 17.8789C256.504 18.0676 259.058 17.2843 260.037 17.0241ZM274.524 13.4177C275.753 13.1849 276.398 12.8805 277.675 13.2677C283.337 14.9846 281.078 20.6143 279.785 24.8793C279.39 26.1805 278.454 28.0541 276.767 27.5427C275.321 27.1044 274.807 25.7644 275.188 23.9856C275.76 21.3174 277.703 16.9072 276.474 16.5346C275.389 16.2058 273.734 18.0194 273.449 18.9592C273.077 20.1881 273.01 21.5361 272.638 22.765C272.17 24.3072 271.291 26.2509 269.267 25.6372C266.52 24.8043 267.901 21.1184 268.463 19.263C268.894 17.8413 270.443 12.7329 271.28 11.8815C271.737 11.415 272.433 11.2048 273.083 11.4021C274.119 11.7162 274.238 12.5414 274.524 13.4177ZM286.254 29.2812C285.863 30.3448 285.002 31.1552 283.797 30.7124C281.74 29.957 282.217 26.323 282.799 24.7394C283.363 23.2031 284.786 20.1315 286.866 20.8955C288.237 21.3991 288.377 22.5505 288.109 23.793C287.877 24.8614 287.349 26.0085 286.254 29.2812ZM290.381 17.6802C290.008 18.6965 288.851 19.2908 287.811 18.9087C286.771 18.5267 286.282 17.3011 286.655 16.2847C287.011 15.3157 288.151 14.7687 289.144 15.1334C290.207 15.5241 290.78 16.5929 290.381 17.6802ZM303.736 20.6811C305.465 21.4416 307.449 23.7454 306.567 25.7505C306.08 26.8568 304.405 27.4127 303.322 26.9361C302.4 26.5304 302.051 25.3864 301.083 24.9605C299.17 24.1188 296.291 26.0981 295.52 27.8497C294.851 29.3708 295.71 30.7942 297.139 31.4229C298.361 31.9604 299.805 31.9908 301.05 32.5384C302.294 33.086 303.125 34.3867 302.537 35.7235C301.452 38.1895 296.827 36.7597 295.006 35.9586C290.742 34.0826 288.779 29.2298 290.655 24.9661C293.048 19.5269 298.689 18.4603 303.736 20.6811ZM327.11 33.1283C328.73 34.0985 330.412 36.6318 329.287 38.5112C328.666 39.5482 326.935 39.8908 325.919 39.2829C325.055 38.7654 324.851 37.5867 323.944 37.0434C322.151 35.9698 319.048 37.5746 318.064 39.2164C317.211 40.6421 317.886 42.1616 319.225 42.9636C320.37 43.6492 321.8 43.8595 322.966 44.558C324.133 45.2566 324.795 46.6508 324.044 47.9037C322.66 50.2152 318.249 48.2198 316.543 47.1978C312.546 44.8047 311.203 39.7449 313.596 35.7484C316.649 30.6502 322.379 30.2954 327.11 33.1283ZM331.015 56.0382C329.529 54.9568 328.353 53.4478 327.649 51.7205C326.505 48.9267 327.711 46.6277 329.37 44.3474C332.688 39.7866 337.029 39.084 341.59 42.4024C350.386 48.8021 339.505 62.2157 331.015 56.0382ZM338.726 46.6393C336.099 44.7283 334.19 45.0833 332.294 47.6894C330.813 49.7255 331.849 51.0401 333.641 52.3437C337.469 55.1288 342.757 49.5725 338.726 46.6393ZM346.437 58.2324C345.764 57.2053 344.679 56.1513 345.76 54.9219C346.79 53.7492 348.174 54.7303 349.26 55.249C350.85 53.8975 353.658 50.9685 355.739 52.7968C357.895 54.6916 354.865 57.2244 353.618 58.643C353.757 58.866 353.913 59.07 354.103 59.2362C355.37 60.3498 358.708 62.311 356.813 64.4672C354.902 66.6424 351.917 63.5166 350.46 62.2368C350.342 62.3337 350.24 62.4116 350.14 62.5251C348.461 64.4355 350.295 65.2092 351.6 66.356C352.924 67.5194 353.89 68.9379 352.478 70.5457C350.616 72.6641 348.332 70.4564 346.857 69.16C342.734 65.5367 343.43 62.2268 346.437 58.2324ZM359.666 70.2831C359.081 69.2035 358.088 68.0626 359.267 66.9276C360.392 65.845 361.689 66.9383 362.728 67.5458C364.425 66.3316 367.468 63.6474 369.389 65.6429C371.379 67.711 368.148 69.9821 366.788 71.2917C366.908 71.5255 367.046 71.7419 367.221 71.9233C368.391 73.1387 371.554 75.3717 369.485 77.3623C367.399 79.3704 364.685 76.0063 363.341 74.6094C363.215 74.696 363.106 74.7652 362.998 74.87C361.165 76.6335 362.928 77.5576 364.133 78.8094C365.356 80.0793 366.2 81.5734 364.658 83.0576C362.626 85.0133 360.534 82.6227 359.173 81.2077C355.366 77.2529 356.336 74.0126 359.666 70.2831ZM369.508 92.7284C368.355 91.2966 367.614 89.5333 367.384 87.6819C367.009 84.6865 368.773 82.7817 370.969 81.0132C375.363 77.4761 379.737 77.9304 383.274 82.3237C390.096 90.7964 376.092 100.907 369.508 92.7284ZM379.403 85.6664C377.366 83.1364 375.431 82.9812 372.92 85.0024C370.959 86.5815 371.617 88.1209 373.006 89.8468C375.975 93.534 382.53 89.5498 379.403 85.6664ZM389.588 97.0456C390.688 97.6388 391.381 97.8088 392.129 98.9142C395.444 103.815 390.142 106.763 386.45 109.26C385.324 110.022 383.416 110.887 382.429 109.427C381.582 108.175 382.027 106.81 383.444 105.67C385.57 103.958 389.857 101.758 389.138 100.694C388.503 99.7555 386.075 100.121 385.261 100.671C384.198 101.391 383.297 102.395 382.233 103.115C380.898 104.018 378.991 104.973 377.806 103.221C376.198 100.844 379.592 98.8514 381.198 97.7652C382.429 96.9328 386.851 93.9422 388.037 93.8085C388.686 93.7344 389.358 94.0092 389.739 94.5723C390.346 95.4692 389.917 96.1844 389.588 97.0456ZM394.245 119.034C393.981 118.576 393.867 117.973 393.59 117.493C392.697 115.944 391.385 114.725 390.505 113.198C389.926 112.194 389.331 110.909 390.662 110.143C391.251 109.803 391.995 109.985 392.515 110.383C393.448 111.095 396.553 115.525 397.207 116.659C397.835 117.75 398.504 119.515 397.107 120.32C395.929 120.999 394.811 120.016 394.245 119.034Z" fill="#482C1C"/>
</svg>
