<svg width="491" height="491" viewBox="0 0 491 491" fill="none" xmlns="http://www.w3.org/2000/svg">
<g opacity="0.85">
<circle cx="245.5" cy="245.5" r="240.779" stroke="#482C1C" stroke-width="9.44231"/>
<circle cx="244.714" cy="244.713" r="181.764" stroke="#482C1C" stroke-width="9.44231"/>
<path d="M149.95 238.612C149.95 238.129 149.976 237.704 149.95 237.272C149.648 232.796 150.077 228.374 151.01 224C152.747 215.841 156.143 208.397 160.819 201.52C167.407 191.834 175.672 183.813 185.203 177.064C193.913 170.904 203.35 166.231 213.666 163.392C221.912 161.114 230.473 160.181 239.016 160.628C246.016 160.99 252.911 162.099 259.736 163.672C267.152 165.382 274.416 167.643 281.681 169.926C288.464 172.06 295.236 174.232 302.046 176.272C306.435 177.584 310.856 178.759 315.364 179.602C318.9 180.247 322.51 180.392 326.087 180.033C329.044 179.754 331.989 179.428 334.882 178.692C336.025 178.39 337.228 178.404 338.363 178.734C340.633 179.399 341.856 181.598 341.087 183.836C340.65 185.125 340.084 186.367 339.397 187.542C334.91 195.096 330.554 202.731 325.643 210.024C325.471 210.278 325.324 210.549 325.098 210.921C325.684 211.107 326.2 211.286 326.722 211.436C336.408 214.231 344.986 218.973 352.309 225.931C354.286 227.811 356.073 229.866 357.812 231.96C360.4 235.084 362.375 238.565 364.039 242.241C364.342 242.916 364.666 243.586 364.982 244.258C366.818 248.155 367.824 252.287 368.463 256.524C369.015 260.219 369.038 263.932 368.742 267.639C368.424 271.598 367.543 275.455 366.343 279.245C363.958 286.776 360.174 293.548 355.171 299.632C345.315 311.605 333.011 320.003 318.261 324.825C314.477 326.071 310.591 326.756 306.659 327.247C303.407 327.654 300.151 328.023 296.892 328.382C294.802 328.612 292.71 328.868 290.613 328.975C288.453 329.087 286.28 329.134 284.12 329.031C278.975 328.784 273.902 328.028 268.954 326.563C262.049 324.517 255.396 321.886 249.265 318.036C244.549 315.063 240.174 311.581 236.218 307.653C235.822 307.261 235.431 306.863 235.03 306.477C234.931 306.4 234.824 306.336 234.709 306.285C234.407 306.195 234.264 306.436 234.118 306.615C228.385 313.376 221.22 318.101 213.048 321.376C207.179 323.712 201.018 325.231 194.736 325.891C185.239 326.938 175.63 326.216 166.396 323.76C163.401 322.982 160.438 322.13 157.591 320.904C150.327 317.779 143.547 313.874 137.722 308.444C134.901 305.841 132.334 302.975 130.057 299.885C129.875 299.635 129.699 299.379 129.542 299.113C126.529 294.019 124.145 288.681 123.227 282.768C121.839 273.857 123.482 265.531 128.059 257.782C132.018 251.079 137.524 245.914 144.13 241.891C145.978 240.767 147.898 239.765 149.95 238.612ZM328.163 188.862C327.609 188.862 327.179 188.823 326.76 188.862C321.41 189.436 316.139 188.956 310.916 187.738C303.445 185.996 296.085 183.856 288.772 181.542C281.167 179.137 273.579 176.675 265.92 174.429C257.657 172.007 249.252 170.241 240.631 169.625C234.927 169.218 229.251 169.368 223.607 170.275C215.224 171.621 207.312 174.396 199.847 178.408C189.541 183.947 180.559 191.134 173.043 200.129C169.09 204.86 165.75 209.966 163.318 215.642C160.483 222.263 158.929 229.153 158.911 236.375C158.911 237.798 158.929 239.223 159 240.643C159.103 242.699 158.266 244.243 156.553 245.321C155.927 245.713 155.244 246.014 154.586 246.357C152.723 247.33 150.81 248.219 149.007 249.293C143.83 252.375 139.432 256.317 136.204 261.452C131.487 268.955 130.368 276.972 132.952 285.469C134.586 290.845 137.539 295.447 141.342 299.532C145.086 303.556 149.431 306.805 154.242 309.44C163.994 314.784 174.493 317.27 185.557 317.482C189.768 317.558 193.976 317.214 198.118 316.455C204.184 315.353 209.987 313.469 215.404 310.484C220.959 307.426 225.733 303.476 229.366 298.226C229.71 297.712 230.085 297.219 230.488 296.749C230.891 296.279 231.338 295.85 231.823 295.467C233.526 294.178 235.787 294.256 237.231 295.77C237.574 296.127 237.959 296.448 238.27 296.829C239.481 298.324 240.941 299.577 242.356 300.876C244.859 303.186 247.541 305.294 250.377 307.179C262.41 315.168 275.73 318.996 290.09 319.438C294.361 319.547 298.634 319.3 302.863 318.698C307.529 318.087 312.127 317.038 316.596 315.565C321.757 313.822 326.706 311.508 331.353 308.667C336.571 305.489 341.316 301.752 345.464 297.282C352.513 289.684 357.489 280.999 359.284 270.646C360.416 264.285 360.042 257.748 358.193 251.557C355.687 243.09 350.619 236.301 344.131 230.55C337.614 224.773 329.905 221.199 321.442 219.249C320.731 219.086 320.003 218.992 319.241 218.859C318.625 219.644 318.055 220.372 317.489 221.1C313.96 225.651 310.281 230.075 306.29 234.235C297.593 243.336 287.494 250.985 276.378 256.891C264.908 262.991 252.891 267.646 240.238 270.632C236.501 271.514 232.736 272.289 228.918 272.625C222.245 273.217 215.52 272.58 209.077 270.746C206.574 270.034 204.188 268.959 201.997 267.554C199.317 265.874 196.878 263.838 194.747 261.5C187.815 253.799 185.447 244.904 188.024 234.824C189.283 229.896 191.747 225.545 194.949 221.607C198.339 217.438 202.365 213.984 206.87 211.088C215.509 205.54 224.996 202.349 235.135 201.065C240.421 200.388 245.769 200.356 251.063 200.968C256.316 201.573 261.41 202.793 266.301 204.812C267.108 205.127 267.881 205.521 268.611 205.988C269.48 206.572 270.111 207.449 270.39 208.458C270.668 209.468 270.576 210.544 270.129 211.492C269.681 212.439 268.91 213.195 267.953 213.622C266.997 214.049 265.919 214.119 264.915 213.819C264.383 213.653 263.864 213.451 263.359 213.214C258.603 211.138 253.601 210.025 248.458 209.606C244.074 209.238 239.662 209.363 235.306 209.978C228.141 211.004 221.32 213.123 214.947 216.592C210.407 219.066 206.294 222.119 202.84 226.001C200.307 228.849 198.258 232.001 197.038 235.635C194.78 242.362 195.77 248.568 200.148 254.18C202.15 256.753 204.628 258.79 207.412 260.456C209.38 261.634 211.391 262.726 213.649 263.262C215.576 263.717 217.54 263.995 219.518 264.091C223.684 264.305 227.799 263.789 231.902 263.215C235.64 262.69 239.31 261.797 242.95 260.794C254.232 257.679 265.084 253.176 275.256 247.388C286.614 240.921 296.392 232.548 304.852 222.605C313.46 212.486 320.985 201.617 327.571 190.088C327.778 189.734 327.934 189.348 328.163 188.862Z" fill="#482C1C"/>
<path d="M432.397 148.98C431.875 147.862 431.782 146.71 433.082 146.103C433.539 145.89 434 145.925 434.456 146.129C436.77 147.216 437.587 147.001 439.896 147.424C440.591 147.544 441.244 147.99 441.542 148.628C442.341 150.339 440.567 151.779 439.221 152.407C436.05 153.888 431.981 155.649 428.778 157.061C427.992 157.4 427.108 157.59 426.256 157.432C425.404 157.274 424.617 156.78 424.245 155.982C422.903 153.107 426.548 151.571 428.488 150.666C429.378 150.251 431.186 149.601 432.053 149.196C432.167 149.143 432.293 149.056 432.397 148.98ZM446.92 161.265C448.952 166.472 447.376 169.222 442.333 171.19C437.993 172.883 431.277 173.125 429.245 167.918C427.314 162.968 430.614 158.681 435.141 156.914C439.762 155.111 444.998 156.339 446.92 161.265ZM441.088 168C442.683 167.378 443.93 166.486 443.253 164.75C442.1 161.794 438.717 160.952 435.925 162.041C433.861 162.846 432.539 164.308 433.436 166.607C434.544 169.445 438.836 168.879 441.088 168ZM453.063 179.261C454.652 184.62 452.852 187.229 447.662 188.769C443.196 190.093 436.483 189.774 434.893 184.415C433.382 179.321 437.029 175.324 441.688 173.942C446.444 172.531 451.559 174.192 453.063 179.261ZM446.688 185.486C448.33 184.999 449.647 184.214 449.117 182.428C448.215 179.386 444.914 178.264 442.041 179.116C439.917 179.746 438.478 181.093 439.18 183.458C440.046 186.379 444.371 186.173 446.688 185.486ZM457.921 203.545C458.059 204.211 457.732 204.87 457.091 205.002C456.869 205.048 456.626 204.995 456.404 204.913C454.215 203.899 452.022 202.988 449.784 202.113C448.082 201.462 446.301 201.058 444.556 200.698C443.053 200.391 441.279 200.268 439.839 199.64C439.413 199.445 439.085 199.101 438.983 198.608C438.815 197.794 439.379 197.164 440.094 197.016C442.807 196.456 457.387 200.956 457.921 203.545ZM452.633 197.977C450.685 198.379 448.531 197.41 448.063 195.141C447.661 193.193 449.211 191.356 450.912 191.005C455.055 190.151 457.146 197.046 452.633 197.977ZM450.462 194.929C450.818 196.655 452.476 195.593 452.347 194.72C452.213 193.822 450.218 193.745 450.462 194.929ZM443.717 202.362C444.777 202.143 445.989 202.536 446.872 203.202C447.359 203.565 447.675 204.476 447.802 205.093C448.102 206.548 446.578 208.379 445.295 208.644C443.742 208.964 441.613 207.989 441.246 206.214C440.844 204.266 441.966 202.723 443.717 202.362ZM444.042 204.686C443.623 204.772 443.2 205.091 443.307 205.609C443.393 206.028 444.037 206.281 444.382 206.21C445.097 206.062 445.201 204.447 444.042 204.686ZM443.243 227.038C443.094 225.206 443.471 223.331 444.321 221.67C445.693 218.981 448.222 218.396 451.033 218.166C456.654 217.707 460.018 220.54 460.477 226.162C461.362 237.003 444.098 237.503 443.243 227.038ZM455.397 226.753C455.132 223.516 453.619 222.3 450.406 222.563C447.897 222.768 447.576 224.411 447.756 226.619C448.142 231.337 455.803 231.722 455.397 226.753ZM457.554 242.637C457.862 243.642 458.425 245.225 458.432 246.232C458.44 247.667 457.393 249.436 455.807 249.446C453.214 249.462 453.5 246.892 453.49 245.154C453.475 242.661 451.69 243.125 449.877 243.237C449.022 243.293 448.166 243.348 447.31 243.353C445.849 243.362 444.105 242.265 444.096 240.679C444.078 237.758 447.579 237.913 449.543 237.901C451.708 237.888 459.032 237.214 459.052 240.563C459.06 241.973 458.128 241.828 457.554 242.637ZM447.947 263.62C447.766 261.816 447.415 259.925 447.537 258.116C447.784 254.448 450.937 252.239 454.454 252.476C458.8 252.769 461.136 257.041 460.868 261.01C460.805 261.94 460.594 262.834 460.234 263.668C461.112 264.131 461.981 264.719 461.904 265.85C461.811 267.232 460.638 267.783 459.382 267.699C457.674 267.583 455.966 267.089 454.207 266.971C452.021 266.823 449.799 266.849 447.588 266.7C444.699 266.505 441.808 266.335 440.63 263.227C440.159 261.984 439.843 260.676 439.935 259.319C440.059 257.485 441.578 253.297 443.889 253.453C444.894 253.521 445.691 254.433 445.621 255.463C445.514 257.046 444.406 258.51 444.291 260.219C444.095 263.108 445.335 263.444 447.947 263.62ZM455.389 263.669C455.5 263.146 455.587 262.597 455.625 262.044C455.72 260.637 455.26 257.351 453.426 257.227C452.597 257.171 451.867 257.525 451.806 258.43C451.692 260.113 452.136 262.137 452.299 263.838C453.337 263.782 454.347 263.775 455.389 263.669ZM447.513 280.435C448.932 280.981 451.807 281.672 451.501 283.689C451.391 284.41 450.878 284.944 450.185 285.144C448.432 285.617 446.445 285.29 444.26 285.926C443.728 286.074 443.179 286.169 442.606 286.082C441.212 285.871 440.086 284.732 440.309 283.263C440.566 281.571 441.777 281.143 443.114 280.557C442.839 278.503 441.899 277.316 442.247 275.026C442.798 271.391 445.887 269.16 449.497 269.708C454.326 270.441 457.781 274.531 457.025 279.51C456.772 281.178 455.816 284.624 453.576 284.284C449.866 283.721 454.671 275.893 448.123 274.899C447.153 274.752 446.573 275.046 446.422 276.041C446.282 276.963 447.2 279.47 447.513 280.435ZM451.965 294.595C452.275 295.806 452.619 296.431 452.313 297.73C450.955 303.489 445.194 301.587 440.856 300.564C439.533 300.252 437.604 299.435 438.009 297.72C438.356 296.249 439.661 295.652 441.46 295.921C444.159 296.324 448.682 297.986 448.977 296.736C449.237 295.633 447.323 294.095 446.367 293.87C445.117 293.575 443.768 293.593 442.518 293.299C440.949 292.929 438.954 292.174 439.44 290.115C440.099 287.321 443.864 288.468 445.751 288.913C447.197 289.254 452.393 290.479 453.295 291.261C453.789 291.688 454.043 292.368 453.886 293.03C453.638 294.084 452.822 294.254 451.965 294.595ZM436.885 307.296C435.798 306.976 434.933 306.169 435.297 304.938C435.916 302.836 439.573 303.075 441.192 303.552C442.761 304.015 445.919 305.235 445.293 307.36C444.88 308.761 443.74 308.976 442.482 308.789C441.401 308.628 440.222 308.175 436.885 307.296ZM448.731 310.658C447.692 310.352 447.024 309.236 447.337 308.173C447.65 307.11 448.841 306.543 449.88 306.849C450.87 307.141 451.49 308.243 451.191 309.257C450.871 310.344 449.842 310.985 448.731 310.658ZM446.72 324.095C446.086 325.874 443.932 328.019 441.868 327.284C440.73 326.878 440.054 325.248 440.452 324.133C440.79 323.184 441.906 322.753 442.261 321.757C442.962 319.788 440.78 317.06 438.978 316.417C437.412 315.86 436.054 316.819 435.53 318.29C435.083 319.547 435.156 320.99 434.7 322.271C434.244 323.552 433.006 324.474 431.631 323.984C429.093 323.079 430.185 318.363 430.853 316.489C432.416 312.102 437.115 309.793 441.503 311.356C447.1 313.351 448.571 318.9 446.72 324.095ZM436.143 348.235C435.305 349.927 432.914 351.806 430.951 350.834C429.867 350.298 429.388 348.599 429.913 347.539C430.36 346.636 431.518 346.339 431.988 345.391C432.915 343.518 431.068 340.553 429.353 339.703C427.863 338.966 426.403 339.76 425.71 341.159C425.118 342.355 425.022 343.797 424.419 345.015C423.816 346.234 422.479 347.005 421.17 346.357C418.755 345.162 420.393 340.606 421.275 338.823C423.342 334.649 428.279 332.906 432.453 334.973C437.779 337.61 438.589 343.293 436.143 348.235ZM413.639 353.968C414.594 352.397 416.001 351.101 417.664 350.256C420.354 348.886 422.745 349.898 425.154 351.364C429.973 354.295 431.032 358.563 428.101 363.382C422.448 372.676 408.183 362.938 413.639 353.968ZM423.642 360.877C425.33 358.101 424.819 356.228 422.065 354.554C419.914 353.245 418.689 354.387 417.538 356.28C415.078 360.324 421.051 365.136 423.642 360.877ZM412.763 369.496C413.727 368.736 414.682 367.563 416.001 368.531C417.26 369.455 416.404 370.92 415.982 372.047C417.468 373.512 420.631 376.053 418.992 378.286C417.294 380.6 414.505 377.803 412.983 376.686C412.773 376.844 412.583 377.017 412.434 377.22C411.436 378.58 409.775 382.077 407.461 380.379C405.127 378.665 407.979 375.418 409.126 373.855C409.019 373.745 408.933 373.65 408.811 373.561C406.761 372.056 406.151 373.951 405.123 375.352C404.08 376.772 402.751 377.859 401.026 376.592C398.753 374.923 400.752 372.455 401.914 370.872C405.162 366.447 408.52 366.851 412.763 369.496ZM401.907 383.735C402.932 383.059 403.983 381.971 405.215 383.048C406.391 384.076 405.413 385.462 404.898 386.549C406.254 388.136 409.19 390.936 407.368 393.021C405.479 395.183 402.938 392.16 401.516 390.917C401.293 391.057 401.09 391.214 400.924 391.403C399.814 392.674 397.862 396.017 395.7 394.128C393.52 392.223 396.638 389.229 397.913 387.769C397.816 387.651 397.738 387.549 397.624 387.45C395.709 385.776 394.94 387.613 393.797 388.921C392.638 390.248 391.222 391.218 389.61 389.809C387.486 387.954 389.688 385.664 390.98 384.185C394.592 380.052 397.904 380.739 401.907 383.735ZM380.393 395.477C381.72 394.205 383.413 393.314 385.238 392.926C388.19 392.293 390.24 393.886 392.191 395.922C396.094 399.993 396.019 404.39 391.948 408.294C384.095 415.821 372.814 402.743 380.393 395.477ZM388.283 404.726C390.628 402.478 390.616 400.537 388.385 398.21C386.643 396.392 385.166 397.18 383.566 398.714C380.149 401.99 384.684 408.176 388.283 404.726ZM377.816 415.858C377.32 417.005 377.209 417.709 376.172 418.549C371.573 422.271 368.182 417.241 365.378 413.777C364.523 412.72 363.498 410.893 364.868 409.785C366.042 408.834 367.44 409.161 368.698 410.475C370.585 412.446 373.144 416.529 374.143 415.721C375.023 415.008 374.452 412.621 373.834 411.857C373.026 410.859 371.948 410.047 371.14 409.049C370.126 407.796 369.011 405.978 370.655 404.648C372.886 402.842 375.161 406.053 376.381 407.56C377.316 408.715 380.674 412.865 380.909 414.035C381.038 414.675 380.822 415.369 380.293 415.796C379.452 416.478 378.703 416.112 377.816 415.858ZM349.907 426.463C350.353 426.178 350.949 426.036 351.416 425.737C352.922 424.775 354.08 423.407 355.565 422.458C356.541 421.834 357.797 421.181 358.624 422.475C358.99 423.048 358.843 423.799 358.47 424.337C357.801 425.302 353.519 428.607 352.416 429.312C351.355 429.99 349.622 430.739 348.754 429.381C348.022 428.236 348.953 427.073 349.907 426.463ZM338.77 437.595C339.871 437.038 341.019 436.909 341.667 438.189C341.895 438.639 341.874 439.101 341.685 439.563C340.672 441.91 340.912 442.72 340.563 445.041C340.465 445.74 340.041 446.406 339.411 446.725C337.727 447.577 336.232 445.851 335.561 444.525C333.981 441.402 332.092 437.391 330.579 434.234C330.215 433.459 329.996 432.582 330.127 431.725C330.258 430.869 330.727 430.067 331.514 429.669C334.345 428.237 335.995 431.832 336.961 433.742C337.405 434.618 338.111 436.405 338.544 437.259C338.6 437.371 338.691 437.494 338.77 437.595ZM326.803 452.494C321.647 454.653 318.859 453.145 316.768 448.152C314.969 443.855 314.562 437.146 319.718 434.987C324.619 432.935 328.986 436.129 330.863 440.612C332.779 445.187 331.68 450.452 326.803 452.494ZM319.927 446.829C320.588 448.408 321.51 449.633 323.229 448.913C326.155 447.688 326.914 444.285 325.757 441.521C324.901 439.477 323.408 438.192 321.132 439.145C318.321 440.322 318.993 444.599 319.927 446.829ZM308.841 459.059C303.512 460.749 300.87 458.998 299.234 453.837C297.826 449.397 298.021 442.679 303.349 440.989C308.414 439.384 312.478 442.955 313.947 447.588C315.446 452.316 313.881 457.461 308.841 459.059ZM302.498 452.802C303.016 454.435 303.825 455.737 305.601 455.173C308.625 454.215 309.686 450.894 308.78 448.037C308.11 445.925 306.738 444.511 304.385 445.257C301.481 446.178 301.768 450.498 302.498 452.802ZM284.447 464.266C283.783 464.409 283.121 464.088 282.983 463.448C282.935 463.227 282.986 462.984 283.067 462.761C284.061 460.563 284.952 458.362 285.808 456.117C286.444 454.409 286.833 452.625 287.177 450.877C287.471 449.371 287.578 447.596 288.194 446.15C288.385 445.722 288.726 445.391 289.218 445.285C290.03 445.11 290.666 445.669 290.82 446.383C291.403 449.09 287.032 463.709 284.447 464.266ZM289.969 458.93C289.55 456.985 290.5 454.823 292.765 454.335C294.709 453.916 296.559 455.449 296.925 457.147C297.816 461.282 290.939 463.434 289.969 458.93ZM292.998 456.731C291.275 457.103 292.351 458.751 293.223 458.615C294.12 458.473 294.179 456.477 292.998 456.731ZM285.506 450.052C285.734 451.11 285.352 452.326 284.693 453.215C284.335 453.704 283.426 454.029 282.811 454.161C281.359 454.474 279.514 452.966 279.238 451.686C278.904 450.135 279.86 447.997 281.632 447.615C283.577 447.196 285.129 448.304 285.506 450.052ZM283.185 450.397C283.095 449.979 282.772 449.559 282.255 449.67C281.837 449.761 281.59 450.406 281.664 450.751C281.818 451.465 283.434 451.554 283.185 450.397ZM260.807 449.647C262.639 449.503 264.513 449.887 266.171 450.742C268.855 452.122 269.433 454.653 269.653 457.465C270.094 463.088 267.25 466.442 261.627 466.883C250.783 467.733 250.339 450.467 260.807 449.647ZM261.052 461.801C264.29 461.547 265.511 460.037 265.259 456.824C265.062 454.314 263.42 453.988 261.211 454.161C256.492 454.531 256.082 462.191 261.052 461.801ZM245.026 463.846C244.016 464.141 242.426 464.684 241.419 464.677C239.984 464.667 238.229 463.597 238.24 462.011C238.258 459.417 240.824 459.737 242.562 459.75C245.054 459.767 244.614 457.976 244.526 456.163C244.481 455.306 244.437 454.45 244.443 453.594C244.453 452.133 245.573 450.404 247.159 450.415C250.08 450.435 249.879 453.934 249.866 455.898C249.85 458.063 250.428 465.395 247.08 465.371C245.67 465.361 245.827 464.431 245.026 463.846ZM224.149 453.898C225.956 453.75 227.853 453.433 229.659 453.588C233.322 453.903 235.474 457.095 235.172 460.607C234.799 464.947 230.486 467.205 226.522 466.864C225.594 466.785 224.703 466.557 223.876 466.182C223.397 467.051 222.793 467.909 221.664 467.812C220.284 467.693 219.754 466.51 219.862 465.256C220.008 463.55 220.533 461.851 220.684 460.095C220.872 457.913 220.886 455.69 221.076 453.482C221.324 450.597 221.547 447.71 224.676 446.589C225.927 446.141 227.241 445.849 228.596 445.966C230.427 446.123 234.586 447.719 234.388 450.027C234.302 451.03 233.375 451.81 232.347 451.721C230.766 451.586 229.322 450.451 227.616 450.304C224.731 450.056 224.373 451.289 224.149 453.898ZM223.964 461.337C224.484 461.458 225.032 461.556 225.584 461.603C226.989 461.724 230.283 461.325 230.441 459.493C230.512 458.665 230.171 457.928 229.268 457.851C227.587 457.706 225.555 458.113 223.851 458.244C223.888 459.284 223.877 460.294 223.964 461.337ZM207.291 453.003C206.702 454.405 205.925 457.258 203.919 456.892C203.2 456.76 202.683 456.231 202.503 455.532C202.084 453.766 202.47 451.789 201.9 449.586C201.768 449.05 201.69 448.498 201.794 447.929C202.047 446.541 203.219 445.45 204.681 445.717C206.365 446.025 206.756 447.248 207.302 448.602C209.363 448.39 210.577 447.486 212.856 447.902C216.472 448.563 218.609 451.718 217.953 455.309C217.075 460.115 212.883 463.444 207.929 462.539C206.27 462.236 202.854 461.176 203.261 458.947C203.936 455.257 211.616 460.295 212.806 453.78C212.982 452.814 212.706 452.226 211.715 452.045C210.799 451.878 208.264 452.72 207.291 453.003ZM192.921 456.967C191.699 457.231 191.063 457.552 189.776 457.198C184.071 455.627 186.185 449.941 187.368 445.644C187.729 444.333 188.616 442.436 190.316 442.904C191.772 443.305 192.321 444.632 191.986 446.42C191.483 449.102 189.654 453.56 190.892 453.901C191.985 454.202 193.593 452.346 193.853 451.399C194.194 450.161 194.226 448.812 194.567 447.574C194.995 446.02 195.823 444.055 197.862 444.616C200.63 445.378 199.344 449.098 198.83 450.967C198.436 452.4 197.019 457.546 196.204 458.419C195.759 458.897 195.069 459.125 194.414 458.945C193.37 458.657 193.231 457.835 192.921 456.967ZM180.787 441.402C181.152 440.329 181.993 439.498 183.209 439.911C185.283 440.616 184.895 444.261 184.352 445.858C183.825 447.408 182.477 450.513 180.379 449.8C178.996 449.33 178.828 448.182 179.066 446.933C179.272 445.86 179.772 444.7 180.787 441.402ZM176.943 453.1C177.292 452.075 178.434 451.452 179.483 451.809C180.532 452.166 181.05 453.379 180.702 454.404C180.37 455.381 179.244 455.956 178.242 455.616C177.169 455.251 176.571 454.196 176.943 453.1ZM163.528 450.438C161.781 449.721 159.739 447.468 160.571 445.441C161.03 444.323 162.69 443.725 163.785 444.175C164.717 444.557 165.095 445.692 166.073 446.093C168.007 446.887 170.835 444.836 171.562 443.065C172.192 441.528 171.298 440.126 169.853 439.534C168.619 439.027 167.174 439.033 165.916 438.517C164.658 438.001 163.795 436.721 164.349 435.37C165.372 432.878 170.032 434.191 171.872 434.946C176.181 436.714 178.266 441.516 176.498 445.826C174.242 451.323 168.63 452.531 163.528 450.438ZM139.853 438.563C138.209 437.634 136.465 435.143 137.543 433.236C138.138 432.184 139.86 431.799 140.89 432.381C141.767 432.877 142 434.05 142.921 434.571C144.74 435.599 147.802 433.918 148.744 432.252C149.562 430.806 148.85 429.303 147.491 428.535C146.329 427.878 144.895 427.703 143.711 427.034C142.528 426.365 141.831 424.987 142.55 423.716C143.877 421.371 148.336 423.256 150.067 424.235C154.122 426.528 155.59 431.553 153.297 435.608C150.372 440.78 144.653 441.278 139.853 438.563ZM135.389 415.741C136.899 416.789 138.109 418.27 138.853 419.981C140.06 422.748 138.907 425.074 137.301 427.392C134.087 432.027 129.763 432.829 125.128 429.615C116.188 423.418 126.759 409.76 135.389 415.741ZM127.895 425.314C130.565 427.165 132.465 426.766 134.301 424.117C135.735 422.048 134.669 420.757 132.848 419.495C128.958 416.798 123.798 422.474 127.895 425.314ZM119.926 413.913C120.624 414.923 121.735 415.95 120.685 417.206C119.683 418.403 118.276 417.456 117.178 416.965C115.621 418.355 112.886 421.352 110.761 419.575C108.559 417.733 111.526 415.127 112.737 413.678C112.593 413.459 112.432 413.259 112.239 413.097C110.945 412.015 107.559 410.136 109.401 407.934C111.258 405.713 114.319 408.765 115.806 410.008C115.923 409.909 116.023 409.828 116.12 409.712C117.751 407.761 115.898 407.033 114.566 405.918C113.213 404.788 112.213 403.393 113.586 401.751C115.395 399.588 117.732 401.739 119.239 402.999C123.45 406.52 122.835 409.846 119.926 413.913ZM106.402 402.18C107.012 403.245 108.031 404.363 106.879 405.525C105.779 406.633 104.458 405.57 103.405 404.987C101.736 406.24 98.7562 408.994 96.7897 407.044C94.7517 405.023 97.9292 402.677 99.2591 401.336C99.1335 401.105 98.9902 400.892 98.8114 400.715C97.6136 399.527 94.4 397.368 96.4214 395.33C98.4605 393.274 101.252 396.574 102.628 397.94C102.752 397.85 102.859 397.778 102.965 397.671C104.756 395.866 102.972 394.983 101.739 393.759C100.487 392.518 99.6087 391.044 101.116 389.524C103.102 387.522 105.248 389.863 106.642 391.246C110.54 395.112 109.645 398.374 106.402 402.18ZM96.0471 379.963C97.2317 381.369 98.012 383.115 98.2835 384.961C98.7257 387.947 97.0053 389.891 94.849 391.708C90.5363 395.343 86.153 394.987 82.518 390.675C75.5078 382.357 89.2803 371.935 96.0471 379.963ZM86.3128 387.246C88.4061 389.729 90.3444 389.841 92.8087 387.764C94.734 386.141 94.042 384.617 92.614 382.923C89.5633 379.303 83.0998 383.434 86.3128 387.246ZM75.8789 376.115C74.7648 375.547 74.0685 375.394 73.2949 374.306C69.8651 369.485 75.096 366.413 78.7277 363.829C79.8357 363.041 81.7225 362.132 82.7441 363.568C83.6198 364.799 83.2073 366.174 81.8176 367.348C79.733 369.109 75.4989 371.41 76.2432 372.456C76.9 373.38 79.3186 372.957 80.1188 372.388C81.1652 371.644 82.0424 370.618 83.0888 369.874C84.402 368.94 86.2861 367.939 87.512 369.663C89.1759 372.002 85.8291 374.073 84.2492 375.197C83.0386 376.058 78.6888 379.153 77.5059 379.314C76.8589 379.404 76.1803 379.145 75.7862 378.591C75.1586 377.708 75.5699 376.983 75.8789 376.115ZM66.9978 347.646C67.2563 348.107 67.3637 348.711 67.6345 349.194C68.5084 350.754 69.8067 351.989 70.6683 353.526C71.2345 354.537 71.814 355.828 70.4741 356.579C69.881 356.912 69.1393 356.721 68.6242 356.317C67.6996 355.594 64.6481 351.127 64.008 349.985C63.3926 348.887 62.7453 347.114 64.1511 346.326C65.3372 345.661 66.4439 346.657 66.9978 347.646ZM56.5133 335.951C57.0118 337.079 57.0806 338.232 55.7677 338.812C55.307 339.016 54.847 338.971 54.3949 338.758C52.1044 337.622 51.2832 337.82 48.9834 337.349C48.2909 337.214 47.6477 336.755 47.3629 336.11C46.6 334.383 48.4032 332.981 49.7621 332.381C52.9638 330.967 57.0685 329.292 60.3007 327.947C61.094 327.624 61.9816 327.453 62.8299 327.628C63.6783 327.804 64.4543 328.315 64.8103 329.121C66.092 332.023 62.4147 333.482 60.4568 334.347C59.5585 334.743 57.7368 335.355 56.8615 335.742C56.7464 335.793 56.6183 335.877 56.5133 335.951ZM42.2544 323.322C40.3428 318.069 41.9814 315.356 47.0686 313.505C51.4459 311.912 58.1663 311.824 60.0779 317.077C61.8948 322.069 58.497 326.28 53.9303 327.942C49.2691 329.638 44.0627 328.291 42.2544 323.322ZM48.2396 316.723C46.6307 317.308 45.3638 318.171 46.001 319.922C47.086 322.904 50.4486 323.823 53.2643 322.799C55.3465 322.041 56.7014 320.61 55.8575 318.291C54.8156 315.428 50.5111 315.896 48.2396 316.723ZM36.5245 305.202C35.0548 299.809 36.9126 297.241 42.1358 295.818C46.6301 294.593 53.3347 295.063 54.8043 300.456C56.2011 305.582 52.4659 309.496 47.7772 310.774C42.9913 312.078 37.9146 310.304 36.5245 305.202ZM43.0361 299.122C41.3841 299.572 40.0501 300.327 40.54 302.124C41.3741 305.185 44.6489 306.381 47.5398 305.593C49.6777 305.011 51.1465 303.697 50.4978 301.316C49.6967 298.377 45.3683 298.486 43.0361 299.122ZM32.2135 280.807C32.0913 280.138 32.4331 279.487 33.0771 279.369C33.3 279.329 33.5411 279.387 33.7618 279.475C35.927 280.538 38.0989 281.498 40.3158 282.424C42.0032 283.114 43.7738 283.558 45.5105 283.958C47.0062 284.299 48.7765 284.461 50.2027 285.122C50.624 285.327 50.9441 285.678 51.0346 286.173C51.1839 286.991 50.6057 287.608 49.8874 287.74C47.1627 288.237 32.6887 283.408 32.2135 280.807ZM37.3735 286.494C39.3303 286.136 41.4617 287.155 41.878 289.433C42.2355 291.39 40.6448 293.191 38.9357 293.503C34.7745 294.263 32.8407 287.322 37.3735 286.494ZM39.4751 289.591C39.1584 287.857 37.4769 288.881 37.5858 289.757C37.6991 290.658 39.6924 290.78 39.4751 289.591ZM46.3874 282.313C45.3223 282.507 44.1193 282.087 43.2517 281.401C42.7739 281.028 42.4781 280.109 42.365 279.49C42.098 278.028 43.6639 276.232 44.9519 275.997C46.5124 275.712 48.619 276.735 48.9448 278.518C49.3023 280.475 48.1461 281.991 46.3874 282.313ZM46.1152 279.982C46.5362 279.905 46.9661 279.596 46.8711 279.076C46.7942 278.655 46.1566 278.388 45.8098 278.451C45.0915 278.582 44.951 280.195 46.1152 279.982ZM47.4154 257.654C47.524 259.488 47.1048 261.355 46.2183 262.996C44.7865 265.654 42.245 266.182 39.4298 266.349C33.7995 266.682 30.4996 263.775 30.1663 258.145C29.5235 247.286 46.7949 247.172 47.4154 257.654ZM35.2584 257.667C35.4504 260.909 36.9368 262.158 40.1542 261.968C42.6677 261.819 43.0249 260.184 42.894 257.972C42.6142 253.246 34.9638 252.69 35.2584 257.667ZM33.4532 241.747C33.167 240.735 32.6381 239.14 32.6539 238.133C32.6765 236.698 33.7616 234.952 35.3478 234.977C37.9409 235.018 37.5984 237.581 37.571 239.318C37.5318 241.811 39.3265 241.386 41.1407 241.314C41.9975 241.277 42.8543 241.24 43.7103 241.253C45.1705 241.276 46.8903 242.411 46.8653 243.998C46.8193 246.918 43.3226 246.687 41.3588 246.656C39.1937 246.622 31.8574 247.136 31.9102 243.787C31.9323 242.377 32.8615 242.543 33.4532 241.747ZM43.5221 220.975C43.6627 222.782 43.9721 224.681 43.8095 226.486C43.4798 230.148 40.2787 232.287 36.7678 231.97C32.4293 231.58 30.1893 227.257 30.5461 223.295C30.6296 222.367 30.8614 221.478 31.2391 220.652C30.3724 220.17 29.5171 219.562 29.6187 218.433C29.7429 217.054 30.9278 216.529 32.1817 216.642C33.887 216.795 35.5836 217.327 37.339 217.485C39.5208 217.682 41.7435 217.705 43.9503 217.903C46.8343 218.163 49.7205 218.398 50.8289 221.531C51.2722 222.785 51.5583 224.1 51.4363 225.454C51.2715 227.285 49.6588 231.437 47.3516 231.23C46.3485 231.139 45.5726 230.21 45.6652 229.182C45.8074 227.602 46.9483 226.162 47.1019 224.457C47.3616 221.573 46.1302 221.209 43.5221 220.975ZM36.0835 220.76C35.9608 221.28 35.861 221.827 35.8113 222.379C35.6848 223.783 36.0706 227.079 37.9013 227.244C38.7289 227.318 39.4672 226.98 39.5485 226.077C39.6998 224.397 39.3014 222.364 39.1768 220.659C38.1374 220.692 37.1275 220.677 36.0835 220.76ZM44.3351 204.173C42.9281 203.595 40.0695 202.839 40.4209 200.83C40.5467 200.111 41.0724 199.589 41.7694 199.405C43.5322 198.972 45.5121 199.343 47.7107 198.757C48.2458 198.62 48.7971 198.538 49.3675 198.637C50.7565 198.88 51.8566 200.044 51.6007 201.507C51.3057 203.194 50.0855 203.594 48.7357 204.15C48.9634 206.21 49.8769 207.417 49.4778 209.699C48.8445 213.321 45.706 215.481 42.1095 214.852C37.2977 214.011 33.9366 209.844 34.8041 204.884C35.0948 203.222 36.1281 199.798 38.3603 200.189C42.056 200.835 37.0764 208.553 43.5996 209.694C44.5669 209.863 45.1529 209.582 45.3264 208.59C45.4869 207.672 44.6254 205.144 44.3351 204.173ZM40.205 189.913C39.9233 188.695 39.5934 188.062 39.9292 186.771C41.4184 181.044 47.1339 183.077 51.4472 184.198C52.7631 184.54 54.6727 185.401 54.2291 187.107C53.8489 188.569 52.5305 189.137 50.7379 188.827C48.049 188.362 43.5646 186.597 43.2415 187.84C42.9563 188.937 44.8347 190.518 45.785 190.765C47.0279 191.088 48.3774 191.101 49.6203 191.424C51.1799 191.83 53.1572 192.63 52.6249 194.677C51.9025 197.455 48.1643 196.223 46.2879 195.735C44.8501 195.361 39.6839 194.018 38.7998 193.216C38.3153 192.777 38.0775 192.091 38.2486 191.433C38.5211 190.385 39.3409 190.234 40.205 189.913ZM55.5667 177.559C56.6462 177.903 57.493 178.729 57.1026 179.952C56.4368 182.039 52.7856 181.72 51.1784 181.207C49.6191 180.71 46.4889 179.42 47.1624 177.309C47.6063 175.918 48.7505 175.728 50.0035 175.943C51.0809 176.128 52.2497 176.606 55.5667 177.559ZM43.7982 173.936C44.8297 174.266 45.4734 175.396 45.1367 176.451C44.7999 177.507 43.5965 178.048 42.565 177.719C41.5815 177.405 40.9858 176.29 41.3072 175.283C41.6516 174.203 42.6948 173.584 43.7982 173.936ZM46.118 160.538C46.7924 158.774 48.9955 156.678 51.0417 157.46C52.1706 157.892 52.8084 159.538 52.3858 160.643C52.0261 161.584 50.9006 161.989 50.523 162.977C49.7766 164.929 51.8955 167.707 53.6829 168.391C55.2352 168.984 56.6145 168.056 57.172 166.597C57.6486 165.351 57.6077 163.907 58.0933 162.637C58.5789 161.367 59.8371 160.473 61.2012 160.994C63.7178 161.956 62.5177 166.646 61.8073 168.504C60.1438 172.856 55.3937 175.056 51.0427 173.392C45.4922 171.27 44.1487 165.689 46.118 160.538ZM57.2438 136.644C58.1203 134.971 60.554 133.148 62.4943 134.165C63.5649 134.726 64.0054 136.435 63.4561 137.483C62.9886 138.375 61.8234 138.646 61.3325 139.583C60.3625 141.434 62.141 144.441 63.836 145.329C65.308 146.101 66.7866 145.34 67.5112 143.958C68.1307 142.776 68.2594 141.336 68.8905 140.132C69.5217 138.928 70.876 138.188 72.1696 138.865C74.556 140.116 72.8144 144.633 71.8911 146.395C69.7289 150.521 64.7536 152.149 60.6276 149.987C55.3641 147.229 54.6843 141.528 57.2438 136.644ZM79.873 131.43C78.8821 132.978 77.4458 134.241 75.7636 135.047C73.043 136.355 70.6762 135.289 68.301 133.769C63.5505 130.728 62.5904 126.437 65.6309 121.686C71.4948 112.524 85.5333 122.586 79.873 131.43ZM70.0311 124.293C68.28 127.029 68.7482 128.913 71.4628 130.65C73.5835 132.008 74.834 130.895 76.0285 129.029C78.5804 125.042 72.7187 120.094 70.0311 124.293ZM81.1052 115.925C80.1238 116.663 79.1422 117.814 77.8455 116.815C76.6086 115.863 77.4982 114.418 77.9456 113.301C76.494 111.802 73.3897 109.189 75.0796 106.994C76.8309 104.72 79.5544 107.58 81.0507 108.732C81.2641 108.579 81.4577 108.41 81.6113 108.211C82.6406 106.874 84.3818 103.416 86.6561 105.167C88.9503 106.934 86.024 110.115 84.8411 111.651C84.9455 111.763 85.0298 111.86 85.1495 111.952C87.1645 113.504 87.8179 111.624 88.878 110.247C89.9533 108.851 91.3064 107.795 93.0022 109.101C95.2365 110.821 93.1811 113.243 91.9828 114.799C88.6338 119.148 85.2857 118.667 81.1052 115.925ZM92.289 101.938C91.2483 102.59 90.1722 103.653 88.9653 102.548C87.814 101.493 88.8234 100.13 89.3643 99.0549C88.0457 97.4376 85.1752 94.5696 87.0458 92.527C88.9845 90.4102 91.4546 93.4918 92.8472 94.7672C93.073 94.6325 93.2802 94.4809 93.4502 94.2952C94.5896 93.0511 96.6191 89.754 98.7359 91.6927C100.871 93.6484 97.6848 96.5685 96.3753 97.9983C96.4697 98.119 96.5456 98.2226 96.657 98.3246C98.5324 100.042 99.3436 98.2244 100.517 96.9431C101.707 95.6433 103.146 94.7069 104.724 96.1524C106.804 98.057 104.549 100.295 103.223 101.743C99.5157 105.791 96.2207 105.027 92.289 101.938ZM114.071 90.7024C112.715 91.9429 111.002 92.7933 109.168 93.1392C106.202 93.7021 104.19 92.0618 102.287 89.9808C98.4805 85.8189 98.6586 81.4247 102.821 77.6181C110.847 70.2768 121.819 83.616 114.071 90.7024ZM106.4 81.2709C104.004 83.4631 103.97 85.4043 106.146 87.7825C107.845 89.6405 109.34 88.8874 110.975 87.3919C114.468 84.1971 110.079 77.9062 106.4 81.2709ZM117.129 70.3864C117.653 69.2514 117.78 68.5496 118.837 67.7349C123.524 64.1226 126.794 69.2317 129.515 72.7616C130.345 73.8385 131.326 75.689 129.93 76.765C128.734 77.6873 127.344 77.3279 126.117 75.9842C124.278 73.9688 121.816 69.8261 120.799 70.61C119.901 71.3018 120.416 73.7023 121.016 74.4801C121.8 75.4972 122.858 76.3344 123.642 77.3515C124.626 78.6278 125.698 80.4721 124.023 81.7633C121.749 83.5157 119.551 80.2509 118.367 78.7153C117.46 77.5387 114.201 73.3108 113.995 72.135C113.88 71.4919 114.113 70.8039 114.651 70.3888C115.509 69.7278 116.249 70.1109 117.129 70.3864ZM145.286 60.4488C144.834 60.7228 144.234 60.8506 143.76 61.1376C142.231 62.0639 141.041 63.4033 139.533 64.3166C138.543 64.9167 137.271 65.5396 136.475 64.2259C136.123 63.6445 136.288 62.8967 136.675 62.3682C137.366 61.4196 141.727 58.2185 142.847 57.5401C143.924 56.8877 145.674 56.1807 146.509 57.559C147.213 58.722 146.255 59.8618 145.286 60.4488ZM156.692 49.5894C155.578 50.1194 154.427 50.2208 153.811 48.9248C153.595 48.47 153.626 48.0088 153.826 47.551C154.897 45.2293 154.676 44.4141 155.082 42.1019C155.197 41.4058 155.638 40.75 156.274 40.4471C157.98 39.6358 159.432 41.3987 160.07 42.7402C161.574 45.9007 163.364 49.9565 164.799 53.1495C165.144 53.9334 165.341 54.8157 165.189 55.6687C165.037 56.5217 164.549 57.3118 163.753 57.6904C160.888 59.0534 159.326 55.4188 158.407 53.4861C157.985 52.5993 157.322 50.7956 156.911 49.9315C156.857 49.8178 156.769 49.6922 156.692 49.5894ZM169.022 34.9876C174.23 32.9557 176.98 34.5315 178.948 39.5747C180.641 43.9143 180.883 50.6309 175.676 52.6628C170.726 54.5941 166.439 51.2939 164.672 46.7667C162.869 42.1457 164.096 36.9097 169.022 34.9876ZM175.758 40.8195C175.135 39.2244 174.243 37.9777 172.508 38.655C169.552 39.8083 168.71 43.1912 169.799 45.9826C170.604 48.0468 172.066 49.3684 174.365 48.4715C177.203 47.364 176.636 43.0714 175.758 40.8195ZM187.148 28.8658C192.517 27.3096 195.114 29.1258 196.621 34.3254C197.918 38.7995 197.556 45.5107 192.188 47.0669C187.085 48.546 183.111 44.8742 181.758 40.2067C180.377 35.4425 182.069 30.3379 187.148 28.8658ZM193.332 35.2788C192.856 33.6342 192.079 32.3125 190.29 32.8313C187.242 33.7145 186.1 37.0081 186.934 39.886C187.551 42.0142 188.888 43.4617 191.258 42.7748C194.184 41.9266 194.005 37.6004 193.332 35.2788ZM211.659 24.2661C212.327 24.1393 212.981 24.4767 213.103 25.1199C213.145 25.3425 213.088 25.5839 213.002 25.8053C211.953 27.9777 211.008 30.156 210.097 32.3791C209.419 34.0712 208.987 35.8447 208.599 37.5841C208.268 39.0821 208.117 40.8535 207.466 42.2841C207.264 42.7068 206.916 43.0293 206.421 43.1232C205.604 43.278 204.983 42.704 204.847 41.9866C204.331 39.2654 209.062 24.7589 211.659 24.2661ZM206.008 29.4645C206.379 31.4189 205.375 33.5571 203.099 33.9889C201.144 34.3597 199.333 32.7813 199.009 31.0743C198.22 26.9183 205.149 24.9375 206.008 29.4645ZM202.925 31.5872C204.657 31.2586 203.621 29.5841 202.746 29.6989C201.846 29.8184 201.738 31.8125 202.925 31.5872ZM210.25 38.4499C210.048 37.3861 210.46 36.1803 211.14 35.308C211.51 34.8277 212.427 34.5257 213.045 34.4083C214.505 34.1314 216.312 35.6851 216.556 36.9715C216.852 38.53 215.843 40.6435 214.062 40.9814C212.108 41.3522 210.583 40.2063 210.25 38.4499ZM212.579 38.1618C212.658 38.5823 212.97 39.0101 213.49 38.9115C213.91 38.8317 214.173 38.1924 214.108 37.846C213.972 37.1286 212.358 36.9991 212.579 38.1618ZM234.931 39.4627C233.096 39.5608 231.232 39.1309 229.596 38.2349C226.946 36.7879 226.432 34.2434 226.282 31.4273C225.981 25.7952 228.907 22.5121 234.539 22.2111C245.401 21.6307 245.416 38.9024 234.931 39.4627ZM234.988 27.3059C231.744 27.4792 230.487 28.9584 230.659 32.1768C230.793 34.6912 232.426 35.0578 234.639 34.9395C239.366 34.6869 239.966 27.0398 234.988 27.3059ZM251.053 25.6566C252.069 25.3862 253.672 24.8823 254.679 24.9138C256.113 24.9589 257.842 26.0712 257.792 27.6567C257.711 30.2489 255.153 29.8663 253.417 29.8118C250.925 29.7336 251.322 31.5347 251.366 33.3499C251.389 34.2072 251.413 35.0644 251.386 35.9201C251.34 37.3798 250.178 39.0816 248.593 39.0318C245.673 38.9402 245.959 35.4475 246.021 33.4845C246.089 31.3201 245.69 23.9767 249.037 24.0818C250.446 24.126 250.266 25.0525 251.053 25.6566ZM271.687 36.1294C269.877 36.2307 267.972 36.4987 266.17 36.2969C262.517 35.8877 260.448 32.6409 260.841 29.1376C261.326 24.8087 265.696 22.6631 269.649 23.106C270.575 23.2097 271.459 23.4607 272.276 23.8563C272.778 23.0003 273.404 22.1583 274.53 22.2845C275.906 22.4386 276.406 23.6347 276.266 24.8859C276.075 26.5874 275.506 28.272 275.31 30.0236C275.066 32.2006 274.995 34.4222 274.748 36.6243C274.426 39.5019 274.129 42.3824 270.972 43.4223C269.709 43.8383 268.388 44.0957 267.037 43.9443C265.21 43.7397 261.093 42.0371 261.351 39.735C261.463 38.7341 262.409 37.9786 263.435 38.0935C265.012 38.2701 266.426 39.442 268.128 39.6326C271.005 39.9549 271.396 38.7318 271.687 36.1294ZM272.064 28.6971C271.547 28.5632 271.002 28.4515 270.451 28.3898C269.05 28.2329 265.746 28.5469 265.542 30.3736C265.449 31.1994 265.771 31.9449 266.672 32.0458C268.348 32.2336 270.39 31.8795 272.097 31.792C272.087 30.752 272.124 29.7427 272.064 28.6971ZM288.504 37.4253C289.126 36.0368 289.969 33.2029 291.966 33.616C292.681 33.7639 293.186 34.3054 293.35 35.0077C293.728 36.783 293.295 38.7505 293.814 40.9663C293.934 41.5053 294 42.0588 293.882 42.6259C293.597 44.0068 292.4 45.0705 290.945 44.7696C289.268 44.4228 288.906 43.1908 288.391 41.8245C286.326 41.9888 285.091 42.8646 282.822 42.3954C279.222 41.6508 277.159 38.4472 277.899 34.8719C278.888 30.0883 283.156 26.857 288.088 27.877C289.74 28.2187 293.13 29.357 292.671 31.5762C291.911 35.2501 284.35 30.0352 283.009 36.5202C282.81 37.4818 283.073 38.0761 284.059 38.2801C284.972 38.4688 287.525 37.6856 288.504 37.4253ZM302.991 33.8189C304.22 33.5862 304.865 33.2818 306.142 33.669C311.804 35.3858 309.545 41.0155 308.252 45.2806C307.857 46.5818 306.921 48.4554 305.234 47.944C303.788 47.5056 303.274 46.1656 303.655 44.3868C304.227 41.7187 306.17 37.3084 304.941 36.9358C303.856 36.6071 302.201 38.4207 301.916 39.3604C301.544 40.5894 301.477 41.9373 301.105 43.1662C300.637 44.7084 299.758 46.6521 297.734 46.0384C294.987 45.2056 296.368 41.5196 296.93 39.6642C297.362 38.2425 298.91 33.1341 299.747 32.2828C300.205 31.8162 300.9 31.606 301.55 31.8033C302.586 32.1174 302.705 32.9426 302.991 33.8189ZM314.721 49.6825C314.33 50.7461 313.469 51.5564 312.264 51.1136C310.207 50.3583 310.684 46.7242 311.266 45.1407C311.83 43.6044 313.253 40.5328 315.333 41.2968C316.704 41.8004 316.844 42.9517 316.576 44.1943C316.344 45.2627 315.816 46.4097 314.721 49.6825ZM318.848 38.0814C318.475 39.0977 317.318 39.692 316.278 39.31C315.238 38.928 314.749 37.7023 315.122 36.686C315.478 35.7169 316.618 35.17 317.611 35.5346C318.674 35.9253 319.248 36.9942 318.848 38.0814ZM332.203 41.0823C333.932 41.8428 335.916 44.1466 335.034 46.1517C334.548 47.258 332.872 47.8139 331.789 47.3373C330.867 46.9317 330.518 45.7876 329.55 45.3617C327.637 44.5201 324.758 46.4994 323.987 48.251C323.318 49.7721 324.177 51.1955 325.606 51.8242C326.828 52.3616 328.272 52.392 329.517 52.9396C330.761 53.4872 331.592 54.788 331.004 56.1247C329.919 58.5908 325.294 57.161 323.473 56.3599C319.209 54.4839 317.246 49.6311 319.122 45.3673C321.515 39.9282 327.156 38.8615 332.203 41.0823ZM355.577 53.5296C357.197 54.4997 358.879 57.0331 357.754 58.9125C357.133 59.9494 355.402 60.2921 354.386 59.6841C353.522 59.1667 353.318 57.988 352.411 57.4447C350.618 56.371 347.515 57.9758 346.532 59.6176C345.678 61.0434 346.353 62.5628 347.692 63.3648C348.837 64.0504 350.267 64.2608 351.433 64.9593C352.6 65.6578 353.262 67.052 352.511 68.305C351.127 70.6165 346.717 68.621 345.01 67.5991C341.013 65.206 339.67 60.1462 342.063 56.1497C345.116 51.0515 350.846 50.6966 355.577 53.5296ZM359.482 76.4395C357.996 75.3581 356.821 73.8491 356.116 72.1217C354.972 69.328 356.178 67.029 357.837 64.7486C361.155 60.1879 365.497 59.4853 370.057 62.8036C378.853 69.2033 367.972 82.617 359.482 76.4395ZM367.193 67.0405C364.566 65.1295 362.657 65.4845 360.761 68.0907C359.28 70.1267 360.316 71.4413 362.108 72.745C365.936 75.53 371.224 69.9737 367.193 67.0405ZM374.904 78.6336C374.231 77.6065 373.146 76.5526 374.227 75.3231C375.257 74.1504 376.641 75.1316 377.727 75.6502C379.317 74.2987 382.125 71.3698 384.206 73.1981C386.362 75.0928 383.332 77.6257 382.085 79.0443C382.224 79.2672 382.38 79.4713 382.57 79.6375C383.837 80.751 387.175 82.7122 385.28 84.8685C383.369 87.0437 380.384 83.9178 378.927 82.638C378.809 82.7349 378.707 82.8129 378.607 82.9264C376.928 84.8367 378.762 85.6104 380.067 86.7572C381.391 87.9207 382.357 89.3392 380.945 90.9469C379.083 93.0654 376.8 90.8577 375.324 89.5613C371.201 85.938 371.897 82.628 374.904 78.6336ZM388.133 90.6844C387.548 89.6047 386.555 88.4639 387.734 87.3289C388.859 86.2463 390.156 87.3395 391.195 87.947C392.892 86.7329 395.935 84.0486 397.856 86.0441C399.846 88.1123 396.615 90.3834 395.255 91.693C395.375 91.9268 395.513 92.1431 395.688 92.3245C396.858 93.54 400.021 95.773 397.952 97.7635C395.866 99.7716 393.152 96.4075 391.808 95.0106C391.682 95.0973 391.573 95.1664 391.465 95.2712C389.632 97.0348 391.395 97.9589 392.6 99.2106C393.823 100.481 394.667 101.975 393.125 103.459C391.093 105.415 389.002 103.024 387.64 101.609C383.833 97.6542 384.803 94.4139 388.133 90.6844ZM397.975 113.13C396.822 111.698 396.081 109.935 395.851 108.083C395.476 105.088 397.24 103.183 399.436 101.414C403.83 97.8773 408.204 98.3316 411.741 102.725C418.563 111.198 404.559 121.308 397.975 113.13ZM407.87 106.068C405.833 103.538 403.898 103.382 401.387 105.404C399.426 106.983 400.084 108.522 401.473 110.248C404.442 113.935 410.997 109.951 407.87 106.068ZM418.055 117.447C419.155 118.04 419.848 118.21 420.596 119.315C423.911 124.217 418.609 127.164 414.917 129.661C413.791 130.423 411.883 131.288 410.896 129.828C410.049 128.577 410.494 127.212 411.911 126.071C414.037 124.36 418.324 122.159 417.605 121.095C416.97 120.157 414.542 120.522 413.728 121.072C412.665 121.792 411.764 122.797 410.7 123.516C409.365 124.419 407.458 125.374 406.273 123.622C404.665 121.245 408.06 119.253 409.665 118.166C410.896 117.334 415.318 114.343 416.504 114.21C417.153 114.136 417.825 114.41 418.206 114.974C418.813 115.87 418.385 116.586 418.055 117.447ZM422.712 139.435C422.448 138.977 422.334 138.375 422.057 137.895C421.165 136.346 419.852 135.126 418.972 133.599C418.393 132.595 417.798 131.311 419.129 130.544C419.718 130.204 420.462 130.386 420.982 130.784C421.915 131.496 425.02 135.926 425.674 137.06C426.302 138.151 426.971 139.917 425.574 140.721C424.396 141.4 423.278 140.417 422.712 139.435Z" fill="#482C1C"/>
</g>
</svg>
