<svg width="104" height="82" viewBox="0 0 104 82" fill="none" xmlns="http://www.w3.org/2000/svg">
<path d="M101.156 15.1173C101.634 17.6895 101.233 20.1506 100.15 22.5126C99.4447 24.0513 98.4933 25.4282 97.4162 26.7256C95.7636 28.7048 93.8202 30.4193 91.653 31.8101C90.1515 32.7803 88.6145 33.6927 87.088 34.6221C85.9564 35.3113 84.8357 36.0175 83.7597 36.7917C83.084 37.2772 82.4389 37.797 81.8618 38.4002C81.8288 38.4349 81.7902 38.4651 81.7617 38.5008C81.7088 38.5712 81.6367 38.6248 81.5541 38.6551C81.4715 38.6853 81.3819 38.6909 81.2962 38.6712C80.9819 38.6209 80.6656 38.5787 80.3488 38.5415C79.1751 38.4037 77.999 38.3404 76.8178 38.4264C76.7247 38.4334 76.6306 38.4264 76.5481 38.4264C76.4775 38.3188 76.5451 38.2595 76.5931 38.2032C77.1111 37.5954 77.6096 36.9681 78.1556 36.3865C79.2602 35.2102 80.3894 34.0571 81.509 32.8974C82.7992 31.5638 84.041 30.1885 85.1325 28.684C86.9118 26.2314 88.2927 23.5768 89.146 20.6573C89.7081 18.7335 89.9468 16.7711 89.7706 14.7704C89.5919 12.656 88.9334 10.6108 87.8457 8.7916C87.7311 8.59958 87.61 8.41107 87.4884 8.22358C87.3667 8.03608 87.2426 7.85411 87.094 7.63092C87.2251 7.552 87.3032 7.49771 87.3873 7.45549C88.9213 6.69142 90.5404 6.33804 92.2506 6.49387C94.211 6.67282 95.9613 7.39366 97.4677 8.66794C99.4742 10.366 100.677 12.5406 101.156 15.1173Z" fill="#FFC2C2"/>
<path d="M95.3517 61.4774C96.1485 62.8347 96.5699 64.2924 96.5529 65.8663C96.5384 67.0662 96.2561 68.2123 95.7656 69.3051C95.156 70.6623 94.2896 71.8436 93.2521 72.9027C92.115 74.0639 90.8257 75.0245 89.4333 75.8509C87.4174 77.0473 85.2627 77.9119 83.008 78.5302C81.5003 78.9386 79.9653 79.2376 78.4149 79.425C77.1637 79.5808 75.9045 79.6155 74.8269 79.6552C71.5832 79.6336 68.5777 79.236 65.6603 78.2643C63.8971 77.6772 62.2214 76.9071 60.6724 75.8715C60.3936 75.6856 60.1053 75.5141 59.8266 75.3282C58.4925 74.4442 57.3094 73.3495 56.3231 72.0864C55.2305 70.6834 54.5909 69.0749 54.1955 67.3552C53.8807 65.9849 53.8091 64.5955 53.9287 63.2016C54.0644 61.6152 54.3847 60.0669 55.0408 58.6041C55.1654 58.3272 55.273 58.0426 55.3847 57.7596C55.7821 56.7488 55.8511 55.7032 55.6699 54.643C55.5408 53.8865 55.3897 53.132 55.2125 52.3855C54.8808 51.0132 54.796 49.5924 54.9622 48.1902C55.1189 46.8832 55.3681 45.5984 55.8106 44.3558C56.1559 43.3871 56.6184 42.4748 57.1294 41.5871C57.3856 41.1417 57.7225 40.7541 58.0908 40.3972C58.1954 40.2989 58.3102 40.2121 58.4332 40.1383C60.5748 38.8073 62.3926 37.1268 63.8555 35.0653C65.1894 33.1868 66.0902 31.1188 66.5082 28.8472C66.8554 26.9493 66.7629 24.9966 66.2379 23.1404C66.2256 23.094 66.2108 23.0483 66.1934 23.0036C65.9932 22.512 66.0027 22.0184 66.0973 21.4956C66.2194 20.82 66.2719 20.1313 66.3505 19.4482C66.5572 17.6516 66.7444 15.8526 67.2013 14.0957C67.6708 12.2836 68.3685 10.577 69.4511 9.03929C70.2519 7.90274 71.2208 6.94061 72.3945 6.19163C73.919 5.21895 75.5881 4.77056 77.3884 4.80776C79.8744 4.85803 82.0125 5.78546 83.8353 7.45435C85.8313 9.28258 86.9884 11.5662 87.4053 14.238C87.7112 16.2049 87.5054 18.1342 86.9514 20.0308C86.1671 22.7181 84.8848 25.1556 83.2367 27.4051C82.1276 28.9181 80.8554 30.2864 79.5526 31.6275C78.3173 32.9003 77.0541 34.1464 75.8859 35.4836C75.2853 36.1697 74.6882 36.8574 74.1842 37.6209C73.9385 37.9944 73.7073 38.379 73.4941 38.7721C73.3932 38.9716 73.3171 39.1828 73.2673 39.4009C73.0311 40.3087 73.9065 41.0376 74.5686 40.9592C74.8849 40.9225 75.2008 40.8813 75.5166 40.8406C76.7822 40.677 78.0612 40.6447 79.3334 40.7441C80.8348 40.8607 82.3018 41.1407 83.7222 41.6428C86.1481 42.5014 88.2412 43.8571 89.8673 45.8844C91.2934 47.6622 92.133 49.6878 92.3863 51.9613C92.5538 53.4602 92.4611 54.977 92.1125 56.4441C92.0764 56.6 92.0324 56.7543 92.0049 56.9116C91.9373 57.2972 92.0179 57.647 92.2907 57.9346C92.5634 58.2221 92.8412 58.5147 93.132 58.7851C93.9923 59.5854 94.7541 60.461 95.3517 61.4774ZM88.3357 56.6598C88.617 56.1651 88.7457 55.6243 88.7411 54.9507C88.7386 54.9115 88.7411 54.7672 88.7211 54.625C88.634 53.9574 88.4033 53.3517 87.8993 52.8872C87.3177 52.3513 86.6436 52.2292 85.9063 52.5097C85.5941 52.6352 85.3203 52.8411 85.1126 53.1069C84.506 53.8458 84.3488 54.7049 84.4649 55.6283C84.534 56.1767 84.7282 56.6794 85.088 57.1092C85.8363 58.0029 87.09 58.0643 87.9073 57.2333C88.0742 57.0616 88.2183 56.8688 88.3357 56.6598ZM85.4594 62.9503C85.4379 62.6441 85.4164 62.0837 85.3533 61.5282C85.302 61.0176 85.1765 60.5174 84.9809 60.0433C84.8348 59.7 84.564 59.5311 84.2157 59.4627C84.0025 59.4215 83.8058 59.4944 83.6096 59.5597C83.3678 59.6401 83.1311 59.7392 82.8859 59.805C81.6922 60.1242 80.517 59.986 79.3529 59.6406C78.987 59.5321 78.6221 59.4185 78.2563 59.3069C77.7057 59.1395 77.2833 59.3436 76.9625 59.7814C76.8047 60.0011 76.6705 60.237 76.5621 60.4851C76.2043 61.2849 76.0741 62.1395 76.0196 63.0051C75.971 63.7404 76.0012 64.4789 76.1097 65.2078C76.2368 66.0508 76.447 66.8701 76.8048 67.6453C77.0951 68.2746 77.4635 68.8517 77.9765 69.3257C78.6692 69.9671 79.494 70.2627 80.4249 70.223C81.5866 70.1727 82.5871 69.7203 83.4194 68.905C83.9995 68.3359 84.3914 67.6432 84.7037 66.8993C85.2002 65.7195 85.3893 64.4749 85.4594 62.9503ZM74.1722 55.2764C74.1712 54.8043 74.0759 54.3371 73.892 53.9026C73.7527 53.5786 73.546 53.2883 73.2859 53.0511C72.9731 52.7611 72.5701 52.5887 72.1452 52.563C71.7203 52.5373 71.2997 52.6601 70.9546 52.9103C70.55 53.1997 70.2422 53.6054 70.0717 54.074C69.8541 54.6615 69.7936 55.296 69.896 55.9143C69.9736 56.4275 70.1618 56.9011 70.5046 57.2997C70.9896 57.8642 71.5997 58.1125 72.3369 57.9743C72.8985 57.8692 73.3169 57.5354 73.6317 57.0659C73.9981 56.519 74.1442 55.9043 74.1722 55.2764Z" fill="#FFC2C2"/>
<path d="M54.1469 42.2625C54.201 42.3661 54.1174 42.4425 54.0824 42.5214C53.4788 43.8746 53.1044 45.2937 52.8576 46.7504C52.7261 47.5399 52.6399 48.3362 52.5994 49.1356C52.5318 50.4089 52.7075 51.6581 52.9818 52.8976C53.1204 53.522 53.255 54.1478 53.3757 54.7757C53.431 55.0585 53.4644 55.3452 53.4758 55.6332C53.4878 55.969 53.4678 56.3073 53.3501 56.6285C53.213 57.0035 53.0839 57.3825 52.9242 57.748C52.2505 59.2872 51.8857 60.9028 51.699 62.5661C51.5534 63.861 51.5433 65.1564 51.72 66.4463C52.0098 68.5615 52.6379 70.5647 53.762 72.3934C53.8366 72.5146 53.9097 72.6372 53.9958 72.78C53.568 73.3791 53.0606 73.9165 52.4878 74.3775C51.3206 75.3391 50.0153 76.071 48.642 76.6843C46.5669 77.6107 44.4008 78.2501 42.1856 78.7267C40.9073 79.0011 39.6194 79.2152 38.3218 79.3691C37.4995 79.4696 36.6726 79.5294 35.8473 79.5968C34.1607 79.735 32.4705 79.7355 30.7813 79.6767C29.971 79.6486 29.1602 79.5676 28.3544 79.4666C26.7257 79.2645 25.1125 78.9512 23.5261 78.5291C21.0822 77.8756 18.7374 76.9763 16.5512 75.685C15.2685 74.9274 14.0758 74.0487 13.0052 73.0077C11.5313 71.5731 10.3756 69.9218 9.65742 67.9809C9.06162 66.3702 8.80761 64.6522 8.91169 62.9371C9.04181 60.6112 9.71248 58.4432 10.7695 56.3857C10.9827 55.9705 11.0283 55.5719 10.8411 55.1446C10.5228 54.4162 10.3906 53.6481 10.3586 52.8574C10.3051 51.5002 10.4973 50.1767 10.8521 48.8712C11.5027 46.4679 12.5813 44.2662 13.9797 42.2168C13.9976 42.1942 14.0172 42.1731 14.0383 42.1535C14.1769 42.0851 14.294 42.1535 14.4151 42.1846C16.2788 42.6942 18.2058 42.9312 20.1368 42.8884C22.6343 42.826 25.0371 42.3324 27.3154 41.2798C29.0906 40.4589 30.6527 39.35 31.9319 37.8546C31.982 37.7963 32.0426 37.746 32.1036 37.6857C32.2893 37.7616 32.3879 37.9129 32.509 38.033C33.3697 38.8904 34.3055 39.668 35.3053 40.3564C36.5472 41.2006 37.8894 41.8854 39.3007 42.3947C40.3518 42.7773 41.4118 43.109 42.5129 43.3136C43.7518 43.5447 45.0129 43.6328 46.2716 43.576C46.9393 43.5459 47.6045 43.4639 48.2701 43.3981C48.9042 43.3352 49.5389 43.2744 50.172 43.1915C51.3867 43.027 52.5824 42.7433 53.742 42.3445C53.8621 42.3038 53.9848 42.2716 54.1069 42.2379C54.1174 42.2354 54.1324 42.253 54.1469 42.2625ZM45.7952 57.664C46.5414 57.9913 47.3832 57.4268 47.3722 56.5732C47.3647 56.533 47.3532 56.4541 47.3367 56.3762C47.2796 56.0977 47.121 55.882 46.9168 55.694C46.4403 55.2542 45.8862 54.944 45.2852 54.7168C43.9093 54.1966 42.4944 54.0895 41.0525 54.3428C40.421 54.4453 39.8167 54.6747 39.2757 55.0174C39.1002 55.1273 38.94 55.26 38.7992 55.412C38.4614 55.7921 38.4334 56.3214 38.7036 56.7487C38.8314 56.9536 39.0222 57.1111 39.2471 57.1972C39.472 57.2833 39.7188 57.2933 39.9499 57.2257C40.1019 57.1794 40.2467 57.1117 40.3798 57.0246C40.7171 56.8098 41.0942 56.6658 41.4884 56.6014C42.4148 56.4415 43.3292 56.4848 44.2271 56.7718C44.6705 56.9135 45.084 57.1131 45.4363 57.4298C45.543 57.5262 45.6641 57.6052 45.7952 57.664ZM34.8408 63.4317C34.9713 63.2474 35.0411 63.0266 35.0403 62.8004C35.0395 62.5742 34.9682 62.3539 34.8363 62.1705C34.5631 61.7819 34.1857 61.6276 33.7142 61.696C33.4855 61.7292 33.2938 61.8408 33.1136 61.975C32.8408 62.176 32.534 62.3052 32.2127 62.4038C31.4355 62.6425 30.6412 62.6616 29.8464 62.5546C29.1957 62.4671 28.5676 62.2886 28.0476 61.8448C27.9611 61.7742 27.8648 61.7166 27.7618 61.6739C27.5341 61.5727 27.2795 61.5499 27.0375 61.6091C26.7956 61.6683 26.5799 61.8061 26.424 62.0011C26.2655 62.1946 26.1771 62.4363 26.1733 62.6868C26.1695 62.9373 26.2505 63.1817 26.403 63.38C26.5321 63.5422 26.6818 63.6867 26.8484 63.8097C27.3219 64.1645 27.8565 64.4284 28.4255 64.5879C29.1586 64.8107 29.9219 64.9167 30.6877 64.9021C31.4216 64.9157 32.1531 64.8151 32.8564 64.604C33.4109 64.4416 33.9364 64.2129 34.3999 63.863C34.5672 63.7419 34.7158 63.5965 34.8408 63.4317ZM23.8905 56.1932C24.6317 56.532 25.4851 55.9796 25.4831 55.123C25.4761 54.8794 25.388 54.6453 25.2328 54.458C25.1207 54.3222 24.9971 54.1964 24.8635 54.082C24.4438 53.7366 23.9704 53.4632 23.4621 53.2726C22.0267 52.7157 20.5502 52.6192 19.0462 52.9002C18.5129 53.0012 18.0002 53.191 17.5292 53.4617C17.2925 53.5964 17.0627 53.7427 16.8941 53.9643C16.6048 54.3413 16.5547 54.7545 16.7649 55.1803C16.9651 55.5895 17.311 55.7921 17.7659 55.8001C18.0232 55.8041 18.2749 55.7238 18.4826 55.5714C18.8268 55.3355 19.2209 55.1836 19.6338 55.1275C20.5752 54.9812 21.5076 55.0205 22.417 55.3316C22.8269 55.4719 23.2103 55.6599 23.5387 55.9534C23.644 56.0488 23.7625 56.1284 23.8905 56.1897V56.1932Z" fill="#F8FCE1"/>
<path d="M11.816 41.2896C11.7259 41.4404 11.6514 41.5786 11.5683 41.7093C10.8234 42.8845 10.1759 44.1192 9.63238 45.401C9.09575 46.6509 8.68415 47.9514 8.40366 49.2831C8.36261 49.5195 8.23021 49.73 8.0353 49.8687C7.40418 50.3433 6.73652 50.7454 5.95724 50.9113C5.07137 51.1003 4.24205 50.9927 3.54035 50.3583C3.22284 50.0639 2.96753 49.7083 2.78961 49.3128C2.56353 48.8174 2.41497 48.2899 2.34918 47.749C2.22305 46.819 2.27911 45.8926 2.46579 44.9787C2.80936 43.2437 3.56942 41.6191 4.67998 40.246C5.25655 39.5332 5.9162 38.9089 6.70899 38.4364C6.80458 38.3796 6.90368 38.3283 7.00378 38.2785C7.04378 38.2674 7.08493 38.261 7.1264 38.2594C7.46624 38.5389 7.81358 38.8425 8.17994 39.1215C8.56082 39.4111 8.9517 39.689 9.3531 39.9489C9.74098 40.2003 10.1429 40.4315 10.5493 40.6527C10.9557 40.8738 11.3731 41.0689 11.816 41.2896Z" fill="#D6E499"/>
<path d="M63.8135 23.1369C64.2735 24.4719 64.4621 25.886 64.368 27.2955C64.2149 29.541 63.4546 31.5683 62.2099 33.4241C60.8585 35.4349 59.1213 37.0288 57.0648 38.2926C55.8021 39.0742 54.451 39.7018 53.0403 40.162C50.6767 40.9051 48.1986 41.2117 45.7261 41.0668C41.2286 40.7878 37.2537 39.2341 33.9279 36.128C33.5671 35.7907 33.2352 35.4243 32.8809 35.0764C32.7607 34.949 32.6205 34.8422 32.466 34.7603C32.1221 34.5994 31.7758 34.6477 31.465 34.8608C31.3102 34.973 31.1693 35.1033 31.0451 35.2489C30.9207 35.395 30.8051 35.5484 30.6987 35.7083C29.7898 37.0037 28.6067 37.9859 27.2378 38.751C25.6743 39.6247 23.9936 40.1444 22.2283 40.4128C21.1082 40.5828 19.9738 40.6383 18.8425 40.5787C15.808 40.4199 12.9752 39.595 10.4167 37.9146C8.95723 36.9565 7.72151 35.7681 6.8051 34.2651C6.18048 33.2407 5.77158 32.1363 5.63194 30.9419C5.47258 29.6302 5.67912 28.2997 6.22853 27.099C6.87917 25.6643 7.88016 24.5248 9.12589 23.5863C9.84285 23.0504 10.6162 22.5953 11.4322 22.2291C11.6211 22.1454 11.805 22.0506 11.9827 21.945C12.4647 21.652 12.6794 21.2157 12.6384 20.6517C12.6259 20.4757 12.6058 20.2998 12.6023 20.1243C12.5735 18.7459 12.7464 17.3706 13.1153 16.0426C13.7214 13.8811 14.804 11.9775 16.2339 10.2618C18.1708 7.93546 20.4791 6.07104 23.1337 4.6354C25.1582 3.54057 27.3049 2.80264 29.5826 2.47087C30.5772 2.33123 31.5816 2.27424 32.5856 2.30047C34.8954 2.34822 37.1441 2.77901 39.3688 3.36714C41.3878 3.90048 43.3728 4.55497 45.3552 5.20191C47.3862 5.86343 49.4333 6.46865 51.5083 6.97736C52.8103 7.29887 54.1524 7.42573 55.4912 7.35386C55.7105 7.3423 55.9327 7.29555 56.1814 7.35738C56.1471 7.44802 56.108 7.53679 56.0643 7.6233C54.3291 10.6766 52.3426 13.5549 50.0584 16.2191C47.9503 18.6822 45.5189 20.7542 42.7191 22.3839C41.0885 23.3263 39.3865 24.1385 37.6291 24.8128C35.8723 25.4939 34.0756 26.0544 32.2277 26.4148C30.7683 26.6988 29.2963 26.8622 27.8064 26.7521C27.0696 26.6978 26.3619 26.5274 25.6993 26.1816C24.8419 25.7352 24.0642 25.1868 23.4235 24.4549C22.7829 23.723 22.345 22.875 22.1923 21.8968C22.0706 21.1019 22.1403 20.2894 22.3955 19.5272C22.7168 18.5359 23.2619 17.6773 23.9471 16.9052C24.8394 15.9034 25.899 15.1172 27.0731 14.4808C28.8049 13.5413 30.6582 12.9823 32.6071 12.7471C34.544 12.5133 36.4609 12.6274 38.3333 13.1995C38.7592 13.3292 39.1701 13.5071 39.5895 13.6594C39.7365 13.7201 39.8884 13.768 40.0435 13.8027C40.297 13.8504 40.5591 13.8089 40.7858 13.6852C41.0124 13.5616 41.1897 13.3633 41.2878 13.1237C41.3859 12.8841 41.3989 12.6179 41.3245 12.3699C41.2501 12.1218 41.0928 11.9071 40.8793 11.7618C40.6909 11.6428 40.4919 11.5418 40.2847 11.4602C39.3887 11.0799 38.4534 10.8011 37.4959 10.6288C36.3949 10.4277 35.2858 10.3131 34.1667 10.3443C30.8299 10.4363 27.7178 11.2969 24.896 13.1226C23.7357 13.8624 22.7043 14.7886 21.843 15.8642C20.9556 16.9811 20.3105 18.2192 20.0162 19.6272C19.5712 21.758 20.0162 23.6989 21.2904 25.4442C22.0747 26.5204 23.0757 27.3543 24.2433 27.9892C24.9796 28.3888 25.7799 28.6055 26.5957 28.7653C27.7098 28.9835 28.8374 29.0961 29.971 29.0453C30.6075 29.0117 31.241 28.9356 31.8674 28.8176C36.3218 28.0159 40.4759 26.3937 44.3592 24.0698C47.1215 22.4165 49.5328 20.3355 51.6329 17.8935C52.3101 17.1063 52.9477 16.2849 53.6029 15.4806C53.703 15.358 53.8031 15.2338 53.9062 15.1016C54.0623 15.1212 54.2065 15.1272 54.3431 15.1579C56.5453 15.645 58.5518 16.5584 60.254 18.0523C61.8465 19.4477 63.1223 21.0905 63.8135 23.1369Z" fill="#D6E499"/>
<path d="M103.541 15.5963C103.86 18.3223 103.391 20.9206 102.255 23.4079C101.432 25.213 100.322 26.8261 99.0493 28.3386C97.1169 30.6338 94.8392 32.5244 92.3147 34.1194C91.128 34.8699 89.9193 35.5857 88.7171 36.311C87.3913 37.1113 86.073 37.9226 84.8278 38.846C84.6486 38.9792 84.4774 39.1225 84.3043 39.2643C84.2827 39.2819 84.2777 39.3196 84.2482 39.3849C84.6331 39.5357 84.9909 39.6684 85.3443 39.8132C87.4073 40.6592 89.2416 41.8541 90.7882 43.4717C92.8469 45.6241 94.1113 48.1764 94.5814 51.1284C94.8682 52.9531 94.7946 54.7653 94.4263 56.5699C94.4108 56.6468 94.3978 56.7247 94.3802 56.8212C94.4994 56.9338 94.6125 57.0434 94.7306 57.15C95.8577 58.184 96.8146 59.3532 97.5419 60.7064C98.2174 61.9456 98.6396 63.3079 98.7836 64.7132C99.0083 66.9521 98.5123 69.0362 97.4743 71.0103C96.6765 72.5263 95.617 73.8403 94.3747 75.0095C92.5419 76.7352 90.4413 78.0547 88.1646 79.0988C85.9079 80.1338 83.551 80.8552 81.1161 81.3287C79.7713 81.5948 78.4108 81.7736 77.0431 81.864C75.3406 81.9782 73.632 81.9675 71.931 81.8319C70.4221 81.7087 68.9238 81.4787 67.4471 81.1437C64.4802 80.4676 61.7099 79.329 59.1744 77.63C58.4317 77.1318 57.6839 76.6402 57.0043 76.0576C56.5538 75.6731 56.1364 75.2533 55.703 74.8537C55.6349 74.7909 55.5613 74.7331 55.4898 74.6728C55.4438 74.7 55.4007 74.7318 55.3611 74.7678C54.248 76.0546 52.8897 77.0258 51.4202 77.8512C49.8292 78.7454 48.146 79.4235 46.4118 79.9785C44.3453 80.6321 42.2307 81.1205 40.0875 81.4393C38.542 81.674 36.9905 81.8313 35.4304 81.9258C34.1076 82.0063 32.7858 81.9917 31.4625 81.9998C30.3114 82.0063 29.1742 81.8831 28.0351 81.7348C26.865 81.584 25.7033 81.3865 24.5512 81.1346C21.8785 80.5495 19.296 79.702 16.8486 78.4604C14.7134 77.3771 12.761 76.037 11.0794 74.3164C9.48327 72.6837 8.25105 70.8162 7.46978 68.6592C6.98431 67.3182 6.70042 65.9121 6.62745 64.487C6.50383 62.1486 6.89671 59.8941 7.70201 57.7074C7.92273 57.1077 8.18098 56.5211 8.43674 55.9355C8.52332 55.7344 8.56837 55.5505 8.5018 55.3368C8.25156 54.5225 8.15145 53.678 8.05886 52.8365C8.04527 52.7694 8.02619 52.7035 8.00181 52.6395C7.85967 52.646 7.75156 52.7174 7.64095 52.7661C6.7801 53.1386 5.88621 53.3352 4.94328 53.2829C3.59795 53.209 2.49086 52.6445 1.60248 51.6416C0.89778 50.8464 0.481869 49.9019 0.239129 48.8729C-0.0516582 47.6404 -0.061167 46.4002 0.124016 45.1531C0.452341 42.9388 1.29918 40.9422 2.6325 39.1527C3.37373 38.1574 4.24659 37.2978 5.28962 36.6202C5.34915 36.5778 5.40644 36.5323 5.46129 36.484C5.45434 36.4446 5.44204 36.4064 5.42476 36.3704C4.80965 35.5802 4.39374 34.6794 4.01937 33.7605C3.44769 32.3781 3.20932 30.8796 3.32368 29.3872C3.46632 27.5213 4.11446 25.8378 5.20704 24.3252C6.1755 22.9846 7.3837 21.9059 8.79059 21.0498C9.26656 20.7603 9.75904 20.4969 10.2726 20.2058C10.2873 20.1059 10.2954 20.0052 10.2966 19.9042C10.2332 18.591 10.3593 17.2754 10.6709 15.9984C10.771 15.5963 10.8842 15.1941 11.0158 14.8005C11.6925 12.7748 12.7265 10.943 14.0603 9.28518C16.6804 6.02834 19.8806 3.51697 23.6948 1.8124C25.6757 0.919965 27.7843 0.34675 29.943 0.113857C31.407 -0.042978 32.8704 -0.0284013 34.3348 0.100284C36.7107 0.308894 39.0235 0.838714 41.3012 1.52286C43.3307 2.1321 45.3452 2.79111 47.3657 3.43001C49.1135 3.98295 50.8752 4.48563 52.666 4.87772C53.4305 5.0404 54.2125 5.10542 54.9933 5.07125C55.9817 5.04393 56.9648 4.91747 57.9282 4.69374C58.1462 4.64625 58.3704 4.63404 58.5923 4.65754C59.3576 4.72742 59.777 5.38592 59.5072 6.10726C59.3783 6.45173 59.2193 6.78411 59.0323 7.10055C57.8911 9.0263 56.7855 10.9712 55.5348 12.8311C55.4979 12.8935 55.4645 12.9579 55.4347 13.0241C55.8646 13.197 56.3011 13.2809 56.711 13.4393C57.1114 13.5941 57.5178 13.7409 57.9122 13.9138C58.3201 14.0938 58.7235 14.2883 59.1133 14.5009C59.5032 14.7136 59.8891 14.9448 60.2645 15.1901C60.6243 15.4264 60.9747 15.6792 61.3125 15.9441C61.6629 16.2211 62.0017 16.5142 62.3275 16.8198C62.6423 17.1138 62.9361 17.4305 63.2349 17.7417C63.5337 18.0528 63.781 18.4349 64.1248 18.7677C64.1994 18.4932 64.2059 18.2534 64.2249 18.0162C64.3861 16.2427 64.6914 14.4974 65.1909 12.7853C65.7479 10.8812 66.5602 9.09869 67.7434 7.49766C68.8495 5.99818 70.1898 4.76311 71.8279 3.86533C73.8193 2.7857 76.0872 2.33028 78.3389 2.55787C80.2032 2.73998 81.998 3.36342 83.576 4.37705C84.1415 4.73773 84.679 5.14103 85.1836 5.58347C85.2792 5.66641 85.3783 5.74483 85.4754 5.82526C85.6576 5.82878 85.7817 5.71819 85.9179 5.64279C87.0492 5.01304 88.2757 4.57358 89.5484 4.34186C91.3457 4.01354 93.1961 4.13947 94.9328 4.70832C97.732 5.60961 99.8917 7.35088 101.485 9.81399C102.624 11.5759 103.297 13.5127 103.541 15.5963ZM100.15 22.5141C101.233 20.1515 101.634 17.6884 101.156 15.1187C100.678 12.5491 99.4743 10.3674 97.4688 8.67141C95.9623 7.39713 94.2121 6.67629 92.2516 6.49734C90.5409 6.34151 88.9223 6.69489 87.3883 7.45896C87.3042 7.50118 87.2262 7.55547 87.095 7.63439C87.2452 7.85758 87.3688 8.04106 87.4894 8.22705C87.61 8.41304 87.7322 8.60305 87.8468 8.79507C88.9343 10.614 89.5927 12.6588 89.7717 14.7729C89.9463 16.7735 89.7091 18.736 89.147 20.6597C88.2937 23.5793 86.9128 26.2339 85.1336 28.6865C84.042 30.191 82.8003 31.5663 81.51 32.8999C80.3879 34.0596 79.2578 35.2122 78.1567 36.389C77.6106 36.9706 77.1122 37.5954 76.5941 38.2056C76.5441 38.2619 76.4785 38.3212 76.5491 38.4288C76.6317 38.4288 76.7258 38.4348 76.8189 38.4288C78 38.3408 79.1762 38.4062 80.3499 38.5439C80.6667 38.5811 80.983 38.6213 81.2973 38.6736C81.383 38.6934 81.4725 38.6878 81.5551 38.6575C81.6377 38.6273 81.7098 38.5737 81.7628 38.5032C81.7928 38.4665 81.8313 38.4364 81.8629 38.4027C82.4399 37.7995 83.0851 37.2797 83.7607 36.7941C84.8373 36.02 85.9574 35.3137 87.089 34.6246C88.6155 33.6951 90.1536 32.7828 91.654 31.8126C93.8212 30.4218 95.7646 28.7072 97.4172 26.728C98.4933 25.4296 99.4447 24.0513 100.15 22.5141ZM96.5514 65.8679C96.5699 64.293 96.1485 62.8337 95.3502 61.479C94.7526 60.4626 93.9909 59.5869 93.1295 58.7907C92.8367 58.5203 92.5629 58.2297 92.2882 57.9402C92.0134 57.6506 91.9348 57.3028 92.0024 56.9172C92.0299 56.7599 92.074 56.6056 92.11 56.4497C92.4586 54.9826 92.5513 53.4658 92.3838 51.9669C92.1265 49.6961 91.2868 47.6705 89.8648 45.89C88.2387 43.8627 86.1456 42.507 83.7197 41.6485C82.2993 41.1458 80.8328 40.8663 79.3308 40.7497C78.0587 40.6503 76.7797 40.6826 75.5141 40.8462C75.1983 40.8869 74.8824 40.9281 74.5661 40.9648C73.905 41.0427 73.0296 40.3113 73.2648 39.4065C73.3146 39.1884 73.3907 38.9772 73.4916 38.7777C73.7048 38.3846 73.936 38 74.1818 37.6265C74.6823 36.863 75.2828 36.1753 75.8834 35.4892C77.0516 34.152 78.3148 32.9059 79.5501 31.6331C80.8514 30.2905 82.1251 28.9222 83.2342 27.4107C84.8823 25.1612 86.1646 22.7237 86.9489 20.0364C87.5019 18.1398 87.7086 16.2105 87.4028 14.2436C86.9869 11.5718 85.8288 9.28819 83.8328 7.45996C82.01 5.79108 79.8719 4.86515 77.3859 4.81337C75.5841 4.77618 73.9165 5.22456 72.392 6.19724C71.2183 6.94623 70.2499 7.90634 69.4486 9.0449C68.366 10.5811 67.6683 12.2892 67.1989 14.1013C66.7429 15.8582 66.5557 17.6572 66.348 19.4538C66.2694 20.1369 66.2169 20.8256 66.0948 21.5012C66.0002 22.022 65.9947 22.5156 66.1908 23.0092C66.2082 23.0539 66.2231 23.0996 66.2354 23.146C66.7604 25.0022 66.8529 26.9549 66.5057 28.8528C66.0903 31.1244 65.1894 33.1924 63.853 35.0709C62.3901 37.1319 60.5723 38.8129 58.4307 40.1439C58.3077 40.2177 58.1929 40.3045 58.0883 40.4028C57.72 40.7597 57.3831 41.1473 57.1269 41.5927C56.6159 42.4804 56.1534 43.3927 55.8081 44.3614C55.3657 45.604 55.1164 46.8889 54.9597 48.1958C54.7935 49.5981 54.8783 51.0189 55.21 52.3911C55.3872 53.1376 55.5383 53.8921 55.6674 54.6487C55.8486 55.7088 55.7796 56.7544 55.3822 57.7652C55.2706 58.0483 55.1629 58.3328 55.0383 58.6097C54.3822 60.0725 54.0619 61.6208 53.9262 63.2072C53.8066 64.6011 53.8762 65.9905 54.193 67.3608C54.5884 69.0805 55.228 70.689 56.3206 72.092C57.3069 73.3551 58.49 74.4498 59.8241 75.3338C60.1028 75.5198 60.3911 75.6912 60.6699 75.8772C62.2214 76.9142 63.8946 77.6828 65.6578 78.2699C68.5752 79.2416 71.5807 79.6392 74.8244 79.6608C75.902 79.6211 77.1592 79.5864 78.4124 79.4306C79.9628 79.2432 81.4978 78.9442 83.0055 78.5358C85.2602 77.917 87.4148 77.0529 89.4308 75.8565C90.8232 75.0301 92.1125 74.0695 93.2496 72.9084C94.2871 71.8492 95.1515 70.6704 95.7631 69.3107C96.2546 68.2124 96.5369 67.0663 96.5514 65.8664V65.8679ZM64.3696 27.2971C64.4636 25.8875 64.275 24.4734 63.815 23.1384C63.1238 21.092 61.8481 19.4473 60.2555 18.0498C58.5538 16.5559 56.5463 15.6425 54.3446 15.1554C54.2065 15.1248 54.0639 15.1187 53.9077 15.0991C53.8021 15.2313 53.704 15.3555 53.6044 15.4781C52.9493 16.2824 52.3116 17.1058 51.6345 17.891C49.5324 20.333 47.123 22.4151 44.3608 24.0674C40.4784 26.3912 36.3258 28.0134 31.8689 28.8151C31.2425 28.9331 30.609 29.0092 29.9725 29.0429C28.8389 29.0931 27.7113 28.981 26.5972 28.7629C25.7819 28.603 24.9816 28.3864 24.2449 27.9867C23.0782 27.3539 22.0772 26.5179 21.292 25.4417C20.0187 23.6944 19.5728 21.7556 20.0177 19.6247C20.312 18.2172 20.9571 16.9786 21.8445 15.8617C22.7059 14.7861 23.7373 13.8599 24.8975 13.1201C27.7193 11.2944 30.8314 10.4338 34.1682 10.3418C35.2873 10.3106 36.3974 10.4237 37.4975 10.6263C38.4549 10.7986 39.3903 11.0775 40.2862 11.4577C40.4934 11.5393 40.6925 11.6403 40.8808 11.7593C41.0929 11.9047 41.249 12.1187 41.3229 12.3657C41.3969 12.6127 41.3843 12.8777 41.2872 13.1164C41.1901 13.3552 41.0144 13.5533 40.7894 13.6776C40.5644 13.802 40.3038 13.8451 40.051 13.7997C39.8959 13.765 39.744 13.7171 39.5971 13.6564C39.1776 13.5056 38.7667 13.3262 38.3408 13.1965C36.4665 12.625 34.5516 12.5108 32.6146 12.7441C30.6657 12.9793 28.8109 13.5383 27.0807 14.4778C25.908 15.1142 24.847 15.9004 23.9546 16.9022C23.2674 17.6743 22.7224 18.5329 22.403 19.5242C22.1478 20.2864 22.0782 21.099 22.1998 21.8938C22.35 22.872 22.7844 23.7145 23.4311 24.4519C24.0777 25.1893 24.8495 25.7322 25.7068 26.1786C26.3695 26.5244 27.0772 26.6949 27.8139 26.7491C29.3039 26.8592 30.7758 26.6959 32.2353 26.4118C34.0871 26.0514 35.8799 25.4909 37.6366 24.8098C39.3941 24.1355 41.096 23.3233 42.7267 22.3809C45.5264 20.7512 47.9578 18.6772 50.0659 16.2161C52.3502 13.5519 54.3366 10.6721 56.0718 7.62032C56.1155 7.5338 56.1546 7.44504 56.189 7.3544C55.9387 7.29257 55.718 7.33932 55.4988 7.35088C54.1599 7.42275 52.8178 7.29588 51.5158 6.97438C49.4408 6.46567 47.3938 5.86045 45.3628 5.19892C43.3783 4.55198 41.3953 3.8975 39.3763 3.36416C37.1516 2.77603 34.9029 2.34524 32.5931 2.29748C31.5892 2.27125 30.5848 2.32825 29.5902 2.46789C27.3124 2.79965 25.1658 3.53758 23.1413 4.63241C20.4887 6.06805 18.1784 7.93248 16.2415 10.2589C14.8115 11.976 13.729 13.8781 13.1229 16.0396C12.7539 17.3677 12.581 18.7429 12.6099 20.1214C12.6134 20.2973 12.6334 20.4732 12.6459 20.6487C12.6869 21.2127 12.4722 21.649 11.9902 21.9421C11.8125 22.0476 11.6287 22.1424 11.4397 22.2261C10.6238 22.5923 9.85038 23.0474 9.13343 23.5833C7.8892 24.5218 6.8842 25.6614 6.23606 27.096C5.68665 28.2968 5.48011 29.6272 5.63947 30.9389C5.77911 32.1333 6.19001 33.2377 6.81263 34.2621C7.72904 35.7651 8.96476 36.9535 10.4242 37.9116C12.9827 39.5905 15.8155 40.4154 18.85 40.5757C19.9813 40.6354 21.1157 40.5798 22.2359 40.4099C24.0011 40.1414 25.6818 39.6217 27.2453 38.748C28.6142 37.9829 29.7979 37.0007 30.7063 35.7053C30.8126 35.5454 30.9282 35.392 31.0526 35.2459C31.1768 35.1003 31.3178 34.97 31.4725 34.8578C31.7813 34.6457 32.1277 34.5974 32.4735 34.7573C32.6281 34.8392 32.7682 34.946 32.8884 35.0735C33.2428 35.4188 33.5746 35.7878 33.9355 36.1251C37.2612 39.2311 41.2362 40.7849 45.7336 41.0638C48.2061 41.2087 50.6843 40.9021 53.0479 40.159C54.4586 39.6988 55.8096 39.0712 57.0723 38.2896C59.1289 37.0258 60.8676 35.4314 62.2174 33.4212C63.4546 31.5693 64.2149 29.541 64.368 27.2955L64.3696 27.2971ZM54.0824 42.5214C54.1174 42.4425 54.201 42.3661 54.1469 42.2625C54.1324 42.253 54.1174 42.2354 54.1069 42.2379C53.9848 42.2716 53.8621 42.3038 53.742 42.3445C52.5808 42.7431 51.3839 43.0255 50.1675 43.1892C49.5359 43.2721 48.9013 43.3329 48.2656 43.3958C47.6 43.4616 46.9348 43.5435 46.2672 43.5737C45.0084 43.6304 43.7473 43.5424 42.5084 43.3113C41.4073 43.1067 40.3453 42.7749 39.2963 42.3924C37.885 41.8831 36.5427 41.1983 35.3008 40.3541C34.301 39.6656 33.3652 38.888 32.5045 38.0307C32.3834 37.9106 32.2848 37.7593 32.0991 37.6833C32.0381 37.7437 31.978 37.7939 31.9275 37.8522C30.6482 39.3477 29.0862 40.4566 27.3109 41.2775C25.0326 42.3331 22.6298 42.8247 20.1323 42.886C18.2013 42.9289 16.2743 42.6918 14.4106 42.1823C14.2895 42.1496 14.1724 42.0818 14.0338 42.1511C14.0127 42.1707 13.9931 42.1919 13.9752 42.2145C12.5768 44.2639 11.5008 46.4656 10.8476 48.8689C10.4928 50.1758 10.3006 51.4984 10.3541 52.8551C10.3857 53.6458 10.5183 54.4134 10.8366 55.1423C11.0238 55.5696 10.9783 55.9682 10.765 56.3834C9.7095 58.4408 9.03733 60.6089 8.9072 62.9348C8.80313 64.6499 9.05714 66.3679 9.65294 67.9786C10.3712 69.9194 11.5268 71.5707 13.0008 73.0054C14.0713 74.0464 15.264 74.9251 16.5468 75.6826C18.7329 76.974 21.0777 77.8743 23.5217 78.5268C25.1085 78.95 26.7221 79.2642 28.3514 79.4673C29.1572 79.5678 29.968 79.6492 30.7783 79.6774C32.4675 79.7362 34.1577 79.7357 35.8443 79.5975C36.6697 79.5301 37.496 79.4683 38.3188 79.3698C39.6161 79.2143 40.904 79.0001 42.1826 78.7273C44.3998 78.2508 46.5659 77.6114 48.639 76.685C50.0124 76.0717 51.3176 75.3398 52.4848 74.3782C53.0576 73.9172 53.565 73.3797 53.9928 72.7807C53.9067 72.6379 53.8336 72.5153 53.7591 72.3941C52.6349 70.5654 52.0073 68.5622 51.717 66.447C51.5404 65.1571 51.5504 63.8617 51.696 62.5668C51.8827 60.9035 52.2466 59.2878 52.9212 57.7487C53.0809 57.3832 53.21 57.0042 53.3472 56.6292C53.4648 56.308 53.4848 55.9697 53.4728 55.6339C53.4614 55.3459 53.428 55.0592 53.3727 54.7763C53.2521 54.1485 53.1174 53.5227 52.9788 52.8983C52.7045 51.6587 52.5283 50.4096 52.5964 49.1363C52.6369 48.3369 52.7232 47.5406 52.8547 46.7511C53.1044 45.2939 53.4788 43.8756 54.0824 42.5214ZM11.5683 41.7083C11.6514 41.5776 11.726 41.4419 11.8161 41.2885C11.3731 41.0679 10.9552 40.8728 10.5508 40.6532C10.1464 40.4335 9.74253 40.2007 9.35464 39.9494C8.95425 39.6895 8.56236 39.4115 8.18148 39.122C7.81512 38.843 7.46778 38.5394 7.12794 38.2599C7.08647 38.2615 7.04532 38.2679 7.00532 38.279C6.90522 38.3293 6.80512 38.3796 6.71053 38.4369C5.91775 38.9069 5.25909 39.5312 4.68152 40.2465C3.57096 41.6196 2.8109 43.2441 2.46733 44.9792C2.28065 45.8931 2.22459 46.8195 2.35072 47.7494C2.41651 48.2904 2.56507 48.8179 2.79115 49.3133C2.96907 49.7088 3.22438 50.0644 3.5419 50.3588C4.24259 50.9932 5.07291 51.1008 5.95879 50.9118C6.73806 50.7459 7.40572 50.3437 8.03684 49.8692C8.23175 49.7305 8.36415 49.52 8.4052 49.2836C8.68569 47.9519 9.09729 46.6514 9.63392 45.4014C10.1769 44.1196 10.8238 42.8847 11.5683 41.7093L11.5683 41.7083Z" fill="#E67C4F"/>
<path d="M88.7411 54.9483C88.7456 55.6244 88.617 56.1653 88.3357 56.6574C88.2181 56.8656 88.0741 57.0575 87.9073 57.2285C87.089 58.0589 85.8363 57.9981 85.088 57.1043C84.7282 56.6745 84.534 56.1719 84.4649 55.6234C84.3488 54.7 84.5059 53.8409 85.1125 53.102C85.3202 52.8363 85.594 52.6303 85.9063 52.5048C86.6435 52.2243 87.3177 52.3465 87.8993 52.8823C88.4033 53.3468 88.634 53.9525 88.7211 54.6201C88.7396 54.7649 88.7386 54.9091 88.7411 54.9483Z" fill="#E67C4F"/>
<path d="M85.3533 61.5282C85.4164 62.0811 85.4379 62.6441 85.4594 62.9503C85.3893 64.4749 85.2002 65.7196 84.7037 66.9014C84.3914 67.6454 83.9995 68.3381 83.4194 68.9071C82.5871 69.724 81.5866 70.1758 80.4249 70.2251C79.494 70.2648 78.6692 69.9693 77.9765 69.3278C77.4635 68.8533 77.0952 68.2767 76.8049 67.6474C76.447 66.8723 76.2368 66.0529 76.1097 65.2099C76.0012 64.481 75.971 63.7426 76.0196 63.0072C76.0741 62.1416 76.2043 61.287 76.5621 60.4873C76.6705 60.2392 76.8047 60.0033 76.9625 59.7835C77.2833 59.3457 77.7073 59.1416 78.2563 59.309C78.6222 59.4206 78.987 59.5342 79.3529 59.6428C80.517 59.9881 81.6922 60.1264 82.8859 59.8072C83.1311 59.7413 83.3679 59.6423 83.6096 59.5619C83.8058 59.4965 84.0025 59.4236 84.2157 59.4648C84.566 59.5332 84.8348 59.7021 84.9809 60.0454C85.1764 60.5189 85.3018 61.0183 85.3533 61.5282Z" fill="#E67C4F"/>
<path d="M73.892 53.9026C74.0759 54.3371 74.1712 54.8043 74.1722 55.2764C74.1442 55.9043 73.9981 56.519 73.6317 57.0659C73.3169 57.5354 72.8985 57.8702 72.3369 57.9743C71.5997 58.1125 70.9896 57.8642 70.5046 57.2997C70.1618 56.9011 69.9736 56.4275 69.896 55.9143C69.7936 55.296 69.8541 54.6615 70.0717 54.074C70.2422 53.6054 70.55 53.1997 70.9546 52.9103C71.2997 52.6601 71.7203 52.5373 72.1452 52.563C72.5701 52.5887 72.9731 52.7611 73.2859 53.0511C73.546 53.2883 73.7527 53.5786 73.892 53.9026Z" fill="#E67C4F"/>
<path d="M47.3722 56.5732C47.3832 57.4278 46.5414 57.9913 45.7952 57.664C45.6642 57.6055 45.5431 57.527 45.4363 57.431C45.0859 57.1143 44.6705 56.9147 44.2271 56.773C43.3292 56.486 42.4148 56.4427 41.4884 56.6026C41.0942 56.667 40.717 56.811 40.3798 57.0258C40.2467 57.113 40.1019 57.1807 39.9499 57.2269C39.7187 57.2945 39.472 57.2845 39.2471 57.1984C39.0221 57.1123 38.8313 56.9548 38.7036 56.7499C38.4334 56.3226 38.4614 55.7948 38.7992 55.4132C38.94 55.2612 39.1002 55.1285 39.2757 55.0186C39.8167 54.6759 40.421 54.4465 41.0524 54.3441C42.4944 54.0927 43.9093 54.1978 45.2851 54.718C45.8857 54.9453 46.4403 55.2554 46.9167 55.6952C47.1209 55.8832 47.2796 56.0974 47.3367 56.3774C47.3532 56.4543 47.3647 56.533 47.3722 56.5732Z" fill="#E67C4F"/>
<path d="M34.8363 62.1705C34.9682 62.3539 35.0395 62.5742 35.0403 62.8004C35.0411 63.0266 34.9713 63.2474 34.8408 63.4317C34.7158 63.5965 34.5672 63.7419 34.3999 63.863C33.9364 64.2149 33.4109 64.4416 32.8564 64.604C32.1531 64.8151 31.4216 64.9157 30.6877 64.9021C29.9219 64.9167 29.1586 64.8107 28.4255 64.5879C27.8561 64.4283 27.3211 64.1646 26.8474 63.8095C26.6809 63.6865 26.5311 63.542 26.402 63.3797C26.2495 63.1815 26.1685 62.9371 26.1723 62.6866C26.1761 62.4361 26.2645 62.1944 26.423 62.0009C26.5789 61.8059 26.7946 61.6681 27.0366 61.6089C27.2785 61.5497 27.5341 61.5727 27.7618 61.6739C27.8648 61.7166 27.9601 61.774 28.0466 61.8446C28.5666 62.2884 29.1938 62.4669 29.8454 62.5544C30.6402 62.6609 31.4345 62.6418 32.2117 62.4035C32.5341 62.303 32.8409 62.1778 33.1126 61.9748C33.2928 61.8406 33.4845 61.729 33.7132 61.6958C34.1842 61.6269 34.5631 61.7819 34.8363 62.1705Z" fill="#E67C4F"/>
<path d="M25.483 55.1195C25.483 55.9741 24.6322 56.527 23.8905 56.1897C23.7607 56.1288 23.6405 56.0493 23.5336 55.9535C23.2053 55.6599 22.8219 55.4719 22.412 55.3317C21.5026 55.0205 20.5702 54.9798 19.6287 55.1276C19.2159 55.1836 18.8217 55.3356 18.4776 55.5714C18.2698 55.7239 18.0182 55.8042 17.7609 55.8002C17.3065 55.7921 16.9601 55.5895 16.7599 55.1803C16.5497 54.7546 16.5998 54.3414 16.889 53.9644C17.0577 53.7447 17.2894 53.5984 17.5242 53.4617C17.9952 53.191 18.5079 53.0013 19.0412 52.9002C20.5427 52.6217 22.0216 52.7157 23.457 53.2727C23.9653 53.4632 24.4388 53.7366 24.8584 54.082C24.9927 54.1945 25.1172 54.3185 25.2303 54.4525C25.3868 54.64 25.4758 54.875 25.483 55.1195Z" fill="#E67C4F"/>
</svg>
