<svg width="35" height="35" viewBox="0 0 35 35" fill="none" xmlns="http://www.w3.org/2000/svg">
<path d="M8.63831 15.0996C9.87274 15.0996 10.8737 16.1005 10.8737 17.335C10.8734 18.5692 9.87261 19.5693 8.63831 19.5693C7.40419 19.5691 6.40414 18.5691 6.40393 17.335C6.40393 16.1007 7.40406 15.0998 8.63831 15.0996ZM17.5797 15.0996C18.8141 15.0996 19.8151 16.1005 19.8151 17.335C19.8149 18.5692 18.814 19.5693 17.5797 19.5693C16.3454 19.5693 15.3446 18.5692 15.3444 17.335C15.3444 16.1005 16.3453 15.0996 17.5797 15.0996ZM26.5211 15.0996C27.7554 15.0998 28.7555 16.1006 28.7555 17.335C28.7553 18.5691 27.7553 19.5692 26.5211 19.5693C25.2868 19.5693 24.286 18.5692 24.2858 17.335C24.2858 16.1005 25.2867 15.0996 26.5211 15.0996Z" fill="#0B1014"/>
</svg>
