<svg width="111" height="47" viewBox="0 0 111 47" fill="none" xmlns="http://www.w3.org/2000/svg">
<path d="M57.6038 8.5712C57.8759 10.0296 57.6474 11.425 57.0306 12.7642C56.629 13.6366 56.0872 14.4173 55.4739 15.1529C54.5328 16.275 53.4261 17.2472 52.192 18.0357C51.337 18.5858 50.4618 19.1031 49.5925 19.6301C48.9481 20.0208 48.3099 20.4212 47.6972 20.8602C47.3124 21.1355 46.945 21.4302 46.6164 21.7722C46.5976 21.7918 46.5757 21.8089 46.5594 21.8292C46.5293 21.8691 46.4882 21.8995 46.4412 21.9167C46.3942 21.9338 46.3432 21.937 46.2944 21.9258C46.1154 21.8973 45.9353 21.8734 45.7549 21.8523C45.0865 21.7742 44.4167 21.7383 43.7441 21.787C43.6911 21.791 43.6375 21.787 43.5905 21.787C43.5503 21.726 43.5888 21.6924 43.6162 21.6605C43.9111 21.3159 44.195 20.9602 44.506 20.6304C45.135 19.9635 45.7779 19.3097 46.4155 18.6522C47.1503 17.8961 47.8574 17.1163 48.479 16.2633C49.4922 14.8727 50.2785 13.3676 50.7644 11.7123C51.0845 10.6215 51.2204 9.50888 51.1201 8.37455C51.0183 7.17572 50.6433 6.01613 50.024 4.98467C49.9587 4.87579 49.8897 4.76892 49.8205 4.66261C49.7512 4.5563 49.6805 4.45313 49.5959 4.32658C49.6706 4.28184 49.715 4.25106 49.7629 4.22712C50.6365 3.7939 51.5585 3.59354 52.5323 3.6819C53.6487 3.78336 54.6454 4.19206 55.5032 4.91455C56.6458 5.87731 57.331 7.11025 57.6038 8.5712Z" fill="#FFC2C2"/>
<path d="M54.2983 34.8565C54.752 35.626 54.992 36.4526 54.9823 37.3449C54.974 38.0252 54.8133 38.675 54.534 39.2946C54.1868 40.0642 53.6935 40.7339 53.1027 41.3344C52.4551 41.9928 51.7209 42.5375 50.9281 43.006C49.78 43.6843 48.5531 44.1745 47.2691 44.5251C46.4106 44.7566 45.5365 44.9262 44.6536 45.0324C43.9411 45.1208 43.224 45.1404 42.6104 45.1629C40.7633 45.1507 39.0518 44.9253 37.3905 44.3743C36.3864 44.0415 35.4322 43.6048 34.5501 43.0177C34.3913 42.9122 34.2272 42.8151 34.0684 42.7096C33.3087 42.2084 32.635 41.5877 32.0734 40.8716C31.4512 40.0761 31.087 39.1641 30.8618 38.1891C30.6825 37.4122 30.6418 36.6244 30.7099 35.8341C30.7871 34.9346 30.9695 34.0568 31.3432 33.2274C31.4142 33.0704 31.4754 32.9091 31.539 32.7486C31.7653 32.1754 31.8046 31.5826 31.7014 30.9816C31.6279 30.5526 31.5418 30.1248 31.4409 29.7016C31.252 28.9235 31.2038 28.118 31.2984 27.3229C31.3876 26.5819 31.5296 25.8534 31.7815 25.1489C31.9782 24.5997 32.2415 24.0824 32.5325 23.5791C32.6784 23.3265 32.8703 23.1068 33.08 22.9044C33.1396 22.8487 33.2049 22.7995 33.275 22.7577C34.4945 22.003 35.5297 21.0502 36.3627 19.8814C37.1223 18.8163 37.6353 17.6438 37.8733 16.3558C38.071 15.2797 38.0184 14.1726 37.7194 13.1201C37.7124 13.0938 37.7039 13.068 37.694 13.0426C37.58 12.7639 37.5854 12.484 37.6393 12.1876C37.7088 11.8045 37.7388 11.4141 37.7835 11.0268C37.9012 10.0081 38.0078 8.98809 38.268 7.99199C38.5354 6.96454 38.9327 5.99694 39.5491 5.1251C40.0051 4.4807 40.5569 3.93519 41.2253 3.51053C42.0934 2.95904 43.0439 2.70482 44.0691 2.72591C45.4847 2.75441 46.7022 3.28025 47.7402 4.22647C48.8769 5.26304 49.5358 6.55783 49.7732 8.07265C49.9473 9.18788 49.8302 10.2817 49.5147 11.3571C49.0681 12.8807 48.3379 14.2627 47.3994 15.5381C46.7678 16.396 46.0433 17.1718 45.3014 17.9322C44.598 18.6538 43.8787 19.3604 43.2135 20.1185C42.8715 20.5075 42.5314 20.8974 42.2444 21.3303C42.1045 21.5421 41.9728 21.7601 41.8514 21.983C41.794 22.0961 41.7506 22.2159 41.7223 22.3396C41.5878 22.8543 42.0863 23.2675 42.4633 23.2231C42.6435 23.2023 42.8233 23.1789 43.0031 23.1558C43.7238 23.0631 44.4522 23.0447 45.1766 23.1011C46.0316 23.1672 46.867 23.326 47.6758 23.6107C49.0573 24.0975 50.2492 24.8661 51.1752 26.0156C51.9872 27.0236 52.4654 28.172 52.6096 29.461C52.705 30.3109 52.6522 31.1709 52.4537 32.0027C52.4332 32.0911 52.4081 32.1786 52.3924 32.2678C52.3539 32.4864 52.3998 32.6848 52.5552 32.8478C52.7105 33.0108 52.8687 33.1767 53.0343 33.33C53.5242 33.7837 53.958 34.2802 54.2983 34.8565ZM50.303 32.125C50.4632 31.8446 50.5364 31.5379 50.5339 31.156C50.5325 31.1337 50.5339 31.0519 50.5225 30.9713C50.4729 30.5928 50.3415 30.2494 50.0545 29.986C49.7233 29.6822 49.3394 29.6129 48.9196 29.772C48.7418 29.8431 48.5858 29.9599 48.4676 30.1106C48.1222 30.5295 48.0327 31.0166 48.0988 31.5402C48.1381 31.8511 48.2487 32.1361 48.4536 32.3798C48.8797 32.8865 49.5936 32.9213 50.0591 32.4502C50.1541 32.3528 50.2361 32.2435 50.303 32.125ZM48.6651 35.6916C48.6528 35.518 48.6406 35.2002 48.6047 34.8853C48.5755 34.5958 48.504 34.3122 48.3926 34.0434C48.3094 33.8487 48.1552 33.753 47.9569 33.7142C47.8354 33.6908 47.7234 33.7322 47.6117 33.7692C47.474 33.8148 47.3392 33.871 47.1996 33.9083C46.5198 34.0893 45.8506 34.0109 45.1877 33.8151C44.9794 33.7535 44.7716 33.6891 44.5633 33.6258C44.2498 33.5309 44.0092 33.6467 43.8265 33.8949C43.7366 34.0195 43.6602 34.1532 43.5985 34.2939C43.3947 34.7474 43.3206 35.2319 43.2896 35.7226C43.2619 36.1396 43.2791 36.5583 43.3409 36.9715C43.4133 37.4495 43.533 37.9141 43.7367 38.3536C43.902 38.7104 44.1118 39.0376 44.4039 39.3063C44.7984 39.67 45.2681 39.8376 45.7982 39.8151C46.4597 39.7866 47.0294 39.5301 47.5034 39.0678C47.8337 38.7452 48.0569 38.3524 48.2347 37.9306C48.5175 37.2617 48.6252 36.556 48.6651 35.6916ZM42.2376 31.3407C42.237 31.073 42.1827 30.8081 42.078 30.5617C41.9987 30.378 41.881 30.2134 41.7328 30.0789C41.5547 29.9145 41.3253 29.8167 41.0833 29.8022C40.8413 29.7877 40.6018 29.8572 40.4053 29.9991C40.1749 30.1632 39.9996 30.3932 39.9025 30.6589C39.7786 30.992 39.7442 31.3518 39.8025 31.7023C39.8467 31.9933 39.9538 32.2618 40.1491 32.4878C40.4252 32.8079 40.7727 32.9487 41.1925 32.8703C41.5123 32.8107 41.7505 32.6215 41.9298 32.3553C42.1384 32.0452 42.2216 31.6966 42.2376 31.3407Z" fill="#FFC2C2"/>
<path d="M30.8342 23.962C30.8649 24.0208 30.8173 24.0641 30.7974 24.1088C30.4537 24.8761 30.2405 25.6806 30.1 26.5066C30.0251 26.9542 29.976 27.4057 29.9529 27.8589C29.9144 28.5809 30.0145 29.2891 30.1707 29.9919C30.2496 30.3459 30.3263 30.7008 30.395 31.0567C30.4265 31.2171 30.4455 31.3797 30.452 31.543C30.4588 31.7333 30.4474 31.9252 30.3804 32.1073C30.3023 32.3199 30.2288 32.5348 30.1379 32.742C29.7543 33.6147 29.5465 34.5307 29.4402 35.4738C29.3572 36.208 29.3515 36.9424 29.4522 37.6738C29.6172 38.8731 29.9749 40.0088 30.615 41.0457C30.6574 41.1144 30.6991 41.1839 30.7481 41.2648C30.5045 41.6045 30.2155 41.9092 29.8894 42.1706C29.2247 42.7158 28.4814 43.1308 27.6994 43.4785C26.5177 44.0038 25.2842 44.3663 24.0228 44.6365C23.2948 44.7921 22.5614 44.9135 21.8225 45.0007C21.3542 45.0577 20.8834 45.0916 20.4134 45.1298C19.4529 45.2082 18.4905 45.2085 17.5286 45.1751C17.0672 45.1592 16.6054 45.1133 16.1466 45.056C15.2191 44.9414 14.3005 44.7638 13.3971 44.5245C12.0054 44.154 10.6702 43.6441 9.42525 42.9119C8.69477 42.4824 8.0156 41.9842 7.40597 41.394C6.56662 40.5805 5.90854 39.6443 5.49955 38.5439C5.16027 37.6306 5.01563 36.6566 5.07489 35.6841C5.14899 34.3654 5.5309 33.1361 6.13284 31.9696C6.25425 31.7342 6.28019 31.5082 6.1736 31.2659C5.99233 30.853 5.91709 30.4175 5.89885 29.9691C5.86835 29.1996 5.9778 28.4492 6.17987 27.709C6.55038 26.3464 7.16457 25.0981 7.96088 23.9361C7.97107 23.9233 7.98222 23.9113 7.99422 23.9002C8.07317 23.8614 8.13986 23.9002 8.20883 23.9179C9.27008 24.2068 10.3674 24.3412 11.467 24.3169C12.8892 24.2815 14.2575 24.0017 15.5549 23.4048C16.5658 22.9394 17.4553 22.3107 18.1838 21.4628C18.2123 21.4298 18.2468 21.4012 18.2816 21.367C18.3873 21.4101 18.4435 21.4959 18.5124 21.564C19.0025 22.0501 19.5354 22.491 20.1048 22.8813C20.812 23.36 21.5763 23.7482 22.38 24.037C22.9785 24.2539 23.5821 24.442 24.2092 24.558C24.9146 24.689 25.6328 24.7389 26.3496 24.7068C26.7298 24.6897 27.1085 24.6432 27.4876 24.6059C27.8487 24.5702 28.2101 24.5358 28.5706 24.4887C29.2623 24.3955 29.9433 24.2346 30.6036 24.0085C30.672 23.9854 30.7418 23.9672 30.8114 23.9481C30.8173 23.9466 30.8259 23.9566 30.8342 23.962ZM26.0782 32.6944C26.5032 32.8799 26.9826 32.5599 26.9763 32.0759C26.972 32.0531 26.9655 32.0084 26.9561 31.9642C26.9236 31.8063 26.8332 31.684 26.7169 31.5774C26.4456 31.3281 26.1301 31.1522 25.7878 31.0234C25.0043 30.7284 24.1986 30.6677 23.3775 30.8113C23.0179 30.8694 22.6738 30.9995 22.3657 31.1938C22.2658 31.2561 22.1746 31.3313 22.0944 31.4176C21.902 31.633 21.8861 31.9331 22.04 32.1754C22.1127 32.2916 22.2213 32.3809 22.3494 32.4297C22.4775 32.4785 22.618 32.4842 22.7496 32.4459C22.8362 32.4196 22.9187 32.3813 22.9945 32.3319C23.1865 32.21 23.4013 32.1284 23.6257 32.0919C24.1533 32.0013 24.674 32.0258 25.1853 32.1885C25.4378 32.2689 25.6732 32.382 25.8739 32.5616C25.9347 32.6162 26.0036 32.6611 26.0782 32.6944ZM19.8403 35.9646C19.9146 35.86 19.9543 35.7349 19.9539 35.6066C19.9534 35.4784 19.9128 35.3535 19.8377 35.2495C19.6821 35.0292 19.4672 34.9417 19.1987 34.9804C19.0685 34.9992 18.9593 35.0625 18.8567 35.1386C18.7014 35.2526 18.5267 35.3259 18.3437 35.3817C17.9011 35.5171 17.4488 35.5279 16.9962 35.4672C16.6257 35.4176 16.268 35.3165 15.9719 35.0648C15.9226 35.0248 15.8678 34.9921 15.8091 34.9679C15.6795 34.9105 15.5345 34.8976 15.3967 34.9312C15.2589 34.9647 15.1361 35.0429 15.0473 35.1534C14.9571 35.2631 14.9067 35.4002 14.9045 35.5422C14.9024 35.6843 14.9485 35.8228 15.0353 35.9352C15.1088 36.0272 15.1941 36.1091 15.289 36.1789C15.5586 36.3801 15.8631 36.5296 16.187 36.6201C16.6045 36.7464 17.0392 36.8065 17.4753 36.7982C17.8932 36.8059 18.3098 36.7489 18.7102 36.6292C19.026 36.5371 19.3253 36.4075 19.5892 36.2091C19.6845 36.1404 19.7691 36.058 19.8403 35.9646ZM13.6046 31.8605C14.0267 32.0526 14.5126 31.7393 14.5115 31.2537C14.5075 31.1156 14.4573 30.9828 14.369 30.8766C14.3052 30.7996 14.2348 30.7283 14.1587 30.6634C13.9197 30.4676 13.6501 30.3126 13.3606 30.2046C12.5432 29.8888 11.7025 29.834 10.846 29.9934C10.5423 30.0507 10.2504 30.1583 9.98215 30.3117C9.84734 30.3881 9.71652 30.471 9.62048 30.5967C9.45574 30.8105 9.42724 31.0448 9.54694 31.2862C9.66095 31.5182 9.85789 31.633 10.117 31.6376C10.2635 31.6399 10.4068 31.5943 10.5251 31.5079C10.7211 31.3742 10.9455 31.288 11.1806 31.2562C11.7167 31.1733 12.2477 31.1955 12.7655 31.372C12.999 31.4515 13.2173 31.5581 13.4042 31.7245C13.4642 31.7786 13.5317 31.8237 13.6046 31.8585V31.8605Z" fill="#F8FCE1"/>
<path d="M6.72878 23.4104C6.67748 23.4959 6.63501 23.5743 6.5877 23.6484C6.1635 24.3147 5.79479 25.0147 5.48529 25.7415C5.17971 26.4502 4.94532 27.1875 4.7856 27.9426C4.76222 28.0766 4.68682 28.1959 4.57583 28.2746C4.21644 28.5437 3.83624 28.7717 3.39248 28.8657C2.88802 28.9729 2.41576 28.9119 2.01618 28.5522C1.83537 28.3853 1.68998 28.1837 1.58867 27.9594C1.45993 27.6785 1.37533 27.3794 1.33786 27.0727C1.26604 26.5455 1.29796 26.0202 1.40427 25.5021C1.59992 24.5183 2.03273 23.5972 2.66514 22.8187C2.99347 22.4146 3.36911 22.0606 3.82056 21.7927C3.875 21.7605 3.93143 21.7314 3.98843 21.7032C4.01121 21.6969 4.03464 21.6932 4.05826 21.6924C4.25178 21.8508 4.44957 22.023 4.6582 22.1811C4.87509 22.3453 5.09768 22.5029 5.32626 22.6503C5.54714 22.7928 5.776 22.9239 6.00743 23.0493C6.23885 23.1747 6.47655 23.2853 6.72878 23.4104Z" fill="#D6E499"/>
<path d="M36.3388 13.1182C36.6008 13.8751 36.7081 14.6769 36.6546 15.476C36.5674 16.7492 36.1344 17.8986 35.4256 18.9508C34.6561 20.0909 33.6668 20.9946 32.4957 21.7111C31.7767 22.1543 31.0073 22.5101 30.204 22.7711C28.858 23.1924 27.4469 23.3662 26.0389 23.2841C23.4778 23.1259 21.2143 22.245 19.3204 20.4839C19.1149 20.2927 18.926 20.0849 18.7242 19.8877C18.6557 19.8154 18.5759 19.7549 18.4879 19.7084C18.2921 19.6172 18.0949 19.6446 17.9179 19.7654C17.8298 19.829 17.7495 19.9029 17.6788 19.9854C17.608 20.0683 17.5421 20.1553 17.4816 20.2459C16.964 20.9804 16.2902 21.5373 15.5107 21.9711C14.6204 22.4664 13.6633 22.7611 12.6581 22.9133C12.0202 23.0096 11.3742 23.0412 10.73 23.0074C9.00201 22.9173 7.38887 22.4496 5.93191 21.4968C5.10083 20.9536 4.39714 20.2798 3.87529 19.4277C3.51961 18.8468 3.28675 18.2207 3.20724 17.5435C3.11649 16.7997 3.2341 16.0454 3.54697 15.3646C3.91748 14.5512 4.48749 13.9051 5.19687 13.373C5.60514 13.0691 6.04556 12.8111 6.51019 12.6034C6.61779 12.556 6.72247 12.5022 6.8237 12.4424C7.09816 12.2763 7.22043 12.0289 7.19706 11.7091C7.18993 11.6093 7.17853 11.5096 7.17654 11.4101C7.16012 10.6286 7.25855 9.84882 7.46867 9.09585C7.81381 7.87032 8.43028 6.791 9.24455 5.81827C10.3475 4.49925 11.662 3.44216 13.1737 2.62818C14.3265 2.00743 15.5489 1.58904 16.846 1.40094C17.4124 1.32176 17.9843 1.28945 18.556 1.30432C19.8713 1.3314 21.1519 1.57565 22.4187 1.9091C23.5685 2.2115 24.6988 2.58258 25.8277 2.94938C26.9843 3.32445 28.15 3.6676 29.3316 3.95603C30.073 4.13832 30.8373 4.21025 31.5997 4.1695C31.7245 4.16294 31.8511 4.13644 31.9927 4.17149C31.9731 4.22289 31.9509 4.27321 31.926 4.32226C30.9379 6.0534 29.8067 7.68535 28.5059 9.19589C27.3055 10.5924 25.9209 11.7672 24.3266 12.6912C23.398 13.2256 22.4288 13.686 21.4281 14.0684C20.4277 14.4546 19.4045 14.7723 18.3522 14.9767C17.5212 15.1377 16.683 15.2304 15.8345 15.1679C15.415 15.1372 15.012 15.0405 14.6346 14.8445C14.1464 14.5914 13.7035 14.2804 13.3387 13.8655C12.9739 13.4505 12.7245 12.9697 12.6376 12.4151C12.5683 11.9644 12.6079 11.5037 12.7533 11.0715C12.9363 10.5095 13.2466 10.0227 13.6368 9.58493C14.145 9.01691 14.7483 8.57116 15.417 8.21034C16.4031 7.67766 17.4585 7.36073 18.5683 7.22734C19.6713 7.09482 20.7628 7.15951 21.8291 7.48385C22.0716 7.55738 22.3056 7.65828 22.5444 7.74463C22.6281 7.77902 22.7146 7.8062 22.8029 7.82586C22.9473 7.8529 23.0966 7.82938 23.2256 7.75926C23.3547 7.68915 23.4556 7.57671 23.5115 7.44087C23.5674 7.30504 23.5748 7.1541 23.5324 7.01347C23.49 6.87284 23.4005 6.75109 23.2789 6.66873C23.1716 6.60124 23.0583 6.54399 22.9403 6.49773C22.4301 6.28212 21.8975 6.12401 21.3522 6.02632C20.7252 5.91232 20.0936 5.84734 19.4564 5.86501C17.5562 5.91717 15.784 6.4051 14.1772 7.44025C13.5165 7.85971 12.9291 8.38485 12.4386 8.99468C11.9333 9.62796 11.5659 10.3299 11.3984 11.1282C11.145 12.3364 11.3984 13.4368 12.124 14.4264C12.5706 15.0366 13.1406 15.5094 13.8055 15.8693C14.2248 16.0959 14.6805 16.2188 15.1451 16.3094C15.7795 16.4331 16.4216 16.4969 17.0672 16.4681C17.4296 16.4491 17.7903 16.4059 18.147 16.339C20.6836 15.8844 23.0492 14.9647 25.2605 13.6471C26.8335 12.7097 28.2067 11.5298 29.4026 10.1453C29.7882 9.69893 30.1513 9.23323 30.5243 8.77722C30.5813 8.70767 30.6383 8.63728 30.6971 8.56232C30.786 8.57343 30.8681 8.57685 30.9459 8.59424C32.1999 8.87041 33.3425 9.38827 34.3118 10.2353C35.2187 11.0265 35.9452 11.9579 36.3388 13.1182Z" fill="#D6E499"/>
<path d="M58.9618 8.84278C59.1431 10.3884 58.8763 11.8616 58.2294 13.2718C57.7608 14.2953 57.1284 15.2099 56.4039 16.0674C55.3035 17.3688 54.0064 18.4407 52.5688 19.345C51.8931 19.7705 51.2048 20.1764 50.5202 20.5877C49.7652 21.0414 49.0145 21.5014 48.3054 22.025C48.2034 22.1005 48.1059 22.1817 48.0073 22.2621C47.995 22.2721 47.9922 22.2934 47.9754 22.3305C48.1945 22.416 48.3983 22.4912 48.5995 22.5733C49.7743 23.053 50.8189 23.7304 51.6996 24.6476C52.8719 25.868 53.5919 27.3151 53.8596 28.9888C54.0229 30.0234 53.981 31.0509 53.7713 32.074C53.7624 32.1176 53.755 32.1618 53.7451 32.2165C53.8129 32.2804 53.8773 32.3425 53.9446 32.4029C54.5864 32.9892 55.1313 33.6521 55.5455 34.4194C55.9302 35.1219 56.1706 35.8943 56.2526 36.6912C56.3805 37.9606 56.0981 39.1422 55.507 40.2614C55.0527 41.121 54.4493 41.866 53.7419 42.529C52.6982 43.5074 51.5021 44.2555 50.2056 44.8475C48.9205 45.4343 47.5784 45.8433 46.1918 46.1118C45.426 46.2626 44.6513 46.364 43.8724 46.4153C42.9029 46.4801 41.93 46.474 40.9613 46.3971C40.1021 46.3272 39.2488 46.1969 38.408 46.0069C36.7184 45.6236 35.1409 44.978 33.6971 44.0147C33.2741 43.7323 32.8483 43.4535 32.4613 43.1232C32.2048 42.9052 31.9671 42.6672 31.7203 42.4406C31.6815 42.405 31.6396 42.3722 31.5988 42.338C31.5727 42.3534 31.5481 42.3715 31.5256 42.3919C30.8917 43.1215 30.1182 43.6721 29.2814 44.1401C28.3754 44.6471 27.4169 45.0316 26.4294 45.3463C25.2526 45.7168 24.0484 45.9938 22.828 46.1745C21.9479 46.3076 21.0644 46.3968 20.176 46.4504C19.4228 46.496 18.67 46.4877 17.9165 46.4923C17.261 46.496 16.6134 46.4262 15.9648 46.3421C15.2984 46.2566 14.6369 46.1446 13.9808 46.0018C12.4589 45.67 10.9882 45.1895 9.59455 44.4855C8.37871 43.8713 7.2669 43.1115 6.30927 42.1359C5.40038 41.2102 4.69869 40.1514 4.2538 38.9285C3.97735 38.1681 3.81569 37.3709 3.77413 36.5629C3.70373 35.237 3.92746 33.9588 4.38604 32.719C4.51173 32.379 4.65879 32.0464 4.80443 31.7143C4.85374 31.6003 4.87939 31.496 4.84148 31.3749C4.69898 30.9132 4.64198 30.4344 4.58925 29.9573C4.58151 29.9192 4.57065 29.8818 4.55676 29.8456C4.47582 29.8493 4.41426 29.8897 4.35127 29.9174C3.86106 30.1286 3.35203 30.24 2.81508 30.2104C2.04898 30.1685 1.41854 29.8484 0.912655 29.2798C0.511364 28.8289 0.274523 28.2934 0.136295 27.71C-0.0292947 27.0112 -0.0347096 26.308 0.0707432 25.6009C0.257708 24.3455 0.739941 23.2134 1.4992 22.1988C1.9213 21.6345 2.41835 21.1471 3.01231 20.7629C3.0462 20.7389 3.07883 20.7131 3.11006 20.6857C3.1061 20.6634 3.0991 20.6417 3.08926 20.6213C2.73898 20.1733 2.50214 19.6625 2.28896 19.1415C1.96341 18.3578 1.82767 17.5082 1.8928 16.662C1.97402 15.604 2.34311 14.6495 2.96528 13.7919C3.51677 13.0318 4.20478 12.4202 5.00593 11.9348C5.27697 11.7707 5.55742 11.6213 5.84984 11.4563C5.85825 11.3997 5.86282 11.3425 5.86352 11.2853C5.82745 10.5407 5.89925 9.79482 6.07671 9.07079C6.13371 8.84278 6.19812 8.61478 6.27308 8.39162C6.65841 7.24304 7.24723 6.20447 8.00678 5.26452C9.49879 3.41795 11.3211 1.99405 13.4932 1.02759C14.6212 0.521603 15.822 0.196601 17.0512 0.0645547C17.8849 -0.0243677 18.7182 -0.016103 19.5521 0.0568589C20.9051 0.175137 22.2221 0.475534 23.5192 0.86343C24.6749 1.20886 25.822 1.5825 26.9726 1.94475C27.9678 2.25826 28.9711 2.54327 29.9908 2.76557C30.4262 2.85781 30.8715 2.89468 31.3161 2.8753C31.879 2.85981 32.4388 2.78811 32.9874 2.66126C33.1116 2.63434 33.2392 2.62741 33.3656 2.64074C33.8014 2.68035 34.0402 3.05371 33.8866 3.4627C33.8132 3.658 33.7227 3.84646 33.6161 4.02587C32.9663 5.11774 32.3367 6.22043 31.6245 7.27496C31.6035 7.31036 31.5845 7.3469 31.5675 7.3844C31.8123 7.48244 32.0608 7.53004 32.2943 7.61982C32.5223 7.7076 32.7537 7.79082 32.9783 7.88886C33.2106 7.9909 33.4403 8.1012 33.6623 8.22175C33.8843 8.34231 34.1041 8.47341 34.3178 8.6125C34.5227 8.74645 34.7222 8.88981 34.9146 9.04001C35.1141 9.19705 35.3071 9.36321 35.4926 9.53649C35.6719 9.70322 35.8392 9.88278 36.0093 10.0592C36.1795 10.2356 36.3203 10.4522 36.5161 10.6409C36.5585 10.4853 36.5622 10.3493 36.5731 10.2148C36.6648 9.2093 36.8387 8.21976 37.1231 7.24902C37.4404 6.16942 37.9029 5.15878 38.5767 4.25103C39.2065 3.40085 39.9698 2.70059 40.9026 2.19157C42.0366 1.57944 43.3281 1.32123 44.6103 1.45026C45.6719 1.55352 46.694 1.907 47.5926 2.4817C47.9146 2.6862 48.2207 2.91486 48.5081 3.16572C48.5625 3.21275 48.6189 3.25721 48.6742 3.30281C48.778 3.3048 48.8486 3.2421 48.9262 3.19935C49.5704 2.8423 50.2688 2.59313 50.9936 2.46175C52.0171 2.2756 53.0707 2.347 54.0597 2.66952C55.6538 3.18054 56.8836 4.16781 57.7907 5.56434C58.4394 6.56329 58.8228 7.66143 58.9618 8.84278ZM57.0306 12.7651C57.6474 11.4255 57.876 10.029 57.6038 8.57203C57.3316 7.11507 56.6459 5.87814 55.5038 4.91652C54.646 4.19403 53.6493 3.78533 52.5329 3.68386C51.5588 3.59551 50.6371 3.79587 49.7635 4.22908C49.7156 4.25302 49.6712 4.2838 49.5965 4.32855C49.682 4.45509 49.7524 4.55912 49.8211 4.66458C49.8898 4.77003 49.9593 4.87776 50.0246 4.98663C50.6439 6.01793 51.0188 7.17732 51.1207 8.37594C51.2202 9.51027 51.0851 10.6229 50.765 11.7137C50.2791 13.369 49.4928 14.8741 48.4796 16.2647C47.858 17.1177 47.1508 17.8975 46.4161 18.6536C45.7771 19.3111 45.1336 19.9646 44.5065 20.6318C44.1956 20.9616 43.9117 21.3159 43.6168 21.6619C43.5883 21.6938 43.5509 21.7274 43.5911 21.7884C43.6381 21.7884 43.6917 21.7918 43.7447 21.7884C44.4173 21.7385 45.0871 21.7756 45.7554 21.8537C45.9359 21.8748 46.116 21.8976 46.295 21.9272C46.3438 21.9384 46.3947 21.9352 46.4418 21.9181C46.4888 21.9009 46.5299 21.8705 46.56 21.8306C46.5771 21.8098 46.5991 21.7927 46.617 21.7736C46.9456 21.4316 47.313 21.1369 47.6978 20.8615C48.3108 20.4226 48.9487 20.0222 49.5931 19.6315C50.4623 19.1045 51.3382 18.5872 52.1926 18.0371C53.4267 17.2486 54.5334 16.2764 55.4745 15.1543C56.0873 14.4181 56.6291 13.6366 57.0306 12.7651ZM54.9814 37.3458C54.992 36.4529 54.752 35.6255 54.2974 34.8574C53.9571 34.2811 53.5233 33.7846 53.0328 33.3332C52.8661 33.1799 52.7102 33.0151 52.5537 32.851C52.3973 32.6868 52.3525 32.4896 52.391 32.271C52.4067 32.1818 52.4318 32.0943 52.4523 32.0059C52.6508 31.1741 52.7036 30.3141 52.6082 29.4642C52.4617 28.1767 51.9835 27.0283 51.1737 26.0188C50.2477 24.8693 49.0558 24.1007 47.6744 23.6139C46.8656 23.3289 46.0305 23.1704 45.1752 23.1043C44.4507 23.0479 43.7224 23.0663 43.0017 23.159C42.8219 23.1821 42.642 23.2055 42.4619 23.2263C42.0854 23.2704 41.5869 22.8557 41.7209 22.3427C41.7492 22.2191 41.7926 22.0993 41.85 21.9862C41.9714 21.7633 42.1031 21.5453 42.243 21.3335C42.528 20.9006 42.87 20.5107 43.212 20.1217C43.8773 19.3636 44.5966 18.657 45.3 17.9354C46.041 17.1741 46.7664 16.3983 47.3979 15.5413C48.3365 14.2659 49.0667 12.8839 49.5133 11.3603C49.8282 10.2849 49.9459 9.19106 49.7718 8.07583C49.5349 6.56101 48.8754 5.26623 47.7388 4.22965C46.7008 3.28343 45.4833 2.75845 44.0676 2.72909C43.0416 2.708 42.092 2.96223 41.2238 3.51372C40.5555 3.93838 40.004 4.48274 39.5477 5.12828C38.9312 5.99926 38.5339 6.96772 38.2666 7.99517C38.007 8.99127 37.9004 10.0113 37.7821 11.0299C37.7373 11.4173 37.7074 11.8077 37.6379 12.1908C37.584 12.486 37.5809 12.7659 37.6926 13.0458C37.7025 13.0711 37.711 13.097 37.718 13.1233C38.0169 14.1758 38.0696 15.2829 37.8719 16.359C37.6353 17.6469 37.1223 18.8195 36.3613 19.8845C35.5282 21.0531 34.4931 22.0061 33.2735 22.7608C33.2035 22.8027 33.1382 22.8519 33.0786 22.9076C32.8688 23.11 32.677 23.3297 32.5311 23.5822C32.2401 24.0856 31.9768 24.6028 31.7801 25.1521C31.5282 25.8566 31.3862 26.5851 31.297 27.3261C31.2024 28.1211 31.2506 28.9267 31.4395 29.7048C31.5404 30.128 31.6265 30.5558 31.7 30.9847C31.8032 31.5858 31.7639 32.1786 31.5376 32.7518C31.474 32.9122 31.4127 33.0736 31.3418 33.2306C30.9681 34.06 30.7857 34.9378 30.7085 35.8373C30.6404 36.6276 30.68 37.4154 30.8604 38.1923C31.0855 39.1673 31.4498 40.0793 32.072 40.8748C32.6336 41.5909 33.3073 42.2116 34.067 42.7128C34.2258 42.8182 34.3899 42.9154 34.5487 43.0209C35.4322 43.6089 36.385 44.0446 37.3891 44.3775C39.0504 44.9284 40.7618 45.1539 42.609 45.1661C43.2226 45.1436 43.9385 45.124 44.6522 45.0356C45.535 44.9293 46.4091 44.7598 47.2677 44.5283C48.5517 44.1774 49.7786 43.6875 50.9266 43.0092C51.7195 42.5406 52.4537 41.996 53.1012 41.3376C53.6921 40.7371 54.1843 40.0688 54.5325 39.2978C54.8124 38.6751 54.9732 38.0253 54.9814 37.345V37.3458ZM36.6554 15.4769C36.709 14.6777 36.6016 13.8759 36.3397 13.119C35.9461 11.9588 35.2196 11.0262 34.3127 10.2339C33.3437 9.38686 32.2005 8.86901 30.9467 8.59283C30.8681 8.57545 30.7869 8.57203 30.6979 8.56091C30.6378 8.63587 30.5819 8.70627 30.5252 8.77581C30.1521 9.23182 29.789 9.69866 29.4034 10.1438C28.2064 11.5284 26.8344 12.7089 25.2614 13.6457C23.0506 14.9633 20.6859 15.883 18.1479 16.3376C17.7912 16.4045 17.4304 16.4477 17.068 16.4667C16.4225 16.4952 15.7804 16.4317 15.1459 16.308C14.6817 16.2174 14.2259 16.0945 13.8064 15.8679C13.142 15.5091 12.572 15.0351 12.1249 14.4249C11.3998 13.4343 11.1458 12.335 11.3992 11.1268C11.5668 10.3288 11.9342 9.62655 12.4395 8.99327C12.93 8.38344 13.5173 7.8583 14.178 7.43884C15.7849 6.40369 17.5571 5.91576 19.4572 5.8636C20.0945 5.84593 20.7267 5.91006 21.3531 6.02492C21.8983 6.1226 22.431 6.28071 22.9412 6.49632C23.0591 6.54258 23.1725 6.59983 23.2798 6.66732C23.4005 6.74974 23.4894 6.8711 23.5315 7.01113C23.5736 7.15116 23.5664 7.3014 23.5111 7.43677C23.4559 7.57214 23.3558 7.68445 23.2277 7.75496C23.0996 7.82546 22.9512 7.84989 22.8072 7.82417C22.7189 7.80451 22.6324 7.77733 22.5487 7.74294C22.3099 7.65744 22.0759 7.55569 21.8333 7.48216C20.766 7.15811 19.6756 7.09341 18.5726 7.22565C17.4628 7.35904 16.4065 7.67596 15.4212 8.20864C14.7535 8.56946 14.1493 9.01521 13.6411 9.58323C13.2498 10.021 12.9394 10.5078 12.7576 11.0698C12.6122 11.502 12.5726 11.9627 12.6419 12.4134C12.7274 12.968 12.9747 13.4457 13.343 13.8638C13.7112 14.2819 14.1507 14.5897 14.6389 14.8428C15.0162 15.0388 15.4193 15.1355 15.8388 15.1662C16.6873 15.2287 17.5255 15.136 18.3565 14.975C19.4111 14.7707 20.432 14.4529 21.4323 14.0667C22.4331 13.6843 23.4023 13.2239 24.3309 12.6895C25.9252 11.7655 27.3098 10.5896 28.5102 9.1942C29.811 7.68366 30.9422 6.05085 31.9303 4.32057C31.9552 4.27152 31.9774 4.22119 31.997 4.1698C31.8545 4.13475 31.7288 4.16125 31.604 4.16781C30.8416 4.20855 30.0773 4.13662 29.3359 3.95434C28.1542 3.66591 26.9886 3.32276 25.832 2.94769C24.7019 2.58088 23.5727 2.20981 22.423 1.90741C21.1562 1.57395 19.8756 1.3297 18.5603 1.30263C17.9886 1.28776 17.4167 1.32007 16.8503 1.39925C15.5532 1.58735 14.3308 2.00574 13.178 2.62649C11.6674 3.44047 10.3518 4.49756 9.24884 5.81658C8.43457 6.79016 7.8181 7.86863 7.47296 9.09416C7.26284 9.84713 7.16441 10.6269 7.18082 11.4084C7.18282 11.5082 7.19422 11.6079 7.20135 11.7074C7.22472 12.0272 7.10245 12.2746 6.82799 12.4407C6.72676 12.5006 6.62207 12.5543 6.51448 12.6017C6.04985 12.8094 5.60943 13.0674 5.20116 13.3713C4.49264 13.9034 3.92034 14.5495 3.55125 15.3629C3.23839 16.0437 3.12078 16.798 3.21153 17.5418C3.29104 18.219 3.52503 18.8451 3.87958 19.426C4.40143 20.2781 5.10512 20.9519 5.9362 21.4951C7.39316 22.447 9.0063 22.9147 10.7343 23.0057C11.3785 23.0395 12.0245 23.0079 12.6624 22.9116C13.6676 22.7594 14.6247 22.4647 15.515 21.9694C16.2945 21.5356 16.9686 20.9787 17.4858 20.2442C17.5464 20.1536 17.6122 20.0666 17.6831 19.9837C17.7538 19.9012 17.8341 19.8273 17.9222 19.7637C18.098 19.6434 18.2953 19.6161 18.4922 19.7067C18.5802 19.7532 18.66 19.8137 18.7285 19.886C18.9303 20.0818 19.1192 20.291 19.3247 20.4822C21.2186 22.2433 23.4821 23.1242 26.0432 23.2824C27.4512 23.3645 28.8623 23.1907 30.2083 22.7694C31.0116 22.5085 31.781 22.1526 32.5 21.7094C33.6711 20.9929 34.6612 20.0889 35.4299 18.9492C36.1344 17.8992 36.5674 16.7492 36.6546 15.476L36.6554 15.4769ZM30.7974 24.1084C30.8174 24.0636 30.8649 24.0203 30.8342 23.9616C30.8259 23.9562 30.8174 23.9462 30.8117 23.9476C30.7421 23.9667 30.6723 23.9849 30.6039 24.008C29.9426 24.2341 29.2607 24.3946 28.5681 24.4874C28.2084 24.5344 27.847 24.5689 27.485 24.6046C27.106 24.6419 26.7272 24.6883 26.347 24.7054C25.6302 24.7376 24.9121 24.6877 24.2066 24.5567C23.5796 24.4407 22.9748 24.2526 22.3774 24.0357C21.5738 23.7469 20.8094 23.3586 20.1022 22.88C19.5329 22.4897 19 22.0488 18.5099 21.5627C18.4409 21.4946 18.3848 21.4088 18.279 21.3657C18.2442 21.3999 18.21 21.4284 18.1813 21.4615C17.4528 22.3094 16.5633 22.9381 15.5524 23.4035C14.255 24.002 12.8867 24.2808 11.4645 24.3156C10.3649 24.3398 9.26753 24.2054 8.20628 23.9165C8.13731 23.898 8.07062 23.8595 7.99167 23.8989C7.97967 23.91 7.96852 23.922 7.95833 23.9348C7.16201 25.0968 6.54925 26.3451 6.17731 27.7077C5.97524 28.4487 5.8658 29.1986 5.8963 29.9678C5.91425 30.4161 5.98978 30.8513 6.17104 31.2646C6.27764 31.5069 6.2517 31.7329 6.13029 31.9683C5.52921 33.1348 5.14644 34.3641 5.07234 35.6828C5.01307 36.6552 5.15772 37.6293 5.497 38.5426C5.90599 39.643 6.56407 40.5792 7.40342 41.3926C8.01305 41.9829 8.69222 42.4811 9.42269 42.9106C10.6676 43.6428 12.0029 44.1532 13.3946 44.5232C14.2982 44.7631 15.2171 44.9413 16.1449 45.0564C16.6037 45.1134 17.0655 45.1596 17.5269 45.1755C18.4888 45.2089 19.4513 45.2086 20.4117 45.1302C20.8817 45.092 21.3523 45.057 21.8208 45.0011C22.5595 44.913 23.293 44.7915 24.0211 44.6369C25.2836 44.3667 26.5172 44.0042 27.6977 43.4789C28.4797 43.1312 29.223 42.7162 29.8877 42.171C30.2139 41.9096 30.5028 41.6049 30.7464 41.2652C30.6974 41.1843 30.6558 41.1148 30.6133 41.0461C29.9732 40.0092 29.6158 38.8735 29.4505 37.6741C29.3498 36.9428 29.3555 36.2084 29.4385 35.4742C29.5448 34.5311 29.752 33.6151 30.1362 32.7424C30.2271 32.5352 30.3006 32.3203 30.3787 32.1077C30.4457 31.9255 30.4571 31.7337 30.4503 31.5433C30.4438 31.38 30.4248 31.2175 30.3933 31.0571C30.3246 30.7011 30.2479 30.3463 30.169 29.9923C30.0128 29.2895 29.9125 28.5813 29.9512 27.8593C29.9743 27.4061 30.0234 26.9546 30.0983 26.507C30.2405 25.6807 30.4537 24.8762 30.7974 24.1084ZM6.58772 23.6478C6.63504 23.5737 6.6775 23.4967 6.7288 23.4098C6.47657 23.2847 6.23859 23.1741 6.00831 23.0496C5.77802 22.925 5.54802 22.793 5.32714 22.6505C5.09913 22.5032 4.87597 22.3456 4.65908 22.1814C4.45045 22.0232 4.25266 21.8511 4.05914 21.6926C4.03552 21.6935 4.01209 21.6972 3.98931 21.7035C3.93231 21.732 3.87531 21.7605 3.82144 21.793C3.36999 22.0594 2.99492 22.4134 2.66602 22.819C2.03361 23.5975 1.60079 24.5186 1.40515 25.5023C1.29884 26.0205 1.26692 26.5457 1.33874 27.073C1.37621 27.3797 1.46081 27.6788 1.58955 27.9597C1.69086 28.1839 1.83625 28.3855 2.01706 28.5525C2.41607 28.9122 2.8889 28.9732 3.39336 28.866C3.83712 28.7719 4.21732 28.5439 4.57671 28.2749C4.6877 28.1962 4.7631 28.0769 4.78648 27.9428C4.9462 27.1878 5.18058 26.4504 5.48617 25.7417C5.79538 25.0149 6.16378 24.3148 6.5877 23.6484L6.58772 23.6478Z" fill="#E67C4F"/>
<path d="M50.5339 31.1546C50.5364 31.538 50.4632 31.8446 50.303 32.1237C50.236 32.2417 50.154 32.3505 50.059 32.4474C49.5931 32.9183 48.8797 32.8838 48.4536 32.377C48.2487 32.1334 48.1381 31.8484 48.0988 31.5374C48.0326 31.0139 48.1221 30.5268 48.4676 30.1078C48.5858 29.9572 48.7417 29.8404 48.9196 29.7692C49.3394 29.6102 49.7233 29.6794 50.0545 29.9833C50.3415 30.2466 50.4729 30.59 50.5225 30.9685C50.533 31.0506 50.5324 31.1324 50.5339 31.1546Z" fill="#E67C4F"/>
<path d="M48.6047 34.8853C48.6406 35.1988 48.6528 35.518 48.6651 35.6916C48.6252 36.556 48.5175 37.2618 48.2347 37.9318C48.0569 38.3536 47.8337 38.7464 47.5034 39.069C47.0294 39.5321 46.4597 39.7883 45.7982 39.8163C45.2681 39.8388 44.7984 39.6712 44.404 39.3075C44.1118 39.0385 43.9021 38.7116 43.7368 38.3548C43.533 37.9153 43.4133 37.4507 43.3409 36.9728C43.2791 36.5595 43.2619 36.1408 43.2896 35.7239C43.3206 35.2331 43.3947 34.7486 43.5985 34.2951C43.6602 34.1544 43.7366 34.0207 43.8265 33.8961C44.0092 33.6479 44.2506 33.5322 44.5633 33.6271C44.7716 33.6903 44.9794 33.7547 45.1877 33.8163C45.8506 34.0121 46.5198 34.0905 47.1996 33.9095C47.3392 33.8722 47.4741 33.816 47.6117 33.7704C47.7234 33.7334 47.8354 33.692 47.9569 33.7154C48.1564 33.7542 48.3094 33.8499 48.3926 34.0446C48.5039 34.313 48.5753 34.5962 48.6047 34.8853Z" fill="#E67C4F"/>
<path d="M42.078 30.5617C42.1827 30.8081 42.237 31.073 42.2376 31.3407C42.2216 31.6966 42.1384 32.0452 41.9298 32.3553C41.7505 32.6215 41.5123 32.8113 41.1925 32.8703C40.7727 32.9487 40.4252 32.8079 40.1491 32.4878C39.9538 32.2618 39.8467 31.9933 39.8025 31.7023C39.7442 31.3518 39.7786 30.992 39.9025 30.6589C39.9996 30.3932 40.1749 30.1632 40.4053 29.9991C40.6018 29.8572 40.8413 29.7877 41.0833 29.8022C41.3253 29.8167 41.5547 29.9145 41.7328 30.0789C41.881 30.2134 41.9987 30.378 42.078 30.5617Z" fill="#E67C4F"/>
<path d="M26.9763 32.0759C26.9826 32.5604 26.5032 32.8799 26.0782 32.6944C26.0036 32.6612 25.9347 32.6167 25.8739 32.5623C25.6744 32.3827 25.4378 32.2696 25.1853 32.1892C24.674 32.0264 24.1533 32.0019 23.6257 32.0926C23.4012 32.1291 23.1865 32.2107 22.9944 32.3325C22.9186 32.3819 22.8362 32.4203 22.7496 32.4465C22.618 32.4849 22.4775 32.4792 22.3494 32.4304C22.2213 32.3815 22.1127 32.2923 22.04 32.1761C21.886 31.9338 21.902 31.6346 22.0944 31.4182C22.1746 31.332 22.2658 31.2568 22.3657 31.1945C22.6738 31.0002 23.0179 30.8701 23.3775 30.812C24.1986 30.6695 25.0043 30.7291 25.7878 31.0241C26.1298 31.1529 26.4456 31.3287 26.7169 31.5781C26.8332 31.6847 26.9236 31.8061 26.956 31.9649C26.9654 32.0085 26.972 32.0531 26.9763 32.0759Z" fill="#E67C4F"/>
<path d="M19.8377 35.2491C19.9128 35.3531 19.9534 35.478 19.9539 35.6062C19.9543 35.7345 19.9146 35.8596 19.8403 35.9642C19.7691 36.0578 19.6845 36.1402 19.5892 36.2091C19.3253 36.4086 19.026 36.5371 18.7102 36.6292C18.3098 36.7489 17.8932 36.8059 17.4753 36.7982C17.0392 36.8065 16.6045 36.7464 16.187 36.6201C15.8628 36.5296 15.5582 36.3801 15.2884 36.1788C15.1936 36.109 15.1083 36.0271 15.0348 35.9351C14.9479 35.8227 14.9018 35.6841 14.904 35.5421C14.9062 35.4001 14.9565 35.263 15.0467 35.1533C15.1355 35.0427 15.2583 34.9646 15.3961 34.931C15.5339 34.8975 15.6789 34.9104 15.8086 34.9678C15.8672 34.992 15.922 35.0247 15.9713 35.0647C16.2674 35.3163 16.6245 35.4175 16.9956 35.4671C17.4482 35.5275 17.9005 35.5167 18.3431 35.3816C18.5267 35.3246 18.7014 35.2536 18.8562 35.1385C18.9588 35.0624 19.0679 34.9991 19.1982 34.9803C19.4664 34.9413 19.6821 35.0288 19.8377 35.2491Z" fill="#E67C4F"/>
<path d="M14.5115 31.2517C14.5115 31.7362 14.027 32.0497 13.6046 31.8585C13.5307 31.8239 13.4622 31.7788 13.4014 31.7245C13.2144 31.5581 12.9961 31.4515 12.7627 31.372C12.2448 31.1956 11.7138 31.1725 11.1777 31.2563C10.9426 31.288 10.7182 31.3742 10.5222 31.5079C10.4039 31.5944 10.2606 31.6399 10.1141 31.6376C9.8553 31.633 9.65808 31.5182 9.54408 31.2862C9.42437 31.0448 9.45287 30.8105 9.61761 30.5968C9.71365 30.4722 9.84561 30.3893 9.97928 30.3118C10.2475 30.1583 10.5395 30.0507 10.8431 29.9934C11.6982 29.8355 12.5404 29.8888 13.3578 30.2046C13.6472 30.3126 13.9168 30.4676 14.1558 30.6635C14.2323 30.7273 14.3031 30.7975 14.3675 30.8735C14.4566 30.9798 14.5073 31.113 14.5115 31.2517Z" fill="#E67C4F"/>
<path d="M64.8681 12.2878C64.5394 12.0001 64.2381 11.781 64.2381 11.3017C64.2381 9.89105 67.9633 9.64453 68.9904 9.64453C71.6473 9.64453 73.7564 10.8497 73.7564 13.7806C73.7564 14.4927 73.5236 15.1912 73.1264 15.7801C71.798 17.7522 69.3328 17.5605 67.2374 17.5605C66.9635 18.3685 67.3881 20.2996 66.0459 20.2996C64.5942 20.2996 64.512 16.862 64.512 15.8212C64.512 14.6297 64.649 13.4519 64.8681 12.2878ZM67.1826 14.6571C67.6757 14.7666 68.1824 14.794 68.6891 14.794C69.4698 14.794 70.9078 14.8899 70.9078 13.7532C70.9078 11.8632 68.333 12.2878 67.0868 12.4247C67.1141 13.1643 67.1415 13.9175 67.1826 14.6571Z" fill="#E67C4F"/>
<path d="M77.5127 18.9027C77.5127 19.5189 77.2251 20.0942 76.5267 20.0942C75.3352 20.0942 74.8969 18.1494 74.8969 17.2318C74.8969 16.3416 75.0476 14.5064 76.2528 14.5064C77.0471 14.5064 77.3347 15.0679 77.4306 15.7527C77.5127 16.3416 77.458 17.0264 77.5127 18.9027ZM77.4443 12.2056C77.4443 12.7945 76.9649 13.3149 76.3623 13.3149C75.7597 13.3149 75.2804 12.7808 75.2804 12.1919C75.2804 11.6304 75.7597 11.1373 76.3349 11.1373C76.9512 11.1373 77.4443 11.5756 77.4443 12.2056Z" fill="#E67C4F"/>
<path d="M81.8426 19.1903C81.7879 20.3407 81.9111 22.7237 80.2129 22.7237C79.1446 22.7237 78.8022 21.7239 78.8022 20.8474C78.8022 18.6424 79.1994 16.3827 79.1994 14.1366C79.1994 13.7806 79.0899 13.4245 79.0899 13.0821C79.0899 11.8358 82.4863 11.288 83.445 11.288C85.9239 11.288 87.6906 13.2053 87.6906 15.6705C87.6906 19.1629 84.3626 18.9711 81.8426 19.1903ZM81.3633 14.0956L81.6783 15.8486C82.3905 15.8897 83.13 15.9581 83.8422 15.9581C84.3626 15.9581 84.5817 15.7116 84.5817 15.2049C84.5817 14.0819 83.6915 13.9312 82.7876 13.9312C82.3083 13.9312 81.8289 13.9997 81.3633 14.0956Z" fill="#E67C4F"/>
<path d="M92.1276 19.1903C92.0728 20.3407 92.1961 22.7237 90.4978 22.7237C89.4296 22.7237 89.0872 21.7239 89.0872 20.8474C89.0872 18.6424 89.4844 16.3827 89.4844 14.1366C89.4844 13.7806 89.3748 13.4245 89.3748 13.0821C89.3748 11.8358 92.7713 11.288 93.73 11.288C96.2088 11.288 97.9756 13.2053 97.9756 15.6705C97.9756 19.1629 94.6476 18.9711 92.1276 19.1903ZM91.6483 14.0956L91.9633 15.8486C92.6754 15.8897 93.415 15.9581 94.1271 15.9581C94.6476 15.9581 94.8667 15.7116 94.8667 15.2049C94.8667 14.0819 93.9765 13.9312 93.0726 13.9312C92.5932 13.9312 92.1139 13.9997 91.6483 14.0956Z" fill="#E67C4F"/>
<path d="M101.988 18.9027C101.988 19.5189 101.7 20.0942 101.002 20.0942C99.8104 20.0942 99.3722 18.1494 99.3722 17.2318C99.3722 16.3416 99.5228 14.5064 100.728 14.5064C101.522 14.5064 101.81 15.0679 101.906 15.7527C101.988 16.3416 101.933 17.0264 101.988 18.9027ZM101.92 12.2056C101.92 12.7945 101.44 13.3149 100.838 13.3149C100.235 13.3149 99.7556 12.7808 99.7556 12.1919C99.7556 11.6304 100.235 11.1373 100.81 11.1373C101.426 11.1373 101.92 11.5756 101.92 12.2056Z" fill="#E67C4F"/>
<path d="M105.537 12.6849C106.14 12.3699 106.427 12.1097 107.153 12.1097C110.372 12.1097 110.084 15.3966 110.084 17.8207C110.084 18.5603 109.892 19.6833 108.934 19.6833C108.112 19.6833 107.633 19.067 107.55 18.0809C107.427 16.6018 107.742 13.9997 107.044 13.9997C106.427 13.9997 105.852 15.2049 105.852 15.739C105.852 16.4375 106.03 17.1496 106.03 17.8481C106.03 18.7246 105.88 19.875 104.729 19.875C103.168 19.875 103.305 17.7385 103.305 16.684C103.305 15.876 103.305 12.9725 103.606 12.3973C103.771 12.0823 104.099 11.8632 104.469 11.8632C105.058 11.8632 105.25 12.2741 105.537 12.6849Z" fill="#E67C4F"/>
<path d="M77.0225 28.9063C76.6938 28.6187 76.3925 28.3996 76.3925 27.9202C76.3925 26.5096 80.1176 26.2631 81.1448 26.2631C83.8017 26.2631 85.9108 27.4683 85.9108 30.3991C85.9108 31.1113 85.678 31.8098 85.2808 32.3987C83.9524 34.3708 81.4872 34.1791 79.3918 34.1791C79.1179 34.9871 79.5424 36.9182 78.2003 36.9182C76.7486 36.9182 76.6664 33.4806 76.6664 32.4397C76.6664 31.2482 76.8033 30.0704 77.0225 28.9063ZM79.337 31.2756C79.83 31.3852 80.3368 31.4126 80.8435 31.4126C81.6241 31.4126 83.0622 31.5085 83.0622 30.3717C83.0622 28.4818 80.4874 28.9063 79.2411 29.0433C79.2685 29.7828 79.2959 30.5361 79.337 31.2756Z" fill="#E67C4F"/>
<path d="M92.9129 33.1108C93.091 32.3028 93.2279 30.7004 94.3373 30.7004C94.7344 30.7004 95.0631 30.9332 95.2275 31.2893C95.6246 32.1932 95.6109 33.2889 96.1314 34.4119C96.2546 34.6858 96.3505 34.9734 96.3505 35.2884C96.3505 36.0553 95.8301 36.7538 95.022 36.7538C94.0907 36.7538 93.762 36.1375 93.3375 35.4664C92.2555 35.7814 91.694 36.384 90.434 36.384C88.4345 36.384 86.9828 34.9049 86.9828 32.9191C86.9828 30.2622 88.9002 28.0709 91.6392 28.0709C92.5568 28.0709 94.4879 28.3037 94.4879 29.5363C94.4879 31.5769 89.8862 29.6322 89.8862 33.2341C89.8862 33.7682 90.0917 34.0558 90.6395 34.0558C91.1462 34.0558 92.4199 33.3573 92.9129 33.1108Z" fill="#E67C4F"/>
<path d="M98.9529 36.8497C98.5147 36.8497 98.1449 36.5484 97.9532 36.1786C97.5012 35.3158 97.2684 31.6454 97.2684 30.5635C97.2684 29.5363 97.3232 26.4411 98.7749 26.4411C100.322 26.4411 100.09 28.9748 100.09 30.043C100.09 31.9193 99.9801 33.8367 99.9116 35.713C99.8842 36.3293 99.6377 36.8497 98.9529 36.8497Z" fill="#E67C4F"/>
<path d="M105.678 30.2348C105.993 30.2211 106.308 30.2074 106.623 30.2074C109.773 30.2074 109.732 32.0426 109.732 34.2339C109.732 36.3977 107.335 36.8086 105.637 36.8086C104.281 36.8086 101.255 36.8634 101.255 34.9186C101.255 34.0284 102.117 33.3436 102.967 33.3436C104.09 33.3436 105.199 33.6176 106.322 33.6176C106.596 33.6176 106.87 33.6039 107.144 33.5628C107.185 33.3436 107.253 33.1245 107.253 32.9054C107.253 32.385 105.514 32.6041 105.089 32.6041C102.843 32.6041 101.309 32.2343 101.309 29.6733C101.309 27.4272 103.487 26.4274 105.459 26.4274C106.527 26.4274 109.266 26.7835 109.266 28.2215C109.266 29.0707 108.636 29.3446 107.883 29.3446C107.171 29.3446 106.473 29.2076 105.76 29.2076C103.062 29.2076 103.295 30.3443 105.678 30.2348Z" fill="#E67C4F"/>
<path d="M68.4176 29.7349C69.1295 30.048 69.8955 30.1573 70.6633 30.2298C70.894 29.5698 70.501 28.1439 71.2219 27.8236C71.7325 27.5967 72.1711 27.9414 72.3826 28.4229C72.614 28.9495 72.6369 29.9824 72.688 30.5891C73.3338 30.7518 74.3798 30.8445 74.6838 31.5367C74.9019 32.0333 74.6599 32.6264 74.1792 32.8399C73.6686 33.0668 72.7194 32.949 72.1564 32.8934C71.6759 34.006 71.0878 34.9147 69.9313 35.4285C68.4294 36.0958 66.5508 35.9054 65.8039 34.2051C65.3148 33.0916 65.4018 32.0639 65.5826 30.9225C64.8015 30.3704 64.1292 29.6979 63.7326 28.7951C62.8866 26.8691 63.6831 24.5551 65.5905 23.7076C67.1675 23.007 69.0768 23.4715 69.8237 25.1718C70.597 26.9323 69.294 28.3384 68.4176 29.7349ZM66.465 28.8041C66.7665 28.3464 67.9836 26.7446 67.7589 26.233C67.5276 25.7064 66.9412 25.6792 66.4906 25.8794C65.6946 26.233 65.4646 27.1804 65.8083 27.9629C65.9537 28.2939 66.1976 28.5632 66.465 28.8041ZM69.9768 32.549L67.6734 31.8819C67.6019 32.2913 67.6896 32.8997 67.8615 33.2909C68.0399 33.6972 68.7687 33.5173 69.0691 33.3838C69.4445 33.217 69.7888 32.9382 69.9768 32.549Z" fill="#D6E499"/>
</svg>
