<svg width="100" height="84" viewBox="0 0 100 84" fill="none" xmlns="http://www.w3.org/2000/svg">
<path d="M17.5106 23.8624C17.5747 23.6551 17.6422 23.4759 17.6884 23.2873C18.1528 21.3246 18.9245 19.4826 19.9056 17.7282C21.7349 14.4552 24.1817 11.7091 27.1029 9.37683C31.218 6.09205 35.8321 3.7448 40.8214 2.11166C45.3794 0.622888 50.0528 -0.131026 54.8595 0.0192948C58.7035 0.136083 62.5034 0.871886 66.1131 2.19837C69.0709 3.28302 71.8847 4.67486 74.607 6.25632C77.5645 7.97529 80.3839 9.91073 83.2003 11.8559C85.8299 13.6729 88.4499 15.5047 91.1036 17.285C92.8142 18.4311 94.5566 19.5224 96.3808 20.483C97.8137 21.2297 99.3445 21.7713 100.928 22.0918C102.235 22.3648 103.543 22.6155 104.883 22.6838C105.414 22.7057 105.929 22.8718 106.373 23.1641C107.259 23.7509 107.493 24.8575 106.865 25.7167C106.506 26.2122 106.098 26.6703 105.647 27.0839C102.717 29.7318 99.8331 32.4323 96.7559 34.9122C96.648 34.9985 96.549 35.0954 96.4027 35.2253C96.6295 35.383 96.8275 35.5282 97.0318 35.6619C100.82 38.1482 103.874 41.3233 106.095 45.2839C106.695 46.3535 107.189 47.4734 107.658 48.6037C108.355 50.2888 108.741 52.0458 108.967 53.8454C109.008 54.1755 109.058 54.5064 109.104 54.8369C109.375 56.7542 109.259 58.6621 108.971 60.5666C108.717 62.2264 108.234 63.8243 107.615 65.3766C106.952 67.0345 106.062 68.5742 105.044 70.0423C103.019 72.9596 100.495 75.3656 97.5391 77.3139C91.7168 81.147 85.3182 83.1199 78.3435 83.2325C76.5533 83.265 74.7933 83.0435 73.0397 82.732C71.589 82.475 70.142 82.2014 68.6945 81.9226C67.7664 81.7439 66.8343 81.5761 65.9193 81.3437C64.977 81.1051 64.0375 80.8367 63.1237 80.5058C60.9467 79.7167 58.8687 78.7182 56.9386 77.4322C54.2447 75.6367 51.737 73.6238 49.6153 71.1565C47.985 69.2534 46.5684 67.1773 45.391 64.9652C45.2728 64.7442 45.158 64.5214 45.037 64.3025C45.0046 64.2565 44.967 64.2145 44.9247 64.1773C44.8066 64.0988 44.7135 64.1833 44.6268 64.2405C41.2672 66.3831 37.5632 67.4609 33.6188 67.7823C30.7885 68.0061 27.9408 67.8403 25.1555 67.2897C20.938 66.4786 16.9074 64.8926 13.2682 62.612C12.0853 61.8803 10.9258 61.121 9.86612 60.2166C7.16146 57.91 4.76826 55.3331 2.9877 52.2278C2.12179 50.7353 1.40009 49.1636 0.832363 47.5342C0.787527 47.4028 0.746096 47.2697 0.713868 47.1344C0.0962318 44.5467 -0.218689 41.938 0.171857 39.2769C0.758978 35.2659 2.57032 31.9083 5.56442 29.1884C8.15453 26.8356 11.2047 25.3484 14.5756 24.498C15.5185 24.2605 16.4762 24.0852 17.5106 23.8624ZM100.648 26.1591C100.41 26.0855 100.23 26.0116 100.045 25.9728C97.6715 25.5088 95.4716 24.603 93.3905 23.3864C90.4132 21.6463 87.5368 19.7502 84.7036 17.7856C81.7571 15.7432 78.8253 13.6783 75.8343 11.6969C72.6073 9.55995 69.2322 7.68553 65.612 6.2765C63.2166 5.34436 60.7588 4.655 58.215 4.29502C54.4363 3.76048 50.6702 3.90129 46.9315 4.63301C41.7702 5.64334 36.9587 7.53724 32.5369 10.4025C30.2113 11.9093 28.099 13.6586 26.301 15.7729C24.2047 18.2399 22.6224 20.9926 21.6557 24.0916C21.4669 24.7025 21.2854 25.3171 21.1274 25.9362C20.8986 26.8331 20.3342 27.3849 19.4555 27.6202C19.1343 27.7053 18.8013 27.744 18.4729 27.8041C17.5437 27.9747 16.6042 28.1022 15.6875 28.3243C13.0551 28.9602 10.643 30.0693 8.57499 31.8458C5.55299 34.4418 4.00836 37.7359 3.98953 41.7281C3.97772 44.2536 4.63466 46.622 5.72557 48.8811C6.79918 51.1063 8.23368 53.0786 9.94993 54.8488C13.4285 58.4385 17.6068 60.9001 22.3302 62.4602C24.1284 63.0518 25.9811 63.4627 27.8609 63.6866C30.612 64.0188 33.3539 63.98 36.0768 63.4178C38.8681 62.8417 41.443 61.7794 43.6998 60.0071C43.9162 59.8321 44.1427 59.6701 44.3782 59.5218C44.6133 59.3736 44.8623 59.2486 45.1216 59.1486C46.0239 58.8209 46.9845 59.1549 47.4035 59.9965C47.5037 60.1955 47.6261 60.3843 47.7094 60.5895C48.0308 61.3923 48.4916 62.1244 48.9269 62.8699C49.6948 64.1942 50.5668 65.4554 51.5345 66.6417C55.6412 71.6702 60.853 75.0822 66.9613 77.1786C68.7809 77.7927 70.6485 78.2537 72.5448 78.5567C74.6295 78.9141 76.7433 79.0741 78.8581 79.0347C81.3056 78.9714 83.7384 78.635 86.1112 78.0317C88.7741 77.3596 91.3076 76.3849 93.6826 75.0158C97.7186 72.6892 101.009 69.6201 103.154 65.4123C104.484 62.831 105.192 59.974 105.22 57.0701C105.268 53.1011 103.993 49.5127 101.97 46.1816C99.9384 42.8357 97.1023 40.277 93.7268 38.3163C93.4431 38.1517 93.1429 38.0147 92.8337 37.8565C92.4649 38.112 92.1232 38.3489 91.7835 38.5863C89.6637 40.072 87.4965 41.4833 85.2303 42.74C80.2872 45.4935 74.9348 47.4374 69.3768 48.4978C63.6411 49.5947 57.8628 49.9984 52.0324 49.6007C50.3106 49.4835 48.5908 49.3163 46.9064 48.9537C43.9623 48.3218 41.159 47.1554 38.6357 45.5122C37.6551 44.8742 36.7735 44.0957 36.0191 43.2016C35.0912 42.1244 34.3141 40.926 33.7091 39.6393C31.7551 35.4116 31.9188 31.2776 34.364 27.2908C35.559 25.3418 37.1947 23.8004 39.0928 22.5345C41.1022 21.1941 43.2895 20.2455 45.6088 19.5997C50.0551 18.3641 54.553 18.2537 59.0774 19.048C61.4372 19.4594 63.7384 20.1556 65.9306 21.1212C68.106 22.0786 70.1317 23.2788 71.9642 24.7952C72.2686 25.0377 72.5485 25.3095 72.7998 25.6068C73.0956 25.9732 73.2502 26.4334 73.2357 26.904C73.2212 27.3746 73.0385 27.8245 72.7208 28.1719C72.403 28.5194 71.9713 28.7415 71.5038 28.7979C71.0364 28.8543 70.5642 28.7413 70.1729 28.4794C69.9666 28.3375 69.7702 28.1816 69.5852 28.0129C67.8182 26.4897 65.8179 25.3479 63.6651 24.4851C61.8312 23.7449 59.9199 23.2128 57.9673 22.8987C54.7544 22.3881 51.5439 22.3924 48.3466 23.0359C46.0684 23.4957 43.8966 24.2604 41.8981 25.4689C40.432 26.3557 39.1335 27.4374 38.1272 28.8359C36.2644 31.4249 35.8654 34.2216 37.0006 37.2128C37.5188 38.5835 38.3123 39.7872 39.2869 40.8725C39.9754 41.6393 40.6941 42.3756 41.5926 42.9055C42.3596 43.3569 43.1664 43.7369 44.0029 44.0408C45.7638 44.6856 47.5994 45.0103 49.4375 45.3087C51.1125 45.5795 52.8071 45.6833 54.5033 45.7357C59.7618 45.8961 65.0198 45.4031 70.1569 44.2681C75.893 42.999 81.2039 40.7013 86.157 37.5546C91.1972 34.3521 95.8716 30.6835 100.231 26.6069C100.367 26.4824 100.485 26.3374 100.648 26.1591Z" fill="#2B4610"/>
</svg>
