<svg width="247" height="169" viewBox="0 0 247 169" fill="none" xmlns="http://www.w3.org/2000/svg">
<path d="M27.2012 78.0925C27.2012 77.6098 27.2269 77.1845 27.2012 76.7532C26.8985 72.2766 27.3283 67.8544 28.2606 63.4807C29.9979 55.322 33.394 47.8776 38.0704 41.0008C44.6582 31.3151 52.9228 23.2941 62.4542 16.5443C71.1638 10.3848 80.6013 5.71147 90.9166 2.87235C99.1634 0.59464 107.724 -0.338488 116.267 0.108888C123.267 0.470589 130.162 1.57991 136.987 3.15233C144.403 4.86246 151.667 7.12347 158.932 9.40718C165.715 11.5411 172.487 13.7128 179.297 15.7528C183.686 17.0649 188.107 18.2393 192.615 19.0823C196.151 19.7278 199.761 19.873 203.337 19.5136C206.295 19.2351 209.24 18.9083 212.133 18.1727C213.276 17.8705 214.479 17.8852 215.614 18.2151C217.884 18.8795 219.107 21.0785 218.338 23.3168C217.901 24.6059 217.335 25.8477 216.648 27.0231C212.161 34.5764 207.805 42.2115 202.894 49.5045C202.722 49.7588 202.575 50.0297 202.349 50.402C202.935 50.5881 203.451 50.7667 203.973 50.9165C213.659 53.7118 222.237 58.4532 229.56 65.4118C231.537 67.2914 233.324 69.3466 235.063 71.4412C237.651 74.5648 239.626 78.0456 241.29 81.7216C241.593 82.3966 241.917 83.067 242.233 83.739C244.069 87.636 245.075 91.7675 245.714 96.005C246.266 99.6992 246.289 103.413 245.992 107.119C245.675 111.078 244.794 114.936 243.594 118.726C241.209 126.256 237.425 133.029 232.422 139.113C222.566 151.085 210.262 159.483 195.512 164.306C191.728 165.552 187.842 166.237 183.91 166.727C180.658 167.135 177.402 167.504 174.143 167.862C172.053 168.092 169.961 168.348 167.864 168.456C165.704 168.568 163.531 168.615 161.371 168.512C156.226 168.265 151.153 167.508 146.205 166.043C139.3 163.997 132.647 161.367 126.516 157.517C121.8 154.543 117.425 151.061 113.469 147.134C113.073 146.742 112.682 146.344 112.281 145.958C112.182 145.881 112.074 145.817 111.96 145.765C111.658 145.676 111.515 145.917 111.369 146.095C105.636 152.857 98.4714 157.582 90.2991 160.857C84.4304 163.192 78.2689 164.711 71.9871 165.371C62.4899 166.419 52.8809 165.696 43.6472 163.241C40.6522 162.463 37.689 161.611 34.8423 160.385C27.578 157.26 20.798 153.355 14.973 147.925C12.1518 145.322 9.58505 142.456 7.30763 139.365C7.12602 139.116 6.95048 138.86 6.79308 138.593C3.77992 133.499 1.39633 128.162 0.477695 122.249C-0.910086 113.338 0.733458 105.011 5.30996 97.2627C9.269 90.5598 14.7747 85.3946 21.3807 81.372C23.2285 80.2476 25.149 79.2457 27.2012 78.0925ZM205.414 28.3428C204.86 28.3428 204.43 28.3034 204.011 28.3428C198.661 28.9163 193.39 28.4366 188.167 27.2183C180.696 25.4764 173.336 23.3365 166.023 21.0225C158.418 18.6177 150.83 16.1554 143.171 13.9095C134.908 11.4881 126.502 9.72196 117.882 9.10601C112.178 8.69891 106.501 8.84873 100.858 9.75525C92.4754 11.1022 84.5633 13.8762 77.0978 17.8882C66.7916 23.4272 57.8096 30.6144 50.2941 39.61C46.3411 44.3408 43.001 49.447 40.569 55.1222C37.7344 61.7433 36.1802 68.6338 36.162 75.8557C36.162 77.2783 36.1801 78.7039 36.2513 80.1235C36.3542 82.1802 35.5173 83.7239 33.8041 84.8014C33.1776 85.1934 32.495 85.4945 31.8367 85.8381C29.9737 86.8112 28.0608 87.6995 26.2583 88.774C21.081 91.8553 16.6831 95.7977 13.455 100.933C8.7378 108.436 7.61939 116.452 10.2028 124.95C11.8372 130.326 14.7898 134.928 18.593 139.013C22.3371 143.037 26.6821 146.286 31.4932 148.921C41.2455 154.265 51.7439 156.751 62.8083 156.963C67.0191 157.039 71.227 156.695 75.3695 155.935C81.4352 154.834 87.2375 152.949 92.6554 149.965C98.2096 146.907 102.984 142.957 106.617 137.707C106.961 137.193 107.336 136.699 107.739 136.23C108.142 135.76 108.589 135.331 109.074 134.948C110.777 133.658 113.038 133.737 114.482 135.25C114.825 135.608 115.21 135.928 115.521 136.31C116.732 137.805 118.192 139.058 119.607 140.357C122.11 142.667 124.792 144.774 127.628 146.66C139.661 154.649 152.981 158.476 167.341 158.918C171.612 159.028 175.885 158.78 180.114 158.178C184.78 157.568 189.378 156.519 193.847 155.046C199.007 153.303 203.957 150.989 208.604 148.147C213.822 144.969 218.567 141.233 222.715 136.762C229.764 129.165 234.74 120.48 236.535 110.127C237.667 103.766 237.293 97.2285 235.444 91.0381C232.938 82.5707 227.87 75.7816 221.382 70.0307C214.865 64.2541 207.156 60.6794 198.693 58.7302C197.982 58.5667 197.254 58.4729 196.492 58.3397C195.876 59.1252 195.306 59.8531 194.74 60.5811C191.211 65.1318 187.532 69.5555 183.541 73.7158C174.844 82.8165 164.745 90.4652 153.629 96.3713C142.159 102.472 130.142 107.127 117.489 110.113C113.752 110.995 109.987 111.77 106.169 112.106C99.4957 112.698 92.771 112.061 86.328 110.226C83.8246 109.515 81.4393 108.439 79.2483 107.035C76.5682 105.355 74.1289 103.318 71.9976 100.981C65.0663 93.2794 62.6978 84.3852 65.2751 74.3045C66.5343 69.3769 68.9981 65.0259 72.2004 61.088C75.5904 56.9186 79.6161 53.4651 84.1214 50.5684C92.7599 45.0203 102.247 41.8301 112.386 40.5452C117.672 39.8691 123.02 39.8366 128.314 40.4484C133.567 41.0537 138.661 42.2735 143.552 44.2924C144.359 44.6077 145.132 45.0016 145.862 45.4683C146.731 46.0526 147.362 46.9292 147.641 47.939C147.919 48.9488 147.827 50.025 147.379 50.9723C146.932 51.9197 146.161 52.6754 145.204 53.1025C144.248 53.5295 143.17 53.5997 142.166 53.3001C141.634 53.134 141.115 52.9317 140.61 52.6948C135.854 50.6184 130.852 49.506 125.709 49.0868C121.325 48.7188 116.913 48.8437 112.557 49.4591C105.392 50.4852 98.5713 52.604 92.1984 56.0727C87.6582 58.5471 83.5448 61.5996 80.0912 65.4814C77.5578 68.3296 75.5087 71.482 74.2889 75.1157C72.0309 81.8427 73.0207 88.0491 77.3989 93.6608C79.4012 96.2336 81.8786 98.2706 84.6632 99.9368C86.6306 101.114 88.6419 102.207 90.8999 102.743C92.8267 103.198 94.7913 103.476 96.7689 103.572C100.935 103.785 105.05 103.269 109.153 102.696C112.891 102.171 116.561 101.278 120.201 100.274C131.483 97.1598 142.335 92.6568 152.507 86.8687C163.865 80.402 173.643 72.0284 182.103 62.0854C190.711 51.9668 198.236 41.0976 204.822 29.5686C205.029 29.2145 205.185 28.8286 205.414 28.3428Z" fill="#482C1C"/>
</svg>
