<svg width="56" height="44" viewBox="0 0 56 44" fill="none" xmlns="http://www.w3.org/2000/svg">
<mask id="path-1-inside-1_88_28012" fill="white">
<path d="M9.29618 11.5034C9.33294 11.3987 9.37089 11.3085 9.39815 11.213C9.67336 10.2195 10.1032 9.29356 10.6383 8.41637C11.6361 6.77994 12.9391 5.42465 14.4765 4.28987C16.642 2.69168 19.0444 1.58206 21.6245 0.844464C23.9816 0.172259 26.3834 -0.122346 28.8357 0.0475181C30.797 0.181609 32.7237 0.631041 34.5419 1.37851C36.0318 1.98983 37.4421 2.75526 38.802 3.61579C40.2794 4.55112 41.6821 5.59434 43.083 6.64248C44.391 7.6215 45.6939 8.60792 47.0149 9.56868C47.8665 10.1873 48.7354 10.7784 49.6486 11.3044C50.3661 11.7136 51.1375 12.0199 51.9402 12.2143C52.6025 12.379 53.2659 12.5324 53.9492 12.5933C54.2199 12.6147 54.4796 12.7095 54.7005 12.8674C55.1421 13.1843 55.2397 13.7541 54.9027 14.1808C54.7097 14.427 54.4924 14.6531 54.254 14.8556C52.7062 16.1514 51.1807 17.475 49.5608 18.6822C49.504 18.7242 49.4516 18.7717 49.3743 18.8352C49.4871 18.9202 49.5854 18.9982 49.6872 19.0704C51.5741 20.4138 53.0727 22.0948 54.1305 24.1609C54.4159 24.7188 54.6469 25.3005 54.8644 25.8869C55.1876 26.7611 55.3507 27.6661 55.4318 28.5897C55.446 28.7591 55.4652 28.9291 55.4826 29.0988C55.5838 30.0834 55.4875 31.0557 55.3033 32.023C55.1418 32.8659 54.864 33.6727 54.5175 34.4536C54.1472 35.2877 53.6625 36.0569 53.1138 36.7871C52.0234 38.2381 50.6876 39.4182 49.1397 40.3562C46.0915 42.2014 42.7849 43.0852 39.22 43.0077C38.305 42.9896 37.4102 42.8423 36.5205 42.6493C35.7845 42.4899 35.0507 42.3222 34.3167 42.1517C33.8461 42.0425 33.3732 41.9387 32.9103 41.8023C32.4336 41.6621 31.9589 41.5069 31.4985 41.3201C30.4018 40.8749 29.3597 40.3246 28.3987 39.6304C27.0574 38.6611 25.8154 37.5843 24.7795 36.2829C23.9836 35.2793 23.3002 34.1913 22.7416 33.0386C22.6855 32.9234 22.6311 32.8074 22.5736 32.6932C22.558 32.6691 22.5395 32.6469 22.5187 32.6271C22.4598 32.5847 22.4107 32.6261 22.3653 32.6536C20.6077 33.683 18.6948 34.1618 16.6738 34.2496C15.2237 34.3091 13.7723 34.1693 12.3603 33.8341C10.2217 33.3381 8.19355 32.4499 6.37877 31.2145C5.78871 30.8179 5.21119 30.4076 4.68739 29.9251C3.35051 28.6945 2.17797 27.3319 1.32858 25.7112C0.915182 24.9321 0.576967 24.1153 0.318526 23.272C0.298167 23.204 0.279583 23.1352 0.26574 23.0655C0.000359563 21.7317 -0.109987 20.3931 0.141037 19.0413C0.518608 17.0039 1.50886 15.3239 3.09092 13.9925C4.45951 12.8409 6.04633 12.1403 7.78468 11.7712C8.27089 11.6681 8.7635 11.5971 9.29618 11.5034ZM51.7182 14.2864C51.5981 14.2442 51.5079 14.203 51.414 14.1796C50.2106 13.8966 49.1044 13.3913 48.0649 12.7296C46.5778 11.7831 45.1452 10.7589 43.7361 9.70046C42.2706 8.60015 40.813 7.48863 39.3236 6.41862C37.7166 5.26457 36.0288 4.24175 34.207 3.45192C33.0014 2.92939 31.7594 2.52968 30.4669 2.29654C28.5471 1.95032 26.6207 1.94932 24.6968 2.25069C22.0408 2.66682 19.5464 3.54105 17.2323 4.919C16.0151 5.64364 14.9023 6.4963 13.943 7.54146C12.8244 8.76102 11.9628 10.1365 11.4091 11.7007C11.3008 12.0091 11.1962 12.3195 11.1035 12.6327C10.9692 13.0864 10.6703 13.3573 10.2168 13.4605C10.0512 13.4978 9.88028 13.5111 9.7114 13.5354C9.23344 13.6046 8.75111 13.6515 8.27855 13.7472C6.92158 14.021 5.66802 14.5409 4.57726 15.4083C2.98335 16.6758 2.13057 18.3285 2.04364 20.3674C1.9887 21.6572 2.27841 22.8797 2.7919 24.0547C3.29721 25.2122 3.99176 26.2474 4.83414 27.1849C6.54147 29.0858 8.62809 30.4241 11.0106 31.3125C11.9177 31.6495 12.8561 31.8952 13.8119 32.046C15.2108 32.269 16.6121 32.3023 18.0139 32.0678C19.4508 31.8276 20.7866 31.3348 21.9737 30.4732C22.0877 30.3881 22.2065 30.3097 22.3296 30.2385C22.4526 30.1674 22.5822 30.1083 22.7166 30.0623C23.1839 29.9123 23.668 30.1015 23.8658 30.5396C23.9131 30.6431 23.972 30.742 24.0105 30.8484C24.1592 31.2647 24.3804 31.6475 24.5883 32.0368C24.9549 32.7281 25.3759 33.3892 25.8472 34.0139C27.8476 36.662 30.4437 38.5058 33.5232 39.6949C34.4407 40.0438 35.3858 40.3155 36.3486 40.507C37.4065 40.7299 38.4832 40.8526 39.5641 40.8734C40.8156 40.8884 42.0647 40.7637 43.2885 40.5015C44.6617 40.2098 45.9747 39.761 47.2144 39.1076C49.321 37.9973 51.061 36.4933 52.2383 34.3855C52.9679 33.0927 53.3846 31.6471 53.4551 30.1643C53.5564 28.1379 52.9746 26.2802 52.0059 24.5395C51.033 22.7911 49.6339 21.4292 47.9476 20.3623C47.8058 20.2727 47.6552 20.197 47.5003 20.1101C47.307 20.2335 47.1279 20.3479 46.9497 20.4626C45.8382 21.1805 44.7038 21.8593 43.5219 22.4574C40.9436 23.7682 38.172 24.6575 35.3124 25.0915C32.3614 25.5407 29.402 25.6351 26.4315 25.319C25.5543 25.2258 24.6791 25.1071 23.8257 24.8892C22.3341 24.5095 20.9247 23.8594 19.6676 22.9712C19.1791 22.6263 18.7439 22.2116 18.3759 21.7403C17.9227 21.172 17.549 20.5448 17.2649 19.8759C16.3486 17.6786 16.5123 15.5701 17.8385 13.5809C18.4867 12.6085 19.3521 11.8529 20.3461 11.243C21.3984 10.5972 22.5341 10.155 23.7313 9.8701C26.0264 9.32503 28.3261 9.35575 30.6217 9.84907C31.8192 10.1049 32.9812 10.5051 34.0822 11.0408C35.1749 11.572 36.1864 12.2242 37.093 13.0343C37.2439 13.164 37.3816 13.3083 37.5042 13.465C37.6482 13.6579 37.7182 13.896 37.7017 14.1361C37.6852 14.3762 37.5832 14.6025 37.4141 14.7738C37.2451 14.9451 37.0203 15.0502 36.7804 15.07C36.5405 15.0897 36.3015 15.0229 36.1067 14.8815C36.0041 14.805 35.9068 14.7216 35.8155 14.6318C34.9424 13.8195 33.9428 13.1976 32.8599 12.7152C31.9374 12.3016 30.9715 11.9928 29.9802 11.7945C28.3489 11.4715 26.7089 11.4115 25.0633 11.6783C23.8906 11.869 22.7665 12.2176 21.7222 12.7962C20.9562 13.2208 20.2719 13.7482 19.7309 14.443C18.7292 15.7295 18.4712 17.1503 18.9931 18.7002C19.2313 19.4104 19.6133 20.0406 20.0901 20.6138C20.427 21.0188 20.7798 21.4089 21.2285 21.6969C21.6116 21.9423 22.0163 22.1521 22.4377 22.3235C23.3247 22.687 24.256 22.8884 25.1892 23.0764C26.0395 23.2472 26.9031 23.333 27.7685 23.3926C30.4515 23.5764 33.1468 23.4264 35.7928 22.9461C38.7474 22.4089 41.5047 21.3381 44.0957 19.8266C46.7322 18.2884 49.191 16.505 51.4966 14.5071C51.5685 14.4461 51.6316 14.3743 51.7182 14.2864Z"/>
</mask>
<path d="M9.29618 11.5034C9.33294 11.3987 9.37089 11.3085 9.39815 11.213C9.67336 10.2195 10.1032 9.29356 10.6383 8.41637C11.6361 6.77994 12.9391 5.42465 14.4765 4.28987C16.642 2.69168 19.0444 1.58206 21.6245 0.844464C23.9816 0.172259 26.3834 -0.122346 28.8357 0.0475181C30.797 0.181609 32.7237 0.631041 34.5419 1.37851C36.0318 1.98983 37.4421 2.75526 38.802 3.61579C40.2794 4.55112 41.6821 5.59434 43.083 6.64248C44.391 7.6215 45.6939 8.60792 47.0149 9.56868C47.8665 10.1873 48.7354 10.7784 49.6486 11.3044C50.3661 11.7136 51.1375 12.0199 51.9402 12.2143C52.6025 12.379 53.2659 12.5324 53.9492 12.5933C54.2199 12.6147 54.4796 12.7095 54.7005 12.8674C55.1421 13.1843 55.2397 13.7541 54.9027 14.1808C54.7097 14.427 54.4924 14.6531 54.254 14.8556C52.7062 16.1514 51.1807 17.475 49.5608 18.6822C49.504 18.7242 49.4516 18.7717 49.3743 18.8352C49.4871 18.9202 49.5854 18.9982 49.6872 19.0704C51.5741 20.4138 53.0727 22.0948 54.1305 24.1609C54.4159 24.7188 54.6469 25.3005 54.8644 25.8869C55.1876 26.7611 55.3507 27.6661 55.4318 28.5897C55.446 28.7591 55.4652 28.9291 55.4826 29.0988C55.5838 30.0834 55.4875 31.0557 55.3033 32.023C55.1418 32.8659 54.864 33.6727 54.5175 34.4536C54.1472 35.2877 53.6625 36.0569 53.1138 36.7871C52.0234 38.2381 50.6876 39.4182 49.1397 40.3562C46.0915 42.2014 42.7849 43.0852 39.22 43.0077C38.305 42.9896 37.4102 42.8423 36.5205 42.6493C35.7845 42.4899 35.0507 42.3222 34.3167 42.1517C33.8461 42.0425 33.3732 41.9387 32.9103 41.8023C32.4336 41.6621 31.9589 41.5069 31.4985 41.3201C30.4018 40.8749 29.3597 40.3246 28.3987 39.6304C27.0574 38.6611 25.8154 37.5843 24.7795 36.2829C23.9836 35.2793 23.3002 34.1913 22.7416 33.0386C22.6855 32.9234 22.6311 32.8074 22.5736 32.6932C22.558 32.6691 22.5395 32.6469 22.5187 32.6271C22.4598 32.5847 22.4107 32.6261 22.3653 32.6536C20.6077 33.683 18.6948 34.1618 16.6738 34.2496C15.2237 34.3091 13.7723 34.1693 12.3603 33.8341C10.2217 33.3381 8.19355 32.4499 6.37877 31.2145C5.78871 30.8179 5.21119 30.4076 4.68739 29.9251C3.35051 28.6945 2.17797 27.3319 1.32858 25.7112C0.915182 24.9321 0.576967 24.1153 0.318526 23.272C0.298167 23.204 0.279583 23.1352 0.26574 23.0655C0.000359563 21.7317 -0.109987 20.3931 0.141037 19.0413C0.518608 17.0039 1.50886 15.3239 3.09092 13.9925C4.45951 12.8409 6.04633 12.1403 7.78468 11.7712C8.27089 11.6681 8.7635 11.5971 9.29618 11.5034ZM51.7182 14.2864C51.5981 14.2442 51.5079 14.203 51.414 14.1796C50.2106 13.8966 49.1044 13.3913 48.0649 12.7296C46.5778 11.7831 45.1452 10.7589 43.7361 9.70046C42.2706 8.60015 40.813 7.48863 39.3236 6.41862C37.7166 5.26457 36.0288 4.24175 34.207 3.45192C33.0014 2.92939 31.7594 2.52968 30.4669 2.29654C28.5471 1.95032 26.6207 1.94932 24.6968 2.25069C22.0408 2.66682 19.5464 3.54105 17.2323 4.919C16.0151 5.64364 14.9023 6.4963 13.943 7.54146C12.8244 8.76102 11.9628 10.1365 11.4091 11.7007C11.3008 12.0091 11.1962 12.3195 11.1035 12.6327C10.9692 13.0864 10.6703 13.3573 10.2168 13.4605C10.0512 13.4978 9.88028 13.5111 9.7114 13.5354C9.23344 13.6046 8.75111 13.6515 8.27855 13.7472C6.92158 14.021 5.66802 14.5409 4.57726 15.4083C2.98335 16.6758 2.13057 18.3285 2.04364 20.3674C1.9887 21.6572 2.27841 22.8797 2.7919 24.0547C3.29721 25.2122 3.99176 26.2474 4.83414 27.1849C6.54147 29.0858 8.62809 30.4241 11.0106 31.3125C11.9177 31.6495 12.8561 31.8952 13.8119 32.046C15.2108 32.269 16.6121 32.3023 18.0139 32.0678C19.4508 31.8276 20.7866 31.3348 21.9737 30.4732C22.0877 30.3881 22.2065 30.3097 22.3296 30.2385C22.4526 30.1674 22.5822 30.1083 22.7166 30.0623C23.1839 29.9123 23.668 30.1015 23.8658 30.5396C23.9131 30.6431 23.972 30.742 24.0105 30.8484C24.1592 31.2647 24.3804 31.6475 24.5883 32.0368C24.9549 32.7281 25.3759 33.3892 25.8472 34.0139C27.8476 36.662 30.4437 38.5058 33.5232 39.6949C34.4407 40.0438 35.3858 40.3155 36.3486 40.507C37.4065 40.7299 38.4832 40.8526 39.5641 40.8734C40.8156 40.8884 42.0647 40.7637 43.2885 40.5015C44.6617 40.2098 45.9747 39.761 47.2144 39.1076C49.321 37.9973 51.061 36.4933 52.2383 34.3855C52.9679 33.0927 53.3846 31.6471 53.4551 30.1643C53.5564 28.1379 52.9746 26.2802 52.0059 24.5395C51.033 22.7911 49.6339 21.4292 47.9476 20.3623C47.8058 20.2727 47.6552 20.197 47.5003 20.1101C47.307 20.2335 47.1279 20.3479 46.9497 20.4626C45.8382 21.1805 44.7038 21.8593 43.5219 22.4574C40.9436 23.7682 38.172 24.6575 35.3124 25.0915C32.3614 25.5407 29.402 25.6351 26.4315 25.319C25.5543 25.2258 24.6791 25.1071 23.8257 24.8892C22.3341 24.5095 20.9247 23.8594 19.6676 22.9712C19.1791 22.6263 18.7439 22.2116 18.3759 21.7403C17.9227 21.172 17.549 20.5448 17.2649 19.8759C16.3486 17.6786 16.5123 15.5701 17.8385 13.5809C18.4867 12.6085 19.3521 11.8529 20.3461 11.243C21.3984 10.5972 22.5341 10.155 23.7313 9.8701C26.0264 9.32503 28.3261 9.35575 30.6217 9.84907C31.8192 10.1049 32.9812 10.5051 34.0822 11.0408C35.1749 11.572 36.1864 12.2242 37.093 13.0343C37.2439 13.164 37.3816 13.3083 37.5042 13.465C37.6482 13.6579 37.7182 13.896 37.7017 14.1361C37.6852 14.3762 37.5832 14.6025 37.4141 14.7738C37.2451 14.9451 37.0203 15.0502 36.7804 15.07C36.5405 15.0897 36.3015 15.0229 36.1067 14.8815C36.0041 14.805 35.9068 14.7216 35.8155 14.6318C34.9424 13.8195 33.9428 13.1976 32.8599 12.7152C31.9374 12.3016 30.9715 11.9928 29.9802 11.7945C28.3489 11.4715 26.7089 11.4115 25.0633 11.6783C23.8906 11.869 22.7665 12.2176 21.7222 12.7962C20.9562 13.2208 20.2719 13.7482 19.7309 14.443C18.7292 15.7295 18.4712 17.1503 18.9931 18.7002C19.2313 19.4104 19.6133 20.0406 20.0901 20.6138C20.427 21.0188 20.7798 21.4089 21.2285 21.6969C21.6116 21.9423 22.0163 22.1521 22.4377 22.3235C23.3247 22.687 24.256 22.8884 25.1892 23.0764C26.0395 23.2472 26.9031 23.333 27.7685 23.3926C30.4515 23.5764 33.1468 23.4264 35.7928 22.9461C38.7474 22.4089 41.5047 21.3381 44.0957 19.8266C46.7322 18.2884 49.191 16.505 51.4966 14.5071C51.5685 14.4461 51.6316 14.3743 51.7182 14.2864Z" fill="#482C1C" stroke="#482C1C" stroke-width="3.77056" mask="url(#path-1-inside-1_88_28012)"/>
</svg>
