<svg width="35" height="35" viewBox="0 0 35 35" fill="none" xmlns="http://www.w3.org/2000/svg">
<path fill-rule="evenodd" clip-rule="evenodd" d="M21.0525 29.5342C20.3949 31.0671 18.8934 32.1385 17.1462 32.1387C15.3988 32.1387 13.8966 31.0673 13.239 29.5342H21.0525ZM17.029 1.12109C18.5981 1.12121 19.8698 2.3928 19.8699 3.96191C19.8699 3.96647 19.8689 3.97104 19.8689 3.97559C20.3193 4.08422 20.7808 4.21987 21.2449 4.3877C23.2576 5.1156 25.3869 6.46685 26.8523 8.83398C28.6452 11.7305 28.962 15.5433 29.1687 18.7314C29.2761 20.3877 29.3507 21.8771 29.5378 23.1719C29.7278 24.486 30.0094 25.3863 30.4021 25.9385C30.6844 26.3355 30.7211 26.857 30.4978 27.29C30.2743 27.7231 29.8278 27.9951 29.3406 27.9951H4.71653C4.2293 27.9951 3.78278 27.723 3.55931 27.29C3.33603 26.857 3.37266 26.3355 3.65501 25.9385C4.04764 25.3863 4.32935 24.486 4.51927 23.1719C4.70637 21.8771 4.78102 20.3877 4.88841 18.7314C5.09514 15.5433 5.41183 11.7305 7.20481 8.83398C8.67015 6.46688 10.7995 5.11559 12.8122 4.3877C13.276 4.22 13.7371 4.08418 14.1872 3.97559C14.1872 3.97104 14.1872 3.96646 14.1872 3.96191C14.1873 2.39273 15.4598 1.12109 17.029 1.12109ZM15.5105 6.36035C14.9385 6.45827 14.3224 6.61112 13.698 6.83691C12.0963 7.41614 10.5047 8.45062 9.41868 10.2051C8.02258 12.4607 7.70071 15.6043 7.48704 18.8994C7.38425 20.4846 7.30347 22.119 7.09739 23.5449C7.00727 24.1684 6.88471 24.7932 6.7136 25.3906H27.3435C27.1724 24.7932 27.0498 24.1684 26.9597 23.5449C26.7536 22.119 26.6728 20.4846 26.57 18.8994C26.3564 15.6043 26.0345 12.4607 24.6384 10.2051C23.5523 8.45059 21.9608 7.41615 20.3591 6.83691C19.7344 6.611 19.1179 6.45926 18.5456 6.36133C18.1065 6.63954 17.5874 6.80367 17.029 6.80371C16.47 6.80371 15.95 6.6392 15.5105 6.36035Z" fill="#0B1014"/>
</svg>
