<svg width="131" height="131" viewBox="0 0 131 131" fill="none" xmlns="http://www.w3.org/2000/svg">
<rect x="1.41103" y="1.41091" width="127.922" height="127.922" rx="17.4012" fill="#FFF1A1" stroke="#482C1C" stroke-width="2.82182"/>
<path d="M74.5175 25.9589C74.693 25.8647 74.855 25.7799 75.0146 25.6917C76.5343 24.8579 78.1524 24.3106 79.8739 24.1054C82.0552 23.8486 84.1818 24.1098 86.2259 24.9233C90.0482 26.4442 92.654 29.193 94.2582 32.9258C94.8945 34.406 95.2524 35.9596 95.4016 37.5662C95.671 40.4741 95.1446 43.2393 93.9689 45.8978C93.0458 47.9853 91.7732 49.8482 90.3166 51.5956C87.9584 54.4252 85.1373 56.715 82.0149 58.6448C80.4162 59.6323 78.7966 60.5856 77.1865 61.5547C75.9387 62.3062 74.7178 63.0974 73.5496 63.9674C73.3741 64.0982 73.2071 64.24 73.0416 64.3724C73.1355 64.5568 73.2986 64.5578 73.4313 64.6064C74.5936 65.0317 75.718 65.5348 76.7843 66.1644C80.0921 68.12 82.5672 70.8083 84.0222 74.384C84.9667 76.7059 85.3257 79.1265 85.1721 81.6215C85.1247 82.5032 85.0034 83.3794 84.8092 84.2409C84.7928 84.3113 84.7873 84.3842 84.7724 84.4858C84.9116 84.6182 85.0547 84.7584 85.2029 84.8928C86.3003 85.8793 87.2528 87.0151 88.0324 88.2667C88.9824 89.8069 89.6038 91.4656 89.833 93.2621C90.0865 95.2539 89.8205 97.1857 89.1221 99.062C88.4599 100.842 87.4603 102.42 86.2215 103.852C84.8007 105.493 83.1453 106.864 81.3209 108.034C78.7916 109.657 76.064 110.842 73.1887 111.706C69.0823 112.929 64.8027 113.473 60.5199 113.316C57.2628 113.188 54.0689 112.686 50.957 111.692C48.513 110.913 46.1893 109.8 44.0521 108.385C43.038 107.713 42.0264 107.039 41.1192 106.223C40.0345 105.247 39.0358 104.191 38.1982 102.995C37.2402 101.626 36.5617 100.125 36.0725 98.5331C35.418 96.4189 35.1613 94.2023 35.3154 91.995C35.4645 89.7999 35.8916 87.6609 36.7819 85.6314C36.8778 85.4123 36.9628 85.1887 37.0628 84.9716C37.4798 84.0689 37.543 83.129 37.3481 82.1668C37.1915 81.3925 37.018 80.6216 36.848 79.8498C36.4772 78.1782 36.3549 76.4613 36.4851 74.7543C36.6342 72.8026 36.9415 70.8877 37.5181 69.0158C38.1549 66.9506 39.0214 64.9866 40.1965 63.1663C40.8888 62.1008 41.7031 61.1193 42.6229 60.2415C43.0077 59.8712 43.38 59.489 43.7558 59.1093C44.1038 58.7559 44.4617 58.4088 44.7968 58.042C45.9173 56.8156 46.7509 55.4236 47.2485 53.8328C47.678 52.4612 47.9778 51.0613 48.2293 49.6494C48.5231 48.0012 48.6797 46.3365 48.8144 44.6684C48.9735 42.6895 49.1818 40.715 49.5735 38.7659C49.8847 37.2157 50.2695 35.6835 50.7711 34.1824C51.1523 33.0467 51.6659 31.966 52.158 30.8789C52.8281 29.4018 53.7141 28.0319 54.7872 26.814C56.4128 24.967 58.3579 23.5794 60.7028 22.7922C62.4364 22.2026 64.2762 21.9881 66.0994 22.1631C69.177 22.4576 71.85 23.6622 74.1685 25.6828C74.2764 25.7745 74.3937 25.8602 74.5175 25.9589ZM61.3734 110.699C62.8853 110.72 64.3971 110.65 65.9006 110.49C67.9173 110.275 69.9125 109.894 71.8659 109.35C74.4136 108.632 76.8489 107.647 79.1272 106.292C80.9914 105.182 82.6925 103.872 84.1281 102.239C85.3212 100.883 86.2657 99.3832 86.8125 97.6527C87.504 95.466 87.4339 93.3077 86.5595 91.1805C85.8601 89.4797 84.7604 88.0669 83.4118 86.836C83.0718 86.5252 82.7486 86.201 82.4315 85.8669C82.0214 85.4351 81.914 84.9622 82.0621 84.3976C82.2751 83.5787 82.4196 82.7437 82.4941 81.9011C82.6711 79.9346 82.4852 78.0042 81.8524 76.1324C80.8512 73.1734 79.0139 70.8361 76.4408 69.0738C73.6138 67.137 70.4457 66.2115 67.0504 66.0073C65.4835 65.9131 63.9186 65.9627 62.3622 66.2095C62.1616 66.2386 61.9597 66.2573 61.7572 66.2655C60.9877 66.3072 60.1297 65.4823 60.327 64.5548C60.386 64.2472 60.4926 63.9507 60.6432 63.6759C61.0727 62.9244 61.5355 62.1957 62.0783 61.518C63.1382 60.1944 64.2885 58.9527 65.4701 57.7376C66.69 56.484 67.9199 55.2402 69.1244 53.9701C70.65 52.365 72.0295 50.6424 73.2007 48.7591C74.4782 46.7019 75.5048 44.5301 76.1863 42.2027C76.6182 40.7556 76.8451 39.2554 76.8604 37.7457C76.8808 35.901 76.5203 34.0719 75.8015 32.372C74.688 29.7487 72.9263 27.6781 70.4506 26.2434C68.2211 24.9546 65.8166 24.4826 63.2629 24.8663C61.2402 25.1697 59.476 26.0402 57.9399 27.3801C57.3553 27.8897 56.8462 28.4677 56.3377 29.0532C55.5468 29.9668 54.9274 30.9865 54.4233 32.0721C54.0992 32.7716 53.8164 33.4919 53.5519 34.2166C52.3051 37.6292 51.7315 41.1756 51.4561 44.781C51.3845 45.7154 51.3104 46.6508 51.2011 47.5818C50.9905 49.3888 50.6688 51.1813 50.2377 52.949C49.9707 54.0396 49.6411 55.1098 49.1907 56.1404C48.5485 57.6073 47.6189 58.8808 46.5208 60.0368C45.9377 60.6505 45.3372 61.2478 44.7481 61.8566C43.9278 62.7048 43.1548 63.5916 42.4887 64.5687C41.2509 66.381 40.4227 68.3778 39.8446 70.4817C39.3871 72.1313 39.1499 73.8339 39.1392 75.5455C39.1322 76.7813 39.2138 78.0052 39.4613 79.2183C39.6527 80.1542 39.8486 81.0901 40.0017 82.033C40.1836 83.1548 40.1399 84.2697 39.7362 85.3493C39.5945 85.7281 39.4539 86.1078 39.2888 86.4761C38.5213 88.1725 38.1385 89.966 37.9799 91.8061C37.8407 93.4261 37.9223 95.0407 38.2991 96.63C38.6103 97.9402 39.0368 99.2077 39.6875 100.397C40.5579 101.984 41.757 103.296 43.1176 104.476C43.9408 105.191 44.8604 105.77 45.7701 106.365C47.601 107.564 49.5686 108.469 51.6455 109.145C54.8021 110.175 58.0547 110.643 61.3734 110.699ZM64.1026 63.3239C64.3014 63.3958 64.5067 63.3527 64.707 63.3487C65.832 63.3264 66.9565 63.31 68.0764 63.4449C68.5885 63.5068 69.101 63.5683 69.6105 63.6466C69.8094 63.6774 69.9734 63.6645 70.1076 63.5029C70.1663 63.4325 70.2384 63.3735 70.303 63.3076C70.9672 62.643 71.6881 62.0372 72.4575 61.4972C73.8081 60.533 75.2184 59.663 76.6387 58.8059C78.3099 57.7966 79.9932 56.8037 81.6336 55.7458C84.2514 54.0604 86.5729 52.0279 88.5435 49.6038C89.6973 48.1836 90.7148 46.6791 91.4764 45.01C92.6918 42.3455 93.1397 39.5729 92.6198 36.6729C92.1326 33.9465 90.9236 31.5834 88.8969 29.6833C86.4998 27.4371 83.6454 26.414 80.3466 26.7114C79.0268 26.8304 77.7885 27.2369 76.6093 27.8317C76.5174 27.8783 76.3971 27.9091 76.3886 28.0726C76.488 28.2214 76.6029 28.3899 76.7162 28.556C78.2573 30.8244 79.1521 33.3313 79.423 36.0518C79.6258 38.1001 79.4364 40.1271 78.9358 42.1244C78.2458 44.8771 77.0886 47.4286 75.6251 49.8532C74.3639 51.9412 72.8646 53.8507 71.1918 55.6224C69.8143 57.0813 68.3991 58.505 67.0017 59.9456C66.0786 60.8979 65.1858 61.8789 64.3491 62.907C64.2487 63.031 64.0996 63.1321 64.1026 63.3239Z" fill="#482C1C"/>
<path d="M74.4459 91.3694C74.3962 93.1074 74.1785 94.6278 73.569 96.0733C73.1863 96.9805 72.6966 97.8187 71.9584 98.487C70.9801 99.3718 69.8338 99.8606 68.503 99.8805C67.2851 99.8988 66.2839 99.4219 65.4746 98.5296C64.8199 97.8078 64.3884 96.9557 64.0887 96.0406C63.5464 94.393 63.3766 92.646 63.5915 90.9252C63.6825 90.1727 63.8272 89.4381 64.1339 88.7411C64.2677 88.4391 64.431 88.151 64.6216 87.881C64.9894 87.361 65.5019 87.1731 66.1243 87.3392C66.4977 87.4383 66.87 87.5469 67.2339 87.6763C68.3489 88.0729 69.5002 88.1646 70.6669 88.0639C71.0646 88.0292 71.4573 87.8974 71.8485 87.7972C72.026 87.7516 72.1965 87.6713 72.369 87.6118C73.1182 87.358 73.666 87.6118 73.9568 88.3524C74.1601 88.869 74.268 89.4113 74.3316 89.9586C74.3957 90.4875 74.4196 91.0204 74.4459 91.3694Z" fill="#482C1C"/>
<path d="M78.2458 82.4211C78.2369 83.2113 78.0574 83.878 77.6722 84.4818C77.3898 84.925 77.018 85.27 76.5194 85.4698C75.7479 85.7791 75.0395 85.6542 74.3878 85.1644C74.0208 84.8825 73.7368 84.5071 73.5656 84.0778C73.1132 83.0016 73.153 81.9249 73.6153 80.8685C73.8106 80.4284 74.1245 80.0509 74.522 79.7779C75.4133 79.1518 76.5104 79.2326 77.2998 79.9921C77.8551 80.5265 78.1186 81.2001 78.2185 81.9467C78.2424 82.1291 78.2399 82.314 78.2458 82.4211Z" fill="#482C1C"/>
<path d="M56.3914 82.7944C56.4187 81.8436 56.6265 81.0415 57.2315 80.3812C57.5223 80.064 57.8608 79.8201 58.2754 79.6912C59.046 79.4532 59.7295 79.6262 60.3374 80.1314C60.6355 80.3802 60.8712 80.6949 61.0259 81.0504C61.5524 82.2362 61.5047 83.4081 60.8962 84.5488C60.6123 85.0817 60.1918 85.4857 59.6161 85.7097C58.9078 85.9858 58.2382 85.8912 57.6232 85.4619C56.8955 84.9572 56.5659 84.2136 56.4336 83.3679C56.4008 83.1538 56.4008 82.9317 56.3914 82.7944Z" fill="#482C1C"/>
</svg>
