<svg width="131" height="131" viewBox="0 0 131 131" fill="none" xmlns="http://www.w3.org/2000/svg">
<rect x="1.41103" y="1.41091" width="127.922" height="127.922" rx="17.4012" fill="#D6E499" stroke="#482C1C" stroke-width="2.82182"/>
<path d="M32.3991 63.0695C32.3991 62.9035 32.408 62.7573 32.3991 62.6089C32.295 61.0694 32.4429 59.5486 32.7635 58.0444C33.361 55.2386 34.5289 52.6784 36.1371 50.3134C38.4027 46.9824 41.245 44.2239 44.5229 41.9026C47.5182 39.7843 50.7639 38.1771 54.3114 37.2007C57.1475 36.4174 60.0914 36.0965 63.0297 36.2503C65.4369 36.3747 67.8082 36.7562 70.1555 37.297C72.7058 37.8851 75.204 38.6627 77.7023 39.4481C80.035 40.182 82.3641 40.9288 84.7062 41.6304C86.2155 42.0817 87.7358 42.4855 89.2863 42.7754C90.5025 42.9974 91.7438 43.0474 92.9738 42.9238C93.9908 42.828 95.0037 42.7156 95.9988 42.4626C96.3917 42.3587 96.8056 42.3637 97.1959 42.4772C97.9766 42.7057 98.3971 43.4619 98.1327 44.2317C97.9823 44.6751 97.7875 45.1021 97.5513 45.5063C96.0082 48.104 94.5103 50.7298 92.8213 53.2379C92.762 53.3253 92.7115 53.4185 92.634 53.5465C92.8354 53.6106 93.0129 53.672 93.1924 53.7235C96.5234 54.6848 99.4734 56.3154 101.992 58.7085C102.672 59.355 103.286 60.0618 103.884 60.7821C104.774 61.8563 105.454 63.0534 106.026 64.3176C106.13 64.5497 106.242 64.7803 106.35 65.0114C106.982 66.3516 107.328 67.7725 107.547 69.2298C107.737 70.5003 107.745 71.7775 107.643 73.0521C107.534 74.4137 107.231 75.7403 106.818 77.0436C105.998 79.6334 104.697 81.9625 102.976 84.0548C99.5865 88.1724 95.3553 91.0605 90.2825 92.719C88.9813 93.1474 87.6448 93.3832 86.2926 93.5518C85.1741 93.6918 84.0546 93.8188 82.9335 93.9421C82.2147 94.0213 81.4954 94.1092 80.7741 94.1462C80.0313 94.1847 79.284 94.2008 78.5412 94.1654C76.7717 94.0806 75.027 93.8204 73.3256 93.3165C70.9507 92.6129 68.6628 91.7083 66.5543 90.3842C64.9326 89.3616 63.4279 88.1641 62.0674 86.8133C61.931 86.6785 61.7967 86.5416 61.6588 86.4089C61.6248 86.3826 61.5877 86.3604 61.5485 86.3428C61.4444 86.3121 61.3955 86.3948 61.345 86.4563C59.3734 88.7817 56.9095 90.4066 54.099 91.5329C52.0807 92.3361 49.9617 92.8585 47.8014 93.0855C44.5352 93.4457 41.2306 93.1972 38.0551 92.3526C37.0251 92.0851 36.006 91.7921 35.027 91.3705C32.5287 90.2957 30.197 88.9529 28.1938 87.0855C27.2235 86.1902 26.3408 85.2045 25.5576 84.1417C25.4951 84.0559 25.4348 83.9679 25.3806 83.8763C24.3444 82.1244 23.5246 80.2887 23.2087 78.2552C22.7314 75.1907 23.2967 72.3271 24.8706 69.6623C26.2321 67.3572 28.1256 65.5808 30.3974 64.1974C31.0329 63.8107 31.6934 63.4661 32.3991 63.0695ZM93.6879 45.9602C93.4974 45.9602 93.3496 45.9467 93.2054 45.9602C91.3656 46.1575 89.5528 45.9925 87.7567 45.5735C85.1871 44.9744 82.6561 44.2385 80.1412 43.4427C77.5258 42.6157 74.9162 41.7689 72.2821 40.9965C69.4403 40.1637 66.5497 39.5564 63.5851 39.3445C61.6234 39.2045 59.6712 39.256 57.7303 39.5678C54.8475 40.031 52.1264 40.985 49.559 42.3648C46.0146 44.2697 42.9256 46.7414 40.341 49.8351C38.9815 51.4621 37.8328 53.2181 36.9964 55.1699C36.0216 57.4469 35.4871 59.8166 35.4808 62.3003C35.4808 62.7895 35.4871 63.2798 35.5115 63.768C35.5469 64.4753 35.2591 65.0062 34.6699 65.3768C34.4545 65.5116 34.2197 65.6151 33.9933 65.7333C33.3526 66.068 32.6948 66.3735 32.0749 66.743C30.2944 67.8027 28.7819 69.1585 27.6717 70.9244C26.0494 73.5049 25.6648 76.2618 26.5532 79.1843C27.1153 81.033 28.1308 82.6157 29.4387 84.0205C30.7264 85.4044 32.2206 86.5218 33.8752 87.428C37.2291 89.2657 40.8396 90.1209 44.6447 90.1937C46.0928 90.2198 47.54 90.1014 48.9646 89.8403C51.0506 89.4614 53.0461 88.8135 54.9094 87.7871C56.8195 86.7352 58.4616 85.3768 59.7107 83.5713C59.8293 83.3945 59.9583 83.2249 60.0969 83.0633C60.2353 82.9018 60.389 82.7542 60.5559 82.6225C61.1415 82.179 61.919 82.2061 62.4156 82.7266C62.5337 82.8494 62.6659 82.9597 62.7731 83.0909C63.1895 83.6051 63.6918 84.0361 64.1784 84.4826C65.0391 85.2771 65.9614 86.002 66.9369 86.6504C71.0751 89.3979 75.6558 90.7142 80.5945 90.8662C82.0633 90.9038 83.5326 90.8187 84.9872 90.6117C86.5918 90.4018 88.1731 90.041 89.71 89.5343C91.4847 88.935 93.187 88.1393 94.7851 87.162C96.5796 86.069 98.2113 84.784 99.6379 83.2465C102.062 80.6338 103.774 77.6468 104.391 74.0863C104.78 71.8988 104.651 69.6505 104.016 67.5216C103.154 64.6096 101.411 62.2748 99.1794 60.297C96.9382 58.3104 94.287 57.081 91.3765 56.4107C91.1319 56.3545 90.8815 56.3222 90.6197 56.2764C90.4079 56.5465 90.2117 56.7969 90.0171 57.0472C88.8033 58.6123 87.5381 60.1336 86.1656 61.5643C83.1746 64.6941 79.7016 67.3246 75.8785 69.3558C71.9339 71.4538 67.8014 73.0547 63.4497 74.0816C62.1647 74.385 60.8698 74.6515 59.5566 74.7671C57.2618 74.9706 54.9491 74.7515 52.7333 74.1206C51.8724 73.8759 51.052 73.5061 50.2986 73.023C49.3768 72.4453 48.538 71.7449 47.805 70.9411C45.4213 68.2924 44.6067 65.2336 45.4931 61.7668C45.9261 60.0722 46.7734 58.5758 47.8747 57.2216C49.0406 55.7877 50.425 54.6 51.9745 53.6038C54.9453 51.6958 58.2081 50.5986 61.6947 50.1567C63.5126 49.9242 65.3521 49.913 67.1727 50.1234C68.9792 50.3316 70.7311 50.7511 72.4133 51.4454C72.6906 51.5538 72.9566 51.6893 73.2075 51.8498C73.5065 52.0508 73.7235 52.3522 73.8193 52.6995C73.915 53.0468 73.8832 53.4169 73.7294 53.7427C73.5757 54.0685 73.3103 54.3284 72.9813 54.4753C72.6524 54.6221 72.2817 54.6462 71.9365 54.5432C71.7536 54.4861 71.5749 54.4165 71.4015 54.335C69.7656 53.621 68.0455 53.2384 66.2769 53.0942C64.7691 52.9677 63.2518 53.0106 61.7535 53.2223C59.2896 53.5752 56.9439 54.3038 54.7522 55.4967C53.1908 56.3477 51.7762 57.3975 50.5885 58.7325C49.7172 59.712 49.0125 60.7961 48.593 62.0458C47.8165 64.3593 48.1568 66.4937 49.6626 68.4236C50.3511 69.3084 51.2031 70.0089 52.1608 70.582C52.8374 70.9869 53.5291 71.3627 54.3056 71.5469C54.9683 71.7036 55.6439 71.799 56.324 71.8321C57.7569 71.9055 59.172 71.728 60.583 71.5308C61.8686 71.3502 63.1307 71.0431 64.3824 70.698C68.2624 69.6269 71.9944 68.0783 75.4929 66.0877C79.399 63.8638 82.7617 60.984 85.6711 57.5645C88.6316 54.0847 91.2193 50.3467 93.4844 46.3818C93.5557 46.26 93.6093 46.1273 93.6879 45.9602Z" fill="#482C1C"/>
</svg>
