<svg width="72" height="61" viewBox="0 0 72 61" fill="none" xmlns="http://www.w3.org/2000/svg">
<path d="M68.9935 7.00287C69.5452 8.78308 69.4655 10.5577 68.8952 12.3188C68.524 13.466 67.9651 14.5191 67.3108 15.5265C66.3058 17.064 65.0731 18.4384 63.6553 19.6023C62.6735 20.4134 61.6617 21.1865 60.6588 21.9708C59.9154 22.5524 59.1812 23.1451 58.4841 23.7821C58.0463 24.1818 57.633 24.6031 57.2748 25.0777C57.2543 25.105 57.2296 25.1296 57.2123 25.1572C57.1807 25.2115 57.1342 25.2554 57.0782 25.2836C57.0223 25.3119 56.9594 25.3232 56.8972 25.3164C56.6706 25.3069 56.4433 25.3033 56.2161 25.3033C55.3742 25.3033 54.5368 25.3561 53.7083 25.5149C53.643 25.5277 53.5758 25.5305 53.5174 25.5373C53.4585 25.4671 53.5014 25.4195 53.5307 25.3757C53.8468 24.9027 54.1474 24.4175 54.4855 23.9606C55.1694 23.0367 55.8725 22.1271 56.5684 21.2137C57.3706 20.163 58.135 19.0869 58.7824 17.9318C59.8377 16.0489 60.5943 14.056 60.9557 11.9195C61.1937 10.5118 61.1997 9.10349 60.909 7.70261C60.607 6.22147 59.9713 4.8291 59.0507 3.63224C58.9537 3.50589 58.8524 3.38258 58.7508 3.26002C58.6491 3.13745 58.5462 3.01901 58.4225 2.87344C58.5088 2.80671 58.5595 2.76182 58.6155 2.72497C59.6374 2.05703 60.7536 1.6726 61.9766 1.64089C63.3785 1.60477 64.6766 1.96949 65.8483 2.74602C67.4089 3.78086 68.4407 5.21955 68.9935 7.00287Z" fill="#FFC2C2"/>
<path d="M68.7349 40.2856C69.4113 41.1797 69.8305 42.1761 69.9491 43.2911C70.0384 44.1413 69.9338 44.9756 69.6775 45.7895C69.3589 46.8004 68.844 47.7081 68.1978 48.5436C67.4897 49.4595 66.6572 50.2462 65.7407 50.9465C64.4136 51.9603 62.9609 52.7509 61.417 53.3755C60.3841 53.7896 59.3229 54.1285 58.2416 54.3898C57.3692 54.6039 56.4812 54.733 55.7221 54.8506C53.4253 55.1045 51.2658 55.0727 49.121 54.6274C47.8248 54.3584 46.5753 53.9526 45.3933 53.3485C45.1807 53.2401 44.9625 53.1427 44.7498 53.0343C43.7325 52.5196 42.8046 51.8433 42.0019 51.0315C41.1124 50.1295 40.5263 49.0446 40.1038 47.8607C39.7674 46.9173 39.6014 45.9402 39.5703 44.944C39.5346 43.8103 39.6327 42.6883 39.9755 41.5989C40.0407 41.3926 40.0932 41.1824 40.1487 40.9729C40.3459 40.2247 40.308 39.4792 40.0918 38.7441C39.9376 38.2196 39.7681 37.6983 39.5807 37.1849C39.2321 36.2415 39.0542 35.2433 39.0554 34.2373C39.0578 33.2996 39.1275 32.3699 39.3374 31.454C39.5013 30.74 39.7528 30.0561 40.0406 29.3856C40.1849 29.0492 40.3911 28.747 40.6221 28.4639C40.6879 28.3857 40.7619 28.3147 40.8428 28.2523C42.2476 27.1328 43.3942 25.7929 44.2581 24.2129C45.0459 22.7731 45.5117 21.2352 45.6188 19.5933C45.7069 18.2217 45.4794 16.8477 44.9538 15.578C44.9413 15.5462 44.927 15.5151 44.911 15.4849C44.7285 15.1537 44.6942 14.8037 44.7178 14.426C44.7481 13.9378 44.7281 13.4462 44.727 12.9564C44.7241 11.6681 44.7072 10.3797 44.8847 9.09872C45.0664 7.77761 45.4184 6.51225 46.0567 5.33444C46.5289 4.46383 47.1346 3.70267 47.9028 3.07532C48.9007 2.26057 50.0444 1.80477 51.3213 1.68165C53.0843 1.51085 54.6741 1.98955 56.1023 3.01901C57.6662 4.14684 58.6745 5.66653 59.1913 7.52222C59.5709 8.88851 59.5855 10.2706 59.351 11.6585C59.0191 13.6249 58.3142 15.4559 57.3349 17.1843C56.6758 18.3469 55.8892 19.4206 55.0788 20.4776C54.3105 21.4807 53.5202 22.4672 52.8046 23.5102C52.4367 24.0455 52.0713 24.5816 51.7781 25.1637C51.6352 25.4484 51.5036 25.7396 51.3853 26.0354C51.3305 26.185 51.2942 26.3407 51.2771 26.4992C51.1853 27.1611 51.8652 27.6041 52.3272 27.4937C52.5479 27.4415 52.7679 27.3861 52.988 27.3311C53.8699 27.1103 54.7721 26.9812 55.6804 26.946C56.7525 26.9038 57.8136 26.9802 58.8603 27.2176C60.6479 27.6236 62.2413 28.4091 63.5601 29.7085C64.7167 30.8479 65.4789 32.2114 65.8468 33.7989C66.0898 34.8455 66.1501 35.9263 66.0252 36.9933C66.0127 37.1066 65.9943 37.2194 65.9879 37.333C65.9721 37.6114 66.0582 37.8523 66.275 38.0331C66.4919 38.2138 66.7127 38.3978 66.9409 38.565C67.6161 39.0598 68.2277 39.6161 68.7349 40.2856ZM63.371 37.4594C63.529 37.0861 63.5751 36.6927 63.516 36.2165C63.511 36.189 63.5008 36.0867 63.4748 35.9877C63.3577 35.5226 63.1442 35.1132 62.7491 34.8264C62.2931 34.4956 61.806 34.4651 61.3077 34.7248C61.0971 34.8395 60.9205 35.0079 60.7956 35.2132C60.4278 35.7864 60.3879 36.4072 60.5467 37.0509C60.6411 37.4332 60.8202 37.7727 61.1105 38.047C61.7141 38.6172 62.6062 38.5565 63.1155 37.9008C63.2194 37.7654 63.3052 37.617 63.371 37.4594ZM61.8581 42.1488C61.8175 41.934 61.7557 41.5393 61.665 41.1515C61.5863 40.7945 61.456 40.451 61.2783 40.1318C61.1464 39.901 60.9408 39.804 60.6887 39.7845C60.5344 39.7731 60.4013 39.841 60.2679 39.9035C60.1035 39.9805 59.9442 40.0702 59.7762 40.1371C58.9581 40.4621 58.1152 40.4618 57.2629 40.3141C56.995 40.2677 56.7274 40.2176 56.4593 40.169C56.0559 40.0963 55.774 40.2757 55.5833 40.6121C55.4899 40.7807 55.4145 40.9587 55.3584 41.1433C55.1716 41.7388 55.1505 42.3542 55.1838 42.9712C55.2104 43.4955 55.2931 44.0155 55.4304 44.5222C55.5903 45.1081 55.807 45.6704 56.1246 46.1891C56.3822 46.6103 56.6907 46.988 57.093 47.2808C57.6364 47.6771 58.2445 47.8177 58.8998 47.7124C59.7175 47.5804 60.3879 47.1772 60.9091 46.5313C61.2722 46.0805 61.492 45.5579 61.6512 45.0056C61.9046 44.1297 61.9351 43.2334 61.8581 42.1488ZM53.2352 37.6564C53.1952 37.3224 53.089 36.9998 52.9228 36.7076C52.7974 36.49 52.6271 36.3017 52.4233 36.1555C52.178 35.9763 51.8785 35.8877 51.5758 35.9048C51.273 35.9219 50.9856 36.0437 50.7622 36.2494C50.5 36.4877 50.3159 36.8003 50.2341 37.146C50.129 37.5798 50.1388 38.0337 50.2626 38.4627C50.3601 38.8193 50.5325 39.1388 50.8082 39.3923C51.1982 39.7515 51.6505 39.8765 52.1606 39.7175C52.5492 39.5966 52.8175 39.3257 53.0013 38.9674C53.2151 38.55 53.2675 38.1029 53.2352 37.6564Z" fill="#FFC2C2"/>
<path d="M37.9865 30.1111C38.0334 30.1798 37.9806 30.2408 37.9623 30.2996C37.6476 31.3071 37.5005 32.3422 37.4469 33.3934C37.4194 33.9628 37.4245 34.5334 37.4621 35.1024C37.52 36.0089 37.748 36.8781 38.045 37.7324C38.1949 38.1626 38.3421 38.5942 38.4796 39.0284C38.5422 39.2239 38.5896 39.424 38.6216 39.6268C38.6579 39.8634 38.6719 40.1044 38.6153 40.3415C38.5494 40.6182 38.4895 40.897 38.4069 41.1689C38.058 42.3138 37.934 43.4872 37.94 44.6795C37.9444 45.6078 38.0449 46.5251 38.2769 47.4231C38.6576 48.8956 39.2682 50.2608 40.2154 51.4613C40.2782 51.5408 40.3401 51.6215 40.4128 51.7154C40.1599 52.1748 39.8455 52.5972 39.4785 52.9709C38.7326 53.7481 37.8698 54.3743 36.949 54.9222C35.5578 55.7499 34.0782 56.3821 32.5505 56.9032C31.6689 57.2035 30.7754 57.4619 29.8701 57.6784C29.2966 57.8178 28.7166 57.9288 28.1383 58.045C26.9564 58.2828 25.7606 58.4234 24.5606 58.522C23.9849 58.5694 23.4046 58.5794 22.8261 58.5748C21.6569 58.567 20.4896 58.4793 19.3321 58.3123C17.5487 58.0529 15.8151 57.6112 14.1611 56.879C13.1907 56.4495 12.2739 55.9269 11.43 55.2792C10.2681 54.3865 9.31333 53.3141 8.64407 52.0005C8.08882 50.9104 7.76649 49.7159 7.69776 48.4938C7.59675 46.8374 7.89129 45.2478 8.46839 43.7043C8.58477 43.3928 8.5839 43.107 8.416 42.8203C8.13032 42.3313 7.97307 41.7989 7.88477 41.2421C7.73422 40.2863 7.76033 39.3339 7.90303 38.3808C8.16388 36.6264 8.74422 34.9791 9.56348 33.413C9.57428 33.3955 9.58637 33.3789 9.59966 33.3633C9.69207 33.3034 9.78061 33.3421 9.86889 33.3541C11.2298 33.5599 12.6129 33.5676 13.9755 33.377C15.7374 33.1256 17.3965 32.5769 18.921 31.643C20.1089 30.9149 21.122 30.0007 21.903 28.8364C21.9336 28.791 21.9723 28.7504 22.0104 28.7026C22.1481 28.7409 22.2304 28.8398 22.3261 28.9148C23.0062 29.4499 23.7329 29.9224 24.4974 30.3265C25.4462 30.8207 26.4527 31.1938 27.4935 31.437C28.2689 31.6204 29.0464 31.7671 29.8424 31.8205C30.7381 31.8811 31.6377 31.8387 32.5236 31.6941C32.9935 31.6174 33.4573 31.5042 33.9228 31.4023C34.3662 31.3052 34.8102 31.2095 35.2513 31.0983C36.0971 30.8811 36.9195 30.5811 37.7068 30.2026C37.7884 30.1639 37.8725 30.1309 37.9561 30.097C37.9634 30.0943 37.9755 30.1055 37.9865 30.1111ZM33.3559 41.7013C33.9111 41.8708 34.4598 41.4016 34.3812 40.7986C34.3725 40.7707 34.3579 40.7159 34.3397 40.6621C34.2762 40.4698 34.1461 40.3304 33.986 40.2143C33.6123 39.9427 33.1946 39.7692 32.7505 39.6584C31.7338 39.4045 30.7238 39.4462 29.7247 39.7451C29.2864 39.87 28.8779 40.0825 28.5236 40.3699C28.4086 40.4622 28.3062 40.5694 28.2192 40.6887C28.0117 40.9856 28.0359 41.3624 28.2625 41.6423C28.3699 41.7767 28.518 41.8722 28.6843 41.9145C28.8506 41.9567 29.026 41.9433 29.1839 41.8763C29.2876 41.831 29.3844 41.7711 29.4714 41.6984C29.6922 41.5184 29.947 41.3852 30.2206 41.3069C30.8628 41.1169 31.5133 41.0716 32.1724 41.2001C32.498 41.2636 32.807 41.3705 33.0826 41.5653C33.1661 41.6247 33.2583 41.6705 33.3559 41.7013ZM26.0843 46.6914C26.1613 46.5501 26.1923 46.3881 26.173 46.2281C26.1536 46.0681 26.0849 45.9182 25.9764 45.7994C25.7508 45.5472 25.471 45.4693 25.1431 45.5568C24.984 45.5993 24.8577 45.6941 24.7413 45.804C24.565 45.969 24.3587 46.0858 24.1395 46.1822C23.6094 46.4157 23.049 46.4951 22.4778 46.4853C22.0102 46.4775 21.551 46.4033 21.1462 46.1325C21.0791 46.0897 21.0062 46.057 20.9298 46.0353C20.7603 45.9826 20.5782 45.9876 20.412 46.0496C20.2457 46.1115 20.1045 46.2269 20.0104 46.3779C19.9144 46.5279 19.8719 46.7063 19.89 46.8838C19.9081 47.0614 19.9856 47.2276 20.11 47.3552C20.2148 47.4592 20.3328 47.549 20.4608 47.6223C20.8253 47.834 21.2255 47.9763 21.6412 48.0419C22.1784 48.1387 22.7273 48.1503 23.2679 48.0764C23.7883 48.0251 24.2975 47.8933 24.7775 47.6855C25.1564 47.5246 25.5092 47.3191 25.8081 47.0331C25.9165 46.9335 26.0095 46.8183 26.0843 46.6914ZM17.7358 42.4789C18.2884 42.6571 18.8463 42.1954 18.7737 41.5895C18.7486 41.4178 18.6668 41.2594 18.5415 41.1398C18.4509 41.053 18.353 40.9742 18.2489 40.9044C17.9234 40.6949 17.5657 40.5407 17.1902 40.4481C16.1284 40.1732 15.0758 40.2275 14.035 40.5512C13.6661 40.6669 13.3191 40.8437 13.0083 41.0743C12.852 41.1893 12.7016 41.3119 12.6006 41.4827C12.4273 41.7735 12.4262 42.07 12.6102 42.3538C12.7858 42.6267 13.0473 42.7413 13.3699 42.7092C13.5523 42.6907 13.7236 42.613 13.858 42.4879C14.0819 42.2925 14.3482 42.1522 14.6356 42.0783C15.2896 41.8966 15.9525 41.847 16.6218 41.9916C16.9234 42.0568 17.2103 42.158 17.467 42.3385C17.5494 42.3972 17.6398 42.4437 17.7355 42.4764L17.7358 42.4789Z" fill="#F8FCE1"/>
<path d="M7.95568 32.9366C7.90446 33.0507 7.86317 33.1547 7.81524 33.2541C7.38573 34.1474 7.03011 35.0747 6.75198 36.0267C6.47606 36.9557 6.2928 37.9099 6.20489 38.8755C6.19547 39.0461 6.11926 39.206 5.99288 39.3204C5.58574 39.7085 5.14673 40.0484 4.60915 40.2305C3.99806 40.4378 3.40237 40.4305 2.85325 40.0399C2.60415 39.8579 2.394 39.6276 2.23528 39.3625C2.0342 39.0307 1.88531 38.6698 1.79385 38.2926C1.62742 37.6451 1.59018 36.985 1.6464 36.3229C1.74546 35.0668 2.14836 33.8543 2.82013 32.7906C3.1689 32.2384 3.58379 31.7419 4.10548 31.3418C4.1684 31.2937 4.23426 31.2492 4.30095 31.2057C4.32832 31.1945 4.3569 31.1865 4.38612 31.182C4.64976 31.3515 4.92072 31.5375 5.20309 31.7045C5.4966 31.8777 5.79624 32.0419 6.10181 32.1925C6.39711 32.3381 6.70065 32.4684 7.00655 32.5911C7.31245 32.7139 7.62397 32.8172 7.95568 32.9366Z" fill="#D6E499"/>
<path d="M43.2382 15.7768C43.6745 16.6831 43.9253 17.668 43.9758 18.6731C44.0538 20.2745 43.6842 21.772 42.9576 23.1884C42.1684 24.7232 41.0716 25.9952 39.7214 27.06C38.8929 27.7178 37.9891 28.274 37.0292 28.7167C35.4186 29.4387 33.6907 29.8613 31.9293 29.9641C28.7241 30.14 25.7828 29.3707 23.1719 27.4491C22.8886 27.2405 22.6234 27.0087 22.3438 26.792C22.2482 26.7119 22.1401 26.6479 22.024 26.6028C21.7674 26.5175 21.5263 26.5804 21.3241 26.757C21.2239 26.8492 21.135 26.9531 21.0592 27.0664C20.9834 27.1801 20.9143 27.2983 20.8523 27.4202C20.3168 28.4122 19.5612 29.2054 18.6562 29.8603C17.6225 30.6082 16.4765 31.1155 15.2499 31.4519C14.4714 31.6651 13.6734 31.7986 12.8681 31.8504C10.7079 31.9899 8.63514 31.6414 6.68543 30.6648C5.57331 30.1081 4.60036 29.3699 3.82722 28.3826C3.30025 27.7096 2.91927 26.9622 2.72132 26.1287C2.49968 25.2139 2.53537 24.2554 2.82442 23.3602C3.16567 22.2912 3.7793 21.4018 4.58278 20.6344C5.04556 20.1957 5.55498 19.8095 6.10186 19.4827C6.2286 19.4078 6.3508 19.3255 6.46781 19.236C6.78449 18.9887 6.90019 18.6621 6.82433 18.2665C6.80087 18.1431 6.77211 18.0202 6.75506 17.8964C6.62024 16.9235 6.62838 15.9362 6.7792 14.9659C7.0286 13.3863 7.63652 11.9496 8.50581 10.617C9.6831 8.81025 11.1615 7.29952 12.9205 6.06341C14.262 5.12074 15.7196 4.42044 17.3036 3.99663C17.9957 3.81527 18.7016 3.69157 19.4141 3.62679C21.0523 3.46884 22.6791 3.58697 24.3019 3.81841C25.7747 4.02816 27.2334 4.32645 28.6898 4.61961C30.1817 4.91906 31.6802 5.17734 33.1906 5.36501C34.1385 5.48441 35.0986 5.46276 36.0399 5.30077C36.194 5.2744 36.3474 5.22287 36.5285 5.24597C36.5117 5.31295 36.4914 5.379 36.4677 5.44383C35.4934 7.74812 34.3269 9.9495 32.9319 12.0241C31.6448 13.9418 30.0966 15.6096 28.2509 16.9951C27.1755 17.7972 26.0387 18.5131 24.8513 19.1361C23.6649 19.7639 22.4401 20.3096 21.1627 20.718C20.1537 21.0401 19.1258 21.2778 18.0624 21.3236C17.5367 21.3464 17.0218 21.2846 16.5243 21.0949C15.8806 20.8502 15.2848 20.5268 14.7708 20.0621C14.2568 19.5975 13.8765 19.0338 13.6873 18.3544C13.5352 17.8021 13.5171 17.2214 13.6344 16.661C13.7794 15.9329 14.0938 15.2802 14.5145 14.6771C15.0627 13.8942 15.7471 13.25 16.525 12.7022C17.6723 11.8938 18.9371 11.3444 20.2965 11.0162C21.6475 10.6901 23.0132 10.6117 24.3855 10.861C24.6976 10.9174 25.0031 11.0092 25.3125 11.0821C25.4215 11.1128 25.5329 11.1341 25.6455 11.1458C25.8289 11.1585 26.0109 11.1074 26.161 11.0011C26.3111 10.8948 26.42 10.7397 26.4696 10.5621C26.5191 10.3844 26.5062 10.195 26.4329 10.0257C26.3597 9.85638 26.2306 9.71751 26.0675 9.63245C25.9243 9.56387 25.7751 9.50895 25.6218 9.46842C24.9563 9.27374 24.2713 9.15408 23.5796 9.11166C22.7839 9.0608 21.9897 9.07178 21.2005 9.18673C18.8472 9.5288 16.7168 10.396 14.8719 11.922C14.1124 12.5418 13.4595 13.2827 12.9394 14.1152C12.4043 14.9791 12.0506 15.9086 11.9593 16.9292C11.8213 18.4738 12.2972 19.8101 13.3437 20.9391C13.9879 21.6355 14.7654 22.1424 15.6442 22.4947C16.1983 22.7163 16.7825 22.8031 17.373 22.8485C18.1793 22.9104 18.9865 22.8965 19.7843 22.7664C20.2318 22.6898 20.6738 22.5834 21.1072 22.4479C24.1922 21.5109 26.9967 20.0183 29.5513 18.0518C31.3684 16.6527 32.9018 14.9802 34.1849 13.0781C34.5987 12.4649 34.9816 11.8308 35.3784 11.2074C35.4391 11.1123 35.4996 11.0162 35.5615 10.9141C35.6737 10.915 35.7761 10.9073 35.8754 10.9176C37.4739 11.0794 38.9693 11.5591 40.2977 12.4748C41.5403 13.3299 42.5793 14.3863 43.2382 15.7768Z" fill="#D6E499"/>
<path d="M70.7206 7.14381C71.1721 9.0461 71.0563 10.9234 70.459 12.7775C70.0266 14.1229 69.3748 15.3564 68.6002 16.5322C67.4235 18.3165 65.9689 19.8432 64.3151 21.1813C63.5378 21.8108 62.7421 22.4175 61.9517 23.0305C61.0801 23.7068 60.2147 24.3903 59.4103 25.147C59.2946 25.2561 59.1854 25.3717 59.0746 25.4863C59.0609 25.5006 59.0605 25.5277 59.045 25.5763C59.3298 25.6511 59.594 25.7153 59.8561 25.7884C61.3859 26.2157 62.7829 26.9088 64.0114 27.9249C65.6467 29.2769 66.7531 30.9778 67.3308 33.0274C67.6852 34.2946 67.7836 35.5828 67.6727 36.8902C67.6681 36.9459 67.6654 37.0021 67.661 37.0719C67.7547 37.1417 67.8438 37.2098 67.9362 37.2754C68.8195 37.9134 69.5936 38.6612 70.2205 39.5583C70.8013 40.379 71.2131 41.3078 71.4316 42.2901C71.7765 43.8556 71.5986 45.3713 71.028 46.8541C70.5894 47.993 69.9488 49.0106 69.167 49.941C68.0135 51.3141 66.6368 52.4221 65.1126 53.3497C63.6018 54.2694 61.9942 54.9754 60.3107 55.5125C59.3813 55.8124 58.4336 56.0519 57.4734 56.2294C56.2783 56.4515 55.0686 56.5858 53.8539 56.631C52.7761 56.6691 51.6968 56.6308 50.6242 56.5163C48.4689 56.2843 46.4144 55.7087 44.4795 54.717C43.9126 54.4262 43.3428 54.1405 42.8135 53.7847C42.4629 53.55 42.1327 53.2877 41.7929 53.0409C41.7395 53.0021 41.6827 52.9673 41.627 52.9306C41.5967 52.9536 41.5689 52.9797 41.5439 53.0085C40.8632 54.0113 39.9827 54.8112 39.0116 55.5172C37.9601 56.282 36.8255 56.9015 35.6446 57.4381C34.2368 58.072 32.7811 58.5932 31.2913 58.9966C30.2173 59.291 29.1326 59.5311 28.0366 59.7274C27.1074 59.8941 26.171 59.9936 25.2354 60.1091C24.4215 60.2093 23.6067 60.2165 22.7884 60.2062C21.948 60.1966 21.1097 60.1533 20.2736 60.0707C18.3341 59.8786 16.4365 59.4933 14.6019 58.818C13.0013 58.2288 11.5087 57.4427 10.176 56.3649C8.91124 55.3423 7.88439 54.1233 7.15257 52.662C6.69777 51.7535 6.38019 50.7822 6.21027 49.78C5.92868 48.1358 6.01951 46.508 6.40777 44.8941C6.51415 44.4515 6.64817 44.015 6.78051 43.5794C6.82508 43.43 6.84168 43.2961 6.77685 43.1504C6.5322 42.5951 6.39127 42.0059 6.25591 41.4182C6.24072 41.3718 6.22175 41.3268 6.19918 41.2835C6.09916 41.2999 6.0286 41.3594 5.95438 41.4031C5.37623 41.7381 4.7601 41.9513 4.08862 41.9926C3.13063 42.052 2.30048 41.7445 1.58868 41.1087C1.02408 40.6046 0.651407 39.9708 0.394247 39.263C0.0861927 38.415 -0.0234761 37.5384 0.00401915 36.6407C0.0525074 35.0468 0.485923 33.5638 1.28073 32.187C1.72255 31.4213 2.26876 30.7406 2.95048 30.1746C2.98908 30.1397 3.02584 30.1028 3.06064 30.064C3.05244 30.0367 3.04057 30.0107 3.02535 29.9867C2.52456 29.4786 2.15551 28.8758 1.81436 28.2568C1.29513 27.3262 1.00209 26.2857 0.959117 25.2203C0.905147 23.8883 1.22398 22.6434 1.87144 21.4825C2.44536 20.4536 3.21064 19.5901 4.13499 18.8676C4.44771 18.6232 4.77429 18.396 5.11345 18.1474C5.11561 18.0756 5.11293 18.0036 5.10541 17.9321C4.95158 17.0082 4.93159 16.0669 5.04607 15.1375C5.08351 14.8447 5.13016 14.5508 5.19061 14.2614C5.50121 12.7719 6.08075 11.3901 6.88684 10.1064C8.47027 7.58464 10.526 5.54214 13.0832 4.01949C14.4106 3.22364 15.8549 2.64304 17.3629 2.29907C18.3857 2.06659 19.4223 1.95542 20.4691 1.9249C22.1674 1.87528 23.8477 2.05815 25.5161 2.35312C27.0026 2.6157 28.4826 2.91474 29.9652 3.19906C31.2476 3.4452 32.5358 3.65461 33.8354 3.78337C34.3898 3.835 34.9485 3.8161 35.4981 3.7271C36.1951 3.62573 36.8802 3.45464 37.5432 3.21638C37.6936 3.16468 37.8512 3.13743 38.0101 3.13564C38.5574 3.12155 38.9088 3.55264 38.7778 4.0854C38.7152 4.33983 38.6303 4.58819 38.5242 4.8276C37.8767 6.28484 37.2559 7.75265 36.5254 9.17239C36.5045 9.21963 36.4862 9.268 36.4706 9.31727C36.7891 9.40393 37.1048 9.4271 37.408 9.5051C37.7042 9.58141 38.0039 9.65152 38.2973 9.74113C38.6008 9.83459 38.9024 9.93875 39.1959 10.0568C39.4894 10.1749 39.7816 10.3065 40.0675 10.4489C40.3418 10.5862 40.6106 10.736 40.8716 10.8954C41.1425 11.0622 41.4066 11.2415 41.6625 11.4306C41.9096 11.6126 42.1438 11.8122 42.381 12.0076C42.6182 12.2029 42.8249 12.4527 43.0958 12.6596C43.1258 12.4592 43.1105 12.2891 43.1042 12.1196C43.071 10.8515 43.1422 9.5913 43.3534 8.33848C43.5895 6.94501 44.0163 5.61643 44.7205 4.38546C45.3786 3.23272 46.2244 2.24762 47.3089 1.47644C48.6282 0.547263 50.195 0.0367893 51.807 0.0108997C53.1412 -0.0150113 54.4628 0.277102 55.6634 0.863274C56.0935 1.07152 56.5072 1.31225 56.901 1.5834C56.9755 1.63415 57.0521 1.6814 57.1275 1.73025C57.2567 1.71761 57.3353 1.62907 57.4254 1.56442C58.1736 1.02494 59.0048 0.612207 59.8861 0.342605C61.1304 -0.0388843 62.4501 -0.103381 63.7261 0.154923C65.7814 0.560243 67.4539 1.61296 68.7856 3.22342C69.7378 4.37543 70.3748 5.68989 70.7206 7.14381ZM68.8954 12.3198C69.4656 10.5584 69.5451 8.78233 68.9936 7.0039C68.4421 5.22547 67.409 3.78189 65.8493 2.74839C64.6777 1.97186 63.3795 1.60714 61.9776 1.64326C60.7543 1.67501 59.6384 2.0594 58.6165 2.72733C58.5605 2.76419 58.5098 2.80908 58.4236 2.8758C58.5483 3.02125 58.651 3.1408 58.7518 3.26238C58.8526 3.38396 58.9547 3.50826 59.0518 3.63461C59.9722 4.83126 60.6078 6.22338 60.9099 7.70427C61.1996 9.10527 61.1946 10.5134 60.9567 11.9212C60.5952 14.0577 59.8386 16.0505 58.7833 17.9334C58.1359 19.0885 57.3715 20.1647 56.5693 21.2153C55.8717 22.129 55.1678 23.0383 54.4864 23.9623C54.1484 24.4191 53.8475 24.9026 53.5317 25.3773C53.5009 25.4213 53.4595 25.4687 53.5183 25.539C53.5768 25.5321 53.6438 25.5286 53.7092 25.5166C54.5376 25.3563 55.3752 25.3049 56.217 25.3049C56.4442 25.305 56.6714 25.3072 56.8981 25.318C56.9604 25.3249 57.0233 25.3135 57.0792 25.2853C57.1351 25.257 57.1817 25.2131 57.2133 25.1588C57.2315 25.1304 57.2563 25.1058 57.2758 25.0794C57.634 24.6047 58.0473 24.1834 58.485 23.7838C59.1825 23.1467 59.9163 22.554 60.6598 21.9725C61.6627 21.1882 62.6751 20.415 63.6562 19.604C65.0741 18.4401 66.3068 17.0656 67.3117 15.5281C67.9653 14.5202 68.524 13.466 68.8954 12.3198ZM69.9481 43.2924C69.8305 42.1766 69.4112 41.1791 68.734 40.2869C68.2268 39.6173 67.6151 39.061 66.9396 38.5692C66.71 38.4021 66.4922 38.2193 66.2737 38.0372C66.0553 37.8552 65.9708 37.6156 65.9866 37.3372C65.993 37.2236 66.0114 37.1107 66.0239 36.9975C66.1488 35.9305 66.0885 34.8497 65.8455 33.803C65.475 32.2178 64.7128 30.8543 63.5588 29.7126C62.24 28.4133 60.6466 27.6278 58.859 27.2217C57.8123 26.984 56.7515 26.908 55.6791 26.9501C54.7708 26.9854 53.8686 27.1145 52.9867 27.3353C52.7666 27.3903 52.5466 27.4457 52.3259 27.4979C51.8645 27.6079 51.1845 27.1631 51.2758 26.5034C51.2929 26.3449 51.3292 26.1892 51.384 26.0396C51.5022 25.7438 51.6339 25.4525 51.7768 25.1679C52.0675 24.5861 52.4354 24.0497 52.8033 23.5144C53.5188 22.4714 54.3092 21.4848 55.0775 20.4818C55.8867 19.4238 56.6743 18.35 57.3336 17.1885C58.3129 15.4601 59.0178 13.6291 59.3497 11.6626C59.5835 10.2749 59.5696 8.89269 59.19 7.5264C58.6739 5.67062 57.6649 4.15102 56.101 3.02319C54.6728 1.99373 53.0831 1.5161 51.32 1.68583C50.0421 1.80908 48.8994 2.26475 47.9015 3.0795C47.1333 3.70685 46.5278 4.46654 46.0554 5.33861C45.4169 6.51536 45.0651 7.78179 44.8834 9.1029C44.7066 10.3838 44.7235 11.6722 44.7257 12.9605C44.7268 13.4504 44.7468 13.942 44.7165 14.4301C44.6928 14.8064 44.7299 15.1562 44.9096 15.4891C44.9257 15.5193 44.94 15.5504 44.9525 15.5822C45.4781 16.8519 45.7056 18.2258 45.6175 19.5975C45.5121 21.2392 45.0464 22.7771 44.2568 24.2171C43.3929 25.7968 42.2463 27.137 40.8415 28.2565C40.7606 28.3189 40.6866 28.3899 40.6208 28.4681C40.3898 28.7512 40.1836 29.0534 40.0393 29.3897C39.7514 30.0602 39.5 30.7441 39.3361 31.4582C39.1262 32.3741 39.0565 33.3038 39.0541 34.2415C39.0529 35.2474 39.2308 36.2456 39.5794 37.189C39.7668 37.7025 39.9363 38.2238 40.0905 38.7483C40.3067 39.4833 40.3446 40.2288 40.1474 40.977C40.0919 41.1865 40.0394 41.3968 39.9742 41.6031C39.6314 42.6925 39.5333 43.8145 39.569 44.9482C39.6001 45.9444 39.7646 46.9216 40.1025 47.8649C40.525 49.0487 41.1111 50.1337 42.0006 51.0357C42.8033 51.8475 43.7312 52.5238 44.7485 53.0385C44.9612 53.1469 45.1794 53.2443 45.392 53.3527C46.5759 53.9576 47.8235 54.3625 49.1197 54.6316C51.2645 55.0769 53.424 55.1087 55.7208 54.8547C56.4799 54.7372 57.3665 54.6083 58.2403 54.394C59.3216 54.1327 60.3828 53.7937 61.4157 53.3797C62.9596 52.7547 64.4123 51.9645 65.7394 50.9507C66.6559 50.2504 67.4884 49.4637 68.1965 48.5477C68.8427 47.7123 69.3564 46.8065 69.6762 45.7937C69.9328 44.9758 70.0374 44.1415 69.948 43.2913L69.9481 43.2924ZM43.977 18.674C43.9265 17.669 43.6757 16.6841 43.2394 15.7778C42.5805 14.3873 41.5413 13.3295 40.2986 12.4729C38.9706 11.5572 37.4744 11.0776 35.8762 10.9157C35.776 10.9055 35.6745 10.9131 35.5624 10.9122C35.4987 11.0145 35.4396 11.1105 35.3793 11.2055C34.9825 11.8289 34.5997 12.4644 34.1858 13.0762C32.9012 14.9785 31.3694 16.6516 29.5522 18.0499C26.9983 20.0164 24.1948 21.5088 21.108 22.446C20.6746 22.5815 20.2327 22.6879 19.7852 22.7646C18.9873 22.8942 18.1802 22.9085 17.3738 22.8466C16.7837 22.8012 16.1995 22.7144 15.6451 22.4928C14.7671 22.1419 13.9895 21.6335 13.3446 20.9372C12.2987 19.8067 11.8222 18.4719 11.9601 16.9274C12.0515 15.9071 12.4051 14.9772 12.9403 14.1133C13.4604 13.2808 14.1133 12.5399 14.8728 11.9201C16.7177 10.3941 18.8481 9.52692 21.2013 9.18484C21.9906 9.0699 22.7854 9.05777 23.5805 9.10978C24.2722 9.1522 24.9572 9.27186 25.6226 9.46654C25.776 9.50707 25.9252 9.56199 26.0684 9.63057C26.2305 9.71581 26.3587 9.85429 26.4315 10.0229C26.5043 10.1915 26.5174 10.38 26.4685 10.557C26.4196 10.734 26.3118 10.8887 26.1629 10.9954C26.0141 11.102 25.8332 11.1542 25.6506 11.1431C25.538 11.1314 25.4266 11.1101 25.3175 11.0794C25.0083 11.0075 24.7027 10.9146 24.3905 10.8582C23.017 10.6094 21.6526 10.6877 20.3016 11.0135C18.9422 11.3417 17.6763 11.8912 16.5301 12.6995C15.7532 13.2471 15.0678 13.8914 14.5196 14.6743C14.0975 15.2777 13.7831 15.9304 13.6395 16.6582C13.5222 17.2187 13.5403 17.7994 13.6924 18.3516C13.8798 19.0313 14.2571 19.5913 14.7759 20.0594C15.2946 20.5274 15.8857 20.8475 16.5294 21.0921C17.0269 21.2818 17.5418 21.3436 18.0675 21.3209C19.1309 21.2751 20.1587 21.0373 21.1677 20.7152C22.448 20.3065 23.6699 19.7611 24.8563 19.1334C26.0438 18.5104 27.1805 17.7945 28.256 16.9923C30.1016 15.6069 31.6498 13.9376 32.937 12.0214C34.332 9.94676 35.4984 7.74432 36.4728 5.4411C36.4965 5.37626 36.5168 5.31022 36.5336 5.24323C36.3514 5.22026 36.1991 5.27166 36.045 5.29804C35.1036 5.46002 34.1436 5.48167 33.1957 5.36228C31.6853 5.1746 30.1867 4.91632 28.6948 4.61687C27.2371 4.32388 25.7798 4.02542 24.307 3.81567C22.6842 3.58423 21.0574 3.4661 19.4192 3.62405C18.7067 3.68883 18.0008 3.81253 17.3087 3.99389C15.7246 4.4177 14.2671 5.118 12.9256 6.06067C11.168 7.29661 9.68818 8.80752 8.51089 10.6143C7.64173 11.9479 7.03368 13.3835 6.78428 14.9632C6.63346 15.9334 6.62532 16.9208 6.76014 17.8937C6.77723 18.0179 6.806 18.1407 6.82941 18.2638C6.90527 18.6594 6.78957 18.9859 6.47289 19.2333C6.35588 19.3227 6.23368 19.4051 6.10694 19.4799C5.56006 19.8068 5.05064 20.193 4.58786 20.6317C3.78545 21.3989 3.16898 22.2886 2.8295 23.3575C2.54045 24.2527 2.50476 25.2111 2.7264 26.126C2.92435 26.9594 3.30675 27.7067 3.8323 28.3798C4.60545 29.3672 5.57839 30.1054 6.69051 30.6621C8.6401 31.6376 10.7128 31.9861 12.8731 31.8476C13.6785 31.7959 14.4765 31.6624 15.2549 31.4492C16.4816 31.1127 17.6276 30.6055 18.6613 29.8576C19.5663 29.2026 20.3222 28.4094 20.8574 27.4175C20.9194 27.2956 20.9884 27.1774 21.0643 27.0637C21.1401 26.9504 21.229 26.8465 21.3292 26.7543C21.5301 26.5785 21.7711 26.5156 22.0291 26.6C22.1452 26.6452 22.2532 26.7091 22.3489 26.7893C22.6282 27.0042 22.8937 27.2377 23.177 27.4464C25.7879 29.3679 28.7292 30.1373 31.9344 29.9613C33.6958 29.8586 35.4237 29.436 37.0343 28.714C37.9942 28.2713 38.898 27.7151 39.7265 27.0573C41.0767 25.9924 42.1745 24.72 42.9627 23.1856C43.6843 21.7727 44.0538 20.2745 43.9758 18.6731L43.977 18.674ZM37.9623 30.299C37.9805 30.2403 38.0333 30.1793 37.9865 30.1105C37.9754 30.1049 37.9633 30.0937 37.9564 30.0963C37.8728 30.1303 37.7888 30.1632 37.7071 30.202C36.9186 30.5805 36.0949 30.8802 35.2479 31.097C34.8079 31.2081 34.3639 31.3038 33.9194 31.401C33.4539 31.5029 32.9901 31.6161 32.5202 31.6928C31.6343 31.8375 30.7348 31.8799 29.8391 31.8192C29.0431 31.7659 28.2641 31.6193 27.4901 31.4357C26.4493 31.1925 25.4428 30.8194 24.494 30.3252C23.7295 29.9211 23.0028 29.4486 22.3227 28.9135C22.2271 28.8385 22.1448 28.7397 22.0071 28.7014C21.9689 28.7491 21.9306 28.7897 21.8996 28.8351C21.1187 29.9994 20.1055 30.9136 18.9176 31.6418C17.3934 32.5778 15.7341 33.1251 13.9722 33.3758C12.6095 33.5664 11.2264 33.5586 9.86553 33.3528C9.77712 33.3397 9.68863 33.3015 9.5963 33.362C9.58301 33.3777 9.57091 33.3943 9.56012 33.4117C8.74086 34.9778 8.16228 36.6249 7.89967 38.3795C7.75709 39.3337 7.7309 40.2853 7.88141 41.2408C7.96935 41.7976 8.12691 42.3297 8.41263 42.819C8.58054 43.1058 8.5814 43.3916 8.46502 43.703C7.88899 45.2464 7.59339 46.8361 7.69439 48.4925C7.76313 49.7146 8.08546 50.9091 8.64071 51.9992C9.30997 53.3128 10.2647 54.3852 11.4266 55.2779C12.2705 55.9256 13.1873 56.4483 14.1578 56.8777C15.8117 57.6099 17.5455 58.0523 19.3288 58.3111C20.4866 58.4788 21.6544 58.5671 22.824 58.5756C23.4025 58.5798 23.9829 58.5701 24.5585 58.5228C25.7585 58.4242 26.9543 58.2835 28.1362 58.0457C28.7146 57.9295 29.2941 57.8172 29.868 57.6792C30.773 57.4615 31.6665 57.203 32.5485 56.9039C34.0776 56.3827 35.5571 55.7505 36.947 54.9229C37.8677 54.375 38.7305 53.7488 39.4765 52.9716C39.8435 52.5979 40.1578 52.1755 40.4108 51.7161C40.338 51.6223 40.2762 51.5416 40.2133 51.462C39.2662 50.2615 38.6559 48.8963 38.2749 47.4238C38.0428 46.5259 37.9424 45.6085 37.9379 44.6803C37.9319 43.4879 38.0552 42.3146 38.4048 41.1696C38.4875 40.8978 38.5473 40.6189 38.6132 40.3422C38.6698 40.1052 38.6559 39.8641 38.6195 39.6276C38.5876 39.4247 38.5401 39.2247 38.4775 39.0291C38.34 38.5949 38.1928 38.1633 38.0429 37.7331C37.746 36.8788 37.5176 36.0096 37.4601 35.1031C37.4224 34.5342 37.4173 33.9636 37.4448 33.3941C37.5006 32.3423 37.6476 31.3072 37.9623 30.299ZM7.81518 33.2534C7.86311 33.154 7.90461 33.0518 7.95562 32.9358C7.62391 32.8165 7.31204 32.7132 7.00769 32.5913C6.70333 32.4695 6.39824 32.3383 6.10294 32.1927C5.79808 32.0421 5.49773 31.8779 5.20422 31.7047C4.92185 31.5377 4.65089 31.3517 4.38725 31.1822C4.35804 31.1867 4.32945 31.1947 4.30208 31.2059C4.23543 31.2497 4.16878 31.2936 4.10661 31.342C3.58471 31.7404 3.17053 32.2368 2.82126 32.7908C2.14949 33.8545 1.74659 35.067 1.64753 36.3231C1.59131 36.9852 1.62855 37.6453 1.79498 38.2928C1.88644 38.6701 2.03533 39.0309 2.23642 39.3627C2.39513 39.6278 2.60528 39.8581 2.85438 40.0401C3.40279 40.4308 3.99919 40.438 4.61028 40.2307C5.14786 40.0487 5.58687 39.7087 5.99401 39.3206C6.12039 39.2062 6.1966 39.0463 6.20602 38.8757C6.29393 37.9101 6.47719 36.9559 6.75311 36.0269C7.03088 35.0749 7.3861 34.1475 7.81524 33.2541L7.81518 33.2534Z" fill="#E67C4F"/>
<path d="M63.5158 36.2149C63.5751 36.6928 63.529 37.0862 63.3708 37.4577C63.3048 37.6148 63.2189 37.7625 63.1151 37.8973C62.605 38.5528 61.7137 38.6138 61.1101 38.0435C60.8198 37.7693 60.6407 37.4298 60.5463 37.0475C60.3875 36.4038 60.4274 35.7829 60.7952 35.2098C60.9201 35.0045 61.0967 34.836 61.3072 34.7213C61.8056 34.4617 62.2927 34.4922 62.7487 34.823C63.1438 35.1098 63.3573 35.5192 63.4743 35.9843C63.4995 36.0852 63.5107 36.1873 63.5158 36.2149Z" fill="#E67C4F"/>
<path d="M61.665 41.1515C61.7555 41.5375 61.8175 41.934 61.8581 42.1488C61.9351 43.2334 61.9046 44.1298 61.6514 45.0071C61.4922 45.5594 61.2724 46.082 60.9093 46.5328C60.3882 47.1798 59.7178 47.5826 58.9 47.7139C58.2447 47.8192 57.6365 47.6786 57.0932 47.2823C56.6909 46.9891 56.3824 46.6118 56.1247 46.1906C55.8072 45.6719 55.5905 45.1096 55.4305 44.5237C55.2933 44.017 55.2106 43.497 55.184 42.9727C55.1507 42.3558 55.1718 41.7403 55.3586 41.1448C55.4147 40.9602 55.4901 40.7822 55.5835 40.6136C55.7741 40.2772 56.0571 40.0976 56.4595 40.1705C56.7276 40.2191 56.9952 40.2692 57.2631 40.3156C58.1154 40.4633 58.9583 40.4636 59.7764 40.1386C59.9444 40.0717 60.1037 39.982 60.2681 39.905C60.4014 39.8425 60.5346 39.7746 60.6888 39.7861C60.9424 39.8053 61.1466 39.9025 61.2785 40.1333C61.456 40.4521 61.5862 40.795 61.665 41.1515Z" fill="#E67C4F"/>
<path d="M52.9228 36.7076C53.089 36.9998 53.1952 37.3224 53.2352 37.6564C53.2675 38.1029 53.2151 38.55 53.0013 38.9674C52.8175 39.3257 52.5493 39.5973 52.1606 39.7175C51.6505 39.8765 51.1982 39.7515 50.8082 39.3923C50.5325 39.1388 50.3601 38.8193 50.2626 38.4627C50.1388 38.0337 50.129 37.5798 50.2341 37.146C50.3159 36.8003 50.5 36.4877 50.7622 36.2494C50.9856 36.0437 51.273 35.9219 51.5758 35.9048C51.8785 35.8877 52.178 35.9763 52.4233 36.1555C52.6271 36.3017 52.7974 36.49 52.9228 36.7076Z" fill="#E67C4F"/>
<path d="M34.3812 40.7986C34.4599 41.4023 33.9111 41.8708 33.3559 41.7013C33.2584 41.6707 33.1662 41.6253 33.0827 41.5662C32.8085 41.3712 32.498 41.2645 32.1725 41.201C31.5134 41.0724 30.8629 41.1178 30.2207 41.3078C29.9471 41.3861 29.6922 41.5192 29.4715 41.6992C29.3845 41.7719 29.2877 41.8319 29.184 41.8772C29.0261 41.9442 28.8506 41.9576 28.6844 41.9153C28.5181 41.8731 28.37 41.7775 28.2626 41.6431C28.0359 41.3633 28.012 40.9875 28.2193 40.6895C28.3063 40.5702 28.4086 40.463 28.5237 40.3708C28.878 40.0834 29.2865 39.8709 29.7248 39.746C30.7241 39.4485 31.7339 39.4053 32.7505 39.6592C33.1943 39.7701 33.6124 39.9435 33.9861 40.2152C34.1461 40.3313 34.2762 40.4696 34.3398 40.663C34.3579 40.716 34.3725 40.7707 34.3812 40.7986Z" fill="#E67C4F"/>
<path d="M25.9764 45.7989C26.0849 45.9177 26.1536 46.0676 26.1729 46.2276C26.1923 46.3876 26.1613 46.5496 26.0842 46.6908C26.0096 46.8181 25.9165 46.9333 25.8081 47.0331C25.5094 47.3205 25.1564 47.5246 24.7775 47.6855C24.2975 47.8933 23.7883 48.0251 23.2679 48.0764C22.7273 48.1503 22.1784 48.1387 21.6412 48.0419C21.2252 47.9763 20.8248 47.8341 20.4601 47.6222C20.3321 47.549 20.2141 47.4592 20.1093 47.3551C19.9849 47.2275 19.9074 47.0613 19.8893 46.8838C19.8712 46.7062 19.9136 46.5278 20.0097 46.3778C20.1038 46.2269 20.245 46.1115 20.4113 46.0495C20.5775 45.9875 20.7596 45.9825 20.9291 46.0352C21.0055 46.0569 21.0784 46.0897 21.1455 46.1324C21.5502 46.4033 22.0088 46.4775 22.4771 46.4853C23.0482 46.4947 23.6086 46.4152 24.1388 46.1821C24.3585 46.0843 24.5652 45.9702 24.7406 45.804C24.8569 45.6941 24.9833 45.5992 25.1424 45.5567C25.4699 45.4689 25.7508 45.5466 25.9764 45.7989Z" fill="#E67C4F"/>
<path d="M18.7734 41.5871C18.8444 42.1917 18.2883 42.6535 17.7355 42.4764C17.6386 42.4441 17.5469 42.3978 17.4634 42.3389C17.2067 42.1585 16.9199 42.0573 16.6182 41.9921C15.949 41.8474 15.2859 41.896 14.632 42.0787C14.3446 42.1527 14.0783 42.2929 13.8544 42.4883C13.7201 42.6135 13.5487 42.6912 13.3663 42.7097C13.0441 42.7417 12.7823 42.6271 12.6067 42.3542C12.4226 42.0704 12.4237 41.7739 12.5971 41.4832C12.6982 41.3138 12.85 41.191 13.0047 41.0748C13.3155 40.8442 13.6625 40.6674 14.0314 40.5516C15.0706 40.2299 16.1249 40.1737 17.1867 40.4486C17.5621 40.5412 17.9198 40.6953 18.2454 40.9049C18.3497 40.9733 18.4481 41.0507 18.5392 41.1361C18.6655 41.2558 18.748 41.4146 18.7734 41.5871Z" fill="#E67C4F"/>
</svg>
