<svg width="16" height="16" viewBox="0 0 16 16" fill="none" xmlns="http://www.w3.org/2000/svg">
<path d="M12.5211 8.37288C13.8646 7.02938 13.8646 4.85113 12.5211 3.50763C11.1775 2.16412 8.9993 2.16412 7.6558 3.50763L7.06321 4.10022C6.77031 4.39311 6.29544 4.39311 6.00255 4.10022C5.70965 3.80733 5.70965 3.33245 6.00255 3.03956L6.59514 2.44697C8.52443 0.517678 11.6524 0.517678 13.5817 2.44697C15.511 4.37626 15.511 7.50425 13.5817 9.43354L12.9891 10.0261C12.6962 10.319 12.2214 10.319 11.9285 10.0261C11.6356 9.73324 11.6356 9.25837 11.9285 8.96547L12.5211 8.37288Z" fill="#F8FCE1"/>
<path d="M3.50763 7.65607C2.16412 8.99957 2.16412 11.1778 3.50763 12.5213C4.85113 13.8648 7.02938 13.8648 8.37288 12.5213L8.96547 11.9287C9.25837 11.6358 9.73324 11.6358 10.0261 11.9287C10.319 12.2216 10.319 12.6965 10.0261 12.9894L9.43354 13.582C7.50425 15.5113 4.37626 15.5113 2.44697 13.582C0.517678 11.6527 0.517678 8.52469 2.44697 6.59541L3.03956 6.00281C3.33245 5.70992 3.80733 5.70992 4.10022 6.00281C4.39311 6.29571 4.39311 6.77058 4.10022 7.06347L3.50763 7.65607Z" fill="#F8FCE1"/>
<path d="M5.07155 9.81227C4.77866 10.1052 4.77866 10.58 5.07155 10.8729C5.36444 11.1658 5.83932 11.1658 6.13221 10.8729L10.8729 6.1322C11.1658 5.8393 11.1658 5.36443 10.8729 5.07154C10.58 4.77864 10.1052 4.77864 9.81228 5.07154L5.07155 9.81227Z" fill="#F8FCE1"/>
</svg>
