<svg width="683" height="486" viewBox="0 0 683 486" fill="none" xmlns="http://www.w3.org/2000/svg">
<g filter="url(#filter0_d_88_27975)">
<rect x="9.94617" y="80.3301" width="620.479" height="396.081" rx="14.2475" transform="rotate(-6.69167 9.94617 80.3301)" fill="#F8FCE1"/>
<g opacity="0.15">
<path d="M652.919 220.542C655.029 227.331 654.72 234.1 652.533 240.818C651.108 245.195 648.966 249.213 646.457 253.056C642.605 258.922 637.881 264.167 632.447 268.609C628.685 271.705 624.808 274.655 620.965 277.649C618.117 279.868 615.303 282.131 612.632 284.562C610.954 286.087 609.37 287.695 607.997 289.506C607.919 289.61 607.824 289.704 607.758 289.809C607.637 290.016 607.458 290.184 607.244 290.292C607.03 290.399 606.789 290.443 606.55 290.417C605.683 290.381 604.812 290.368 603.942 290.368C600.717 290.37 597.509 290.573 594.335 291.18C594.085 291.229 593.828 291.24 593.604 291.266C593.379 290.998 593.543 290.817 593.655 290.65C594.867 288.845 596.019 286.993 597.315 285.25C599.937 281.725 602.632 278.254 605.299 274.769C608.374 270.76 611.304 266.654 613.786 262.247C617.831 255.063 620.733 247.46 622.122 239.311C623.036 233.941 623.062 228.569 621.951 223.226C620.797 217.578 618.365 212.268 614.841 207.705C614.47 207.223 614.082 206.753 613.693 206.286C613.304 205.818 612.91 205.367 612.436 204.812C612.767 204.557 612.961 204.386 613.176 204.245C617.091 201.695 621.368 200.227 626.052 200.104C631.422 199.963 636.394 201.352 640.88 204.311C646.856 208.256 650.805 213.741 652.919 220.542Z" fill="#F8FCE1"/>
<path d="M651.865 347.49C654.454 350.899 656.057 354.699 656.51 358.951C656.85 362.194 656.448 365.376 655.465 368.481C654.242 372.337 652.268 375.801 649.791 378.989C647.077 382.484 643.887 385.486 640.375 388.159C635.29 392.028 629.724 395.046 623.809 397.432C619.852 399.013 615.787 400.308 611.644 401.307C608.302 402.125 604.9 402.619 601.992 403.069C593.194 404.042 584.923 403.925 576.708 402.23C571.744 401.207 566.958 399.661 562.432 397.36C561.618 396.946 560.782 396.575 559.968 396.162C556.072 394.201 552.519 391.623 549.446 388.528C546.041 385.09 543.798 380.953 542.182 376.438C540.895 372.84 540.261 369.114 540.144 365.314C540.009 360.99 540.387 356.71 541.703 352.554C541.953 351.767 542.154 350.965 542.367 350.166C543.124 347.312 542.98 344.469 542.154 341.665C541.564 339.665 540.916 337.677 540.199 335.719C538.866 332.121 538.186 328.314 538.193 324.478C538.203 320.901 538.472 317.355 539.278 313.861C539.907 311.137 540.872 308.528 541.975 305.97C542.529 304.687 543.319 303.534 544.204 302.454C544.457 302.155 544.74 301.884 545.05 301.646C550.433 297.373 554.828 292.26 558.14 286.232C561.16 280.739 562.947 274.872 563.361 268.61C563.701 263.378 562.832 258.138 560.821 253.296C560.773 253.174 560.719 253.056 560.657 252.941C559.959 251.678 559.829 250.343 559.92 248.902C560.037 247.04 559.961 245.165 559.958 243.297C559.949 238.383 559.887 233.468 560.569 228.582C561.268 223.543 562.618 218.716 565.066 214.222C566.876 210.901 569.198 207.996 572.141 205.602C575.965 202.492 580.347 200.752 585.238 200.28C591.991 199.625 598.08 201.448 603.549 205.371C609.537 209.67 613.396 215.465 615.372 222.542C616.823 227.752 616.877 233.024 615.976 238.318C614.701 245.819 611.997 252.804 608.243 259.398C605.716 263.834 602.701 267.931 599.595 271.964C596.65 275.792 593.621 279.556 590.878 283.536C589.467 285.578 588.067 287.624 586.943 289.844C586.395 290.93 585.89 292.042 585.437 293.17C585.226 293.741 585.087 294.335 585.021 294.939C584.668 297.464 587.272 299.153 589.041 298.73C589.887 298.531 590.73 298.319 591.573 298.109C594.951 297.265 598.407 296.771 601.887 296.635C605.993 296.472 610.057 296.761 614.066 297.665C620.913 299.21 627.015 302.203 632.064 307.156C636.492 311.5 639.409 316.699 640.815 322.754C641.743 326.745 641.972 330.868 641.492 334.938C641.444 335.37 641.373 335.8 641.348 336.233C641.287 337.295 641.616 338.214 642.447 338.903C643.277 339.592 644.122 340.293 644.996 340.931C647.581 342.816 649.923 344.937 651.865 347.49ZM631.324 336.721C631.93 335.296 632.107 333.796 631.882 331.98C631.863 331.875 631.824 331.485 631.725 331.107C631.277 329.333 630.46 327.772 628.947 326.679C627.201 325.418 625.335 325.303 623.426 326.294C622.619 326.732 621.943 327.375 621.464 328.158C620.054 330.345 619.9 332.713 620.507 335.168C620.868 336.626 621.553 337.921 622.665 338.966C624.975 341.14 628.393 340.907 630.345 338.404C630.743 337.888 631.072 337.322 631.324 336.721ZM625.52 354.61C625.365 353.791 625.129 352.285 624.783 350.806C624.482 349.445 623.983 348.135 623.303 346.918C622.798 346.038 622.011 345.668 621.045 345.594C620.454 345.551 619.944 345.81 619.433 346.049C618.804 346.343 618.193 346.685 617.55 346.941C614.416 348.182 611.187 348.182 607.922 347.621C606.896 347.444 605.872 347.254 604.845 347.069C603.3 346.792 602.219 347.477 601.488 348.761C601.13 349.404 600.841 350.083 600.626 350.787C599.909 353.059 599.827 355.406 599.953 357.759C600.054 359.759 600.37 361.742 600.895 363.675C601.506 365.909 602.336 368.053 603.551 370.031C604.537 371.637 605.718 373.077 607.258 374.193C609.339 375.704 611.668 376.239 614.178 375.836C617.311 375.331 619.879 373.792 621.877 371.327C623.269 369.607 624.111 367.613 624.722 365.507C625.694 362.165 625.813 358.746 625.52 354.61ZM592.5 337.491C592.347 336.218 591.941 334.987 591.305 333.873C590.825 333.043 590.173 332.325 589.393 331.768C588.453 331.085 587.307 330.748 586.147 330.814C584.987 330.88 583.886 331.344 583.03 332.13C582.025 333.039 581.319 334.232 581.006 335.55C580.602 337.205 580.639 338.936 581.112 340.572C581.485 341.933 582.145 343.151 583.2 344.117C584.693 345.486 586.425 345.962 588.38 345.355C589.868 344.893 590.897 343.859 591.601 342.492C592.421 340.9 592.623 339.194 592.5 337.491Z" fill="#F8FCE1"/>
<path d="M534.106 308.741C534.285 309.003 534.083 309.236 534.013 309.46C532.806 313.304 532.24 317.252 532.033 321.262C531.926 323.434 531.945 325.61 532.088 327.78C532.308 331.238 533.18 334.553 534.315 337.81C534.889 339.451 535.452 341.097 535.977 342.753C536.217 343.499 536.398 344.262 536.52 345.035C536.659 345.937 536.712 346.857 536.495 347.761C536.242 348.816 536.012 349.88 535.695 350.917C534.356 355.285 533.879 359.761 533.9 364.308C533.915 367.849 534.298 371.348 535.185 374.772C536.64 380.388 538.977 385.594 542.602 390.171C542.843 390.475 543.08 390.782 543.358 391.14C542.389 392.893 541.184 394.504 539.777 395.93C536.918 398.897 533.612 401.287 530.084 403.378C524.754 406.538 519.085 408.952 513.233 410.942C509.855 412.09 506.432 413.077 502.964 413.905C500.767 414.437 498.545 414.862 496.33 415.306C491.802 416.215 487.222 416.754 482.625 417.133C480.42 417.314 478.197 417.354 475.981 417.337C471.503 417.31 467.031 416.977 462.598 416.343C455.768 415.356 449.128 413.675 442.794 410.886C439.078 409.249 435.567 407.258 432.336 404.789C427.887 401.386 424.232 397.298 421.671 392.289C419.546 388.132 418.314 383.576 418.053 378.915C417.669 372.597 418.801 366.534 421.014 360.646C421.461 359.457 421.458 358.367 420.815 357.274C419.722 355.409 419.121 353.379 418.783 351.255C418.209 347.61 418.31 343.977 418.859 340.342C419.861 333.649 422.088 327.365 425.229 321.39C425.27 321.324 425.316 321.26 425.367 321.201C425.721 320.972 426.06 321.119 426.399 321.165C431.611 321.947 436.909 321.974 442.128 321.245C448.877 320.282 455.234 318.186 461.075 314.621C465.626 311.842 469.509 308.353 472.503 303.91C472.62 303.737 472.768 303.582 472.914 303.4C473.442 303.546 473.757 303.923 474.123 304.208C476.727 306.248 479.51 308.049 482.437 309.589C486.07 311.472 489.925 312.893 493.911 313.819C496.881 314.517 499.859 315.075 502.908 315.277C506.339 315.507 509.784 315.343 513.178 314.79C514.978 314.496 516.755 314.063 518.538 313.674C520.237 313.303 521.937 312.937 523.627 312.512C526.867 311.682 530.018 310.536 533.035 309.091C533.347 308.943 533.669 308.817 533.99 308.687C534.017 308.677 534.064 308.72 534.106 308.741ZM516.347 352.958C518.473 353.603 520.576 351.812 520.276 349.513C520.243 349.406 520.187 349.197 520.117 348.992C519.874 348.259 519.376 347.727 518.763 347.285C517.332 346.25 515.733 345.589 514.032 345.167C510.138 344.2 506.269 344.361 502.442 345.503C500.763 345.981 499.197 346.792 497.84 347.889C497.399 348.241 497.007 348.65 496.673 349.105C495.878 350.238 495.97 351.675 496.837 352.742C497.248 353.255 497.815 353.619 498.452 353.78C499.089 353.941 499.761 353.889 500.366 353.633C500.763 353.46 501.134 353.232 501.468 352.954C502.314 352.267 503.29 351.759 504.338 351.459C506.798 350.734 509.29 350.559 511.815 351.048C513.061 351.29 514.245 351.697 515.3 352.44C515.62 352.666 515.973 352.841 516.347 352.958ZM488.484 372.005C488.779 371.466 488.899 370.848 488.825 370.238C488.751 369.628 488.488 369.056 488.073 368.603C487.209 367.641 486.137 367.345 484.881 367.679C484.272 367.842 483.788 368.204 483.342 368.623C482.666 369.252 481.875 369.699 481.036 370.067C479.005 370.958 476.858 371.262 474.67 371.226C472.879 371.197 471.12 370.915 469.57 369.883C469.314 369.72 469.034 369.595 468.742 369.512C468.092 369.312 467.395 369.331 466.758 369.568C466.121 369.804 465.58 370.245 465.219 370.821C464.851 371.393 464.688 372.074 464.757 372.751C464.826 373.428 465.123 374.062 465.599 374.548C466 374.945 466.452 375.287 466.942 375.566C468.338 376.373 469.87 376.915 471.463 377.165C473.52 377.533 475.623 377.576 477.694 377.293C479.687 377.097 481.638 376.593 483.477 375.799C484.928 375.185 486.28 374.4 487.426 373.309C487.841 372.929 488.197 372.489 488.484 372.005ZM456.514 355.954C458.63 356.632 460.768 354.87 460.492 352.559C460.396 351.904 460.083 351.301 459.603 350.844C459.256 350.514 458.881 350.213 458.483 349.947C457.236 349.149 455.866 348.561 454.428 348.209C450.362 347.162 446.33 347.372 442.342 348.608C440.929 349.05 439.6 349.725 438.409 350.606C437.81 351.044 437.234 351.512 436.847 352.164C436.182 353.273 436.177 354.404 436.882 355.486C437.554 356.527 438.555 356.964 439.791 356.841C440.489 356.77 441.146 356.473 441.661 355.995C442.519 355.25 443.539 354.714 444.64 354.432C447.145 353.738 449.685 353.547 452.248 354.097C453.403 354.345 454.502 354.731 455.485 355.419C455.8 355.643 456.147 355.82 456.513 355.944L456.514 355.954Z" fill="#F8FCE1"/>
<path d="M419.071 319.576C418.875 320.012 418.716 320.408 418.532 320.787C416.886 324.196 415.522 327.733 414.454 331.365C413.396 334.909 412.692 338.549 412.353 342.232C412.317 342.882 412.025 343.493 411.54 343.929C409.98 345.41 408.298 346.708 406.239 347.403C403.897 348.195 401.616 348.168 399.513 346.679C398.559 345.986 397.755 345.108 397.147 344.097C396.378 342.832 395.808 341.456 395.459 340.017C394.822 337.548 394.681 335.03 394.898 332.504C395.279 327.713 396.825 323.087 399.4 319.029C400.737 316.922 402.327 315.028 404.326 313.501C404.567 313.317 404.82 313.147 405.075 312.981C405.18 312.938 405.29 312.908 405.402 312.89C406.411 313.537 407.449 314.245 408.53 314.882C409.654 315.542 410.801 316.168 411.971 316.742C413.102 317.296 414.265 317.793 415.436 318.26C416.608 318.728 417.801 319.121 419.071 319.576Z" fill="#F8FCE1"/>
<path d="M554.25 254.057C555.919 257.513 556.878 261.269 557.069 265.103C557.365 271.211 555.946 276.923 553.16 282.327C550.135 288.183 545.931 293.036 540.757 297.1C537.583 299.611 534.12 301.734 530.442 303.425C524.271 306.182 517.652 307.797 510.905 308.192C498.627 308.869 487.363 305.941 477.365 298.617C476.281 297.821 475.265 296.938 474.195 296.112C473.829 295.806 473.415 295.563 472.97 295.391C471.987 295.066 471.064 295.306 470.289 295.98C469.905 296.332 469.564 296.729 469.274 297.161C468.983 297.595 468.718 298.046 468.481 298.511C466.427 302.295 463.532 305.322 460.064 307.822C456.103 310.677 451.713 312.614 447.013 313.899C444.031 314.714 440.974 315.225 437.889 315.424C429.615 315.96 421.676 314.635 414.21 310.914C409.951 308.792 406.226 305.978 403.266 302.214C401.249 299.648 399.791 296.798 399.035 293.62C398.187 290.13 398.326 286.475 399.435 283.06C400.744 278.981 403.096 275.588 406.175 272.659C407.949 270.985 409.901 269.511 411.996 268.264C412.482 267.978 412.95 267.663 413.398 267.322C414.612 266.378 415.056 265.132 414.766 263.623C414.676 263.153 414.566 262.684 414.501 262.212C413.987 258.501 414.02 254.735 414.599 251.034C415.558 245.009 417.889 239.528 421.221 234.443C425.734 227.55 431.4 221.785 438.14 217.067C443.28 213.468 448.865 210.795 454.933 209.175C457.584 208.482 460.288 208.009 463.018 207.76C469.293 207.155 475.524 207.602 481.739 208.482C487.38 209.279 492.967 210.414 498.545 211.529C504.259 212.669 509.999 213.651 515.783 214.364C519.414 214.817 523.092 214.733 526.697 214.113C527.288 214.012 527.875 213.815 528.569 213.903C528.505 214.159 528.427 214.411 528.336 214.658C524.6 223.449 520.127 231.848 514.78 239.763C509.846 247.08 503.912 253.445 496.84 258.733C492.719 261.794 488.364 264.527 483.814 266.906C479.269 269.302 474.576 271.386 469.682 272.946C465.817 274.177 461.879 275.086 457.806 275.262C455.792 275.35 453.82 275.115 451.915 274.393C449.45 273.461 447.168 272.228 445.2 270.457C443.232 268.686 441.777 266.537 441.053 263.945C440.472 261.839 440.404 259.624 440.854 257.486C441.411 254.709 442.616 252.219 444.229 249.918C446.33 246.931 448.953 244.472 451.934 242.382C456.33 239.296 461.176 237.198 466.383 235.943C471.559 234.697 476.79 234.395 482.046 235.343C483.241 235.558 484.411 235.907 485.596 236.185C486.014 236.302 486.441 236.383 486.872 236.427C487.574 236.475 488.271 236.28 488.846 235.874C489.422 235.469 489.839 234.877 490.029 234.199C490.219 233.522 490.17 232.799 489.89 232.154C489.61 231.508 489.116 230.978 488.491 230.654C487.943 230.393 487.371 230.184 486.784 230.03C484.235 229.288 481.612 228.833 478.963 228.673C475.915 228.48 472.873 228.524 469.849 228.964C460.835 230.273 452.673 233.585 445.603 239.409C442.693 241.774 440.191 244.601 438.197 247.778C436.145 251.074 434.789 254.62 434.437 258.513C433.906 264.405 435.726 269.5 439.732 273.805C442.199 276.46 445.176 278.392 448.541 279.734C450.663 280.578 452.901 280.908 455.162 281.08C458.251 281.314 461.343 281.26 464.399 280.762C466.113 280.469 467.806 280.062 469.466 279.545C481.285 275.965 492.03 270.267 501.819 262.761C508.782 257.421 514.659 251.039 519.577 243.781C521.163 241.441 522.631 239.022 524.152 236.644C524.385 236.281 524.617 235.914 524.854 235.524C525.284 235.528 525.676 235.498 526.056 235.537C532.179 236.152 537.906 237.978 542.993 241.468C547.751 244.727 551.728 248.755 554.25 254.057Z" fill="#F8FCE1"/>
<path d="M659.534 221.076C661.26 228.331 660.813 235.492 658.521 242.565C656.863 247.697 654.364 252.403 651.394 256.89C646.884 263.698 641.309 269.524 634.972 274.63C631.993 277.033 628.944 279.349 625.916 281.688C622.576 284.27 619.26 286.878 616.177 289.766C615.734 290.182 615.315 290.623 614.891 291.061C614.838 291.115 614.836 291.219 614.777 291.404C615.868 291.689 616.88 291.933 617.883 292.211C623.742 293.838 629.092 296.479 633.796 300.353C640.057 305.507 644.292 311.992 646.5 319.808C647.855 324.641 648.23 329.554 647.803 334.541C647.785 334.754 647.774 334.968 647.757 335.234C648.116 335.5 648.457 335.76 648.811 336.01C652.193 338.442 655.157 341.293 657.556 344.713C659.78 347.842 661.355 351.384 662.19 355.13C663.508 361.101 662.824 366.882 660.635 372.539C658.953 376.884 656.498 380.767 653.501 384.317C649.08 389.556 643.805 393.785 637.965 397.326C632.176 400.837 626.017 403.533 619.568 405.585C616.007 406.731 612.376 407.646 608.698 408.325C604.12 409.174 599.486 409.688 594.833 409.863C590.705 410.011 586.571 409.867 582.463 409.432C574.207 408.551 566.339 406.36 558.929 402.581C556.758 401.473 554.576 400.384 552.55 399.028C551.207 398.134 549.943 397.134 548.642 396.193C548.437 396.045 548.22 395.913 548.007 395.773C547.891 395.861 547.784 395.96 547.688 396.07C545.079 399.896 541.705 402.949 537.984 405.644C533.954 408.563 529.607 410.928 525.083 412.977C519.689 415.398 514.113 417.388 508.405 418.93C504.291 420.055 500.135 420.972 495.937 421.723C492.378 422.361 488.791 422.742 485.207 423.185C482.089 423.568 478.968 423.598 475.834 423.56C472.615 423.525 469.404 423.361 466.201 423.048C458.773 422.319 451.505 420.853 444.479 418.281C438.349 416.036 432.633 413.041 427.531 408.933C422.688 405.034 418.757 400.387 415.957 394.815C414.217 391.35 413.002 387.646 412.353 383.824C411.278 377.553 411.629 371.344 413.119 365.188C413.527 363.499 414.041 361.834 414.549 360.172C414.72 359.602 414.784 359.092 414.536 358.536C413.6 356.418 413.061 354.171 412.544 351.93C412.486 351.753 412.413 351.581 412.327 351.416C411.944 351.479 411.673 351.706 411.389 351.873C409.174 353.152 406.813 353.966 404.241 354.125C400.572 354.354 397.392 353.182 394.667 350.759C392.506 348.837 391.079 346.42 390.096 343.721C388.917 340.487 388.499 337.144 388.606 333.72C388.795 327.64 390.458 321.983 393.505 316.73C395.199 313.808 397.292 311.211 399.905 309.051C400.052 308.918 400.193 308.777 400.327 308.629C400.295 308.525 400.25 308.426 400.192 308.334C398.274 306.397 396.862 304.099 395.556 301.738C393.569 298.19 392.449 294.222 392.286 290.158C392.082 285.078 393.306 280.329 395.788 275.9C397.988 271.974 400.921 268.679 404.463 265.921C405.662 264.989 406.913 264.121 408.213 263.173C408.221 262.898 408.211 262.624 408.182 262.351C407.595 258.827 407.52 255.237 407.96 251.692C408.104 250.575 408.284 249.454 408.516 248.35C409.708 242.669 411.931 237.397 415.021 232.499C421.091 222.877 428.969 215.083 438.767 209.27C443.853 206.232 449.387 204.015 455.163 202.7C459.081 201.811 463.052 201.385 467.062 201.267C473.567 201.074 480.003 201.769 486.393 202.89C492.086 203.889 497.755 205.027 503.433 206.108C508.345 207.045 513.279 207.841 518.256 208.33C520.38 208.526 522.52 208.452 524.625 208.112C527.295 207.724 529.92 207.07 532.46 206.16C533.036 205.963 533.64 205.858 534.248 205.851C536.345 205.796 537.69 207.44 537.187 209.472C536.947 210.443 536.621 211.39 536.214 212.304C533.731 217.863 531.351 223.463 528.55 228.879C528.469 229.06 528.399 229.244 528.339 229.432C529.559 229.762 530.769 229.85 531.93 230.147C533.064 230.437 534.212 230.704 535.336 231.045C536.498 231.401 537.653 231.798 538.777 232.248C539.901 232.698 541.02 233.199 542.115 233.741C543.165 234.264 544.195 234.835 545.194 235.443C546.231 236.079 547.243 236.762 548.222 237.483C549.169 238.176 550.065 238.938 550.973 239.682C551.882 240.427 552.673 241.379 553.71 242.168C553.825 241.403 553.767 240.754 553.743 240.108C553.619 235.271 553.894 230.465 554.705 225.686C555.612 220.37 557.249 215.302 559.949 210.605C562.472 206.207 565.714 202.448 569.869 199.505C574.925 195.958 580.927 194.008 587.102 193.906C592.212 193.805 597.274 194.916 601.872 197.15C603.518 197.943 605.103 198.861 606.611 199.894C606.896 200.088 607.189 200.268 607.478 200.454C607.973 200.405 608.274 200.068 608.619 199.821C611.486 197.762 614.671 196.186 618.047 195.156C622.814 193.698 627.869 193.45 632.756 194.433C640.628 195.975 647.032 199.987 652.13 206.127C655.775 210.519 658.213 215.531 659.534 221.076ZM652.533 240.822C654.72 234.102 655.029 227.328 652.92 220.546C650.811 213.764 646.856 208.26 640.884 204.321C636.397 201.361 631.426 199.972 626.056 200.113C621.37 200.236 617.095 201.705 613.18 204.254C612.965 204.395 612.771 204.566 612.44 204.821C612.918 205.375 613.311 205.831 613.697 206.295C614.082 206.758 614.474 207.232 614.845 207.714C618.368 212.276 620.8 217.585 621.955 223.233C623.061 228.576 623.04 233.947 622.125 239.317C620.737 247.467 617.835 255.069 613.789 262.253C611.307 266.66 608.377 270.766 605.302 274.775C602.628 278.261 599.93 281.731 597.319 285.257C596.023 287 594.87 288.844 593.659 290.656C593.541 290.824 593.382 291.005 593.608 291.272C593.831 291.246 594.088 291.233 594.339 291.187C597.512 290.574 600.721 290.376 603.945 290.375C604.816 290.374 605.686 290.382 606.554 290.423C606.792 290.449 607.033 290.406 607.248 290.298C607.462 290.19 607.64 290.022 607.762 289.815C607.831 289.707 607.926 289.613 608.001 289.512C609.374 287.701 610.958 286.093 612.635 284.568C615.308 282.137 618.12 279.875 620.969 277.655C624.812 274.662 628.692 271.711 632.451 268.616C637.884 264.173 642.609 258.929 646.461 253.062C648.966 249.216 651.108 245.195 652.533 240.822ZM656.506 358.956C656.058 354.7 654.453 350.897 651.861 347.495C649.92 344.942 647.578 342.821 644.991 340.946C644.112 340.31 643.278 339.613 642.442 338.919C641.605 338.225 641.282 337.311 641.343 336.249C641.368 335.816 641.439 335.386 641.487 334.954C641.967 330.884 641.738 326.761 640.81 322.77C639.393 316.724 636.476 311.525 632.059 307.172C627.01 302.219 620.908 299.226 614.061 297.68C610.052 296.776 605.989 296.488 601.882 296.651C598.402 296.787 594.946 297.281 591.568 298.125C590.725 298.335 589.882 298.547 589.036 298.746C587.269 299.167 584.665 297.472 585.016 294.955C585.082 294.351 585.221 293.757 585.432 293.186C585.885 292.058 586.39 290.946 586.938 289.86C588.052 287.641 589.462 285.594 590.873 283.552C593.616 279.572 596.645 275.808 599.59 271.98C602.691 267.943 605.71 263.846 608.238 259.414C611.992 252.82 614.696 245.835 615.971 238.334C616.869 233.04 616.818 227.768 615.367 222.558C613.394 215.48 609.532 209.686 603.544 205.387C598.075 201.464 591.987 199.645 585.233 200.296C580.338 200.768 575.96 202.508 572.136 205.618C569.193 208.012 566.872 210.911 565.061 214.238C562.613 218.728 561.263 223.559 560.564 228.598C559.885 233.484 559.947 238.398 559.953 243.312C559.956 245.181 560.032 247.056 559.915 248.918C559.823 250.353 559.964 251.687 560.652 252.957C560.714 253.072 560.768 253.19 560.816 253.311C562.827 258.154 563.696 263.394 563.356 268.625C562.949 274.887 561.162 280.754 558.135 286.248C554.823 292.275 550.428 297.389 545.045 301.662C544.735 301.9 544.452 302.171 544.199 302.469C543.314 303.55 542.524 304.703 541.97 305.986C540.867 308.544 539.902 311.153 539.273 313.877C538.467 317.371 538.198 320.917 538.188 324.494C538.181 328.33 538.861 332.137 540.194 335.735C540.911 337.693 541.559 339.681 542.149 341.681C542.975 344.485 543.119 347.328 542.362 350.182C542.149 350.981 541.948 351.783 541.698 352.57C540.382 356.726 540.004 361.006 540.139 365.33C540.256 369.13 540.885 372.857 542.177 376.454C543.793 380.969 546.036 385.106 549.441 388.544C552.514 391.639 556.067 394.217 559.963 396.178C560.777 396.591 561.613 396.962 562.427 397.376C566.961 399.681 571.739 401.223 576.703 402.246C584.918 403.941 593.189 404.058 601.987 403.085C604.895 402.635 608.292 402.142 611.639 401.323C615.782 400.324 619.847 399.029 623.804 397.448C629.719 395.061 635.285 392.044 640.37 388.174C643.882 385.502 647.072 382.5 649.786 379.005C652.263 375.817 654.232 372.361 655.46 368.497C656.444 365.377 656.846 362.194 656.506 358.952L656.506 358.956ZM557.074 265.106C556.882 261.273 555.924 257.517 554.254 254.061C551.733 248.758 547.755 244.726 542.996 241.461C537.911 237.971 532.181 236.145 526.06 235.53C525.676 235.491 525.287 235.52 524.858 235.517C524.613 235.908 524.387 236.274 524.156 236.636C522.635 239.015 521.167 241.44 519.581 243.774C514.657 251.032 508.786 257.417 501.823 262.754C492.036 270.259 481.295 275.957 469.47 279.538C467.809 280.055 466.117 280.462 464.402 280.755C461.346 281.251 458.254 281.307 455.166 281.073C452.905 280.901 450.668 280.571 448.545 279.726C445.182 278.39 442.205 276.452 439.736 273.798C435.732 269.487 433.909 264.397 434.44 258.506C434.792 254.614 436.149 251.067 438.2 247.77C440.194 244.594 442.696 241.767 445.607 239.401C452.676 233.578 460.838 230.266 469.853 228.956C472.876 228.516 475.92 228.469 478.966 228.666C481.615 228.826 484.239 229.281 486.787 230.022C487.375 230.177 487.946 230.386 488.494 230.647C489.115 230.972 489.606 231.5 489.885 232.143C490.163 232.786 490.213 233.505 490.025 234.18C489.838 234.855 489.424 235.446 488.854 235.853C488.284 236.26 487.591 236.459 486.891 236.417C486.46 236.373 486.033 236.292 485.616 236.175C484.431 235.901 483.261 235.547 482.065 235.333C476.804 234.387 471.578 234.688 466.403 235.933C461.195 237.188 456.345 239.286 451.953 242.371C448.977 244.461 446.35 246.92 444.248 249.907C442.63 252.209 441.425 254.7 440.873 257.476C440.423 259.614 440.491 261.829 441.073 263.935C441.79 266.527 443.234 268.662 445.22 270.447C447.206 272.231 449.469 273.45 451.934 274.382C453.84 275.105 455.812 275.34 457.826 275.252C461.899 275.075 465.836 274.166 469.702 272.936C474.607 271.374 479.288 269.292 483.834 266.895C488.383 264.517 492.739 261.784 496.86 258.722C503.932 253.434 509.865 247.064 514.799 239.753C520.147 231.837 524.619 223.434 528.355 214.648C528.446 214.4 528.524 214.148 528.589 213.893C527.891 213.806 527.307 214.002 526.717 214.103C523.111 214.722 519.433 214.807 515.803 214.353C510.018 213.64 504.278 212.658 498.564 211.519C492.981 210.404 487.4 209.268 481.759 208.471C475.543 207.592 469.312 207.144 463.037 207.75C460.308 207.998 457.604 208.471 454.952 209.165C448.884 210.784 443.3 213.458 438.16 217.056C431.425 221.774 425.754 227.539 421.241 234.433C417.909 239.521 415.577 244.998 414.619 251.024C414.039 254.725 414.006 258.491 414.521 262.202C414.586 262.675 414.696 263.144 414.785 263.613C415.075 265.122 414.631 266.368 413.418 267.312C412.969 267.653 412.501 267.967 412.016 268.253C409.92 269.501 407.968 270.975 406.195 272.649C403.12 275.577 400.757 278.972 399.454 283.049C398.345 286.464 398.207 290.12 399.054 293.609C399.811 296.788 401.274 299.637 403.286 302.204C406.245 305.968 409.971 308.782 414.229 310.903C421.695 314.62 429.634 315.945 437.909 315.413C440.994 315.214 444.051 314.704 447.033 313.889C451.732 312.603 456.123 310.666 460.084 307.811C463.551 305.312 466.448 302.285 468.5 298.5C468.738 298.035 469.003 297.584 469.293 297.15C469.584 296.718 469.925 296.322 470.309 295.97C471.078 295.299 472.002 295.059 472.99 295.38C473.434 295.552 473.848 295.796 474.214 296.101C475.284 296.921 476.3 297.811 477.385 298.606C487.382 305.93 498.647 308.859 510.924 308.182C517.671 307.786 524.291 306.171 530.461 303.414C534.139 301.724 537.602 299.601 540.777 297.09C545.95 293.026 550.158 288.17 553.18 282.317C555.947 276.926 557.365 271.211 557.069 265.103L557.074 265.106ZM534.013 309.458C534.083 309.234 534.285 309.001 534.106 308.739C534.064 308.718 534.017 308.675 533.991 308.685C533.671 308.815 533.348 308.941 533.036 309.089C530.015 310.534 526.859 311.679 523.614 312.507C521.929 312.932 520.228 313.298 518.525 313.669C516.742 314.059 514.965 314.491 513.165 314.785C509.771 315.338 506.326 315.502 502.895 315.272C499.846 315.07 496.863 314.513 493.898 313.814C489.912 312.888 486.057 311.467 482.424 309.584C479.497 308.044 476.714 306.243 474.11 304.203C473.744 303.918 473.429 303.541 472.901 303.395C472.755 303.577 472.608 303.732 472.49 303.905C469.496 308.348 465.614 311.837 461.062 314.616C455.222 318.189 448.865 320.28 442.116 321.24C436.896 321.969 431.598 321.942 426.386 321.16C426.047 321.11 425.708 320.964 425.354 321.196C425.303 321.255 425.257 321.319 425.216 321.385C422.075 327.36 419.855 333.644 418.846 340.337C418.298 343.976 418.196 347.606 418.771 351.25C419.106 353.374 419.709 355.403 420.802 357.269C421.445 358.362 421.448 359.452 421.001 360.641C418.792 366.528 417.657 372.592 418.04 378.91C418.301 383.572 419.534 388.127 421.658 392.284C424.219 397.293 427.874 401.381 432.323 404.784C435.554 407.253 439.065 409.245 442.781 410.881C449.115 413.67 455.755 415.354 462.585 416.338C467.02 416.975 471.493 417.31 475.973 417.34C478.189 417.355 480.412 417.317 482.617 417.135C487.214 416.757 491.794 416.218 496.322 415.309C498.537 414.865 500.757 414.435 502.956 413.907C506.423 413.075 509.846 412.088 513.225 410.945C519.083 408.954 524.751 406.54 530.076 403.381C533.604 401.289 536.91 398.899 539.769 395.933C541.176 394.507 542.381 392.896 543.35 391.143C543.072 390.785 542.835 390.477 542.595 390.174C538.969 385.597 536.634 380.391 535.177 374.775C534.29 371.351 533.907 367.852 533.892 364.311C533.871 359.763 534.346 355.288 535.687 350.92C536.004 349.883 536.234 348.819 536.487 347.764C536.704 346.86 536.651 345.94 536.512 345.038C536.39 344.264 536.209 343.501 535.97 342.756C535.444 341.1 534.881 339.454 534.307 337.813C533.172 334.555 532.299 331.241 532.08 327.783C531.937 325.613 531.918 323.437 532.025 321.264C532.24 317.253 532.806 313.304 534.013 309.458ZM418.532 320.785C418.716 320.406 418.875 320.016 419.071 319.573C417.8 319.119 416.606 318.725 415.441 318.261C414.275 317.797 413.107 317.297 411.976 316.742C410.808 316.168 409.658 315.543 408.534 314.883C407.453 314.246 406.415 313.537 405.406 312.891C405.294 312.909 405.185 312.939 405.08 312.982C404.824 313.149 404.569 313.317 404.331 313.501C402.331 315.022 400.743 316.916 399.405 319.03C396.829 323.088 395.284 327.714 394.902 332.505C394.685 335.031 394.827 337.548 395.463 340.018C395.812 341.456 396.382 342.833 397.152 344.098C397.759 345.108 398.564 345.987 399.517 346.68C401.617 348.169 403.902 348.196 406.243 347.404C408.302 346.708 409.985 345.411 411.545 343.93C412.029 343.493 412.321 342.883 412.358 342.232C412.696 338.55 413.4 334.909 414.459 331.366C415.525 327.734 416.887 324.196 418.532 320.787L418.532 320.785Z" fill="#E67C4F"/>
<path d="M631.881 331.973C632.107 333.796 631.93 335.297 631.324 336.714C631.071 337.313 630.741 337.877 630.343 338.391C628.388 340.892 624.974 341.127 622.663 338.953C621.552 337.907 620.866 336.613 620.505 335.155C619.898 332.7 620.052 330.332 621.462 328.145C621.941 327.362 622.618 326.719 623.425 326.281C625.334 325.29 627.2 325.405 628.945 326.666C630.458 327.759 631.276 329.32 631.723 331.094C631.819 331.479 631.862 331.868 631.881 331.973Z" fill="#E67C4F"/>
<path d="M624.783 350.806C625.128 352.278 625.365 353.791 625.52 354.61C625.813 358.746 625.695 362.165 624.723 365.512C624.112 367.619 623.269 369.613 621.877 371.333C619.88 373.802 617.312 375.34 614.179 375.842C611.668 376.245 609.339 375.71 607.259 374.199C605.718 373.082 604.538 371.643 603.552 370.037C602.336 368.059 601.507 365.915 600.896 363.681C600.371 361.748 600.055 359.765 599.954 357.765C599.828 355.412 599.91 353.065 600.627 350.793C600.842 350.089 601.131 349.41 601.489 348.766C602.22 347.483 603.304 346.797 604.845 347.074C605.872 347.259 606.897 347.45 607.923 347.626C611.187 348.188 614.416 348.188 617.55 346.947C618.194 346.691 618.804 346.348 619.434 346.055C619.945 345.816 620.455 345.557 621.046 345.6C622.017 345.673 622.799 346.043 623.304 346.923C623.983 348.139 624.482 349.447 624.783 350.806Z" fill="#E67C4F"/>
<path d="M591.305 333.873C591.941 334.987 592.347 336.218 592.5 337.491C592.623 339.194 592.421 340.9 591.601 342.492C590.897 343.859 589.869 344.896 588.38 345.355C586.425 345.962 584.693 345.486 583.2 344.117C582.145 343.151 581.485 341.933 581.112 340.572C580.639 338.936 580.602 337.205 581.006 335.55C581.319 334.232 582.025 333.039 583.03 332.13C583.886 331.344 584.987 330.88 586.147 330.814C587.307 330.748 588.453 331.085 589.393 331.768C590.173 332.325 590.825 333.043 591.305 333.873Z" fill="#E67C4F"/>
<path d="M520.276 349.513C520.576 351.815 518.473 353.603 516.347 352.958C515.973 352.841 515.62 352.668 515.3 352.443C514.251 351.7 513.062 351.293 511.815 351.052C509.291 350.563 506.799 350.737 504.338 351.463C503.29 351.762 502.314 352.27 501.468 352.957C501.135 353.235 500.764 353.464 500.366 353.637C499.761 353.893 499.089 353.944 498.453 353.783C497.816 353.622 497.249 353.258 496.838 352.746C495.97 351.679 495.879 350.245 496.674 349.108C497.007 348.653 497.399 348.244 497.84 347.892C499.198 346.795 500.763 345.984 502.442 345.507C506.27 344.37 510.138 344.204 514.032 345.17C515.732 345.592 517.333 346.253 518.763 347.288C519.376 347.731 519.874 348.258 520.117 348.995C520.187 349.198 520.243 349.406 520.276 349.513Z" fill="#E67C4F"/>
<path d="M488.072 368.601C488.488 369.054 488.751 369.626 488.825 370.236C488.898 370.846 488.779 371.464 488.484 372.003C488.198 372.488 487.841 372.928 487.426 373.309C486.281 374.406 484.928 375.185 483.477 375.799C481.638 376.593 479.687 377.097 477.694 377.293C475.623 377.576 473.52 377.533 471.463 377.165C469.869 376.915 468.336 376.374 466.94 375.566C466.449 375.287 465.998 374.945 465.596 374.548C465.12 374.062 464.823 373.428 464.754 372.751C464.685 372.073 464.848 371.393 465.217 370.821C465.578 370.245 466.118 369.804 466.755 369.568C467.392 369.331 468.09 369.311 468.739 369.512C469.032 369.595 469.311 369.719 469.568 369.882C471.118 370.915 472.874 371.197 474.667 371.226C476.855 371.261 479.002 370.956 481.033 370.066C481.875 369.693 482.667 369.257 483.339 368.623C483.785 368.203 484.269 367.841 484.878 367.679C486.133 367.343 487.209 367.639 488.072 368.601Z" fill="#E67C4F"/>
<path d="M460.491 352.55C460.761 354.856 458.63 356.619 456.513 355.944C456.142 355.821 455.791 355.645 455.471 355.42C454.488 354.733 453.39 354.347 452.234 354.099C449.671 353.549 447.131 353.735 444.627 354.433C443.525 354.716 442.505 355.251 441.647 355.997C441.132 356.475 440.476 356.771 439.777 356.842C438.543 356.965 437.54 356.529 436.868 355.488C436.163 354.406 436.168 353.275 436.833 352.166C437.221 351.519 437.802 351.051 438.395 350.607C439.586 349.727 440.916 349.052 442.329 348.61C446.31 347.381 450.348 347.164 454.415 348.211C455.853 348.563 457.223 349.15 458.469 349.949C458.869 350.21 459.245 350.505 459.594 350.83C460.078 351.287 460.393 351.892 460.491 352.55Z" fill="#E67C4F"/>
</g>
<path d="M366.209 149.79C366.761 151.57 366.681 153.345 366.111 155.106C365.74 156.253 365.181 157.306 364.527 158.314C363.522 159.851 362.289 161.226 360.871 162.389C359.889 163.201 358.878 163.974 357.875 164.758C357.131 165.339 356.397 165.932 355.7 166.569C355.262 166.969 354.849 167.39 354.491 167.865C354.47 167.892 354.445 167.917 354.428 167.944C354.397 167.999 354.35 168.042 354.294 168.071C354.238 168.099 354.175 168.11 354.113 168.104C353.886 168.094 353.659 168.09 353.432 168.09C352.59 168.09 351.753 168.143 350.924 168.302C350.859 168.315 350.792 168.318 350.733 168.324C350.674 168.254 350.717 168.207 350.747 168.163C351.063 167.69 351.363 167.205 351.701 166.748C352.385 165.824 353.088 164.914 353.784 164.001C354.586 162.95 355.351 161.874 355.998 160.719C357.053 158.836 357.81 156.843 358.172 154.707C358.41 153.299 358.416 151.891 358.125 150.49C357.823 149.009 357.187 147.616 356.267 146.419C356.17 146.293 356.068 146.17 355.967 146.047C355.865 145.925 355.762 145.806 355.638 145.661C355.725 145.594 355.775 145.549 355.831 145.512C356.853 144.844 357.969 144.46 359.192 144.428C360.594 144.392 361.892 144.757 363.064 145.533C364.625 146.568 365.657 148.007 366.209 149.79Z" fill="#FFC2C2"/>
<path d="M365.951 183.073C366.627 183.967 367.046 184.963 367.165 186.078C367.254 186.928 367.15 187.763 366.893 188.577C366.575 189.587 366.06 190.495 365.414 191.331C364.705 192.247 363.873 193.033 362.956 193.734C361.629 194.747 360.177 195.538 358.633 196.163C357.6 196.577 356.539 196.916 355.457 197.177C354.585 197.391 353.697 197.52 352.938 197.638C350.641 197.892 348.482 197.86 346.337 197.415C345.041 197.145 343.791 196.74 342.609 196.136C342.396 196.027 342.178 195.93 341.966 195.821C340.948 195.307 340.02 194.63 339.218 193.819C338.328 192.917 337.742 191.832 337.32 190.648C336.983 189.704 336.817 188.727 336.786 187.731C336.75 186.597 336.849 185.475 337.191 184.386C337.256 184.18 337.309 183.969 337.364 183.76C337.562 183.012 337.524 182.266 337.308 181.531C337.153 181.007 336.984 180.485 336.797 179.972C336.448 179.029 336.27 178.03 336.271 177.024C336.274 176.087 336.343 175.157 336.553 174.241C336.717 173.527 336.969 172.843 337.256 172.173C337.401 171.836 337.607 171.534 337.838 171.251C337.904 171.173 337.978 171.102 338.059 171.039C339.463 169.92 340.61 168.58 341.474 167C342.262 165.56 342.727 164.022 342.835 162.38C342.923 161.009 342.695 159.635 342.17 158.365C342.157 158.333 342.143 158.302 342.127 158.272C341.944 157.941 341.91 157.591 341.934 157.213C341.964 156.725 341.944 156.233 341.943 155.743C341.94 154.455 341.923 153.167 342.101 151.886C342.282 150.565 342.634 149.299 343.272 148.122C343.745 147.251 344.35 146.49 345.119 145.862C346.117 145.048 347.26 144.592 348.537 144.469C350.3 144.298 351.89 144.777 353.318 145.806C354.882 146.934 355.89 148.454 356.407 150.309C356.787 151.676 356.801 153.058 356.567 154.446C356.235 156.412 355.53 158.243 354.551 159.971C353.892 161.134 353.105 162.208 352.295 163.265C351.526 164.268 350.736 165.254 350.02 166.297C349.652 166.833 349.287 167.369 348.994 167.951C348.851 168.235 348.719 168.527 348.601 168.823C348.546 168.972 348.51 169.128 348.493 169.286C348.401 169.948 349.081 170.391 349.543 170.281C349.764 170.229 349.984 170.173 350.204 170.118C351.086 169.897 351.988 169.768 352.896 169.733C353.968 169.691 355.029 169.767 356.076 170.005C357.864 170.411 359.457 171.196 360.776 172.496C361.933 173.635 362.695 174.998 363.063 176.586C363.306 177.633 363.366 178.713 363.241 179.78C363.229 179.894 363.21 180.007 363.204 180.12C363.188 180.399 363.274 180.639 363.491 180.82C363.708 181.001 363.929 181.185 364.157 181.352C364.832 181.847 365.444 182.403 365.951 183.073ZM360.587 180.247C360.745 179.873 360.791 179.48 360.732 179.004C360.727 178.976 360.717 178.874 360.691 178.775C360.574 178.31 360.36 177.9 359.965 177.614C359.509 177.283 359.022 177.252 358.523 177.512C358.313 177.627 358.136 177.795 358.011 178C357.644 178.573 357.604 179.194 357.763 179.838C357.857 180.22 358.036 180.56 358.326 180.834C358.93 181.404 359.822 181.344 360.331 180.688C360.435 180.553 360.521 180.404 360.587 180.247ZM359.074 184.936C359.033 184.721 358.972 184.326 358.881 183.939C358.802 183.582 358.672 183.238 358.494 182.919C358.362 182.688 358.157 182.591 357.904 182.572C357.75 182.56 357.617 182.628 357.484 182.691C357.319 182.768 357.16 182.857 356.992 182.924C356.174 183.249 355.331 183.249 354.479 183.101C354.211 183.055 353.943 183.005 353.675 182.956C353.272 182.883 352.99 183.063 352.799 183.399C352.706 183.568 352.63 183.746 352.574 183.93C352.387 184.526 352.366 185.141 352.4 185.758C352.426 186.283 352.509 186.803 352.646 187.309C352.806 187.895 353.023 188.457 353.34 188.976C353.598 189.397 353.907 189.775 354.309 190.068C354.852 190.464 355.46 190.605 356.116 190.499C356.933 190.367 357.604 189.964 358.125 189.318C358.488 188.868 358.708 188.345 358.867 187.793C359.12 186.917 359.151 186.02 359.074 184.936ZM350.451 180.443C350.411 180.11 350.305 179.787 350.139 179.495C350.013 179.277 349.843 179.089 349.639 178.943C349.394 178.763 349.094 178.675 348.792 178.692C348.489 178.709 348.201 178.831 347.978 179.037C347.716 179.275 347.532 179.587 347.45 179.933C347.345 180.367 347.355 180.821 347.478 181.25C347.576 181.606 347.748 181.926 348.024 182.179C348.414 182.539 348.866 182.664 349.376 182.505C349.765 182.384 350.033 182.113 350.217 181.754C350.431 181.337 350.483 180.89 350.451 180.443Z" fill="#FFC2C2"/>
<path d="M335.202 172.898C335.249 172.967 335.196 173.028 335.178 173.087C334.863 174.094 334.716 175.129 334.663 176.18C334.635 176.75 334.64 177.321 334.678 177.889C334.736 178.796 334.964 179.665 335.261 180.519C335.411 180.95 335.558 181.381 335.695 181.816C335.758 182.011 335.805 182.211 335.837 182.414C335.874 182.651 335.888 182.892 335.831 183.129C335.765 183.405 335.705 183.684 335.623 183.956C335.274 185.101 335.15 186.274 335.156 187.467C335.16 188.395 335.261 189.312 335.493 190.21C335.873 191.683 336.484 193.048 337.431 194.248C337.494 194.328 337.556 194.409 337.629 194.503C337.376 194.962 337.061 195.384 336.694 195.758C335.948 196.535 335.086 197.161 334.165 197.709C332.774 198.537 331.294 199.169 329.766 199.69C328.885 199.991 327.991 200.249 327.086 200.466C326.512 200.605 325.932 200.716 325.354 200.832C324.172 201.07 322.976 201.211 321.776 201.309C321.201 201.356 320.62 201.367 320.042 201.362C318.873 201.354 317.705 201.266 316.548 201.099C314.765 200.84 313.031 200.398 311.377 199.666C310.406 199.237 309.49 198.714 308.646 198.066C307.484 197.174 306.529 196.101 305.86 194.788C305.305 193.697 304.982 192.503 304.914 191.281C304.813 189.624 305.107 188.035 305.684 186.491C305.801 186.18 305.8 185.894 305.632 185.607C305.346 185.118 305.189 184.586 305.101 184.029C304.95 183.073 304.976 182.121 305.119 181.168C305.38 179.413 305.96 177.766 306.779 176.2C306.79 176.183 306.802 176.166 306.815 176.15C306.908 176.091 306.996 176.129 307.085 176.141C308.446 176.347 309.829 176.355 311.191 176.164C312.953 175.913 314.612 175.364 316.137 174.43C317.325 173.702 318.338 172.788 319.119 171.624C319.149 171.578 319.188 171.538 319.226 171.49C319.364 171.528 319.446 171.627 319.542 171.702C320.222 172.237 320.949 172.709 321.713 173.114C322.662 173.608 323.668 173.981 324.709 174.224C325.485 174.407 326.262 174.554 327.058 174.608C327.954 174.668 328.854 174.626 329.739 174.481C330.209 174.404 330.673 174.291 331.139 174.189C331.582 174.092 332.026 173.997 332.467 173.885C333.313 173.668 334.135 173.368 334.923 172.99C335.004 172.951 335.088 172.918 335.172 172.884C335.179 172.881 335.191 172.893 335.202 172.898ZM330.572 184.488C331.127 184.658 331.676 184.189 331.597 183.586C331.588 183.558 331.574 183.503 331.556 183.449C331.492 183.257 331.362 183.118 331.202 183.001C330.828 182.73 330.41 182.556 329.966 182.445C328.95 182.192 327.94 182.233 326.941 182.532C326.502 182.657 326.094 182.87 325.739 183.157C325.624 183.249 325.522 183.356 325.435 183.476C325.228 183.773 325.252 184.15 325.478 184.429C325.586 184.564 325.734 184.659 325.9 184.702C326.066 184.744 326.242 184.73 326.4 184.663C326.503 184.618 326.6 184.558 326.687 184.485C326.908 184.305 327.163 184.172 327.436 184.094C328.079 183.904 328.729 183.859 329.388 183.987C329.714 184.051 330.023 184.158 330.298 184.352C330.382 184.412 330.474 184.458 330.572 184.488ZM323.3 189.478C323.377 189.337 323.408 189.175 323.389 189.015C323.369 188.855 323.301 188.705 323.192 188.587C322.967 188.334 322.687 188.256 322.359 188.344C322.2 188.386 322.073 188.481 321.957 188.591C321.781 188.756 321.574 188.873 321.355 188.969C320.825 189.203 320.265 189.282 319.694 189.272C319.226 189.265 318.767 189.19 318.362 188.92C318.295 188.877 318.222 188.844 318.146 188.822C317.976 188.77 317.794 188.775 317.628 188.837C317.462 188.899 317.32 189.014 317.226 189.165C317.13 189.315 317.088 189.493 317.106 189.671C317.124 189.848 317.201 190.015 317.326 190.142C317.431 190.246 317.549 190.336 317.677 190.409C318.041 190.621 318.441 190.763 318.857 190.829C319.394 190.926 319.943 190.937 320.484 190.864C321.004 190.812 321.513 190.68 321.993 190.473C322.372 190.312 322.725 190.106 323.024 189.82C323.132 189.721 323.225 189.605 323.3 189.478ZM314.952 185.266C315.504 185.444 316.062 184.983 315.99 184.377C315.964 184.205 315.883 184.047 315.757 183.927C315.667 183.84 315.569 183.761 315.465 183.692C315.139 183.482 314.781 183.328 314.406 183.235C313.344 182.96 312.292 183.015 311.251 183.338C310.882 183.454 310.535 183.631 310.224 183.861C310.068 183.976 309.917 184.099 309.816 184.27C309.643 184.561 309.642 184.857 309.826 185.141C310.002 185.414 310.263 185.528 310.586 185.496C310.768 185.478 310.939 185.4 311.074 185.275C311.298 185.08 311.564 184.939 311.851 184.865C312.505 184.684 313.168 184.634 313.838 184.779C314.139 184.844 314.426 184.945 314.683 185.126C314.765 185.184 314.856 185.231 314.951 185.264L314.952 185.266Z" fill="#F8FCE1"/>
<path d="M305.171 175.724C305.12 175.838 305.079 175.942 305.031 176.041C304.602 176.935 304.246 177.862 303.968 178.814C303.692 179.743 303.509 180.697 303.421 181.663C303.411 181.833 303.335 181.993 303.209 182.107C302.802 182.496 302.363 182.836 301.825 183.018C301.214 183.225 300.618 183.218 300.069 182.827C299.82 182.645 299.61 182.415 299.451 182.15C299.25 181.818 299.101 181.457 299.01 181.08C298.843 180.432 298.806 179.772 298.862 179.11C298.961 177.854 299.364 176.641 300.036 175.578C300.385 175.026 300.8 174.529 301.321 174.129C301.384 174.081 301.45 174.036 301.517 173.993C301.544 173.982 301.573 173.974 301.602 173.969C301.866 174.139 302.137 174.325 302.419 174.492C302.712 174.665 303.012 174.829 303.318 174.98C303.613 175.125 303.916 175.255 304.222 175.378C304.528 175.501 304.84 175.604 305.171 175.724Z" fill="#D6E499"/>
<path d="M340.454 158.564C340.89 159.47 341.141 160.455 341.192 161.46C341.27 163.062 340.9 164.559 340.173 165.975C339.384 167.51 338.287 168.782 336.937 169.847C336.109 170.505 335.205 171.061 334.245 171.504C332.634 172.226 330.907 172.648 329.145 172.751C325.94 172.927 322.999 172.158 320.388 170.236C320.104 170.028 319.839 169.796 319.56 169.579C319.464 169.499 319.356 169.435 319.24 169.39C318.983 169.305 318.742 169.368 318.54 169.544C318.44 169.636 318.351 169.74 318.275 169.854C318.199 169.967 318.13 170.085 318.068 170.207C317.533 171.199 316.777 171.992 315.872 172.647C314.838 173.395 313.692 173.903 312.466 174.239C311.687 174.452 310.889 174.586 310.084 174.637C307.924 174.777 305.851 174.429 303.901 173.452C302.789 172.895 301.816 172.157 301.043 171.17C300.516 170.497 300.135 169.749 299.937 168.916C299.716 168.001 299.751 167.043 300.04 166.147C300.381 165.078 300.995 164.189 301.799 163.421C302.261 162.983 302.771 162.597 303.318 162.27C303.444 162.195 303.567 162.113 303.684 162.023C304 161.776 304.116 161.449 304.04 161.054C304.017 160.93 303.988 160.807 303.971 160.684C303.836 159.711 303.844 158.723 303.995 157.753C304.244 156.173 304.852 154.737 305.722 153.404C306.899 151.597 308.377 150.087 310.136 148.851C311.478 147.908 312.935 147.208 314.519 146.784C315.212 146.602 315.917 146.479 316.63 146.414C318.268 146.256 319.895 146.374 321.518 146.606C322.991 146.815 324.449 147.114 325.906 147.407C327.397 147.706 328.896 147.964 330.406 148.152C331.354 148.272 332.314 148.25 333.256 148.088C333.41 148.062 333.563 148.01 333.744 148.033C333.728 148.1 333.707 148.166 333.684 148.231C332.709 150.535 331.543 152.737 330.148 154.811C328.861 156.729 327.312 158.397 325.467 159.782C324.391 160.584 323.255 161.3 322.067 161.923C320.881 162.551 319.656 163.097 318.378 163.505C317.369 163.827 316.342 164.065 315.278 164.111C314.753 164.133 314.238 164.072 313.74 163.882C313.096 163.637 312.501 163.314 311.987 162.849C311.473 162.385 311.092 161.821 310.903 161.141C310.751 160.589 310.733 160.009 310.85 159.448C310.995 158.72 311.31 158.067 311.73 157.464C312.279 156.681 312.963 156.037 313.741 155.489C314.888 154.681 316.153 154.132 317.512 153.803C318.863 153.477 320.229 153.399 321.601 153.648C321.913 153.704 322.219 153.796 322.528 153.869C322.637 153.9 322.749 153.921 322.861 153.933C323.045 153.946 323.227 153.894 323.377 153.788C323.527 153.682 323.636 153.527 323.685 153.349C323.735 153.172 323.722 152.982 323.649 152.813C323.576 152.643 323.446 152.505 323.283 152.42C323.14 152.351 322.991 152.296 322.838 152.256C322.172 152.061 321.487 151.941 320.795 151.899C320 151.848 319.205 151.859 318.416 151.974C316.063 152.316 313.933 153.183 312.088 154.709C311.328 155.329 310.675 156.07 310.155 156.902C309.62 157.766 309.266 158.696 309.175 159.716C309.037 161.261 309.513 162.597 310.56 163.726C311.204 164.423 311.981 164.93 312.86 165.282C313.414 165.503 313.998 165.59 314.589 165.636C315.395 165.698 316.202 165.684 317 165.554C317.448 165.477 317.89 165.37 318.323 165.235C321.408 164.298 324.212 162.805 326.767 160.839C328.584 159.44 330.118 157.767 331.401 155.865C331.815 155.252 332.197 154.618 332.594 153.995C332.655 153.899 332.715 153.803 332.777 153.701C332.889 153.702 332.992 153.694 333.091 153.705C334.69 153.867 336.185 154.346 337.514 155.262C338.756 156.117 339.795 157.173 340.454 158.564Z" fill="#D6E499"/>
<path d="M367.936 149.931C368.388 151.833 368.272 153.71 367.675 155.565C367.242 156.91 366.591 158.144 365.816 159.319C364.639 161.104 363.185 162.63 361.531 163.968C360.754 164.598 359.958 165.205 359.168 165.818C358.296 166.494 357.431 167.177 356.626 167.934C356.51 168.043 356.401 168.159 356.29 168.273C356.277 168.288 356.276 168.315 356.261 168.363C356.546 168.438 356.81 168.502 357.072 168.575C358.602 169.003 359.999 169.696 361.227 170.712C362.862 172.064 363.969 173.765 364.547 175.814C364.901 177.082 364.999 178.37 364.889 179.677C364.884 179.733 364.881 179.789 364.877 179.859C364.97 179.929 365.06 179.997 365.152 180.062C366.035 180.701 366.809 181.448 367.436 182.345C368.017 183.166 368.429 184.095 368.647 185.077C368.992 186.643 368.814 188.158 368.244 189.641C367.805 190.78 367.165 191.798 366.383 192.728C365.229 194.101 363.853 195.209 362.328 196.137C360.818 197.056 359.21 197.762 357.527 198.3C356.597 198.6 355.649 198.839 354.689 199.017C353.494 199.239 352.284 199.373 351.07 199.418C349.992 199.456 348.913 199.418 347.84 199.303C345.685 199.071 343.63 198.496 341.695 197.504C341.128 197.213 340.559 196.928 340.029 196.572C339.679 196.337 339.349 196.075 339.009 195.828C338.955 195.789 338.898 195.754 338.843 195.718C338.813 195.741 338.785 195.767 338.76 195.796C338.079 196.798 337.199 197.598 336.227 198.304C335.176 199.069 334.041 199.689 332.86 200.225C331.453 200.859 329.997 201.38 328.507 201.784C327.433 202.078 326.348 202.318 325.252 202.515C324.323 202.681 323.387 202.781 322.451 202.896C321.637 202.996 320.823 203.004 320.004 202.993C319.164 202.984 318.326 202.94 317.489 202.858C315.55 202.666 313.652 202.28 311.818 201.605C310.217 201.016 308.724 200.23 307.392 199.152C306.127 198.129 305.1 196.91 304.368 195.449C303.914 194.541 303.596 193.569 303.426 192.567C303.145 190.923 303.235 189.295 303.624 187.681C303.73 187.239 303.864 186.802 303.996 186.367C304.041 186.217 304.058 186.083 303.993 185.938C303.748 185.382 303.607 184.793 303.472 184.205C303.457 184.159 303.438 184.114 303.415 184.071C303.315 184.087 303.244 184.147 303.17 184.19C302.592 184.525 301.976 184.738 301.304 184.78C300.346 184.839 299.516 184.532 298.805 183.896C298.24 183.392 297.867 182.758 297.61 182.05C297.302 181.202 297.192 180.326 297.22 179.428C297.268 177.834 297.702 176.351 298.497 174.974C298.938 174.208 299.485 173.528 300.166 172.962C300.205 172.927 300.242 172.89 300.276 172.851C300.268 172.824 300.256 172.798 300.241 172.774C299.74 172.266 299.371 171.663 299.03 171.044C298.511 170.113 298.218 169.073 298.175 168.007C298.121 166.675 298.44 165.431 299.087 164.27C299.661 163.241 300.426 162.377 301.351 161.655C301.664 161.41 301.99 161.183 302.329 160.935C302.331 160.863 302.329 160.791 302.321 160.719C302.167 159.795 302.147 158.854 302.262 157.925C302.299 157.632 302.346 157.338 302.406 157.049C302.717 155.559 303.297 154.177 304.103 152.894C305.686 150.372 307.742 148.329 310.299 146.807C311.626 146.011 313.071 145.43 314.579 145.086C315.601 144.854 316.638 144.743 317.685 144.712C319.383 144.662 321.064 144.845 322.732 145.14C324.218 145.403 325.698 145.702 327.181 145.986C328.463 146.232 329.752 146.442 331.051 146.57C331.606 146.622 332.164 146.603 332.714 146.514C333.411 146.413 334.096 146.242 334.759 146.003C334.909 145.952 335.067 145.925 335.226 145.923C335.773 145.909 336.125 146.34 335.994 146.873C335.931 147.127 335.846 147.375 335.74 147.615C335.093 149.072 334.472 150.54 333.741 151.96C333.72 152.007 333.702 152.055 333.686 152.104C334.005 152.191 334.321 152.214 334.624 152.292C334.92 152.369 335.22 152.439 335.513 152.528C335.817 152.622 336.118 152.726 336.412 152.844C336.705 152.962 336.997 153.094 337.283 153.236C337.558 153.373 337.826 153.523 338.087 153.682C338.358 153.849 338.622 154.029 338.878 154.218C339.125 154.4 339.36 154.599 339.597 154.795C339.834 154.99 340.041 155.24 340.312 155.447C340.342 155.246 340.326 155.076 340.32 154.907C340.287 153.639 340.358 152.378 340.569 151.126C340.805 149.732 341.232 148.404 341.936 147.173C342.594 146.02 343.44 145.035 344.525 144.264C345.844 143.334 347.411 142.824 349.023 142.798C350.357 142.772 351.679 143.064 352.879 143.65C353.309 143.859 353.723 144.099 354.117 144.371C354.191 144.421 354.268 144.469 354.343 144.517C354.472 144.505 354.551 144.416 354.641 144.352C355.389 143.812 356.221 143.399 357.102 143.13C358.346 142.748 359.666 142.684 360.942 142.942C362.997 143.347 364.67 144.4 366.001 146.011C366.954 147.163 367.591 148.477 367.936 149.931ZM366.111 155.107C366.681 153.345 366.761 151.569 366.209 149.791C365.658 148.013 364.625 146.569 363.065 145.535C361.893 144.759 360.595 144.394 359.193 144.43C357.97 144.462 356.854 144.847 355.832 145.514C355.776 145.551 355.726 145.596 355.639 145.663C355.764 145.808 355.867 145.928 355.968 146.049C356.068 146.171 356.171 146.295 356.268 146.422C357.188 147.618 357.824 149.01 358.126 150.491C358.415 151.892 358.41 153.301 358.172 154.708C357.811 156.845 357.054 158.838 355.999 160.721C355.352 161.876 354.587 162.952 353.785 164.002C353.087 164.916 352.384 165.825 351.702 166.749C351.364 167.206 351.063 167.69 350.747 168.164C350.717 168.208 350.675 168.256 350.734 168.326C350.793 168.319 350.86 168.316 350.925 168.304C351.753 168.143 352.591 168.092 353.433 168.092C353.66 168.092 353.887 168.094 354.114 168.105C354.176 168.112 354.239 168.101 354.295 168.072C354.351 168.044 354.398 168 354.429 167.946C354.447 167.917 354.472 167.893 354.492 167.867C354.85 167.392 355.263 166.971 355.701 166.571C356.398 165.934 357.132 165.341 357.876 164.76C358.878 163.975 359.891 163.202 360.872 162.391C362.29 161.227 363.523 159.853 364.528 158.315C365.181 157.307 365.74 156.253 366.111 155.107ZM367.164 186.079C367.046 184.964 366.627 183.966 365.95 183.074C365.443 182.404 364.831 181.848 364.155 181.356C363.926 181.189 363.708 181.006 363.49 180.824C363.271 180.642 363.187 180.403 363.202 180.124C363.209 180.011 363.227 179.898 363.24 179.785C363.365 178.718 363.304 177.637 363.061 176.59C362.691 175.005 361.929 173.641 360.775 172.5C359.456 171.2 357.862 170.415 356.075 170.009C355.028 169.771 353.967 169.695 352.895 169.737C351.987 169.773 351.084 169.902 350.203 170.122C349.982 170.177 349.762 170.233 349.542 170.285C349.08 170.395 348.4 169.95 348.492 169.29C348.509 169.132 348.545 168.976 348.6 168.827C348.718 168.531 348.85 168.24 348.993 167.955C349.283 167.373 349.651 166.837 350.019 166.301C350.735 165.258 351.525 164.272 352.293 163.269C353.103 162.211 353.89 161.137 354.549 159.976C355.529 158.247 356.234 156.416 356.565 154.45C356.799 153.062 356.785 151.68 356.406 150.314C355.89 148.458 354.881 146.938 353.317 145.81C351.889 144.781 350.299 144.303 348.536 144.473C347.258 144.596 346.115 145.052 345.117 145.867C344.349 146.494 343.744 147.254 343.271 148.126C342.633 149.302 342.281 150.569 342.099 151.89C341.922 153.171 341.939 154.459 341.942 155.748C341.943 156.238 341.963 156.729 341.932 157.217C341.909 157.594 341.946 157.943 342.125 158.276C342.141 158.306 342.156 158.337 342.168 158.369C342.694 159.639 342.921 161.013 342.833 162.385C342.728 164.026 342.262 165.564 341.473 167.004C340.609 168.584 339.462 169.924 338.057 171.044C337.976 171.106 337.902 171.177 337.837 171.255C337.606 171.538 337.399 171.84 337.255 172.177C336.967 172.847 336.716 173.531 336.552 174.245C336.342 175.161 336.272 176.091 336.27 177.029C336.269 178.035 336.447 179.033 336.795 179.976C336.983 180.49 337.152 181.011 337.306 181.535C337.523 182.27 337.56 183.016 337.363 183.764C337.308 183.974 337.255 184.184 337.19 184.39C336.847 185.48 336.749 186.602 336.785 187.735C336.816 188.731 336.98 189.709 337.318 190.652C337.741 191.836 338.327 192.921 339.216 193.823C340.019 194.635 340.947 195.311 341.964 195.826C342.177 195.934 342.395 196.031 342.608 196.14C343.792 196.745 345.039 197.15 346.336 197.419C348.48 197.864 350.64 197.896 352.937 197.642C353.696 197.524 354.582 197.395 355.456 197.181C356.537 196.92 357.599 196.581 358.631 196.167C360.175 195.542 361.628 194.752 362.955 193.738C363.872 193.037 364.704 192.251 365.412 191.335C366.058 190.499 366.572 189.594 366.892 188.581C367.149 187.763 367.253 186.929 367.164 186.078L367.164 186.079ZM341.193 161.461C341.142 160.456 340.892 159.471 340.455 158.565C339.796 157.174 338.757 156.117 337.514 155.26C336.186 154.344 334.69 153.865 333.092 153.703C332.992 153.693 332.89 153.7 332.778 153.699C332.714 153.802 332.655 153.898 332.595 153.993C332.198 154.616 331.816 155.252 331.402 155.863C330.117 157.766 328.585 159.439 326.768 160.837C324.214 162.803 321.411 164.296 318.324 165.233C317.89 165.369 317.449 165.475 317.001 165.552C316.203 165.681 315.396 165.696 314.59 165.634C314 165.588 313.415 165.501 312.861 165.28C311.983 164.929 311.205 164.421 310.56 163.724C309.514 162.594 309.038 161.259 309.176 159.714C309.267 158.694 309.621 157.764 310.156 156.9C310.676 156.068 311.329 155.327 312.089 154.707C313.934 153.181 316.064 152.314 318.417 151.972C319.206 151.857 320.001 151.845 320.796 151.897C321.488 151.939 322.173 152.059 322.838 152.254C322.992 152.294 323.141 152.349 323.284 152.418C323.446 152.503 323.575 152.641 323.647 152.81C323.72 152.979 323.733 153.167 323.684 153.344C323.635 153.521 323.528 153.676 323.379 153.783C323.23 153.889 323.049 153.941 322.866 153.93C322.754 153.919 322.642 153.897 322.533 153.866C322.224 153.795 321.918 153.702 321.606 153.645C320.233 153.397 318.868 153.475 317.517 153.801C316.158 154.129 314.892 154.678 313.746 155.487C312.969 156.034 312.284 156.679 311.735 157.461C311.313 158.065 310.999 158.717 310.855 159.445C310.738 160.006 310.756 160.586 310.908 161.139C311.096 161.818 311.473 162.378 311.992 162.846C312.51 163.315 313.102 163.635 313.745 163.879C314.243 164.069 314.758 164.131 315.283 164.108C316.347 164.062 317.375 163.824 318.384 163.502C319.664 163.094 320.886 162.548 322.072 161.92C323.26 161.297 324.396 160.582 325.472 159.779C327.317 158.394 328.866 156.725 330.153 154.808C331.548 152.734 332.714 150.531 333.689 148.228C333.712 148.163 333.733 148.097 333.749 148.03C333.567 148.007 333.415 148.059 333.261 148.085C332.319 148.247 331.359 148.269 330.411 148.149C328.901 147.962 327.403 147.703 325.911 147.404C324.453 147.111 322.996 146.813 321.523 146.603C319.9 146.371 318.273 146.253 316.635 146.411C315.923 146.476 315.217 146.6 314.524 146.781C312.94 147.205 311.483 147.905 310.141 148.848C308.384 150.084 306.904 151.595 305.727 153.401C304.858 154.735 304.25 156.171 304 157.75C303.849 158.721 303.841 159.708 303.976 160.681C303.993 160.805 304.022 160.928 304.045 161.051C304.121 161.447 304.005 161.773 303.689 162.02C303.572 162.11 303.45 162.192 303.323 162.267C302.776 162.594 302.266 162.98 301.804 163.419C301.001 164.186 300.385 165.076 300.045 166.145C299.756 167.04 299.721 167.998 299.942 168.913C300.14 169.747 300.523 170.494 301.048 171.167C301.821 172.154 302.794 172.892 303.906 173.449C305.856 174.425 307.929 174.773 310.089 174.635C310.894 174.583 311.692 174.45 312.471 174.236C313.697 173.9 314.843 173.393 315.877 172.645C316.782 171.99 317.538 171.197 318.073 170.205C318.135 170.083 318.204 169.965 318.28 169.851C318.356 169.737 318.445 169.634 318.545 169.541C318.746 169.366 318.987 169.303 319.245 169.387C319.361 169.432 319.469 169.496 319.565 169.576C319.844 169.791 320.109 170.025 320.393 170.234C323.004 172.155 325.945 172.924 329.15 172.748C330.912 172.646 332.639 172.223 334.25 171.501C335.21 171.058 336.114 170.502 336.942 169.844C338.292 168.78 339.39 167.507 340.178 165.973C340.9 164.56 341.27 163.062 341.192 161.46L341.193 161.461ZM335.178 173.086C335.196 173.027 335.249 172.966 335.202 172.898C335.191 172.892 335.179 172.881 335.172 172.883C335.089 172.917 335.005 172.95 334.923 172.989C334.134 173.368 333.311 173.667 332.464 173.884C332.024 173.995 331.58 174.091 331.135 174.188C330.67 174.29 330.206 174.403 329.736 174.48C328.85 174.625 327.951 174.667 327.055 174.606C326.259 174.553 325.48 174.406 324.706 174.223C323.665 173.98 322.659 173.607 321.71 173.112C320.945 172.708 320.219 172.236 319.539 171.701C319.443 171.626 319.361 171.527 319.223 171.488C319.185 171.536 319.146 171.577 319.115 171.622C318.334 172.786 317.321 173.701 316.133 174.429C314.609 175.365 312.95 175.912 311.188 176.163C309.825 176.353 308.442 176.346 307.081 176.14C306.993 176.127 306.904 176.089 306.812 176.149C306.799 176.165 306.787 176.181 306.776 176.199C305.957 177.765 305.378 179.412 305.115 181.167C304.973 182.121 304.947 183.072 305.097 184.028C305.185 184.585 305.343 185.117 305.628 185.606C305.796 185.893 305.797 186.179 305.681 186.49C305.105 188.033 304.809 189.623 304.91 191.28C304.979 192.502 305.301 193.696 305.857 194.786C306.526 196.1 307.481 197.172 308.642 198.065C309.486 198.713 310.403 199.235 311.374 199.665C313.028 200.397 314.761 200.839 316.545 201.098C317.702 201.266 318.87 201.354 320.04 201.363C320.618 201.367 321.199 201.357 321.774 201.31C322.974 201.211 324.17 201.071 325.352 200.833C325.93 200.717 326.51 200.604 327.084 200.466C327.989 200.249 328.882 199.99 329.764 199.691C331.293 199.17 332.773 198.538 334.163 197.71C335.084 197.162 335.946 196.536 336.692 195.759C337.059 195.385 337.374 194.963 337.627 194.503C337.554 194.409 337.492 194.329 337.429 194.249C336.482 193.049 335.872 191.683 335.491 190.211C335.259 189.313 335.158 188.396 335.154 187.467C335.148 186.275 335.271 185.102 335.621 183.957C335.703 183.685 335.763 183.406 335.829 183.129C335.886 182.892 335.872 182.651 335.835 182.415C335.803 182.212 335.756 182.012 335.693 181.816C335.556 181.382 335.409 180.95 335.259 180.52C334.962 179.666 334.733 178.797 334.676 177.89C334.638 177.321 334.633 176.751 334.661 176.181C334.716 175.129 334.863 174.094 335.178 173.086ZM305.031 176.04C305.079 175.941 305.12 175.839 305.171 175.723C304.84 175.604 304.528 175.5 304.224 175.378C303.919 175.257 303.614 175.125 303.319 174.98C303.014 174.829 302.714 174.665 302.42 174.492C302.138 174.325 301.867 174.139 301.603 173.969C301.574 173.974 301.545 173.982 301.518 173.993C301.451 174.037 301.385 174.081 301.322 174.129C300.801 174.527 300.386 175.024 300.037 175.578C299.365 176.642 298.962 177.854 298.863 179.11C298.807 179.772 298.844 180.432 299.011 181.08C299.102 181.457 299.251 181.818 299.452 182.15C299.611 182.415 299.821 182.645 300.07 182.827C300.619 183.218 301.215 183.225 301.826 183.018C302.364 182.836 302.803 182.496 303.21 182.108C303.336 181.993 303.412 181.833 303.422 181.663C303.51 180.697 303.693 179.743 303.969 178.814C304.247 177.862 304.602 176.935 305.031 176.041L305.031 176.04Z" fill="#E67C4F"/>
<path d="M360.732 179.002C360.791 179.48 360.745 179.873 360.587 180.245C360.521 180.402 360.435 180.55 360.331 180.684C359.821 181.34 358.929 181.401 358.326 180.831C358.036 180.556 357.856 180.217 357.762 179.835C357.603 179.191 357.643 178.57 358.011 177.997C358.136 177.792 358.313 177.623 358.523 177.508C359.021 177.249 359.509 177.279 359.964 177.61C360.36 177.897 360.573 178.306 360.69 178.771C360.715 178.872 360.727 178.974 360.732 179.002Z" fill="#E67C4F"/>
<path d="M358.881 183.939C358.971 184.325 359.033 184.721 359.074 184.936C359.151 186.02 359.12 186.917 358.867 187.794C358.708 188.347 358.488 188.869 358.125 189.32C357.604 189.967 356.934 190.37 356.116 190.501C355.46 190.606 354.852 190.466 354.309 190.069C353.907 189.776 353.598 189.399 353.341 188.978C353.023 188.459 352.806 187.897 352.646 187.311C352.509 186.804 352.426 186.284 352.4 185.76C352.367 185.143 352.388 184.527 352.574 183.932C352.631 183.747 352.706 183.569 352.799 183.401C352.99 183.064 353.273 182.885 353.675 182.958C353.943 183.006 354.211 183.056 354.479 183.103C355.331 183.25 356.174 183.251 356.992 182.926C357.16 182.859 357.32 182.769 357.484 182.692C357.617 182.63 357.75 182.562 357.905 182.573C358.158 182.592 358.362 182.69 358.494 182.92C358.672 183.239 358.802 183.582 358.881 183.939Z" fill="#E67C4F"/>
<path d="M350.139 179.495C350.305 179.787 350.411 180.11 350.451 180.443C350.483 180.89 350.431 181.337 350.217 181.754C350.033 182.113 349.765 182.384 349.376 182.505C348.866 182.664 348.414 182.539 348.024 182.179C347.748 181.926 347.576 181.606 347.478 181.25C347.355 180.821 347.345 180.367 347.45 179.933C347.532 179.587 347.716 179.275 347.978 179.037C348.201 178.831 348.489 178.709 348.792 178.692C349.094 178.675 349.394 178.763 349.639 178.943C349.843 179.089 350.013 179.277 350.139 179.495Z" fill="#E67C4F"/>
<path d="M331.597 183.586C331.676 184.189 331.127 184.658 330.572 184.488C330.474 184.458 330.382 184.412 330.299 184.353C330.024 184.158 329.714 184.052 329.388 183.988C328.729 183.86 328.079 183.905 327.437 184.095C327.163 184.173 326.908 184.306 326.687 184.486C326.6 184.559 326.504 184.619 326.4 184.664C326.242 184.731 326.066 184.745 325.9 184.702C325.734 184.66 325.586 184.565 325.478 184.43C325.252 184.15 325.228 183.775 325.435 183.477C325.522 183.357 325.624 183.25 325.739 183.158C326.094 182.87 326.502 182.658 326.941 182.533C327.94 182.236 328.95 182.192 329.966 182.446C330.41 182.557 330.828 182.731 331.202 183.002C331.362 183.118 331.492 183.257 331.556 183.45C331.574 183.503 331.588 183.558 331.597 183.586Z" fill="#E67C4F"/>
<path d="M323.192 188.586C323.301 188.705 323.369 188.855 323.389 189.015C323.408 189.175 323.377 189.337 323.3 189.478C323.225 189.605 323.132 189.72 323.024 189.82C322.725 190.108 322.372 190.312 321.993 190.473C321.513 190.68 321.004 190.812 320.484 190.864C319.943 190.937 319.394 190.926 318.857 190.829C318.441 190.763 318.041 190.621 317.676 190.409C317.548 190.336 317.43 190.246 317.325 190.142C317.201 190.015 317.123 189.848 317.105 189.671C317.087 189.493 317.129 189.315 317.226 189.165C317.32 189.014 317.461 188.899 317.627 188.837C317.793 188.775 317.975 188.77 318.145 188.822C318.221 188.844 318.294 188.877 318.361 188.92C318.766 189.19 319.225 189.265 319.693 189.272C320.264 189.282 320.824 189.202 321.355 188.969C321.574 188.871 321.781 188.757 321.956 188.591C322.073 188.481 322.199 188.386 322.358 188.344C322.686 188.256 322.967 188.334 323.192 188.586Z" fill="#E67C4F"/>
<path d="M315.989 184.374C316.06 184.979 315.504 185.441 314.951 185.264C314.854 185.231 314.763 185.185 314.679 185.126C314.423 184.946 314.136 184.844 313.834 184.779C313.165 184.635 312.502 184.683 311.848 184.866C311.56 184.94 311.294 185.08 311.07 185.275C310.936 185.401 310.765 185.478 310.582 185.497C310.26 185.529 309.998 185.414 309.822 185.141C309.638 184.858 309.64 184.561 309.813 184.27C309.914 184.101 310.066 183.978 310.221 183.862C310.531 183.631 310.878 183.454 311.247 183.339C312.286 183.017 313.341 182.961 314.402 183.236C314.778 183.328 315.136 183.482 315.461 183.692C315.566 183.76 315.664 183.838 315.755 183.923C315.881 184.043 315.964 184.202 315.989 184.374Z" fill="#E67C4F"/>
<path d="M261.259 237.099C257.979 237.025 251.53 237.323 251.039 233.134C250.879 231.776 251.532 230.494 252.634 229.619C254.576 228.071 269.582 225.392 272.865 225.007C276.148 224.622 281.898 224.234 282.39 228.423C282.921 232.951 275.1 234.27 271.6 235.255C272.461 240.146 273.535 244.897 274.099 249.708C274.651 254.406 276.49 269.11 269.415 269.94C263.246 270.664 261.927 260.891 261.442 256.759C260.685 250.307 261.563 243.605 261.259 237.099Z" fill="#F88E62"/>
<path d="M299.259 246.412C300.031 250.051 301.042 253.777 301.473 257.457C301.878 260.909 301.697 265.234 297.282 265.752C295.528 265.958 294.019 265.332 292.928 263.853C290.459 260.413 288.652 246.968 288.107 242.327C287.569 237.742 284.777 224.7 291.342 223.93C297.286 223.232 297.09 232.322 297.548 236.227L297.767 238.095L298.107 238.055C300.541 237.77 302.865 236.062 305.525 235.75C316.732 234.435 319.167 241.494 320.25 250.72C320.701 254.569 321.971 261.478 316.311 262.142C309.519 262.939 309.795 252.578 308.994 248.197C308.329 244.487 306.688 244.68 303.178 245.092C301.763 245.258 300.438 245.7 299.259 246.412Z" fill="#C5D57E"/>
<path d="M349.011 244.477C349.355 241.051 349.144 234.362 353.729 233.824C355.37 233.632 356.842 234.435 357.694 235.827C359.773 239.37 360.248 243.905 362.943 248.294C363.586 249.366 364.121 250.508 364.274 251.81C364.646 254.98 362.834 258.119 359.494 258.51C355.645 258.962 353.988 256.574 351.908 254.007C347.589 255.833 345.561 258.596 340.353 259.207C332.089 260.176 325.372 254.767 324.41 246.56C323.121 235.579 329.983 225.593 341.303 224.265C345.096 223.82 353.189 223.846 353.787 228.94C354.777 237.374 334.815 231.568 336.562 246.454C336.821 248.661 337.809 249.751 340.073 249.485C342.168 249.239 347.093 245.735 349.011 244.477Z" fill="#FBA8A8"/>
<path d="M374.675 225.514C377.012 223.92 378.075 222.705 381.075 222.353C394.376 220.793 394.781 234.516 395.957 244.535C396.315 247.591 396.068 252.326 392.105 252.791C388.709 253.189 386.429 250.874 385.612 246.839C384.385 240.786 384.425 229.879 381.538 230.217C378.991 230.516 377.198 235.776 377.457 237.984C377.796 240.87 378.877 243.727 379.216 246.614C379.641 250.236 379.576 255.064 374.822 255.622C368.369 256.379 367.899 247.483 367.388 243.124C366.996 239.785 365.588 227.785 366.554 225.262C367.081 223.88 368.333 222.815 369.861 222.636C372.295 222.35 373.287 223.955 374.675 225.514ZM340.368 325.569C336.236 326.054 331.965 325.35 328.14 323.561C321.948 320.672 320.422 314.998 319.678 308.659C318.191 295.98 324.329 288.145 337.008 286.657C361.46 283.788 363.971 322.8 340.368 325.569ZM338.752 298.101C331.451 298.958 328.823 302.479 329.673 309.724C330.337 315.384 334.079 315.978 339.06 315.394C349.701 314.145 349.96 296.786 338.752 298.101Z" fill="#F2DC65"/>
<path d="M421.68 235.549C424.05 237.165 430.901 238.828 431.24 241.715C431.519 244.092 429.967 245.537 427.759 245.796C421.533 246.526 418.062 241.884 413.378 241.573C413.344 242.265 413.374 243.008 413.454 243.687C413.666 245.498 414.325 247.2 414.531 248.955C414.796 251.219 413.154 253.362 410.89 253.628C408.739 253.88 406.869 252.608 405.85 250.776C402.553 244.679 399.591 229.706 398.768 222.687C398.197 217.82 397.185 206.749 403.977 205.952C408.618 205.408 410.335 208.305 410.813 212.38C411.484 218.097 411.702 223.867 412.09 229.617L412.436 229.633C416.341 229.175 418.928 220.896 422.607 220.464C424.645 220.225 426.831 221.747 427.084 223.898C427.622 228.483 424.461 232.354 421.68 235.549ZM415.601 303.659C415.7 305.484 414.268 306.972 412.117 307.224C409.627 307.516 407.773 305.898 407.101 304.083C405.391 299.291 404.344 293.791 404.149 288.707C404.034 285.277 404.031 274.49 409.578 273.839C411.729 273.587 413.13 274.283 413.619 276.005C416.2 284.309 415.334 295.026 415.601 303.659ZM416.683 314.837C416.759 316.951 414.468 318.941 412.09 319.22C409.939 319.472 408.092 317.91 407.999 316.142C407.924 314.028 410.221 312.094 412.655 311.809C414.863 311.55 416.584 313.012 416.683 314.837Z" fill="#C5D57E"/>
<path d="M295.535 315.566C289.733 310.623 279.588 302.403 278.645 294.365C278.306 291.479 280.262 289.069 283.148 288.73C287.79 288.186 295.846 299.635 298.555 303.161C299.947 302.309 303.168 287.701 308.772 287.044C311.036 286.778 313.356 288.457 313.622 290.721C314.007 294.004 310.764 303.049 309.438 306.418C306.549 313.585 304.266 321.025 302.506 328.519C302.149 329.881 301.793 331.243 301.26 332.567C300.59 334.195 299.401 335.31 297.646 335.516C294.59 335.875 293.399 333.547 293.093 330.943C292.708 327.661 294.618 319.001 295.535 315.566Z" fill="#FBA8A8"/>
<path d="M391.365 316.602C389.347 318.962 386.479 320.446 383.366 320.811C367.631 322.657 363.122 315.038 361.482 301.058C360.99 296.869 360.397 288.389 366.284 287.698C374.038 286.788 373.524 301.481 374.109 306.462C374.58 310.481 378.089 312.02 381.824 311.582C386.975 310.977 383.999 298.817 385.144 291.453C385.701 287.887 388.611 286.284 391.215 285.978C393.083 285.759 394.814 286.818 395.635 288.443C398.77 294.617 396.466 303.839 400.816 310.099C401.565 311.102 401.881 312.327 402.02 313.516C402.352 316.346 400.36 318.932 397.474 319.271C395.096 319.55 393.179 317.881 391.365 316.602Z" fill="#F88E62"/>
</g>
<defs>
<filter id="filter0_d_88_27975" x="-1.56179" y="-1.56165" width="685.422" height="488.7" filterUnits="userSpaceOnUse" color-interpolation-filters="sRGB">
<feFlood flood-opacity="0" result="BackgroundImageFix"/>
<feColorMatrix in="SourceAlpha" type="matrix" values="0 0 0 0 0 0 0 0 0 0 0 0 0 0 0 0 0 0 127 0" result="hardAlpha"/>
<feOffset dy="1.91799"/>
<feGaussianBlur stdDeviation="5.75398"/>
<feComposite in2="hardAlpha" operator="out"/>
<feColorMatrix type="matrix" values="0 0 0 0 0 0 0 0 0 0 0 0 0 0 0 0 0 0 0.2 0"/>
<feBlend mode="normal" in2="BackgroundImageFix" result="effect1_dropShadow_88_27975"/>
<feBlend mode="normal" in="SourceGraphic" in2="effect1_dropShadow_88_27975" result="shape"/>
</filter>
</defs>
</svg>
